ply
format ascii 1.0
comment VCGLIB generated
element vertex 364
property double x
property double y
property double z
property uchar red
property uchar green
property uchar blue
property uchar alpha
property double quality
element face 724
property list uchar int vertex_indices
end_header
163.9155761098135 191.1912687033702 939.2387807524705 255 255 255 255 0 
163.8045779436603 191.26060101725 939.2406296823571 255 255 255 255 0 
163.8030806569962 191.1435396712966 939.1884634734125 255 255 255 255 0 
163.0250207662403 190.8316493886421 936.1876441992063 255 255 255 255 0 
163.1240275931284 190.8312951297819 936.1767675254389 255 255 255 255 0 
163.0546039453127 190.6757728796018 936.2078305914815 255 255 255 255 0 
163.5733615729337 190.7809967120091 938.5812025695938 255 255 255 255 0 
163.4444532614441 190.6974374728943 938.3620675481259 255 255 255 255 0 
163.8578473455726 190.7110108471208 938.190690303501 255 255 255 255 0 
162.9357282007627 191.0230782267921 936.2535773619145 255 255 255 255 0 
163.0814320077398 191.0358937464345 936.2213216367793 255 255 255 255 0 
162.9706875753107 190.9658040658445 936.2191928273271 255 255 255 255 0 
163.235989979089 190.899926578636 936.1938782494713 255 255 255 255 0 
163.0824320155939 190.8992001680761 936.1829311406372 255 255 255 255 0 
163.8907921866426 191.8403786221107 939.0102058458865 255 255 255 255 0 
164.024257321272 191.8356914903441 939.0204188873271 255 255 255 255 0 
163.9582019806205 191.8848011783231 938.9134065620973 255 255 255 255 0 
162.6700786661333 190.7110925397725 936.4893834515411 255 255 255 255 0 
162.7248072620677 190.5691273056364 936.510310538065 255 255 255 255 0 
162.6486745342737 190.6926142134738 936.5742873098353 255 255 255 255 0 
163.6951273172921 191.5711858513417 939.1730000537041 255 255 255 255 0 
163.6048120401025 191.4767562665114 939.1316554282713 255 255 255 255 0 
163.6905625940196 191.3950014966603 939.2073773838076 255 255 255 255 0 
163.2775822736494 190.6975894413642 936.2194278277215 255 255 255 255 0 
163.3550230024452 190.593734198128 936.2997450546158 255 255 255 255 0 
163.2446591767764 190.5235604404494 936.2991913304952 255 255 255 255 0 
164.4590790123039 191.3122403027982 938.788016818976 255 255 255 255 0 
164.4467762434737 191.2958127241777 938.6774508165796 255 255 255 255 0 
164.4616699313225 191.3730506026366 938.7131587361648 255 255 255 255 0 
163.5510070099645 191.2149664614544 936.8713487159011 255 255 255 255 0 
163.5838913143355 191.0490489151513 936.6862928519218 255 255 255 255 0 
163.5045227035636 191.1845653300653 936.6585363150846 255 255 255 255 0 
163.5632186803059 191.0533824443009 936.5540856654545 255 255 255 255 0 
162.6932612714223 190.7967193589402 936.4195136721446 255 255 255 255 0 
162.7121555099761 190.6742584694884 936.4313667619792 255 255 255 255 0 
162.6195889353441 190.7619933517474 936.6855661131337 255 255 255 255 0 
162.6533081675515 190.6494108798899 936.752687265942 255 255 255 255 0 
162.6396462668955 190.7497631003888 936.8200468135974 255 255 255 255 0 
163.4100828400351 190.7218824981531 936.2798321094799 255 255 255 255 0 
162.8370392865786 190.5026864269292 936.4242058429498 255 255 255 255 0 
162.7848194518213 190.5758144820036 936.4071397890162 255 255 255 255 0 
163.3373144096995 191.5066908696631 937.6148406004162 255 255 255 255 0 
163.0721694460477 191.3600600934435 937.891936427117 255 255 255 255 0 
163.4425522094684 191.5794331988189 937.8760324816143 255 255 255 255 0 
163.9162188975063 191.3276022582682 939.2770396795652 255 255 255 255 0 
163.9585743146451 191.2590321181258 939.2647486921331 255 255 255 255 0 
162.7535586960909 191.1088291949053 936.4766237651284 255 255 255 255 0 
162.8321163406147 191.1692381625953 936.4426517993617 255 255 255 255 0 
162.8630385437822 191.1194600178739 936.3564635907061 255 255 255 255 0 
162.6331560249486 190.8312653442377 936.5503999877092 255 255 255 255 0 
163.1548842540285 191.0218211083023 938.3979971954941 255 255 255 255 0 
163.1564493722863 191.0869281722099 938.3740854796754 255 255 255 255 0 
163.0243206277015 190.9372108436595 938.1149688329104 255 255 255 255 0 
163.3250162864393 190.8310290341502 938.3768222470609 255 255 255 255 0 
163.2505899609728 190.4313351595858 937.1166223594917 255 255 255 255 0 
163.127491370375 190.3420645592459 936.8240700739872 255 255 255 255 0 
163.2587457625787 190.3656593961325 936.8399276920875 255 255 255 255 0 
163.0859151659939 190.4506748693494 937.3625260982382 255 255 255 255 0 
163.1384818649194 190.4868912872282 937.575877035896 255 255 255 255 0 
163.0157219437122 190.5465189511538 937.4220932416206 255 255 255 255 0 
164.0903754839946 190.9556126137921 938.9948147377539 255 255 255 255 0 
164.1090990805642 191.0374752662784 939.103670142879 255 255 255 255 0 
163.957683393903 190.9617721595698 939.041680891121 255 255 255 255 0 
162.8750081064192 191.2288748097026 937.450628170355 255 255 255 255 0 
162.8441133083861 190.9392127639464 937.5319582349392 255 255 255 255 0 
162.9562589911769 191.2859837244343 937.6948308039498 255 255 255 255 0 
163.2895889068992 190.4655170293029 937.3289894645545 255 255 255 255 0 
163.719422984627 191.0093570935338 939.0057016406041 255 255 255 255 0 
163.6964539935321 191.1082924989396 939.1037039741149 255 255 255 255 0 
163.6076110394033 191.0956599273993 938.990719008353 255 255 255 255 0 
163.1654177600306 191.0356161080813 936.2210746035462 255 255 255 255 0 
163.2631629653511 190.8313696098563 936.1961460357095 255 255 255 255 0 
163.2771413990137 190.9670420079806 936.2194861037045 255 255 255 255 0 
163.2810507253946 191.0867787585379 936.2739790642931 255 255 255 255 0 
162.6515187082649 191.0086765562333 936.6188450161136 255 255 255 255 0 
162.6907159593588 191.0995967552954 936.6858902305495 255 255 255 255 0 
162.7201182512082 191.1226720523775 936.5777104927848 255 255 255 255 0 
163.3202965879837 190.3782679815573 936.5638749201761 255 255 255 255 0 
163.2596789317681 190.3417591527887 936.6784303072398 255 255 255 255 0 
163.1913661255667 190.3398276314797 936.5738858405155 255 255 255 255 0 
163.6530595438236 191.7177369622159 939.0203768194314 255 255 255 255 0 
163.5999992431025 191.7244054308451 938.9245294758418 255 255 255 255 0 
163.5717756606151 191.6259067247693 939.0124313082855 255 255 255 255 0 
163.1657103742423 190.7635849720912 936.1831083619533 255 255 255 255 0 
163.5209336425961 190.8733509297631 936.3696786785817 255 255 255 255 0 
163.4817514414244 190.8312863248542 936.3236090967013 255 255 255 255 0 
163.4665447511375 190.9182205920995 936.3204297394529 255 255 255 255 0 
164.0152232941237 190.8186834356724 938.4641855468112 255 255 255 255 0 
164.0231718983351 190.9155166424765 938.2168267222604 255 255 255 255 0 
164.3280655644062 191.2935459069096 939.1069960634696 255 255 255 255 0 
164.3696709811301 191.237070485288 939.0287677723095 255 255 255 255 0 
164.3951269347905 191.3895771921577 939.0338307893464 255 255 255 255 0 
164.3121224586814 191.1965418204675 939.080143914437 255 255 255 255 0 
164.3422957704339 191.1591052042055 939.0097806178701 255 255 255 255 0 
163.5098784474307 190.6004659002881 936.4476165327912 255 255 255 255 0 
163.4817247505082 190.5023007822546 936.5354181172345 255 255 255 255 0 
163.4112101215999 190.5026172952286 936.4245410495042 255 255 255 255 0 
163.387429211677 191.0080586603439 936.2873442722176 255 255 255 255 0 
163.3852872955827 191.1193131710721 936.3565723071589 255 255 255 255 0 
164.2774379884363 191.7090067572291 939.0127728000485 255 255 255 255 0 
164.3058302451502 191.7372432639159 938.9156093563921 255 255 255 255 0 
164.2115265350728 191.8079063226084 938.9304347776773 255 255 255 255 0 
162.9479214574411 191.2307204906695 936.4226667175701 255 255 255 255 0 
162.9900480305581 191.2970909903984 936.5284962711695 255 255 255 255 0 
163.0755339152329 191.2431457139633 936.3917456246211 255 255 255 255 0 
162.7616765536883 191.1898627754032 936.6859732734126 255 255 255 255 0 
162.9203642643114 191.2969194114863 936.7272898215721 255 255 255 255 0 
162.8583004552504 191.2614451165951 936.6314851154111 255 255 255 255 0 
164.2473362673636 191.0617585725059 939.0268092029453 255 255 255 255 0 
164.2189663119664 191.10777433926 939.1037258660203 255 255 255 255 0 
163.9573413173833 191.5307680005486 939.2648030478259 255 255 255 255 0 
164.0602868587043 191.5608798963243 939.2428253129158 255 255 255 255 0 
164.0372750990841 191.6592316627043 939.2020535429854 255 255 255 255 0 
163.2747305406123 191.1897512432088 936.3563964741112 255 255 255 255 0 
163.165114075434 191.1481593671373 936.2889003363706 255 255 255 255 0 
163.1652083655766 191.2309681583241 936.3722091839395 255 255 255 255 0 
162.8556432594101 190.8319689799332 936.2532192541057 255 255 255 255 0 
162.9189297781994 190.8325482762147 936.2198802544549 255 255 255 255 0 
162.9025804816564 190.6995451374699 936.2469577222581 255 255 255 255 0 
162.9805615745406 190.7642054405945 936.2034512316477 255 255 255 255 0 
164.4237580415777 191.1890931540534 938.7738853288131 255 255 255 255 0 
164.4370790421869 191.2912840025926 938.9081148611368 255 255 255 255 0 
164.397145463455 191.1735644033991 938.9060788130281 255 255 255 255 0 
164.3471803220785 191.0719639563073 938.825362278904 255 255 255 255 0 
163.0826727233174 190.515557412543 936.2891757337077 255 255 255 255 0 
163.1658714907844 190.628081016459 936.2212446430102 255 255 255 255 0 
163.7225498007894 190.8193425915173 937.0555339982583 255 255 255 255 0 
163.6410574485766 190.7670258871262 936.6973232061797 255 255 255 255 0 
163.6454150297734 190.9017223324147 936.8670589831767 255 255 255 255 0 
162.8329091650334 190.9398674347432 936.2823247959576 255 255 255 255 0 
162.8931939783157 190.8918335442078 937.7382984614278 255 255 255 255 0 
163.5980137662015 191.2050991082658 939.0800550981268 255 255 255 255 0 
163.5034949326769 191.2638650615114 938.9883239376511 255 255 255 255 0 
163.3790245445444 190.4204224613168 936.528248233724 255 255 255 255 0 
163.388689265722 190.404192270325 936.6070393255399 255 255 255 255 0 
163.7848726025354 191.7968996295453 939.0338430998063 255 255 255 255 0 
163.8017920007084 191.8570991506345 938.9164240495852 255 255 255 255 0 
163.5532944229593 190.5055202796038 937.4188661456152 255 255 255 255 0 
163.4706467792031 190.4510505161581 937.1024722868038 255 255 255 255 0 
162.9899035204302 190.3478519666489 936.6026867230014 255 255 255 255 0 
162.9205799618234 190.3670337651298 936.7280737111078 255 255 255 255 0 
162.8598558049156 190.4039522158128 936.6063656379733 255 255 255 255 0 
162.6613765052619 190.8762282233166 936.4786036627064 255 255 255 255 0 
162.8079497476938 190.4348244752378 936.7273014680006 255 255 255 255 0 
162.6940956766067 191.0225827383815 936.4905638892628 255 255 255 255 0 
162.639519219295 190.9147854883266 936.8192128762278 255 255 255 255 0 
162.6939664285133 190.7145388277864 937.0015330957037 255 255 255 255 0 
162.6700486965975 190.9532758635486 936.8823514950383 255 255 255 255 0 
163.0499172795985 190.7429614717798 937.8654340287173 255 255 255 255 0 
162.9468766366668 190.8810990656072 937.918459921407 255 255 255 255 0 
163.3917700408956 190.8326374341445 936.2528467036344 255 255 255 255 0 
164.0250644108346 191.8980713049044 938.8156838028856 255 255 255 255 0 
164.1612125923972 191.8600864315129 938.8156488723732 255 255 255 255 0 
164.0920035666773 191.8793216669344 938.6914272440218 255 255 255 255 0 
163.7963584821186 191.3651234621962 939.2542191462425 255 255 255 255 0 
163.0136922613025 191.3122028751492 937.8842476670529 255 255 255 255 0 
163.5930845841648 190.6551696763767 938.1218400194145 255 255 255 255 0 
163.3001705810121 191.23130493972 936.4236124955103 255 255 255 255 0 
163.3631948705658 191.2175740229462 936.4548462689196 255 255 255 255 0 
163.0564038787046 190.3289739195286 936.6443274884787 255 255 255 255 0 
163.0571892130659 190.3612813092111 936.5035111913179 255 255 255 255 0 
162.850850403856 190.7981277040691 937.5989619900382 255 255 255 255 0 
162.9804645585828 190.6307492764148 937.5292438380651 255 255 255 255 0 
162.930910064398 190.8101932416401 937.7658872863572 255 255 255 255 0 
163.6792829619578 191.795664833934 938.9151690816046 255 255 255 255 0 
162.9897350520224 191.3163033150511 936.6039254578899 255 255 255 255 0 
163.0786115884983 191.3356403083804 936.6258175554254 255 255 255 255 0 
162.8242958415849 191.0481975059814 936.3356222078835 255 255 255 255 0 
162.737387118883 190.9521147180656 936.377094707057 255 255 255 255 0 
162.9734723840251 190.4745554612798 936.3559853535749 255 255 255 255 0 
162.9286789149666 190.4024489551883 936.4945186762695 255 255 255 255 0 
162.7660709267391 190.8325442124516 936.3237631359223 255 255 255 255 0 
164.4624050202657 191.4482587584164 938.7980865558727 255 255 255 255 0 
164.4507529989016 191.3979298952001 938.8992769117531 255 255 255 255 0 
162.6396944248263 190.9150723422629 936.552264964185 255 255 255 255 0 
164.1883476627411 191.843642810548 938.715439228124 255 255 255 255 0 
164.2718203310571 191.7938925238312 938.8112712453976 255 255 255 255 0 
164.3157276829411 191.7480274530392 938.6919223470284 255 255 255 255 0 
163.1656768326883 190.432840558371 936.3725165294913 255 255 255 255 0 
163.0033033941627 191.1411870678458 936.2997634157321 255 255 255 255 0 
162.8631502299112 190.5444782650865 936.3564412148096 255 255 255 255 0 
162.9668324350098 190.577635358483 936.273770398437 255 255 255 255 0 
163.9188486160639 190.9479607863182 937.6905171424931 255 255 255 255 0 
163.9476368173829 190.9324465784267 937.8676233610997 255 255 255 255 0 
163.8435133874642 190.7787742442791 937.9103162944166 255 255 255 255 0 
163.1487681942773 191.4126593281939 938.175449752136 255 255 255 255 0 
164.174740888935 191.3951074942504 939.2340579232228 255 255 255 255 0 
164.2518719770427 191.4440318909147 939.1853272878575 255 255 255 255 0 
164.1787335466423 191.5270351894483 939.2135203730678 255 255 255 255 0 
164.2490225982286 191.2868170279881 939.1776606240827 255 255 255 255 0 
164.0918759642514 191.8618531378774 938.9271071873933 255 255 255 255 0 
164.1575731213606 191.7887812361429 939.02555012319 255 255 255 255 0 
163.5375649095572 190.988241816276 936.4336179705266 255 255 255 255 0 
163.5890703425956 190.8737875111955 936.4827695553385 255 255 255 255 0 
163.6159712684141 190.9443747432375 936.6177676849633 255 255 255 255 0 
164.0398564315366 191.7524709476216 939.1273535758196 255 255 255 255 0 
164.1927804708697 191.674124200554 939.1264833850023 255 255 255 255 0 
163.5703667196377 191.665687348001 938.1207868264213 255 255 255 255 0 
163.7898156923319 191.5441427853033 938.0097743312116 255 255 255 255 0 
163.0613230073741 191.3371321673737 937.2488784977022 255 255 255 255 0 
163.1300112047425 191.3795340832962 937.3656107085488 255 255 255 255 0 
163.2282763740778 191.4352867522383 937.2799343337949 255 255 255 255 0 
164.1552852650873 190.9415030389199 938.8954043035266 255 255 255 255 0 
164.1826295595651 190.9333158175571 938.7368597518134 255 255 255 255 0 
164.2652943776166 191.0009312509011 938.863187700431 255 255 255 255 0 
162.8246645448272 190.6150743442357 936.3357450533414 255 255 255 255 0 
163.0564929730073 190.3397909901319 936.7978677611171 255 255 255 255 0 
164.0922620940897 191.5802124598682 938.2264523753022 255 255 255 255 0 
163.9413206568027 191.4778108765213 937.96896374912 255 255 255 255 0 
162.7705431880098 190.7500526725025 936.3286570626781 255 255 255 255 0 
162.7954717782838 190.7876069669164 937.431359450429 255 255 255 255 0 
162.8466371846777 190.8205019497848 937.6239741576077 255 255 255 255 0 
164.1319807292638 191.6206925581064 939.1946186850799 255 255 255 255 0 
163.29633660405 191.1259475462118 938.6496826398353 255 255 255 255 0 
163.5699516480129 191.4658292250847 937.7066911761273 255 255 255 255 0 
163.274732564073 190.4738849738273 936.3568315630814 255 255 255 255 0 
163.2221666807637 190.3920228544233 936.4516643057195 255 255 255 255 0 
162.8695283027203 191.2440578266699 936.5285338453388 255 255 255 255 0 
163.5773984785898 190.7102040364444 936.4887394801101 255 255 255 255 0 
163.5103179740541 190.7112712570603 936.3769240494828 255 255 255 255 0 
163.3439774958377 191.5457145254561 938.5316947689014 255 255 255 255 0 
163.7045065712034 191.7567364418638 938.3498980169073 255 255 255 255 0 
163.485856855055 191.6216335849501 938.250806195761 255 255 255 255 0 
163.0821559594158 190.4326765721185 936.3727701410062 255 255 255 255 0 
162.7814560354466 191.1692785052388 937.0725364394407 255 255 255 255 0 
162.6531386683882 191.0141013975671 936.7528109403306 255 255 255 255 0 
162.8163576566595 190.4622384310859 936.5225115407549 255 255 255 255 0 
163.4237349899529 190.6159501594916 936.335569674312 255 255 255 255 0 
164.1954457373524 191.0076728685746 939.003792513569 255 255 255 255 0 
164.025655369216 190.9008647935813 938.873354007359 255 255 255 255 0 
163.6321253102932 191.3062999759518 939.152885734737 255 255 255 255 0 
163.6952015971011 191.2187479830035 939.1730201992185 255 255 255 255 0 
163.6254366478874 191.5968201651262 939.1002830186774 255 255 255 255 0 
163.6971181926584 191.6822702055031 939.1037460123416 255 255 255 255 0 
163.473953859442 191.1318885415756 936.4694047949197 255 255 255 255 0 
163.3865143578276 191.2435825925254 936.5452467786099 255 255 255 255 0 
163.8000370252657 191.6492577127313 939.1859700424097 255 255 255 255 0 
163.1905597233735 191.272715188629 936.4396871876801 255 255 255 255 0 
162.7668180362504 191.1621197859969 936.5351213096533 255 255 255 255 0 
163.1234638194279 191.2981317938748 936.4809585232883 255 255 255 255 0 
163.5914024675477 191.3673778225297 937.4632020822211 255 255 255 255 0 
163.4775171719066 191.4399117443614 937.5596686780071 255 255 255 255 0 
163.3230346739477 190.4375640979493 936.4350118598094 255 255 255 255 0 
162.7204923242853 190.5243161394679 936.6494603523654 255 255 255 255 0 
163.258811968489 191.2985193942937 936.5326236997563 255 255 255 255 0 
163.9995245101232 191.1909325702704 939.2387024429541 255 255 255 255 0 
163.9066675729329 191.0925230627522 939.1792998173811 255 255 255 255 0 
163.0680250212177 191.3506023946426 937.6528073267277 255 255 255 255 0 
162.7452041887497 190.7538526462156 937.2351039442905 255 255 255 255 0 
162.9328448840762 190.5873564849189 937.3158671040032 255 255 255 255 0 
163.957779351424 190.9092676568937 938.9247162130393 255 255 255 255 0 
163.7387828742296 190.8957292571373 938.8594308886177 255 255 255 255 0 
164.3912123138236 191.6626391361884 938.7731038837633 255 255 255 255 0 
163.671783862695 190.5859105322661 937.7950825767975 255 255 255 255 0 
163.6842710696334 190.6545376236998 937.5636595170967 255 255 255 255 0 
162.7207813086633 190.5381031450893 936.7849631136686 255 255 255 255 0 
163.8085628661522 191.035696321869 939.1022635299897 255 255 255 255 0 
163.1516129388718 191.3831754059914 936.9589205146697 255 255 255 255 0 
163.4840741532089 191.0214450899887 936.3797301670818 255 255 255 255 0 
164.26723562501 191.00867190685 938.653783198315 255 255 255 255 0 
164.3085603651787 191.0956623233142 938.5575567059349 255 255 255 255 0 
163.5545140559524 190.7905131922751 936.4200751813034 255 255 255 255 0 
163.19109609237 191.3241882431846 936.5738459365086 255 255 255 255 0 
163.5313757206251 191.4810386315569 939.0375956021621 255 255 255 255 0 
163.4862369059877 190.4740619670285 936.6855763305671 255 255 255 255 0 
163.7985051602105 191.3758850207624 937.676100778214 255 255 255 255 0 
163.990212838794 191.3336526495738 937.986165322151 255 255 255 255 0 
164.3875218464646 191.6273870023795 938.6332280630924 255 255 255 255 0 
163.8048982332058 191.5292344451641 939.2407716096985 255 255 255 255 0 
164.0118162878804 191.864890146191 938.5872477288079 255 255 255 255 0 
164.0947997678151 191.8303683230105 938.5489767684512 255 255 255 255 0 
163.8524653663194 191.4524959457278 939.2680585760389 255 255 255 255 0 
163.564472160391 190.5852514838684 936.6193432920129 255 255 255 255 0 
163.3045618945938 190.5981457953379 938.0463196984689 255 255 255 255 0 
163.2258097967889 190.5509905616117 937.8511059186742 255 255 255 255 0 
162.9813562468861 190.3860722905583 936.936431218013 255 255 255 255 0 
162.8175929657848 190.4718535127581 936.8750788000121 255 255 255 255 0 
163.9995344946251 191.0788618574695 939.1710726353846 255 255 255 255 0 
163.9092459384601 191.0038074623149 939.0952345382069 255 255 255 255 0 
162.6195838410214 190.902048271759 936.6860840288006 255 255 255 255 0 
163.5605857859409 191.3540603039499 939.0897885155608 255 255 255 255 0 
163.8207738484019 190.9517429896322 938.9895020233655 255 255 255 255 0 
163.1915755781426 190.328975960839 936.7277413482311 255 255 255 255 0 
163.522329173676 191.6034724312443 938.9317740874235 255 255 255 255 0 
162.6834161821671 190.5856567704966 936.6187201251496 255 255 255 255 0 
163.6938895651202 191.8230780379701 938.6944301839692 255 255 255 255 0 
163.6365830427874 191.7876413017084 938.8104078930664 255 255 255 255 0 
163.7299083117998 191.8470791981511 938.8083269238401 255 255 255 255 0 
163.3972222587213 190.4029982205972 936.7657934427665 255 255 255 255 0 
163.4818393154957 191.4878392892376 938.9248864046003 255 255 255 255 0 
164.1888946152748 191.1567710330158 939.1603446070541 255 255 255 255 0 
164.0963496836112 191.1121004675436 939.1726940064547 255 255 255 255 0 
164.1831566276074 191.1280107046859 938.2040656086903 255 255 255 255 0 
163.0313647810765 190.4155395586549 937.1499671443416 255 255 255 255 0 
163.7152966681598 191.3019308271327 937.4472159046231 255 255 255 255 0 
163.7021500243574 191.3191441518739 937.4350234861622 255 255 255 255 0 
163.5489038872241 191.2929315191586 937.1715318155401 255 255 255 255 0 
163.6366361154467 191.270371163991 937.2134447850674 255 255 255 255 0 
163.6799230138568 191.1613229700251 937.2465550497282 255 255 255 255 0 
163.6124169744952 190.8005576954996 936.5510441383743 255 255 255 255 0 
163.5918874186394 190.6710520103928 936.5699429384221 255 255 255 255 0 
162.8963692360825 190.8506499116321 937.77135522584 255 255 255 255 0 
163.3341566061281 191.5231009911409 938.0846109741112 255 255 255 255 0 
163.6214252461869 190.6252183054673 937.9860618619416 255 255 255 255 0 
163.4952855835379 190.594190543996 937.9291097467395 255 255 255 255 0 
164.2741155033958 190.9978417903112 938.7334169467664 255 255 255 255 0 
163.2457161273144 191.4820008564387 938.3523067010709 255 255 255 255 0 
164.3925068240568 191.6253799889151 938.9033100489595 255 255 255 255 0 
163.5788826708338 190.6365975023358 936.9214417600698 255 255 255 255 0 
163.6632123667751 190.6905423563711 937.2723582695327 255 255 255 255 0 
163.8193294130011 191.8780726864426 938.6944604987382 255 255 255 255 0 
164.1728444403271 191.2627818383098 939.2159089956726 255 255 255 255 0 
163.8074794940892 190.9133096833139 937.3958763541278 255 255 255 255 0 
164.3618477456946 191.1041357960875 938.6661854466394 255 255 255 255 0 
163.8739323615439 191.8727370298041 938.6189768803808 255 255 255 255 0 
164.0097703414502 191.8097473089013 938.485810454691 255 255 255 255 0 
163.7613038555396 190.6465011229292 937.9961670999163 255 255 255 255 0 
164.3235200564186 191.4033307828406 938.4206718617179 255 255 255 255 0 
164.31193720161 191.2198178628843 938.4088752491243 255 255 255 255 0 
163.3274781560685 191.2969792639745 936.6444059583569 255 255 255 255 0 
164.3156582662347 191.0654373945986 938.9250259155131 255 255 255 255 0 
164.2794425665202 191.645082000953 939.0776304330385 255 255 255 255 0 
163.9160351788471 191.7110470866284 939.1710778871742 255 255 255 255 0 
163.9024791655173 191.6321891775361 939.2191460864354 255 255 255 255 0 
164.3002424150839 191.5618521486011 938.4375890460303 255 255 255 255 0 
164.1975504087497 191.65194128406 938.3933836978425 255 255 255 255 0 
164.3065855013309 191.6917869742687 938.5519826050893 255 255 255 255 0 
164.3875922890412 191.204157180099 938.5781467309362 255 255 255 255 0 
163.9593276170337 190.8931777320431 938.0439228460666 255 255 255 255 0 
163.8902941268118 191.8967731149087 938.8239466719459 255 255 255 255 0 
163.9576831462921 191.8994218106489 938.7040480786992 255 255 255 255 0 
163.8263566017593 190.8872955439712 937.4287415209458 255 255 255 255 0 
163.7995552913235 190.8422522688134 937.45635324189 255 255 255 255 0 
164.2129262964788 191.8065527148065 938.6160495860403 255 255 255 255 0 
164.1743706698124 191.7454821685008 938.474521912657 255 255 255 255 0 
163.9470847832065 190.819746213178 938.5119285117009 255 255 255 255 0 
163.8041958210535 191.7485838638708 939.1061462260217 255 255 255 255 0 
163.9166930144581 191.7943669002194 939.0872725305543 255 255 255 255 0 
164.0791490738779 191.1985933444368 939.2279579746078 255 255 255 255 0 
164.4055448510308 191.3370429675077 938.541545644649 255 255 255 255 0 
164.0700480131377 191.3274700898247 939.2661680805978 255 255 255 255 0 
163.9646231604007 191.4064812485885 939.2822365735152 255 255 255 255 0 
164.4123156522403 191.5130846782967 938.9708655878076 255 255 255 255 0 
164.3579843682575 191.5860515594376 939.0215807047275 255 255 255 255 0 
164.350966217825 191.4941659946342 939.0800647529641 255 255 255 255 0 
163.5057717304339 190.987118294681 938.7290146241849 255 255 255 255 0 
164.0702780764616 191.4624692344436 939.2661214547647 255 255 255 255 0 
164.4442900585456 191.5421946441056 938.760818158803 255 255 255 255 0 
164.4414221476161 191.5213586471076 938.8644128612441 255 255 255 255 0 
164.3861094254527 191.47499101369 938.5100973787053 255 255 255 255 0 
164.445683233274 191.4356211541243 938.6392066003772 255 255 255 255 0 
163.4510840624951 191.5944844610108 938.1177842761026 255 255 255 255 0 
164.3574933552593 191.5882521982358 938.52735238179 255 255 255 255 0 
163.4718895818606 191.6348560701344 938.7377076359038 255 255 255 255 0 
164.4160424559508 191.5274088847115 938.5982027553333 255 255 255 255 0 
164.316275164341 191.39533410656 939.1358930404098 255 255 255 255 0 
163.4930481578319 191.4113976613678 938.9775657738883 255 255 255 255 0 
163.3877328633774 191.1881434556012 938.8046069204761 255 255 255 255 0 
163.1901653675942 191.4179753034903 937.4907090028639 255 255 255 255 0 
163.768843071578 190.8473137552581 937.242498757248 255 255 255 255 0 
164.2825587688235 191.5574327416466 939.1301883153347 255 255 255 255 0 
163.7079345725728 190.7212953497591 937.4260457168627 255 255 255 255 0 
163.7540143063821 190.8029643081723 937.3559379156369 255 255 255 255 0 
164.051789340441 191.0380674070812 937.9736810126335 255 255 255 255 0 
3 0 1 2 
3 3 4 5 
3 6 7 8 
3 9 10 11 
3 12 4 13 
3 14 15 16 
3 17 18 19 
3 20 21 22 
3 23 24 25 
3 26 27 28 
3 29 30 31 
3 32 31 30 
3 33 34 17 
3 35 36 37 
3 23 38 24 
3 39 18 40 
3 41 42 43 
3 44 1 45 
3 46 47 48 
3 17 49 33 
3 49 17 19 
3 50 51 52 
3 52 53 50 
3 54 55 56 
3 57 58 59 
3 60 61 62 
3 63 64 65 
3 66 57 54 
3 67 68 69 
3 13 70 12 
3 12 71 4 
3 12 70 72 
3 73 72 70 
3 74 75 76 
3 77 78 79 
3 80 81 82 
3 23 83 71 
3 84 85 86 
3 87 8 88 
3 89 90 91 
3 90 92 93 
3 94 95 96 
3 97 73 98 
3 4 3 13 
3 99 100 101 
3 102 103 104 
3 105 106 107 
3 108 92 109 
3 110 111 112 
3 113 114 115 
3 116 117 118 
3 119 118 117 
3 120 121 122 
3 122 123 120 
3 3 11 13 
3 124 5 125 
3 122 121 90 
3 126 127 128 
3 129 117 116 
3 72 73 97 
3 65 64 130 
3 131 132 69 
3 133 95 134 
3 135 14 136 
3 3 117 11 
3 83 4 71 
3 137 66 138 
3 139 140 141 
3 33 49 142 
3 141 140 143 
3 144 74 76 
3 145 146 147 
3 145 37 146 
3 13 11 10 
3 148 52 149 
3 97 150 72 
3 151 152 153 
3 1 44 154 
3 130 149 155 
3 114 113 73 
3 7 156 8 
3 11 117 129 
3 157 158 98 
3 11 129 9 
3 70 13 10 
3 159 139 160 
3 161 162 163 
3 164 81 80 
3 103 165 166 
3 10 114 70 
3 73 70 114 
3 129 167 9 
3 48 9 167 
3 168 167 129 
3 104 115 114 
3 169 170 39 
3 116 171 129 
3 129 171 168 
3 26 172 173 
3 3 119 117 
3 142 49 174 
3 175 176 177 
3 25 178 124 
3 160 139 170 
3 48 102 179 
3 169 180 181 
3 5 118 119 
3 182 183 184 
3 5 119 3 
3 185 42 155 
3 52 185 155 
3 9 179 10 
3 186 187 188 
3 186 189 187 
3 190 15 191 
3 85 38 150 
3 192 32 193 
3 32 194 193 
3 195 196 191 
3 43 197 198 
3 199 200 201 
3 202 203 204 
3 149 163 148 
3 205 181 180 
3 206 140 159 
3 150 38 23 
3 23 71 150 
3 198 207 208 
3 28 172 26 
3 118 5 181 
3 209 171 116 
3 5 4 83 
3 150 86 85 
3 34 209 205 
3 180 40 205 
3 181 205 118 
3 64 210 211 
3 195 112 212 
3 196 195 212 
3 144 142 174 
3 50 213 51 
3 50 53 213 
3 48 47 102 
3 124 181 5 
3 116 118 209 
3 43 198 214 
3 35 19 36 
3 118 205 209 
3 124 125 25 
3 215 178 25 
3 215 216 178 
3 165 217 107 
3 218 94 219 
3 220 221 222 
3 181 124 169 
3 223 169 124 
3 71 72 150 
3 147 224 225 
3 170 141 226 
3 225 75 74 
3 38 219 227 
3 228 202 204 
3 60 229 202 
3 125 5 83 
3 24 215 25 
3 72 71 12 
3 22 230 231 
3 83 23 125 
3 139 141 170 
3 179 9 48 
3 232 20 233 
3 142 144 168 
3 168 144 46 
3 10 179 114 
3 98 158 234 
3 234 158 235 
3 179 104 114 
3 144 174 74 
3 233 20 236 
3 77 134 78 
3 45 1 0 
3 139 159 140 
3 73 113 98 
3 179 102 104 
3 115 104 237 
3 23 25 125 
3 46 238 47 
3 171 33 168 
3 209 33 171 
3 168 46 167 
3 113 157 98 
3 168 33 142 
3 39 180 169 
3 33 209 34 
3 39 40 180 
3 223 170 169 
3 34 205 40 
3 160 170 223 
3 170 226 39 
3 104 239 237 
3 214 240 241 
3 216 242 77 
3 48 167 46 
3 17 34 18 
3 216 77 79 
3 243 141 143 
3 103 239 104 
3 237 244 157 
3 157 115 237 
3 245 0 246 
3 155 149 52 
3 217 165 103 
3 238 76 105 
3 217 238 107 
3 247 42 41 
3 210 248 249 
3 229 250 251 
3 177 176 252 
3 144 76 46 
3 47 238 217 
3 184 253 254 
3 255 243 143 
3 243 18 226 
3 232 80 82 
3 246 2 256 
3 256 2 68 
3 166 165 106 
3 257 166 106 
3 173 91 121 
3 97 258 86 
3 98 258 97 
3 58 66 137 
3 259 87 260 
3 45 0 245 
3 47 217 102 
3 217 103 102 
3 76 238 46 
3 192 258 234 
3 97 86 150 
3 103 166 239 
3 84 261 85 
3 166 262 239 
3 263 232 82 
3 113 115 157 
3 262 244 237 
3 237 239 262 
3 232 233 80 
3 95 264 134 
3 265 266 182 
3 234 258 98 
3 235 158 244 
3 157 244 158 
3 133 134 77 
3 177 252 267 
3 236 20 268 
3 269 153 270 
3 39 226 18 
3 106 165 107 
3 232 21 20 
3 271 154 44 
3 40 18 34 
3 95 272 264 
3 273 148 274 
3 262 166 257 
3 136 14 16 
3 140 275 276 
3 36 146 37 
3 62 277 278 
3 174 49 279 
3 74 174 279 
3 74 279 225 
3 219 85 261 
3 160 223 178 
3 160 178 216 
3 141 243 226 
3 275 206 55 
3 231 131 68 
3 247 63 65 
3 19 35 49 
3 279 49 35 
3 58 137 274 
3 256 278 246 
3 84 86 258 
3 65 130 155 
3 147 225 145 
3 227 96 24 
3 76 75 105 
3 276 255 143 
3 143 140 276 
3 105 107 238 
3 21 263 280 
3 277 245 246 
3 2 246 0 
3 281 256 67 
3 246 278 277 
3 1 231 2 
3 79 78 282 
3 21 232 263 
3 148 58 274 
3 82 283 263 
3 18 243 284 
3 18 284 19 
3 20 22 268 
3 22 154 268 
3 268 154 271 
3 225 279 145 
3 243 255 36 
3 285 286 287 
3 131 231 230 
3 134 264 288 
3 64 211 130 
3 263 283 289 
3 96 242 215 
3 96 95 133 
3 109 290 291 
3 19 284 36 
3 284 243 36 
3 234 32 192 
3 21 230 22 
3 85 219 38 
3 160 79 159 
3 216 79 160 
3 258 192 84 
3 292 266 207 
3 61 277 62 
3 249 293 57 
3 21 280 230 
3 231 1 22 
3 1 154 22 
3 2 231 68 
3 279 37 145 
3 35 37 279 
3 294 295 265 
3 240 265 295 
3 52 148 273 
3 78 134 288 
3 29 296 297 
3 297 298 29 
3 218 261 299 
3 281 67 251 
3 287 286 164 
3 81 164 286 
3 159 79 282 
3 38 227 24 
3 193 261 84 
3 84 192 193 
3 272 95 94 
3 159 282 206 
3 218 300 94 
3 124 178 223 
3 56 55 282 
3 219 261 218 
3 273 156 7 
3 242 133 77 
3 65 42 247 
3 155 42 65 
3 111 188 212 
3 240 296 201 
3 299 300 218 
3 215 24 96 
3 261 193 299 
3 194 299 193 
3 127 299 194 
3 127 300 299 
3 27 26 120 
3 131 280 132 
3 131 230 280 
3 163 301 211 
3 42 302 43 
3 219 94 227 
3 227 94 96 
3 215 242 216 
3 149 301 163 
3 257 201 296 
3 272 94 300 
3 42 185 302 
3 54 56 138 
3 121 120 26 
3 276 146 255 
3 265 214 198 
3 127 272 300 
3 224 199 257 
3 224 257 106 
3 253 303 304 
3 96 133 242 
3 204 203 305 
3 185 51 306 
3 252 100 307 
3 308 309 138 
3 287 310 285 
3 60 228 61 
3 75 224 105 
3 137 254 253 
3 311 290 189 
3 305 203 259 
3 298 294 312 
3 182 294 265 
3 123 305 313 
3 305 259 313 
3 260 313 259 
3 161 211 210 
3 314 315 221 
3 221 285 314 
3 285 310 314 
3 101 191 99 
3 316 156 303 
3 269 270 315 
3 93 122 90 
3 140 206 275 
3 292 317 318 
3 317 292 207 
3 229 60 250 
3 131 69 68 
3 244 262 319 
3 123 320 204 
3 99 196 321 
3 122 320 123 
3 320 122 93 
3 194 32 30 
3 322 323 112 
3 112 195 322 
3 324 325 326 
3 202 228 60 
3 327 260 318 
3 291 245 277 
3 297 294 298 
3 207 198 221 
3 266 208 207 
3 62 250 60 
3 123 204 305 
3 291 277 61 
3 191 101 190 
3 8 184 328 
3 228 204 320 
3 228 320 108 
3 310 329 330 
3 287 329 310 
3 80 233 135 
3 80 135 164 
3 135 136 164 
3 287 164 136 
3 314 310 330 
3 287 136 329 
3 330 269 314 
3 314 269 315 
3 61 109 291 
3 228 108 109 
3 228 109 61 
3 320 93 108 
3 88 8 328 
3 328 184 183 
3 126 128 298 
3 182 331 312 
3 182 332 331 
3 203 202 229 
3 333 326 334 
3 257 319 262 
3 182 312 294 
3 297 295 294 
3 335 8 87 
3 327 120 313 
3 190 101 152 
3 327 313 260 
3 236 336 233 
3 337 336 322 
3 290 338 291 
3 311 338 290 
3 135 233 336 
3 339 27 327 
3 120 327 27 
3 148 162 58 
3 245 340 45 
3 338 245 291 
3 271 341 110 
3 342 343 344 
3 334 325 207 
3 345 213 53 
3 207 325 324 
3 346 341 340 
3 45 340 44 
3 347 307 348 
3 195 15 337 
3 15 14 337 
3 108 93 92 
3 270 153 333 
3 244 319 235 
3 346 110 341 
3 318 339 327 
3 207 324 317 
3 317 339 318 
3 44 340 341 
3 44 341 271 
3 317 349 339 
3 123 313 120 
3 106 105 224 
3 325 334 326 
3 207 315 334 
3 338 340 245 
3 189 186 311 
3 336 337 135 
3 315 270 334 
3 337 322 195 
3 333 175 177 
3 337 14 135 
3 271 110 268 
3 323 268 110 
3 268 323 236 
3 66 54 138 
3 29 31 319 
3 235 319 31 
3 101 176 152 
3 152 176 175 
3 151 190 152 
3 346 111 110 
3 269 330 153 
3 323 322 236 
3 236 322 336 
3 329 151 330 
3 340 338 311 
3 290 92 189 
3 109 92 290 
3 350 172 28 
3 110 112 323 
3 311 186 340 
3 186 346 340 
3 324 349 317 
3 138 309 137 
3 235 31 234 
3 197 351 222 
3 326 352 324 
3 29 319 257 
3 296 29 257 
3 324 352 349 
3 111 346 188 
3 186 188 346 
3 136 16 329 
3 329 16 151 
3 270 333 334 
3 121 26 173 
3 285 353 286 
3 352 354 349 
3 225 224 75 
3 153 330 151 
3 255 146 36 
3 92 90 89 
3 195 191 15 
3 349 350 339 
3 339 350 27 
3 92 89 189 
3 350 349 354 
3 355 189 89 
3 251 69 345 
3 224 63 199 
3 64 63 224 
3 248 224 147 
3 64 224 248 
3 90 121 91 
3 153 175 333 
3 16 190 151 
3 15 190 16 
3 240 214 265 
3 355 187 189 
3 153 152 175 
3 355 344 187 
3 350 28 27 
3 280 356 132 
3 357 132 356 
3 358 201 200 
3 199 63 200 
3 67 69 251 
3 273 304 156 
3 89 91 355 
3 111 212 112 
3 335 87 203 
3 201 41 241 
3 199 201 257 
3 348 307 342 
3 343 342 307 
3 345 53 6 
3 331 359 312 
3 177 267 326 
3 333 177 326 
3 355 91 344 
3 352 267 354 
3 352 326 267 
3 289 356 263 
3 101 100 176 
3 248 210 64 
3 286 353 81 
3 41 358 247 
3 360 187 344 
3 54 57 293 
3 156 304 303 
3 361 362 332 
3 8 156 316 
3 354 267 347 
3 354 347 350 
3 203 87 259 
3 357 356 289 
3 350 347 172 
3 315 207 221 
3 78 56 282 
3 335 203 229 
3 220 222 306 
3 266 292 363 
3 266 363 182 
3 265 198 208 
3 265 208 266 
3 213 306 51 
3 220 306 213 
3 8 335 6 
3 251 335 229 
3 251 6 335 
3 302 222 351 
3 187 360 188 
3 188 360 212 
3 196 212 360 
3 213 357 220 
3 357 213 345 
3 220 357 289 
3 234 31 32 
3 240 297 296 
3 240 295 297 
3 292 318 260 
3 357 69 132 
3 357 345 69 
3 68 67 256 
3 6 251 345 
3 53 7 6 
3 163 162 148 
3 252 307 347 
3 196 99 191 
3 173 342 91 
3 91 342 344 
3 267 252 347 
3 52 51 185 
3 196 360 321 
3 347 348 172 
3 173 172 348 
3 173 348 342 
3 53 273 7 
3 274 304 273 
3 249 162 210 
3 221 198 197 
3 222 221 197 
3 66 58 57 
3 272 308 264 
3 272 127 308 
3 126 308 127 
3 288 308 138 
3 264 308 288 
3 176 100 252 
3 292 88 363 
3 41 201 358 
3 220 353 221 
3 285 221 353 
3 353 220 289 
3 353 283 81 
3 353 289 283 
3 82 81 283 
3 184 316 253 
3 147 146 248 
3 321 343 99 
3 344 343 360 
3 360 343 321 
3 197 43 351 
3 163 211 161 
3 210 162 161 
3 288 138 56 
3 307 100 99 
3 99 343 307 
3 52 273 53 
3 182 254 332 
3 194 128 127 
3 30 128 194 
3 293 249 276 
3 211 301 130 
3 149 130 301 
3 298 128 29 
3 30 29 128 
3 276 249 146 
3 248 146 249 
3 54 293 55 
3 87 88 260 
3 8 316 184 
3 298 312 359 
3 298 359 126 
3 288 56 78 
3 363 183 182 
3 328 183 363 
3 308 126 309 
3 293 276 275 
3 41 43 214 
3 292 260 88 
3 182 184 254 
3 282 55 206 
3 247 358 200 
3 302 351 43 
3 240 201 241 
3 280 263 356 
3 306 302 185 
3 306 222 302 
3 331 362 359 
3 331 332 362 
3 57 59 249 
3 249 59 162 
3 58 162 59 
3 254 361 332 
3 137 253 304 
3 137 304 274 
3 275 55 293 
3 309 126 359 
3 88 328 363 
3 256 281 278 
3 214 241 41 
3 254 137 361 
3 137 309 361 
3 62 281 250 
3 62 278 281 
3 251 250 281 
3 316 303 253 
3 247 200 63 
3 359 362 309 
3 361 309 362 
