ply
format ascii 1.0
comment VCGLIB generated
element vertex 219
property double x
property double y
property double z
property uchar red
property uchar green
property uchar blue
property uchar alpha
property double quality
element face 434
property list uchar int vertex_indices
property double quality
end_header
126.5823276902933 29.51986275706047 812.7620736945 255 255 255 255 0.0103094100450831 
124.4521453350776 27.0332027613811 813.4917139445613 255 255 255 255 0.01606255087481077 
125.2310509993209 27.08798087401415 813.1557085192655 255 255 255 255 0.08806230518504102 
125.1601882253594 28.0497532982295 811.9625411927468 255 255 255 255 0.08823874656122285 
126.9632951602728 30.93113087434973 812.2954424719861 255 255 255 255 0.003905967142643416 
125.1880359031562 26.61894007305655 813.01749869547 255 255 255 255 0.1034246947852839 
125.2079134401633 28.6642333935906 812.1569623729532 255 255 255 255 0.0509219442492603 
124.5556086531217 27.7912945334151 813.1520232601679 255 255 255 255 0.03696433624956845 
124.8657952335653 27.33932172677801 812.4677557019915 255 255 255 255 0.1573403360520916 
124.8474916000849 27.36773061644045 812.5040197530062 255 255 255 255 0.1638344803082002 
124.8834848676802 27.67296212560508 812.6222106503866 255 255 255 255 0.1495959509774879 
125.6694053311755 26.45838110786321 812.018507739899 255 255 255 255 0.03576789708849768 
124.7371658807899 27.53353091953108 812.6732446464277 255 255 255 255 0.1054903835259865 
127.5166687497932 31.01021658408283 812.1320293138414 255 255 255 255 0.002761089105632521 
126.085268177132 29.17754446429002 811.8994099610442 255 255 255 255 0.01300095434046206 
124.9290724133207 26.37026769819165 812.295534016199 255 255 255 255 0.08829904998661033 
125.1892782250921 26.36829090035573 812.9371821557992 255 255 255 255 0.09693323773331093 
124.8579443579219 27.65934702653619 812.1787930819015 255 255 255 255 0.1426865849733081 
124.9929670727649 27.45119349280913 812.7614078940385 255 255 255 255 0.1539009997247565 
124.9613037781623 27.45992612158195 812.7479382147208 255 255 255 255 0.1230567136489973 
125.0525261561905 27.5094375274019 812.7062980405226 255 255 255 255 0.1640085259889011 
125.0167568247153 27.44366143445337 812.7616072096091 255 255 255 255 0.1587368076985723 
126.39757948801 28.78444336850839 812.53782943529 255 255 255 255 0.01420434830773526 
126.8749284274749 29.46647209989846 812.38322477414 255 255 255 255 0.01045807814370709 
125.8188616141763 27.7175910054249 812.3450624371607 255 255 255 255 0.07355386617817854 
127.1318396821119 29.86068475719719 812.2430378517806 255 255 255 255 0.007892160910803777 
125.0354283792298 26.52088878671773 812.837043117819 255 255 255 255 0.1590507292478943 
125.1044211056288 26.44166842671543 812.842523410537 255 255 255 255 0.1402053144095734 
127.7237689887927 30.84034235988224 811.7711870867516 255 255 255 255 0.004034851984102912 
125.2834872660312 25.69486461872305 812.3175336185404 255 255 255 255 0.02122262214767356 
124.890400397648 27.2932056960806 812.3547024792239 255 255 255 255 0.1421413785317387 
124.9596264437183 25.79986286613297 812.5900373131491 255 255 255 255 0.06947055689950317 
125.2731587809936 25.92327689946626 812.1895892181007 255 255 255 255 0.03794528992178296 
124.8466029994618 27.04371160601138 812.1822675693469 255 255 255 255 0.2675097245797252 
124.8424659859228 26.97566650430333 812.1977888248338 255 255 255 255 0.1378865615417913 
125.4692329075382 26.28453522608048 812.0544033323783 255 255 255 255 0.02919266646328467 
127.3877355305352 30.47412141370134 811.5281693100603 255 255 255 255 0.00630663232275742 
124.9453372548177 28.25889730829737 812.9365864974575 255 255 255 255 0.04236049527156004 
126.1907985483185 30.02810115197018 811.9178646362625 255 255 255 255 0.006385550103391831 
124.8869550728534 27.07656460750934 812.1211879520527 255 255 255 255 0.3000736682467161 
125.6344132750677 28.57178066098731 811.9650228263796 255 255 255 255 0.06497571840287643 
127.3970489010162 31.15045599707804 811.0678241616615 255 255 255 255 0.006223599442866786 
125.803268564363 28.02896872041897 812.4136589005154 255 255 255 255 0.09719926264896046 
127.2372468598484 30.5410683030085 812.371166065809 255 255 255 255 0.003961307406787826 
125.1369046557595 26.56347236811558 812.9147774362009 255 255 255 255 0.1438904592584971 
125.1383802504589 26.55293883457843 812.8946864209399 255 255 255 255 0.1252865852444662 
125.2006301526396 26.50102922474029 812.8927209489924 255 255 255 255 0.1168143015932079 
125.4695375353922 29.00477931987874 812.1376105754241 255 255 255 255 0.01909594209720667 
125.0189910949685 27.50269184798295 812.6815457657955 255 255 255 255 0.155245211484909 
125.3198574680925 26.55821173460881 812.9603642706777 255 255 255 255 0.07179403783944348 
125.3327750061253 26.3469719105901 813.0653919188379 255 255 255 255 0.0603932282750887 
124.8715959252064 27.11218548763015 812.2412231828458 255 255 255 255 0.1531064953415903 
124.8883961677469 27.14834151862946 812.2009363189691 255 255 255 255 0.1424619336876089 
124.9228934086988 27.5567451281054 812.6239692010236 255 255 255 255 0.1608517774413435 
126.895139754023 31.18364652855554 811.3777164019417 255 255 255 255 0.007586159737554064 
125.6375088514596 28.03948338868877 812.113368014139 255 255 255 255 0.1693604627606283 
126.2778107415804 29.84608854702719 812.7373546314025 255 255 255 255 0.00799123204055998 
126.2859124157858 29.46358922207272 811.8319059077539 255 255 255 255 0.008230222491531327 
127.3155176726599 30.15528995358635 812.1172472001485 255 255 255 255 0.005343140850286449 
124.854263062325 27.05177356385287 812.1860011837148 255 255 255 255 0.2505907416649595 
124.824250175088 27.05284369842754 812.2064252654523 255 255 255 255 0.1948132859128512 
126.7753490175811 30.61901915927381 812.445913054671 255 255 255 255 0.005007500547320859 
124.8810564454261 27.21457504597493 812.1174943863363 255 255 255 255 0.1897991154781244 
124.8410339903625 27.28420576398578 812.4266103610646 255 255 255 255 0.1442518532880133 
126.1786533758277 28.64370088740302 812.1360538585147 255 255 255 255 0.02163831524065042 
124.8863455675307 27.49701018017172 812.4956533901835 255 255 255 255 0.1649863844509089 
124.8300764958161 27.49674521795955 812.6761307250769 255 255 255 255 0.1224118108153785 
125.231974366137 27.80390158680942 812.9066896992204 255 255 255 255 0.1687286199803761 
124.4783544591228 27.22398305349517 812.5085130406328 255 255 255 255 0.08932941875651672 
124.7269215077976 27.09836637002368 812.3030435076779 255 255 255 255 0.121628042040557 
124.8903919854026 27.48869065934799 812.5551511279327 255 255 255 255 0.1761407285293478 
124.8918680335098 27.50950882972655 812.5936602342233 255 255 255 255 0.1487582532215379 
125.6754799112225 27.28279774037138 812.6851216632133 255 255 255 255 0.0591579110792009 
125.6537299518252 27.7229594423649 812.7564019126511 255 255 255 255 0.05499506157570767 
125.7536722791969 26.14304121373133 813.0477739297384 255 255 255 255 0.04140105182462143 
125.7119013007899 26.8205310199666 812.7145428856187 255 255 255 255 0.06899342037316711 
125.5827773948284 28.19017432690061 812.0640051147767 255 255 255 255 0.09555199408864697 
124.884786715022 27.2614460464425 812.2286174457215 255 255 255 255 0.1493377813522776 
125.6956315080167 28.01917271581553 812.16592019142 255 255 255 255 0.1446194215826255 
124.4007749374552 26.72726809966398 813.1001568273092 255 255 255 255 0.04165495947717923 
125.6962303013267 27.94667802267438 812.1885811151767 255 255 255 255 0.1156919546029521 
125.0404814534968 27.93649027037599 812.0395359886584 255 255 255 255 0.0906695431377034 
125.0408996223526 27.88117629455254 812.0418126315082 255 255 255 255 0.1058359585715764 
124.9812895448069 27.94861477603131 812.046315319672 255 255 255 255 0.09103496837083871 
125.1594349243721 26.49785389761213 812.8631241448726 255 255 255 255 0.1480381504701571 
125.8350651635937 28.09151687115652 812.449204763527 255 255 255 255 0.05174594489944454 
124.8857844899188 27.13251947703226 812.1465729097062 255 255 255 255 0.2421938032920162 
125.9446752931559 28.33524129552471 812.1579251637688 255 255 255 255 0.05153423648249089 
124.9711355576732 26.36065710091374 812.7723082817022 255 255 255 255 0.1728690551576333 
125.8464975452474 29.52069162014863 812.0627148050395 255 255 255 255 0.0107173180866708 
124.5006660203995 27.68616065571078 812.7525697721936 255 255 255 255 0.05569125639211445 
125.3091435668044 28.52325984487346 812.9235665636436 255 255 255 255 0.02455377049903061 
125.4065158691891 26.77557443969364 812.9105665460082 255 255 255 255 0.08889760689923619 
124.8610067092296 27.42291129841761 812.5506778527136 255 255 255 255 0.1398221767066593 
127.2162563542482 30.18795184100009 811.6709099038733 255 255 255 255 0.006382139627512423 
123.7425384512186 27.28255348110566 812.7940167058775 255 255 255 255 0.02535644015608952 
124.1292108630199 27.0043356072947 812.7763259529208 255 255 255 255 0.02694856774885664 
126.9611694720594 30.52958178042782 811.4036199959371 255 255 255 255 0.008412613645333945 
124.8108137804335 27.49270771753674 812.6263925882931 255 255 255 255 0.1277354669263972 
125.3297073791106 28.98835082923804 812.5671059851053 255 255 255 255 0.0149486685605716 
124.780433834527 27.33675825485716 813.4467457207425 255 255 255 255 0.04419376740590991 
127.2072350137909 31.34378013062316 812.0802899007886 255 255 255 255 0.003334994430502109 
125.6677623881572 29.44273510483819 812.5149776718944 255 255 255 255 0.01143470130022427 
127.5516700144819 30.75338505216845 811.3809835731385 255 255 255 255 0.00645505445961136 
125.7928104169987 28.03353796300803 812.4414650595102 255 255 255 255 0.0516486892974742 
124.7718482896427 27.27510771651205 812.4514066755421 255 255 255 255 0.1301221972124206 
124.2971592546037 27.6851416067824 813.5222066896794 255 255 255 255 0.01752010063128466 
124.9806374296574 26.11249890116554 812.9094634059047 255 255 255 255 0.1213199695936897 
125.8996584559102 26.40478944689877 812.4551286365723 255 255 255 255 0.04104997528770149 
124.9648820410313 26.38413385047502 812.7176130121853 255 255 255 255 0.19324244461471 
125.6143458864188 27.63814393382543 811.9487316144093 255 255 255 255 0.1174514851349754 
125.0505432020326 26.42729564564037 812.807537908429 255 255 255 255 0.1699828270975539 
125.1787131402476 26.48846427700794 812.880936702795 255 255 255 255 0.1347204339474368 
124.8906759761323 27.32763931686454 812.3945650189436 255 255 255 255 0.1658636357469555 
127.4921579310737 30.44703112717708 811.9759366402585 255 255 255 255 0.004670238138308732 
125.0167013333842 26.57656672598091 812.9435733123814 255 255 255 255 0.1295542905665552 
125.06793750045 26.44530903973862 812.8139608768402 255 255 255 255 0.1618001742560286 
125.0303119439832 27.58320205981135 812.704463741096 255 255 255 255 0.1964780236791279 
124.912188582906 26.45621049435921 812.7173784647977 255 255 255 255 0.2028599186917383 
123.8743984462818 27.089847982023 813.2237457555227 255 255 255 255 0.01650386249639024 
125.1439331695686 27.41543633932816 812.8355110693453 255 255 255 255 0.1932587194757931 
125.1044078207719 27.42789964992645 812.8346319696576 255 255 255 255 0.1623247723778103 
125.7038953693906 28.02254878580953 812.1684397449928 255 255 255 255 0.1585193298673663 
124.8913584790737 26.58909352329248 812.2036868192591 255 255 255 255 0.09363685652844765 
125.176524185713 27.72496481650665 811.891536742184 255 255 255 255 0.1239656477253781 
124.9657501876768 27.86418790274432 812.8207536772586 255 255 255 255 0.1090561026973059 
126.5564034616368 29.17022043636423 812.0453032165649 255 255 255 255 0.01151944951016081 
126.3774314614887 29.22597772452874 812.8320341660539 255 255 255 255 0.01086570361387495 
125.6929344075121 26.95861519766532 812.687662227405 255 255 255 255 0.05228398900537901 
126.0287159174012 28.74710380980846 812.9012494214654 255 255 255 255 0.01338851148950017 
125.5270734180991 28.09470309044787 812.9320626430589 255 255 255 255 0.06722060424104573 
125.8775377650937 28.09639995058899 812.5903529879713 255 255 255 255 0.03789217499007429 
125.0775644986606 27.42789398535287 812.7831286456483 255 255 255 255 0.1517152026893303 
126.4456215082724 30.60778025028149 812.1539930704374 255 255 255 255 0.006058796432432717 
125.1772389375353 27.41334986281092 812.8871384122612 255 255 255 255 0.166160249463572 
125.7158153760132 25.61834880588282 812.4480850391184 255 255 255 255 0.0145461955833215 
125.8512278309248 27.11333715010417 812.2818838496142 255 255 255 255 0.04390462994432148 
125.1352278085481 27.50330334209783 812.7632050730352 255 255 255 255 0.2263933758163447 
125.1664661131737 27.47459488344826 812.7799072879664 255 255 255 255 0.2327516630625954 
125.0842011077844 27.52095735440616 812.730612336178 255 255 255 255 0.201135469879479 
125.9209899930137 25.97187834930252 812.6834672058162 255 255 255 255 0.03152507447431654 
125.6310560884688 26.81543617643396 812.746337646909 255 255 255 255 0.07334575726148454 
125.732085870118 26.58912270545118 812.8143959719755 255 255 255 255 0.06475607907532108 
125.8260894058019 29.11353731489764 812.884803244399 255 255 255 255 0.01116205315531111 
126.9999099287932 30.15710795403815 812.5430477368378 255 255 255 255 0.006381138275614578 
127.1683325577375 30.88076406114472 811.21931999735 255 255 255 255 0.008881375285167066 
124.0582782462717 27.51769123262433 812.5914807985358 255 255 255 255 0.0478895645995987 
126.2385905258581 30.27923454813033 812.2892384676943 255 255 255 255 0.005703922337257131 
125.6460447933843 26.89105678121686 812.7489288944163 255 255 255 255 0.07276097862323085 
125.2376764972572 26.43944422239885 811.9486820194163 255 255 255 255 0.04297580637110714 
125.8788734178563 26.6434912784184 812.3529751623388 255 255 255 255 0.04452509721501901 
125.2506657967009 27.47184871932014 812.8378885005582 255 255 255 255 0.1953023568691325 
125.3046501547167 26.55780016235375 812.949708039795 255 255 255 255 0.09773482829343101 
125.2248401271214 26.57478190430556 812.9334331709927 255 255 255 255 0.1184382406187449 
125.2634604938244 26.51941394789628 812.9329299539477 255 255 255 255 0.09865475364533725 
124.9657292979313 26.41097038241754 812.7431667074192 255 255 255 255 0.1818645043502864 
124.921103264371 26.48377134296818 812.77012672922 255 255 255 255 0.1695602861993047 
126.7418877071501 29.44112489483278 811.9699692377235 255 255 255 255 0.00827951100155694 
124.8762560217455 27.20202898510837 812.3303011316268 255 255 255 255 0.132512091231886 
124.9674159981323 26.40577978636856 812.7533043595681 255 255 255 255 0.1939843140408583 
126.9960987913683 29.83594279373781 811.8261548777197 255 255 255 255 0.00654634733933811 
124.962510912094 26.24452445633079 812.6110774960273 255 255 255 255 0.1521840347837501 
125.7659260434638 28.10293621929826 812.1666128807286 255 255 255 255 0.1157564227842913 
124.946886026282 27.52566987159549 812.6351629118618 255 255 255 255 0.1486092048118858 
125.4650581079986 26.64946617854174 811.8517684435503 255 255 255 255 0.03045565450012046 
125.0041979865803 27.50564272301327 813.0156202409059 255 255 255 255 0.08092041302938394 
125.2686137811594 26.63803480861772 812.9648615489483 255 255 255 255 0.1061565008874406 
125.1644319134482 26.57710519517908 812.9398039999535 255 255 255 255 0.1171022816251251 
126.176968896527 28.48734767100799 812.5722076748465 255 255 255 255 0.02789877737781582 
125.6433007987748 27.01573109373165 811.9041271493171 255 255 255 255 0.03530574702787219 
124.7552252406766 26.53107637762715 812.865143481245 255 255 255 255 0.1131242899561662 
126.588896742581 29.9236386752634 811.6786042021378 255 255 255 255 0.006497490645694337 
126.4084725771928 30.37068118150554 811.783038504774 255 255 255 255 0.005377540810840666 
124.9293740066387 26.46630634812577 812.3558633086051 255 255 255 255 0.1658097682828698 
124.9887180748023 27.4658977462294 812.8196105951384 255 255 255 255 0.1200537693642048 
125.1986802041091 27.26197802772646 811.830549729362 255 255 255 255 0.1554660238280428 
125.6224569939317 28.93129487183433 812.9037209846989 255 255 255 255 0.01437096205606638 
126.6838773107048 29.18546241014998 812.4618648536905 255 255 255 255 0.010334939758848 
124.8866899653993 27.47012242584163 812.6618289634531 255 255 255 255 0.1370905800058491 
124.8405496669392 27.12183649710106 812.2702801608542 255 255 255 255 0.136391493364063 
125.7077674729575 25.87812572381745 812.2969934086492 255 255 255 255 0.0245447237466374 
125.7822522504717 28.42400072122534 812.9226353884858 255 255 255 255 0.02527933761918353 
124.8855195974912 26.76672332842085 813.2678137811956 255 255 255 255 0.07490006963906036 
126.7346161913224 29.74455286942375 812.6944323714101 255 255 255 255 0.008538518812001544 
124.8918398789061 27.17557368906553 812.2766768671447 255 255 255 255 0.1120990516792495 
125.0709341012326 27.43489481518724 812.7056750273573 255 255 255 255 0.1810975840801204 
124.8060597393971 27.54740390555461 812.8474792341071 255 255 255 255 0.08459181060722767 
125.553751178936 26.93029432540852 812.8486843823895 255 255 255 255 0.08544034481818068 
125.4211486959658 27.53116508869192 812.7942003047169 255 255 255 255 0.1030271442833073 
126.794369500143 30.25290377154883 811.5380863361016 255 255 255 255 0.006744728194140799 
125.0347186619496 27.51077381670938 812.6940475065365 255 255 255 255 0.1862123367577401 
124.8872996791167 27.07873194080677 812.1338599675335 255 255 255 255 0.2652293580195578 
124.9684981931915 26.44212781721926 812.7408850806185 255 255 255 255 0.1608803335121508 
125.9775675629642 29.88415014138285 812.4166420482793 255 255 255 255 0.007522932859095488 
125.9914794776932 29.43668353459457 812.835409995581 255 255 255 255 0.01006328254433382 
124.6466543227705 27.43452046695872 812.6220419962463 255 255 255 255 0.103900487940496 
124.8845562105426 27.13178405696272 812.1197563112619 255 255 255 255 0.2760981696947569 
124.8861477374679 26.55162988577629 812.3787516605888 255 255 255 255 0.1159534247756191 
124.8901873273516 27.43991716129609 812.501572055823 255 255 255 255 0.1781590455042933 
124.9309985624232 26.50054761697763 812.3945094189446 255 255 255 255 0.1745835770861488 
125.1163058567767 28.70566961708563 812.5646656952034 255 255 255 255 0.0229243315499595 
125.2164006359047 26.94512276301348 811.8342448605277 255 255 255 255 0.08651642728448232 
126.5620074716176 30.28224223797316 812.5868054303097 255 255 255 255 0.006516583883706001 
125.6327714801265 27.29421398547815 811.9007638864704 255 255 255 255 0.08018540386813545 
124.9515344617834 28.13620175090212 812.3661759757986 255 255 255 255 0.07705929202984491 
124.6358480291644 26.72033047518445 812.4630930402375 255 255 255 255 0.08923768627943682 
127.7164271463427 31.34852835035634 811.9458030702291 255 255 255 255 0.002441481324301701 
125.4032666546111 25.67550949708166 812.7941553815929 255 255 255 255 0.01912784373342918 
123.908412713416 27.53701458489868 813.1487797120188 255 255 255 255 0.01829012513547195 
124.3171691726742 27.89427415513899 812.9408017448569 255 255 255 255 0.03158330093385497 
126.6540447883679 30.77302748381402 811.5934653405841 255 255 255 255 0.007097863853308316 
125.8631209096914 28.87318905904279 811.9433381135826 255 255 255 255 0.02672818964940048 
125.4934565542419 25.94941229901019 813.3003338283289 255 255 255 255 0.02369896343796806 
125.1596037767291 26.06653885697223 813.0890357590406 255 255 255 255 0.05371868062398728 
124.0201993112653 27.33231148636279 813.5459195159624 255 255 255 255 0.01601687623855343 
125.9045469055724 25.75567467961394 813.0131372350961 255 255 255 255 0.01700883698528789 
127.8892358014301 31.22376693260211 811.3881952652411 255 255 255 255 0.004472269550552964 
127.2272434081759 31.39885730287602 811.618588284873 255 255 255 255 0.005078895989259026 
126.7227705382423 31.06463911634964 811.9264655031891 255 255 255 255 0.005857166370257334 
3 105 8 63 0.7405571996618399 
3 8 9 198 0.4204365214090435 
3 18 19 174 0.3787030387761157 
3 174 21 18 0.443225141326987 
3 42 87 85 0.6963265281627464 
3 29 135 207 0.004044245247594613 
3 175 110 203 0.215196544579493 
3 215 140 74 0.001389237547742339 
3 5 182 115 0.2867379683257658 
3 44 45 46 0.6456137615055051 
3 80 110 55 0.4998169596702232 
3 43 58 114 0.04967198648495552 
3 51 59 60 0.3197949674285834 
3 68 105 69 0.1062481201121451 
3 78 55 76 0.7134057967832033 
3 81 124 82 0.7902691937814786 
3 112 27 16 0.114295208865389 
3 52 59 51 0.0185613812530897 
3 17 124 175 0.1571545695065114 
3 37 91 200 0.1124165759657987 
3 44 115 45 0.7331414124726485 
3 124 81 3 0.213056671642577 
3 200 6 204 0.1054272940342647 
3 12 98 195 0.2330604201124765 
3 104 42 85 0.3903814856546776 
3 16 46 112 0.6461019995143966 
3 129 127 143 0.08594106659917422 
3 17 30 113 0.7648298969298907 
3 26 116 27 0.3890946654282809 
3 67 10 117 0.5145520901799489 
3 114 94 36 0.05845699013254457 
3 66 98 12 0.2104558269485081 
3 40 211 87 0.1943377870587223 
3 109 199 161 0.2362288987559303 
3 151 67 138 0.5175031919067762 
3 134 120 121 0.5934267740522745 
3 80 78 122 0.7969086883158498 
3 165 121 174 0.1889558578699641 
3 135 140 215 0.1502270758614463 
3 177 22 126 0.1497709989592418 
3 37 204 125 0.08594581834497195 
3 130 91 37 0.09666219777136253 
3 80 55 78 0.4855914605493542 
3 160 189 94 0.05080989661856772 
3 130 73 131 0.01224693712125813 
3 104 85 131 0.4713528998965135 
3 174 132 21 0.3020583510131715 
3 199 118 170 0.6664005006575707 
3 186 66 12 0.2220867671817485 
3 137 67 139 0.7020868386814947 
3 138 67 137 0.7750763152061169 
3 142 140 108 0.1797704252658033 
3 90 146 209 0.1619466744255245 
3 188 73 130 0.3674791535317452 
3 15 173 197 0.8606529874720328 
3 187 2 92 0.2678267477585671 
3 16 213 50 0.2053708404446011 
3 165 7 100 0.01307759722945201 
3 121 120 137 0.4049530544370511 
3 134 151 120 0.2518300179368574 
3 102 89 47 0.04958577919055729 
3 54 41 145 0.1769073614295215 
3 152 5 153 0.3644650560231749 
3 152 153 154 0.1067795960731166 
3 118 155 156 0.1207779186091655 
3 31 15 32 0.03333018493981388 
3 22 127 129 0.01873026396846644 
3 170 205 197 0.1379640289899183 
3 21 20 18 0.5825208084977737 
3 176 143 99 0.4656255573944301 
3 189 210 97 0.1550267762182029 
3 166 49 92 0.4239397219891559 
3 107 111 88 0.5601156959607514 
3 188 151 2 0.6219859634870364 
3 107 16 27 0.3521175967056189 
3 44 46 167 0.3443174418464137 
3 68 69 34 0.9494540650505048 
3 171 38 172 0.01510146608484475 
3 11 180 35 0.4196361470761955 
3 121 165 134 0.3741484319362525 
3 145 97 54 0.2370077443628051 
3 58 43 144 0.0135426024718065 
3 50 49 154 0.471940762951872 
3 19 48 163 0.1684141828567504 
3 164 35 149 0.129658317433462 
3 187 128 72 0.2842703272747835 
3 77 17 62 0.596228706683382 
3 26 111 116 0.6546270471931084 
3 40 162 76 0.4886660807755688 
3 110 3 76 0.05943360028091582 
3 201 175 203 0.2170803777861453 
3 41 103 145 0.08636140559421124 
3 64 168 87 0.04430452505048654 
3 8 113 63 0.004604173360196917 
3 164 201 169 0.01733602883237373 
3 22 64 126 0.06966396805234876 
3 128 150 136 0.003809168112623662 
3 162 87 42 0.2813495385088457 
3 96 119 95 0.006940322630569651 
3 75 148 141 0.06687947366781311 
3 17 204 83 0.2234616568907191 
3 204 3 83 0.3452496934541218 
3 161 15 31 0.4000689023060287 
3 61 144 43 0.008650167229748207 
3 213 107 31 0.4901509081760895 
3 141 187 92 0.2097809636255497 
3 171 157 57 0.03105900044550314 
3 181 91 130 0.01844747204525732 
3 194 56 193 0.09098976289189609 
3 210 189 172 0.01410517204763451 
3 83 82 17 0.5577248565210562 
3 3 81 83 0.7073163743529629 
3 163 53 178 0.407653903189128 
3 17 175 62 0.1839828834066312 
3 118 199 109 0.5586954549248786 
3 171 189 160 0.0779812682211013 
3 130 37 125 0.1327868298716504 
3 155 109 159 0.5848616488404959 
3 111 159 88 0.303510872595204 
3 10 53 117 0.2182147888513114 
3 25 157 160 0.1358323632345092 
3 169 150 11 0.08921562553139961 
3 115 44 167 0.6779855987186907 
3 205 34 123 0.005847033160290227 
3 179 52 51 0.5818364800717218 
3 179 51 69 0.8572059605519496 
3 156 115 170 0.1067597926117476 
3 20 139 117 0.2706606178043925 
3 1 119 79 0.05139289331344765 
3 186 174 19 0.3875985787011144 
3 61 202 144 0.03791120050955221 
3 111 27 116 0.6788301659827617 
3 201 203 169 0.304592483012328 
3 143 194 102 0.08264387902477843 
3 162 122 78 0.9506440083134657 
3 108 140 180 0.05905811788190907 
3 10 67 125 0.3790113926102163 
3 106 208 214 0.0647635352028223 
3 139 132 137 0.1655531931625643 
3 14 126 64 0.05646853654448625 
3 158 63 30 0.190782501343549 
3 148 75 128 0.1481949680204135 
3 145 36 97 0.05835597526234926 
3 131 73 104 0.369053765138695 
3 24 104 73 0.07556728697967707 
3 77 184 158 0.280284686217895 
3 100 182 2 0.03704826139090345 
3 81 82 83 0.3052925686621794 
3 96 95 146 0.04111597796428146 
3 166 92 2 0.3902877862002703 
3 66 19 178 0.5402256329360591 
3 34 205 68 0.04992008367417178 
3 84 27 112 0.6114157567144369 
3 139 185 132 0.08041607297387088 
3 183 202 56 0.02905879477285633 
3 204 17 10 0.02968189309474267 
3 5 115 167 0.3814497998857019 
3 134 165 2 0.3048674772403618 
3 98 71 70 0.4163320659257892 
3 112 46 45 0.4302392441689835 
3 104 24 42 0.8523794387288131 
3 26 45 115 0.01196573270592038 
3 171 160 157 0.06754889446063705 
3 34 201 123 0.1392427333324645 
3 7 186 90 0.05458427537187616 
3 182 5 2 0.01979251650627079 
3 29 31 32 0.2881482491084554 
3 180 29 32 0.1830478022242121 
3 103 36 145 0.1732233274820603 
3 181 131 168 0.01012004020492185 
3 58 94 114 0.05218860715722118 
3 28 36 103 0.1681423225065751 
3 149 35 32 0.3314485924862668 
3 79 182 1 0.009778755439370013 
3 130 131 181 0.01958002493398914 
3 117 48 190 0.6676843738750207 
3 152 49 166 0.6713220889967049 
3 158 105 63 0.5103364464960208 
3 72 24 73 0.07954006540695957 
3 119 1 214 0.1250847026985267 
3 93 70 65 0.2047825535174421 
3 79 119 96 0.07187420579705051 
3 50 154 16 0.0875945600337773 
3 60 34 69 0.5530966144776215 
3 165 100 2 0.0299453568449195 
3 110 76 55 0.7750791491718463 
3 21 132 185 0.02279559503746831 
3 20 117 190 0.5247416053067486 
3 20 190 18 0.6125762313316194 
3 201 164 149 0.2158271437270947 
3 135 180 140 0.1251054356393818 
3 181 129 176 0.06452429233189438 
3 143 176 129 0.1543326704126768 
3 59 52 86 0.5274774130182347 
3 59 86 191 0.3101250979907209 
3 184 77 52 0.07749235727659431 
3 202 133 147 0.09275318219342454 
3 144 202 183 0.03988830901325069 
3 66 186 19 0.05383424784167856 
3 165 186 7 0.3157134329201223 
3 108 11 150 0.2351137141359538 
3 16 154 46 0.3298891078794178 
3 59 191 33 0.7463527667863605 
3 105 158 184 0.9407740598919614 
3 198 113 8 0.4403463984491707 
3 8 105 9 0.1857146274905309 
3 201 149 123 0.06722932138681126 
3 3 110 124 0.3304748482518266 
3 163 117 53 0.14032661894817 
3 77 158 30 0.08282818647903201 
3 42 24 80 0.02753160345695538 
3 124 110 175 0.06247466894787812 
3 27 111 107 0.6882623754346224 
3 155 159 156 0.7757921316417995 
3 192 159 111 0.408807707501041 
3 154 49 152 0.829974237489693 
3 152 166 5 0.3381701354110914 
3 56 202 147 0.08929639164131986 
3 125 67 130 0.5909015157141811 
3 14 64 211 0.2077221826471964 
3 204 10 125 0.2453663264222017 
3 65 113 198 0.7437994059142841 
3 218 4 101 0.01657383053900063 
3 161 31 107 0.0826028440441634 
3 12 195 90 0.3054209496875667 
3 94 189 97 0.0902272017587239 
3 70 10 65 0.5587136099971739 
3 99 200 176 0.3844097147871742 
3 23 25 183 0.1028438826448287 
3 6 40 76 0.1662072599022661 
3 197 123 15 0.07075057811458729 
3 194 143 127 0.1672539599362877 
3 195 98 70 0.7091486443102666 
3 177 127 22 0.007498286330160919 
3 175 39 196 0.7971476199397773 
3 196 191 86 0.2631222222063856 
3 39 191 196 0.5881029489693612 
3 5 166 2 0.6399614583822444 
3 148 187 141 0.3697844965381574 
3 128 187 148 0.5807163231442525 
3 43 13 4 0.03339517234090661 
3 68 195 105 0.01264050207404555 
3 63 113 30 0.178358520860633 
3 137 132 121 0.2171743444192419 
3 174 121 132 0.324764415883059 
3 22 129 168 0.0849744653055291 
3 183 0 23 0.171389042631545 
3 150 128 75 0.5740730111229566 
3 84 45 26 0.2251753427899563 
3 96 146 68 0.009553123141791242 
3 163 178 19 0.1203723728773817 
3 79 170 182 0.007066250969761212 
3 134 2 151 0.7873248960463628 
3 192 156 159 0.5192520288283036 
3 57 157 126 0.07994555750784804 
3 112 45 84 0.460092749032303 
3 205 123 197 0.3603337683924305 
3 6 47 40 0.0145058235995823 
3 153 5 167 0.1606440426262138 
3 11 108 180 0.04914760320342193 
3 133 61 4 0.253009948833663 
3 93 198 9 0.08354669974266393 
3 93 9 105 0.8972545604764778 
3 114 36 28 0.02635166400579669 
3 123 149 15 0.2331334929400009 
3 161 173 15 0.459621301080917 
3 28 13 114 0.05822267086394783 
3 25 144 183 0.08705368921962431 
3 171 172 189 0.02307571367650385 
3 13 43 114 0.03571568063062147 
3 124 17 82 0.2683593698207661 
3 47 99 102 0.06179910307378966 
3 143 102 99 0.01337643090878204 
3 150 169 136 0.138235016323919 
3 12 90 186 0.2409219320769195 
3 138 120 151 0.09876032916752053 
3 42 122 162 0.3771162113429192 
3 192 111 26 0.1384519051225832 
3 107 213 16 0.05130611181999367 
3 188 130 67 0.2884506206379052 
3 26 115 156 0.458163284659334 
3 67 151 188 0.2019352385020329 
3 17 65 10 0.3306156832755618 
3 98 66 71 0.2554485947871631 
3 66 178 71 0.2115452820619792 
3 53 71 178 0.181551888707415 
3 10 71 53 0.617061960622561 
3 195 146 90 0.2432623639973928 
3 80 122 42 0.4914398181752743 
3 35 164 11 0.185606755217685 
3 13 101 4 0.04250933971955451 
3 58 144 25 0.1039607138164638 
3 91 176 200 0.1290182332445525 
3 175 201 34 0.2205526013425355 
3 176 91 181 0.006879622354177495 
3 127 177 0 0.05379674774690901 
3 173 199 197 0.3914161329874642 
3 170 197 199 0.7421641773156824 
3 167 46 153 0.1322842923187034 
3 153 46 154 0.05287575236346798 
3 20 21 185 0.04017083902322705 
3 20 185 139 0.3310935205260024 
3 78 76 162 0.2711102607094704 
3 35 180 32 0.04203839571637114 
3 57 14 89 0.07876167153276192 
3 61 133 202 0.08076690400245523 
3 11 164 169 0.3033687788562387 
3 93 195 70 0.5912215746617879 
3 105 195 93 0.06196853115641032 
3 106 100 7 0.04851133072184399 
3 157 23 126 0.1956745542368662 
3 177 126 23 0.1739309424073185 
3 193 38 89 0.02824977917555482 
3 93 65 198 0.4024249030974628 
3 138 137 120 0.5864053024704197 
3 1 182 100 0.06178886631485647 
3 58 160 94 0.03732052094171623 
3 24 72 136 0.04534233032336721 
3 56 0 183 0.1571313567918354 
3 203 24 136 0.06133405886734866 
3 109 88 159 0.1077645574532645 
3 109 155 118 0.4039868391202583 
3 156 170 118 0.6432782192362166 
3 192 26 156 0.2529424188096463 
3 62 52 77 0.005033419676091389 
3 184 52 179 0.02230597997349049 
3 51 60 69 0.2196300263730265 
3 33 39 34 0.6497025299575268 
3 194 193 102 0.06279951774226855 
3 40 87 162 0.2285083179602555 
3 80 24 110 0.1082908580648059 
3 196 86 62 0.48137349993807 
3 52 62 86 0.264150318628748 
3 175 196 62 0.6698875473008183 
3 92 142 141 0.1960316287804216 
3 168 64 22 0.04589729806794063 
3 99 47 6 0.04824678639104651 
3 147 193 56 0.1193516012289368 
3 39 175 34 0.9151737194057374 
3 160 58 25 0.1170080353612142 
3 119 214 208 0.01241860389693905 
3 54 97 210 0.1473204367188292 
3 102 193 89 0.008498029610483182 
3 39 33 191 0.8086222156842144 
3 60 59 33 0.4633732197895495 
3 171 57 38 0.0299503292411365 
3 27 84 26 0.1610625722627596 
3 108 150 75 0.2956121009699072 
3 74 140 142 0.1659086918164017 
3 147 38 193 0.04015224289803621 
3 24 203 110 0.3683885740914152 
3 14 211 89 0.3514447774579014 
3 161 107 88 0.135377266158815 
3 109 161 88 0.5214041928416278 
3 141 142 75 0.4350727077198986 
3 23 0 177 0.07038347239084852 
3 38 147 172 0.05546232181097499 
3 172 147 133 0.07472622232967985 
3 142 92 49 0.21703658890467 
3 14 57 126 0.07182884548846991 
3 72 73 188 0.1184410748243067 
3 56 194 0 0.07240235179953525 
3 136 72 128 0.09335695364205676 
3 139 67 117 0.5820408008739134 
3 49 74 142 0.08917221590605184 
3 33 34 60 0.3672656916520572 
3 85 87 168 0.06382346917312653 
3 131 85 168 0.5532261377085523 
3 6 200 99 0.1562471538299978 
3 43 4 61 0.03140203511674977 
3 157 25 23 0.1410322754875488 
3 89 38 57 0.03854857057886507 
3 29 180 135 0.120545848256476 
3 186 165 174 0.08897614452262148 
3 77 30 17 0.4481860913200699 
3 15 149 32 0.03239097101091037 
3 113 65 17 0.2568993426831653 
3 195 68 146 0.2731203361973447 
3 172 133 210 0.09979742168462569 
3 0 194 127 0.24925586947682 
3 170 115 182 0.2223338110892451 
3 10 70 71 0.7737918166295146 
3 49 50 74 0.5430413622635547 
3 36 94 97 0.07497717014968686 
3 161 199 173 0.7278089621160868 
3 169 203 136 0.1646260576413613 
3 142 108 75 0.3122907083283489 
3 184 69 105 0.04736542015562162 
3 179 69 184 0.7864436087607645 
3 117 163 48 0.8480053234330258 
3 48 19 190 0.6514921569435347 
3 18 190 19 0.4356244445870174 
3 207 135 215 0.05509808462255639 
3 29 207 31 0.01743048547765891 
3 28 206 13 0.04913396633759626 
3 101 13 206 0.02998669083359418 
3 68 205 96 0.08705324103202117 
3 95 208 209 0.4164345756257877 
3 209 208 106 0.002488143339862248 
3 204 6 3 0.07568734609329342 
3 7 209 106 0.2848608309587337 
3 209 7 90 0.03709228338740078 
3 218 54 210 0.009465721361721413 
3 72 188 187 0.3535865381102589 
3 181 168 129 0.06464835297700211 
3 211 64 87 0.180297532466881 
3 6 76 3 0.07960016998038899 
3 211 47 89 0.08856857425181386 
3 47 211 40 0.0491394302332463 
3 212 213 207 0.0896966431210271 
3 200 204 37 0.004601021006546691 
3 74 212 215 0.04994348411721328 
3 28 103 216 0.07864813704640505 
3 216 103 41 0.007237181604297982 
3 50 212 74 0.02291496447354391 
3 212 50 213 0.1657173698505507 
3 119 208 95 0.003468575199370716 
3 206 28 216 0.002872219719856073 
3 187 188 2 0.05583152046738771 
3 213 31 207 0.02371983582749304 
3 215 212 207 0.007777801979505283 
3 54 217 41 0.002846320200732499 
3 206 217 101 0.003198784540570654 
3 216 217 206 0.007669636955912162 
3 41 217 216 0.00473490339480831 
3 1 106 214 0.1055063174078343 
3 4 218 133 0.1043004557636757 
3 218 210 133 0.1192676970144142 
3 205 170 79 0.2142311672548136 
3 146 95 209 0.4164345756257877 
3 96 205 79 0.06127038002863228 
3 217 54 218 0.09161676436483512 
3 217 218 101 0.09508616316993024 
3 100 106 1 0.1055063174078343 
