ply
format ascii 1.0
comment VCGLIB generated
element vertex 58
property double x
property double y
property double z
property uchar red
property uchar green
property uchar blue
property uchar alpha
property double quality
element face 112
property list uchar int vertex_indices
property double quality
end_header
200.9018548525459 82.45880354682237 947.9588627414059 255 255 255 255 0.4987605808907972 
199.9873514186635 83.57474205407065 946.9162820542489 255 255 255 255 0.06757840130792378 
199.3639304185821 84.00258286191291 947.6373535361301 255 255 255 255 0.103693956819473 
201.2733351827436 83.32349590273813 947.3540274447022 255 255 255 255 0.2033577430682113 
199.3979214968525 85.0521081810103 947.1078123760162 255 255 255 255 0.1070531854136547 
199.0252689896948 84.89535054627703 947.3600091216717 255 255 255 255 0.08758064296933166 
201.193588111603 82.95929180994283 947.0731314966835 255 255 255 255 0.193540834501945 
199.0228691858641 84.28636196372354 947.6129574704139 255 255 255 255 0.08931651321120214 
201.2343319257173 83.28031216157206 947.7909496781381 255 255 255 255 0.3613028992529037 
200.4875133331771 84.11889545491616 947.1803102209792 255 255 255 255 0.06725733297557378 
201.2743838388015 82.63076917951189 948.1472007323745 255 255 255 255 0.4842944852503615 
198.9689644751858 84.9181283807651 946.7716102005179 255 255 255 255 0.102830562334957 
200.1081705941833 84.45675978943521 947.136244339262 255 255 255 255 0.1029040548691192 
200.6380345947271 83.90434115036173 947.6452647228161 255 255 255 255 0.1498604941844052 
200.6013359881155 83.41903584422637 947.9195386318776 255 255 255 255 0.2756197745390536 
199.7276749069536 83.68638120709969 947.6726246643703 255 255 255 255 0.113647272670673 
201.1405464096163 82.33861763551303 947.2205139120134 255 255 255 255 0.3597550702071148 
200.4632578165781 83.72236001899169 946.8967095530539 255 255 255 255 0.04795640861635841 
201.4887599224771 82.59596721074547 947.1890075457899 255 255 255 255 0.2710149907573444 
199.9578819320529 83.28281260123418 947.3054030817539 255 255 255 255 0.1164540451013962 
199.0977484753918 84.03870633273158 947.2128324786337 255 255 255 255 0.09882792825407642 
199.6603168957381 84.83478700893328 947.1003840967315 255 255 255 255 0.1163658575262994 
199.9719132909251 84.50862659629759 947.5593037494208 255 255 255 255 0.1085683413014931 
200.3265148896349 83.25117981707754 946.9726063348581 255 255 255 255 0.08764750781348218 
201.7511559645019 82.62351940644629 948.0101708799247 255 255 255 255 0.4204193144656817 
201.8605371007444 82.09193713635759 947.373528769604 255 255 255 255 0.3513260399763369 
200.4032264228306 82.83466459753893 947.3993187739766 255 255 255 255 0.2231342360062084 
200.9471687441332 82.57852449297164 947.1427859360917 255 255 255 255 0.276143859089233 
200.8345098296504 83.78707376865202 947.2407357938223 255 255 255 255 0.09444960632196152 
200.1873884249988 83.25602830708031 947.7436339297236 255 255 255 255 0.2102630312581295 
201.4970434008209 81.85317480160747 947.3993740860205 255 255 255 255 0.3973368766123768 
199.5220540080902 83.98393263545147 946.8658878500745 255 255 255 255 0.110903137336159 
200.6911592447078 82.50920224239863 947.4896752428317 255 255 255 255 0.3556903539962545 
199.3350169914559 84.70428852464698 946.7832455951929 255 255 255 255 0.1299242993170546 
199.9386161264691 84.04794605330849 947.8111574503067 255 255 255 255 0.1058756063646899 
199.5275872228665 84.88045273487387 947.5267550531531 255 255 255 255 0.1003517406873234 
200.1304767177207 84.02806568734484 946.8496411208856 255 255 255 255 0.07741816293000706 
201.0114401303757 82.10489154359406 947.6277665178159 255 255 255 255 0.4242636177524028 
199.2015671040436 84.67114529717055 947.7526137176538 255 255 255 255 0.07611752685643772 
201.5994980143718 82.93754812858522 947.4687985949583 255 255 255 255 0.2934988702473655 
199.7777168038307 84.33530976921759 946.8147125704289 255 255 255 255 0.11471812112737 
200.9414323048933 83.60111863504099 947.7079163982454 255 255 255 255 0.2657380656691591 
200.3048301833667 83.71282899827111 947.8607466626635 255 255 255 255 0.1554064234202917 
200.8275038769858 83.35063340362998 946.9711170407691 255 255 255 255 0.09208132886730076 
200.2466940627072 84.26824275601108 947.5877314605309 255 255 255 255 0.09200020326887415 
198.8146874429497 84.27209333046036 947.1949999330673 255 255 255 255 0.09039987778633568 
200.8409965235041 83.16229582453552 947.9834869968477 255 255 255 255 0.4496741254353064 
200.4789854562569 82.95475759242481 947.8113137512121 255 255 255 255 0.3764031502015484 
199.5932803454173 84.34542281984034 947.779250109625 255 255 255 255 0.0940315330839524 
199.5605915065464 83.64468124579892 947.2524432492411 255 255 255 255 0.09191135992343558 
200.6859078538233 82.87832022573704 947.0583296481796 255 255 255 255 0.1947250265666396 
199.0169024995126 84.40650414072964 946.8294423583358 255 255 255 255 0.106219542256963 
198.7250997284918 84.53141680829255 947.5891553809466 255 255 255 255 0.06739337390695506 
198.804590246732 84.65738830320532 947.1378052399716 255 255 255 255 0.08855914397213815 
201.9248967911843 82.50573665500603 947.6233853546562 255 255 255 255 0.3372429343746614 
201.6194626857852 82.15983337177408 947.8859657085077 255 255 255 255 0.42485592969536 
201.4919001963849 82.950349107592 947.8979240209854 255 255 255 255 0.3908611068592927 
201.0613764960183 82.89704204041242 948.0571848590428 255 255 255 255 0.466984305342834 
3 4 11 5 0.03305133182976661 
3 35 4 5 0.01649000985295745 
3 54 55 25 0.0237138506480209 
3 11 53 5 0.1242313404049684 
3 11 51 53 0.01969206256748457 
3 53 45 52 0.03220444089691377 
3 19 49 1 0.01100001926996397 
3 22 44 12 0.07718949297704025 
3 48 35 38 0.06476746999818661 
3 24 54 56 0.1567556674538506 
3 18 27 6 0.0254572443543235 
3 38 52 7 0.06192161701862664 
3 7 52 45 0.02059511370592249 
3 29 19 26 0.04568401717358994 
3 9 12 44 0.0006498524777579506 
3 23 19 1 0.002076770141525741 
3 29 26 47 0.1302146466670172 
3 21 40 33 0.03575893159107901 
3 28 41 3 0.04632570534727387 
3 22 35 48 0.04283345360625079 
3 47 26 32 0.1152480586197813 
3 17 23 1 0.002630799269699002 
3 6 43 3 0.03796131650698864 
3 20 7 45 0.04959239934924442 
3 46 14 47 0.06974252144513893 
3 28 17 9 0.002539688536898899 
3 43 6 50 0.006038223106930141 
3 29 42 15 0.04941476772021436 
3 21 4 35 0.05613607495529804 
3 34 44 22 0.1036115311875698 
3 14 13 42 0.08821964208716448 
3 15 2 49 0.04062018711664084 
3 42 34 15 0.0907495783419725 
3 39 54 18 0.06747176138104172 
3 41 28 13 0.02334764264853728 
3 21 35 22 0.08695078673953904 
3 38 7 48 0.0680615328763029 
3 51 20 45 0.1198781818740217 
3 50 26 23 0.0677280830163095 
3 27 16 37 0.2295277312895115 
3 29 14 42 0.01608339791844737 
3 51 45 53 0.0159275454296135 
3 19 29 15 0.04243292255936149 
3 36 40 12 0.008500849909236274 
3 12 40 21 0.03535735639348359 
3 28 9 13 0.01655119103567504 
3 42 13 44 0.08702997897815146 
3 36 31 40 0.1210977971468802 
3 39 6 3 0.02842008110978367 
3 28 3 43 0.03999856909146582 
3 2 15 34 0.09439531880404273 
3 33 4 21 0.06428940976918895 
3 2 7 20 0.01115538878369593 
3 13 9 44 0.005436328586302275 
3 1 31 36 0.04915563845256465 
3 54 24 55 0.03762927202399524 
3 22 12 21 0.08716357410621844 
3 50 27 32 0.1215204749087369 
3 2 34 48 0.1218952939102753 
3 34 22 48 0.01942610501944353 
3 42 44 34 0.1098958546881842 
3 32 26 50 0.07694933429405515 
3 39 18 6 0.04556555552427888 
3 41 46 8 0.03211512332126365 
3 23 26 19 0.04352658383390773 
3 12 9 36 0.001351368957698051 
3 14 29 47 0.01642275213620614 
3 20 49 2 0.02731383598813464 
3 27 50 6 0.04205661775960223 
3 36 17 1 0.006433061701434761 
3 31 1 49 0.03029446749124654 
3 14 46 41 0.1178752323923205 
3 51 31 20 0.04530120226948076 
3 36 9 17 0.005924029585738788 
3 43 50 23 0.001702429579149678 
3 49 20 31 0.02241980917755626 
3 8 57 56 0.1931007088708506 
3 16 27 18 0.2172831674725243 
3 8 3 41 0.07078582477735007 
3 13 14 41 0.07797912270067731 
3 2 48 7 0.126932163883439 
3 49 19 15 0.04982741290312265 
3 11 4 33 0.04306239351312191 
3 52 38 5 0.005650641469766016 
3 35 5 38 0.02700703106931124 
3 51 11 33 0.03961431136051474 
3 53 52 5 0.04129368354164964 
3 3 8 39 0.06838066207955784 
3 18 54 25 0.05848832569733986 
3 56 54 39 0.100879234870345 
3 43 23 17 0.002466981202389529 
3 43 17 28 0.0007770270942500934 
3 37 30 55 0.04195640042787185 
3 30 37 16 0.04496745948969894 
3 0 37 55 0.06746384764715863 
3 55 30 25 0.07477638071178949 
3 31 51 33 0.1749311628369457 
3 56 39 8 0.1567556674538506 
3 0 10 57 0.3430089121269326 
3 24 10 55 0.1105597644124344 
3 37 0 32 0.1023598765847299 
3 46 57 8 0.1443285855570614 
3 47 57 46 0.2444202022573168 
3 57 47 0 0.2444202022573168 
3 0 47 32 0.1779649297804848 
3 27 37 32 0.06358864595090019 
3 25 30 16 0.2344399638596316 
3 10 56 57 0.1931007088708506 
3 56 10 24 0.1931007088708506 
3 10 0 55 0.116502726666037 
3 33 40 31 0.2389798079647329 
3 18 25 16 0.2165359666998826 
