ply
format ascii 1.0
comment VCGLIB generated
element vertex 269
property double x
property double y
property double z
property uchar red
property uchar green
property uchar blue
property uchar alpha
property double quality
element face 534
property list uchar int vertex_indices
property double quality
end_header
121.2770355078506 35.31591140922963 818.7784599096999 255 255 255 255 0.002824563466755218 
122.3855481969116 35.82482992713513 816.1204961057506 255 255 255 255 0.1176023332572559 
123.6798172018579 33.74528345405068 813.7555238506673 255 255 255 255 0.009695363365794974 
121.7858801975822 34.81295000906044 816.9528253425409 255 255 255 255 0.0107895397425994 
122.6389009710764 35.46587765130661 814.9030347884218 255 255 255 255 0.01977329398888887 
121.1725193211779 35.14423754509211 820.2265676733113 255 255 255 255 0.01751071087482476 
123.0997586642003 37.38799523745547 817.7508065341101 255 255 255 255 0.009356382038156454 
122.5502811467484 35.43473380928798 815.7326860337674 255 255 255 255 0.08498836652013531 
122.5365795342235 35.42375322595823 815.8378901222225 255 255 255 255 0.1402473609935121 
121.7822309310758 35.66833568551406 814.9454483022358 255 255 255 255 0.0132639514566913 
122.3757057372242 35.67372955437816 816.0753861059558 255 255 255 255 0.1767097901083339 
122.512142068374 36.16439496107123 815.2619623149147 255 255 255 255 0.02106924731959596 
122.2999252016398 35.77780940881136 816.2252251862923 255 255 255 255 0.1794910408503023 
121.3292412869757 34.9196938794493 822.0170638541769 255 255 255 255 0.01416893415888508 
121.9265578145691 35.87778383594225 816.0950317753989 255 255 255 255 0.1925517897918596 
121.9221148097326 35.88211349316597 816.0691586337015 255 255 255 255 0.2371931933140522 
121.9450909909304 34.95232388458314 815.6046546198838 255 255 255 255 0.1106176740080056 
122.5122339571546 35.40490704471472 816.023173222868 255 255 255 255 0.1585281264349336 
122.285414273359 35.89291630100469 816.2362521369091 255 255 255 255 0.1362383461746357 
122.5655555880473 35.5423586200924 815.7648196222428 255 255 255 255 0.1288474562195021 
122.6190310001355 38.10727598947499 817.2952756189212 255 255 255 255 0.005764161009919589 
122.2460620689064 34.64855905237988 814.1763294211501 255 255 255 255 0.07206411332230232 
122.2658834071637 34.61048904452852 814.1468443344503 255 255 255 255 0.07898169792646641 
121.5396466369891 34.48159897141441 819.8390085305591 255 255 255 255 0.01564659934000658 
121.859664942371 36.04710855061938 815.873920151978 255 255 255 255 0.1058419215527795 
122.2191480002526 35.08334815880038 818.9596898719557 255 255 255 255 0.007028324962135339 
122.3178323284892 35.00830909478017 816.0419033398409 255 255 255 255 0.1158885446225402 
122.1676286546566 36.92579669370524 816.9539523035742 255 255 255 255 0.007762181443438056 
122.8317182050608 36.40597367419037 816.5345604738719 255 255 255 255 0.02730204310199739 
122.9359236779983 34.05643313307323 814.6808869696599 255 255 255 255 0.0137684624048528 
121.4173116528182 35.49251004561837 817.213748726808 255 255 255 255 0.005019026137201886 
122.0610242606558 34.9845815427815 815.522008430996 255 255 255 255 0.1617188981645363 
121.1828407806202 35.10400346191893 821.4979905212184 255 255 255 255 0.01962174485362976 
121.8583410900446 35.17416506383206 821.4783626737584 255 255 255 255 0.02254295344108506 
122.5153766459523 35.48678783341666 815.7907484386167 255 255 255 255 0.1248465819200334 
122.5345428394036 35.45412585369358 815.7707883441723 255 255 255 255 0.1176808541896671 
121.5645882446913 35.6274912539577 815.9280335780102 255 255 255 255 0.05944910297748714 
121.9781609152076 34.60487288582384 819.6520117536686 255 255 255 255 0.01210921795178264 
121.9941797367533 35.97169538427056 815.059380202919 255 255 255 255 0.01731106071262837 
121.2242464024991 34.79621928070167 819.4722030869168 255 255 255 255 0.006849665787290702 
121.6638342005573 34.67172533270593 818.2199147114995 255 255 255 255 0.001163681743674522 
121.4379902736677 35.07794664624658 817.0020107815477 255 255 255 255 0.004891903201604615 
122.618407802042 35.70467542340316 815.8905810205368 255 255 255 255 0.09049608378653133 
122.0008507965569 35.85753338642417 816.1245526449846 255 255 255 255 0.1395309232048892 
121.9740254189705 35.86881872944701 816.0831778668323 255 255 255 255 0.1604647083516707 
122.3053620922809 35.20123798737806 817.9343598321726 255 255 255 255 0.006037487703992134 
122.6004883754756 33.68158463114946 813.7555864297008 255 255 255 255 0.02187625111419158 
123.4684230818015 33.37846969321166 813.85563686286 255 255 255 255 0.01017805459338472 
121.4623833579069 35.53817252223856 816.7933427471836 255 255 255 255 0.0168675474153197 
122.8902141136286 33.78304105608831 813.1779817517755 255 255 255 255 0.1315938319900476 
122.9001065258399 33.76869489987498 813.1635813314707 255 255 255 255 0.1981713364027582 
122.1123039264815 34.90434171595091 820.463742224414 255 255 255 255 0.02882098863492046 
121.2443765014635 35.26622002226471 819.1972862578752 255 255 255 255 0.004262753985844869 
122.4871617300895 35.64165197008725 815.8951157629112 255 255 255 255 0.1503268727687909 
122.4696144316847 35.65413091926177 815.9151745977401 255 255 255 255 0.2441810634112827 
122.4400572780329 35.58574650105091 815.9485324766649 255 255 255 255 0.256696269802157 
122.8601738524929 33.38104112500714 813.3533873709547 255 255 255 255 0.01994381219094741 
122.741653252146 33.95436542087777 813.4101832486282 255 255 255 255 0.08923510277505529 
122.9411763056808 36.53792613205523 816.0861943492632 255 255 255 255 0.02183876408744237 
122.6979581269107 35.96009538316586 816.1041433470494 255 255 255 255 0.07056449567543981 
122.5074120477973 37.67778913211981 816.7219727338902 255 255 255 255 0.004443279856445813 
122.3144806184928 35.7732299967668 816.1539186491958 255 255 255 255 0.1434285346850266 
122.4421388966083 37.44069118486973 816.4307403746025 255 255 255 255 0.009197658279856092 
121.9883624307742 36.75298191110932 816.1241640272132 255 255 255 255 0.0363483544743704 
122.0136729690315 35.94047163355047 816.0742510954898 255 255 255 255 0.1363395556927392 
121.2043235771547 34.75900512016426 819.7744720410138 255 255 255 255 0.01305914402434496 
121.89678443531 34.4574560563346 820.8781133857856 255 255 255 255 0.0278905797589033 
121.1401117036215 35.08411556249937 820.7205907139356 255 255 255 255 0.0195228063387426 
121.2569704110317 34.84727084444934 819.0348452732391 255 255 255 255 0.002008522921902936 
121.979814471623 35.96995431548793 816.0685568701074 255 255 255 255 0.1874411361228648 
122.4067078910619 35.63265179955204 816.0100574726017 255 255 255 255 0.2631343128018522 
122.4239769122123 35.60785151598706 815.9795797270593 255 255 255 255 0.2645646642980826 
122.466542741489 35.69447813165956 815.9543179382856 255 255 255 255 0.2410429669872372 
121.7160017012123 35.71881272107471 817.6651903228034 255 255 255 255 0.005934833120960194 
122.4585369806715 35.23696694599597 815.6755010055115 255 255 255 255 0.1119488136727429 
122.4703417883351 34.30201484006795 813.8334618796796 255 255 255 255 0.03589997760826481 
121.7382916717116 35.96010338856298 815.4425548407676 255 255 255 255 0.04829432286528328 
122.2402129602065 35.78764654494432 816.2555533017462 255 255 255 255 0.1971965192455672 
122.2779727144703 35.87225334561253 816.2187358379398 255 255 255 255 0.1805406009892022 
122.266989945224 35.84936175724788 816.1968778182519 255 255 255 255 0.178848300774201 
122.4244484893036 35.6222544069872 815.9380443206304 255 255 255 255 0.2506327044466881 
122.1161432257382 35.8974722437012 816.1200597155752 255 255 255 255 0.1628963354614286 
121.6739951994624 35.66790129910206 818.11742386923 255 255 255 255 0.005575893054841717 
122.8826741792711 33.67229531809813 813.224714939109 255 255 255 255 0.1194202499647586 
121.3845394683388 35.01906194716305 817.534682770304 255 255 255 255 0.00260469994258666 
122.3428293563811 37.08841705015561 816.0336505601513 255 255 255 255 0.01570628605314431 
121.600465969045 35.56527314995756 819.0069185561822 255 255 255 255 0.006033043914450145 
122.1438911893685 35.81367512936082 816.2190291311225 255 255 255 255 0.1754173249419242 
122.148779688679 35.81877583288471 816.1712411860703 255 255 255 255 0.1838890112144373 
122.1046644730141 35.83057140103251 816.1554831841966 255 255 255 255 0.1576269196538405 
122.166905593641 35.91608815434832 816.1674245298669 255 255 255 255 0.1847727569578519 
121.8512835222017 34.87509151742831 816.3604996499619 255 255 255 255 0.02525632975595594 
121.5453830514294 35.17556981191928 816.0656275710617 255 255 255 255 0.03156541453568969 
123.00892020833 37.03719221830418 817.2796118006505 255 255 255 255 0.006034720810782342 
122.0047613300744 35.08614436893948 814.5485729981236 255 255 255 255 0.04089342981789642 
122.0170378489351 34.66831820982497 819.1169515012784 255 255 255 255 0.006231739293015019 
122.8100528658019 36.11155808470287 815.6932998323061 255 255 255 255 0.03780639210285181 
122.4541302315655 35.57987776893992 815.8849855671705 255 255 255 255 0.1586966573601836 
122.398429779246 35.77245160325688 816.0622702089643 255 255 255 255 0.1630421692272015 
122.9276417113348 36.73894942707582 816.9082380613025 255 255 255 255 0.006036661076900402 
122.0825238850186 34.84811141831357 820.9262831557613 255 255 255 255 0.02527355830423994 
122.9190555621096 34.42401956022896 813.6740769665976 255 255 255 255 0.03210604890910672 
122.8989556498439 33.77956670566932 813.1687252384629 255 255 255 255 0.2554625964701198 
122.1932009371883 35.89237310466051 816.1713404967022 255 255 255 255 0.1696613890084525 
122.2236402783444 35.88517918081126 816.1883956261314 255 255 255 255 0.1888805529904669 
122.1913271315872 35.80472839321697 816.2070872816166 255 255 255 255 0.1773690520581095 
121.5641368919993 35.50671014549764 819.5044430663253 255 255 255 255 0.01225834243446169 
123.00907315737 34.66176938823891 814.7928502499273 255 255 255 255 0.01927710906284449 
121.9311079882317 36.12403760323703 816.1289564745113 255 255 255 255 0.1183259016608794 
122.4102790522775 35.63351307961112 815.9875873916378 255 255 255 255 0.2386494426637004 
122.4408963146115 35.71003502555612 815.9811311336315 255 255 255 255 0.2121565080828543 
122.921358583112 33.74897930938549 813.1295583913071 255 255 255 255 0.1315884813734924 
122.0598457994143 34.73223457951761 818.5715340196052 255 255 255 255 0.003421968007116522 
122.2819122405351 34.35729512269337 814.9469652186457 255 255 255 255 0.02704989028096694 
123.0822691986541 33.84476784341494 814.4545411585088 255 255 255 255 0.009845035827103586 
121.9708421109362 34.95017756462432 815.4246548101887 255 255 255 255 0.09772180672182296 
122.4069506645644 35.24945659693792 814.4643467641399 255 255 255 255 0.0595566265389842 
122.0666698820964 34.76237848235892 815.2786868222908 255 255 255 255 0.05307816873536889 
121.6397868629507 35.62241351392343 818.5140184875962 255 255 255 255 0.004728470644607327 
121.9522271734036 34.55984216639325 820.0310386810309 255 255 255 255 0.02250679167521608 
122.2754490169929 36.85904054896564 815.8000207481793 255 255 255 255 0.02687175115903623 
122.2502501443735 35.73548971852654 816.6374479914653 255 255 255 255 0.08756019683527587 
121.1686759126891 34.69806467179901 820.286349205051 255 255 255 255 0.01950883995584817 
122.1099576667412 35.58516799967641 818.0060512183233 255 255 255 255 0.006291054488195375 
121.7330547004117 35.3730144031837 820.2187809019953 255 255 255 255 0.02756985215726928 
122.6190413211582 36.49635446505594 815.5382337693127 255 255 255 255 0.0191975578453148 
121.2129885689524 35.21519908845108 819.6350249480577 255 255 255 255 0.009566844847460882 
121.5215045665851 35.59200434218894 816.2763401036373 255 255 255 255 0.05813830198167869 
122.2606505557392 37.2697896868158 817.3864280431267 255 255 255 255 0.008474908004544398 
122.2098614882187 36.6498693525213 815.6068712161207 255 255 255 255 0.02528980314295067 
121.1484833248469 34.65951359862807 820.5996912702407 255 255 255 255 0.0195704345770055 
121.9192858605956 35.2905336624775 820.5218866505465 255 255 255 255 0.02848417313289728 
122.3762198246258 35.05392923626012 815.5879120949226 255 255 255 255 0.109465431334117 
121.7083865766505 34.72838546534648 817.7176006352937 255 255 255 255 0.002245856429382271 
121.8828035968585 35.22046219224286 821.0954265628426 255 255 255 255 0.02603375984728197 
122.4826070964603 36.55659545412664 816.8965895722379 255 255 255 255 0.01570664505949684 
121.8778212544677 35.87791709804723 816.038748168843 255 255 255 255 0.1334087033066845 
122.2673816411753 34.96577588986089 816.4574287178599 255 255 255 255 0.08845161585455423 
121.4944655469519 34.39359716314799 820.5716797652417 255 255 255 255 0.02752152533923891 
122.4604020240625 35.54866800597814 815.9338445787486 255 255 255 255 0.1981556555383115 
122.8455345944973 35.07537608628095 814.587051912789 255 255 255 255 0.0348142150331615 
122.4130820331161 35.85629438872476 815.0256148804842 255 255 255 255 0.0185077912403148 
121.4975453431472 35.39086985129884 820.4699615150927 255 255 255 255 0.02174887623317135 
122.4672259441826 34.04315962585391 814.6645318994532 255 255 255 255 0.0163524701421123 
121.1142886581415 34.5961599756905 821.1278932531415 255 255 255 255 0.01748153898564786 
122.7660688347098 35.10803575238325 815.1679611280648 255 255 255 255 0.03029042952598621 
121.3479406617299 34.97405834414797 817.9327336814399 255 255 255 255 0.001445502541745457 
121.8856231525021 34.80544824184655 814.8607122345188 255 255 255 255 0.02100429191550522 
121.7523904532314 35.75906785622219 817.2959995449474 255 255 255 255 0.01420961301356281 
122.271556856798 35.77852261090329 816.2724943209402 255 255 255 255 0.1842248601355202 
122.1678572684889 35.78622900542576 816.3899552906144 255 255 255 255 0.13216930615247 
122.3124789955332 35.85188320717249 816.1825393966558 255 255 255 255 0.1537088638490358 
121.1040000445369 35.01519379122198 821.287889563936 255 255 255 255 0.01611979261183476 
122.2255716634044 34.92710772560262 816.8227664673987 255 255 255 255 0.03460070505131809 
121.6109289998676 35.41285876723373 815.2212160627724 255 255 255 255 0.02145772875581778 
122.7696108900276 34.63183025621281 813.9048374445528 255 255 255 255 0.05271125439474585 
122.6285797128911 37.09363009994873 817.5628515560805 255 255 255 255 0.008148626894007001 
122.1969045639939 34.89825389422835 817.092047950225 255 255 255 255 0.01015194649162821 
122.1612940841378 35.64640068031699 817.4675143213449 255 255 255 255 0.007461979673285313 
122.3474570878576 37.6057793627503 817.8425201925081 255 255 255 255 0.01142377026716612 
122.8091057678725 37.14138294541609 816.1798231905822 255 255 255 255 0.01300768361978848 
122.3944246731847 35.02237201349154 815.5135482959273 255 255 255 255 0.1032928459541284 
122.1551089605849 34.8527322687321 817.5074283080935 255 255 255 255 0.004379671432133509 
122.3875727442352 35.66399794506402 816.0337607654377 255 255 255 255 0.1954971189767474 
121.8709776470095 35.87181888400018 816.232285472406 255 255 255 255 0.1279349977542359 
122.5649545997687 36.85411325627238 817.2524015404189 255 255 255 255 0.006422081222669593 
121.4299629436246 35.26357863302934 821.5165730811862 255 255 255 255 0.01911224153192674 
122.3984788635507 35.30473727269939 816.9954956951277 255 255 255 255 0.03658769288304706 
121.8756194325368 34.41729283191617 821.2053576647866 255 255 255 255 0.02066235762003243 
122.2043617946011 35.79574728247702 816.2542281099053 255 255 255 255 0.1534978082613307 
122.5687556665222 34.68918707878935 815.2483852301642 255 255 255 255 0.05702778752979733 
123.051520129421 36.91817435971181 816.4936278787876 255 255 255 255 0.008305831771087372 
122.8226222204399 34.23677366725886 814.8569510427978 255 255 255 255 0.0189394834216308 
122.0684484358622 34.4701236556929 814.5792346986231 255 255 255 255 0.06633638365800422 
121.4873890444084 34.39851852813848 820.5556392919085 255 255 255 255 0.02758854539660731 
122.0642059086409 35.52646650377073 818.5325617614396 255 255 255 255 0.007477667975809446 
122.4793518495145 35.52513335798042 815.8904691972034 255 255 255 255 0.1618551218633756 
121.4599687368122 35.32138200747925 821.0424624610412 255 255 255 255 0.02117991560593318 
121.4800172175754 34.37190153014633 820.7460075866067 255 255 255 255 0.02074451211046997 
122.0562769774631 36.53369517760497 816.5180628677336 255 255 255 255 0.05081272570743959 
123.167162327301 34.12558618114797 813.2891277154392 255 255 255 255 0.09735342761010454 
122.2863832007546 35.76725344264629 816.3321340694317 255 255 255 255 0.142523204618459 
122.0571699307144 34.79926429140765 821.3292176266896 255 255 255 255 0.01910998576722188 
121.8823185957312 36.40926780877789 815.8058746696797 255 255 255 255 0.0590748621041905 
122.1621817002223 34.99175932048792 819.7304050950906 255 255 255 255 0.01948943179134797 
123.3096635785836 33.55949666274797 814.1018712036898 255 255 255 255 0.0110989779734089 
121.3268846585629 35.38529764046277 818.1772209946969 255 255 255 255 0.003060585303699551 
121.9135290055907 35.96765641456794 816.0203101292487 255 255 255 255 0.2004479378001339 
122.3417625208337 34.02514365932492 814.15867091807 255 255 255 255 0.03796957495566392 
122.3791547663766 36.19929905811333 816.5163628151422 255 255 255 255 0.06761820517699234 
122.3574096238006 35.26169081368938 817.3900993162896 255 255 255 255 0.008522596507213039 
121.8627518992514 34.39144220232446 821.4178954906012 255 255 255 255 0.01365534091393631 
123.235882962708 34.29942775992883 814.4434251840222 255 255 255 255 0.009199606295032135 
121.4418568230864 34.29906795075782 821.3460144618728 255 255 255 255 0.01392459316173963 
121.7036279956241 35.32499308460215 820.6216594238674 255 255 255 255 0.02796698543916152 
122.3367610428594 35.73322901838858 816.1358188253345 255 255 255 255 0.1695716706275348 
122.1103386567153 34.79972375738737 817.98107400889 255 255 255 255 0.003102886937968152 
121.9557308737747 35.356694447786 819.9729177395568 255 255 255 255 0.02038203194981816 
121.8927037533455 35.88952752188833 816.060586120448 255 255 255 255 0.2231112116101845 
122.2061872519225 35.69370433565765 817.0316644913402 255 255 255 255 0.02423974404074596 
121.9299987009432 34.5192730796396 820.3661571722168 255 255 255 255 0.02815229329690018 
122.1036063940252 37.15111672591856 816.5513309571234 255 255 255 255 0.01423072726596154 
122.2827925953002 34.5897341447825 814.1213235516138 255 255 255 255 0.06319319482620327 
122.038111521733 34.98227032472438 815.4777741568547 255 255 255 255 0.1204750016802814 
121.622838231964 35.67251318943567 815.4817284739087 255 255 255 255 0.0402746094335543 
121.9059813843906 34.92075382644391 815.9156599043559 255 255 255 255 0.06976904954587855 
122.0706178543502 35.90322701899148 816.0914563311056 255 255 255 255 0.1544326756334967 
121.6050062236335 35.22385659285725 815.5956269917215 255 255 255 255 0.04923399421005772 
122.2029714773468 35.64863917167531 814.7773024202087 255 255 255 255 0.01256493924754541 
121.6844199722851 35.79433608819013 815.3169554919237 255 255 255 255 0.02240833932829771 
122.282427168517 35.87212992768335 816.2171152963248 255 255 255 255 0.174754661218314 
121.8872473672527 35.98453153928588 816.0120549406849 255 255 255 255 0.180812609648207 
121.8928526017484 35.95593490235762 815.9984580228644 255 255 255 255 0.1909092542819645 
121.869784404041 35.34826791731668 814.7552729920283 255 255 255 255 0.01521561859102764 
122.7280939280233 33.66378347400843 814.259650603499 255 255 255 255 0.01258920821756424 
122.261183834653 35.14325939892563 818.4402124876431 255 255 255 255 0.005631894142335676 
121.9522595775679 35.95134522834406 816.0375880456719 255 255 255 255 0.2174820951984783 
121.5109135424627 34.43011404837657 820.266872196153 255 255 255 255 0.02506578172908381 
122.6210558899851 34.86934855753199 814.1363603824833 255 255 255 255 0.05568286736698419 
122.0610783892259 35.84565552471018 816.113488001561 255 255 255 255 0.1455245312795339 
122.1248095623082 36.07967745440563 816.2402789265819 255 255 255 255 0.1205730932052255 
121.7590491729451 35.0527146736783 815.0544681475657 255 255 255 255 0.03247696228030635 
121.8791648925077 35.95928574748918 815.9906760583792 255 255 255 255 0.1627946615486786 
122.6882393915465 35.73039140773933 815.3892199720298 255 255 255 255 0.0459539517771501 
122.7444767750119 36.92002613938539 815.9418999471746 255 255 255 255 0.0204480975251007 
122.9923101450729 34.8201304852704 814.3609647669293 255 255 255 255 0.03136723167226924 
122.888922739502 37.42148522334212 816.506907150487 255 255 255 255 0.004387493970959041 
122.0973392265739 34.96016906926969 815.4425026137395 255 255 255 255 0.1099899508891807 
122.1418304235501 34.95731558906103 820.0248032209633 255 255 255 255 0.02729180394907869 
122.5180515262423 35.73134831836408 815.9644837996069 255 255 255 255 0.1723972107587851 
122.2326274357205 34.1907691220548 814.3262927818022 255 255 255 255 0.08406395844891938 
122.6419598124759 35.35204101070024 815.3585105082539 255 255 255 255 0.08417083891778186 
121.5365667493827 35.46096916445797 819.8869925771406 255 255 255 255 0.0184598671762847 
122.2659863715639 34.62427829851922 814.1510941037274 255 255 255 255 0.1674096315481483 
121.5863218629368 34.55842177214416 819.192359429589 255 255 255 255 0.006519250831750384 
122.4627790290322 36.01853127753319 816.2794432897907 255 255 255 255 0.08875151224174564 
122.9472964758921 33.39268133711625 813.9191147649283 255 255 255 255 0.0109767013027087 
122.4461329267448 35.34947375182584 816.5691007587568 255 255 255 255 0.1131363945884616 
123.5030999388656 33.94833169456609 814.0296630691545 255 255 255 255 0.008650309316983035 
122.2030966876618 37.51742732433581 816.9983949956181 255 255 255 255 0.006647335454389306 
122.0346909775923 35.48382043092652 818.8993283558996 255 255 255 255 0.007287504436110749 
122.0822221193446 36.24303735101272 815.2678078173582 255 255 255 255 0.02524437686411684 
121.6272363078287 34.62055323969417 818.6627978217318 255 255 255 255 0.001875929087062941 
121.3707048297742 35.43989386805251 817.6916114823698 255 255 255 255 0.003452341822832054 
123.140412831797 33.17494812740411 813.6190591952775 255 255 255 255 0.009607157749477672 
122.1848824350499 35.03021926055146 819.4127568618808 255 255 255 255 0.01073940944385594 
123.8143661588243 33.78220291852838 813.2146722918745 255 255 255 255 0.03341654324433006 
122.0012974665272 35.43249825998006 819.3364167671946 255 255 255 255 0.0118315164511229 
121.8437261891285 35.85082540134933 815.9830422192933 255 255 255 255 0.0940888967895519 
122.0403465355339 35.82839849544402 816.2822465941194 255 255 255 255 0.1441094292603313 
123.2404312520788 34.44743979397143 813.9757960273637 255 255 255 255 0.007253597161648737 
121.5727064843957 34.39568435450009 821.92755406396 255 255 255 255 0.01410998893945427 
123.4663152456186 34.16829027288941 813.6257380374088 255 255 255 255 0.03001220705052486 
121.2995629851758 34.90940328678482 818.4978340162061 255 255 255 255 0.0009688840785322563 
123.2421611443694 37.63209676015744 817.4048252508815 255 255 255 255 0.005696361104281733 
121.8122646528615 35.81825118994261 816.7465301679555 255 255 255 255 0.06113774059797219 
123.2579128164113 33.82457558580975 812.9219704057293 255 255 255 255 0.07855013584899929 
121.5006136954333 35.13589413056098 816.4449646623146 255 255 255 255 0.01303970269071597 
123.2393016498532 33.07486763921113 813.1555597299878 255 255 255 255 0.01075930764793934 
123.0796841206744 33.39464249688722 812.9388722835009 255 255 255 255 0.0233684390769142 
123.0205286004511 37.90940683532136 817.1412768876784 255 255 255 255 0.003937946446993967 
121.747002146786 34.77142512352173 817.3352840857062 255 255 255 255 0.004499979716401166 
122.8132422693465 37.72598138820615 817.7383803457858 255 255 255 255 0.008593306608950685 
121.0657033599167 34.60388566039583 821.6320858838527 255 255 255 255 0.01318160882833624 
123.686501589309 33.21198097926855 813.5291325856622 255 255 255 255 0.009542351701883984 
123.1503313988181 37.2802290397543 816.9394812953544 255 255 255 255 0.00368584785959461 
123.6207636031655 33.51627384504502 812.9972466154259 255 255 255 255 0.01268626752890347 
122.2920925905532 37.85535704928446 817.451883895987 255 255 255 255 0.007625855613671722 
121.9185552873788 34.91156986691085 821.8780940771112 255 255 255 255 0.01500079511671634 
3 253 0 186 0.03015369397508183 
3 237 195 181 0.4864423880850054 
3 14 15 198 0.5057390168700611 
3 13 166 32 0.2779299570139011 
3 193 191 251 0.07781582814633758 
3 263 144 193 0.01368726115873464 
3 130 174 178 0.3423613766200064 
3 263 13 32 0.003769652990895378 
3 34 8 35 0.2258111165797134 
3 34 35 19 0.335557041510027 
3 53 54 55 0.4837933759508829 
3 172 170 113 0.0368273279076492 
3 135 165 27 0.00303340336947322 
3 43 64 44 0.2624777451302374 
3 14 44 69 0.2966106211723685 
3 71 54 72 0.1855888013351331 
3 77 78 79 0.4714993655309471 
3 55 54 80 0.3937069452973512 
3 80 54 71 0.5853573615362201 
3 87 88 89 0.3421890358564493 
3 90 89 88 0.2966331279766596 
3 19 97 34 0.3010585236049355 
3 229 98 110 0.4539762350192694 
3 8 74 7 0.3791267224642311 
3 46 188 75 0.08468524063137151 
3 90 103 104 0.8220499103142711 
3 104 105 79 0.1280932625575449 
3 106 86 52 1.655701465552717e-05 
3 204 209 154 0.2212444345415217 
3 106 232 197 0.2738966443300773 
3 45 190 158 0.1276257769303398 
3 151 61 1 0.02182959906387294 
3 109 110 70 0.5803203562418624 
3 102 50 49 0.6219248182971835 
3 111 50 102 0.852988430700777 
3 49 57 180 0.09366886200937008 
3 49 50 83 0.6805360062424336 
3 220 81 90 0.557855556942966 
3 26 74 8 0.2533967463582704 
3 73 243 82 0.07051568458424651 
3 147 173 113 0.1053790005107225 
3 27 179 135 0.02879687693661714 
3 55 139 53 0.3548006344019051 
3 154 209 9 0.001556104235484246 
3 108 69 64 0.8458573396290021 
3 12 181 195 0.8352068591486856 
3 26 8 17 0.4520522485181729 
3 181 149 150 0.4086437631314901 
3 109 70 71 0.3926479560900504 
3 221 207 154 0.1742048066354033 
3 199 121 255 0.03822922400047968 
3 110 163 70 0.2578973262252328 
3 90 81 89 0.189179705619367 
3 27 128 239 0.0429487725656823 
3 188 214 143 0.02507850094574482 
3 82 123 73 0.03103341632858569 
3 44 14 164 0.4147871089301305 
3 169 79 105 0.2662713849569779 
3 169 77 79 0.4304324385106236 
3 198 136 164 0.8461145548098297 
3 44 164 43 0.2783179762426651 
3 34 97 176 0.4902566711378387 
3 196 40 133 0.003896377723670241 
3 109 72 110 0.3022381424631421 
3 51 100 66 0.1885175082288862 
3 189 220 18 0.1518501691878436 
3 234 68 242 0.03022217837278274 
3 194 177 134 0.02431521075064824 
3 108 179 63 0.07166326012383739 
3 139 55 17 0.7914739071710117 
3 53 97 19 0.3768327296094586 
3 177 67 152 0.01050417249211144 
3 218 233 21 0.8261477931930123 
3 113 230 143 0.1544540331767044 
3 1 61 195 0.28952310887255 
3 12 195 61 0.5580638362473895 
3 98 1 195 0.05731034596101992 
3 191 193 168 0.295638629771354 
3 59 28 235 0.2700700829860396 
3 39 68 234 0.02023226547982626 
3 218 155 233 0.7941444069177661 
3 196 133 162 0.003236446295813433 
3 55 80 71 0.004478276203103815 
3 22 202 230 0.8484602196014288 
3 40 196 112 0.01720780069252503 
3 229 54 53 0.6301901828785995 
3 16 31 132 0.7545931046820122 
3 179 108 220 0.3865192019282383 
3 174 138 178 0.9588378508787538 
3 63 201 85 0.02423154139912098 
3 183 76 24 0.210815800026919 
3 52 126 106 0.01307787946161854 
3 97 139 176 0.0135627721860192 
3 19 35 7 0.4360478973297159 
3 43 206 64 0.07411995034703822 
3 220 64 206 0.5167400316672172 
3 206 81 220 0.6382123630155923 
3 229 53 42 0.0444342632977599 
3 59 1 98 0.6106647824899725 
3 7 35 8 0.6280139232956337 
3 169 105 87 0.2047589514249077 
3 11 141 241 0.2464603628722131 
3 60 239 267 0.08522663113516593 
3 57 49 83 0.476806942838736 
3 167 157 153 0.1651529478884975 
3 143 214 29 0.05485805172507874 
3 210 151 18 0.7348023723774503 
3 211 212 187 1.882811941600337e-05 
3 152 263 32 0.3076357706539137 
3 247 184 245 0.3615632599387275 
3 232 106 126 0.03586726347872993 
3 198 187 212 0.4146479909137522 
3 136 198 212 0.4636404768843709 
3 76 183 241 0.03920434800775274 
3 20 60 267 0.0976165414217427 
3 95 37 234 0.06255442348839491 
3 142 194 124 0.1436429107737807 
3 111 83 50 0.4598068214975644 
3 48 41 30 0.02261872496826201 
3 106 197 247 0.06523284711838262 
3 49 180 102 0.9427500783881458 
3 112 196 215 0.03977475176938283 
3 207 36 204 0.02149175232560241 
3 198 15 216 0.4267388680510408 
3 77 149 78 0.4481541692082036 
3 120 85 224 0.09996461355599673 
3 104 18 220 0.5013107974852493 
3 199 158 190 0.1038021804958608 
3 4 145 140 0.03996770543841843 
3 17 176 139 0.5023006167332565 
3 43 249 219 0.4028125071765143 
3 208 141 4 0.03984293011718276 
3 213 154 9 0.1301917990088906 
3 174 217 138 0.9729378887518018 
3 138 217 200 0.1464736086503787 
3 68 52 0 0.05221999679319378 
3 243 146 186 0.007253509149295012 
3 215 196 45 0.06190096014771462 
3 220 90 104 0.6522795470889152 
3 123 82 175 0.0449592217830751 
3 240 118 86 0.04139444210131915 
3 211 187 108 0.6924663050408473 
3 97 53 139 0.3809245061520916 
3 237 10 195 0.7106725914866164 
3 255 121 150 0.2255477609760121 
3 232 126 5 0.03803029624018972 
3 242 40 112 0.03261266483755476 
3 17 55 71 0.7131545869973912 
3 223 19 7 0.6080076164664128 
3 46 56 236 0.02455067336284866 
3 57 101 180 0.02346387540956218 
3 63 179 201 0.06477425987683083 
3 131 134 100 0.06531654481899163 
3 45 196 162 0.05531674172065737 
3 218 225 155 0.1335537238440551 
3 177 194 142 0.3376880783869751 
3 246 2 264 0.1344207234759234 
3 37 245 184 0.1817191131945717 
3 46 214 188 0.01351713417130773 
3 11 223 141 0.02755796465011451 
3 245 37 95 0.005498505171290913 
3 223 4 141 0.03310098497907388 
3 16 207 115 0.418184301327734 
3 167 199 190 0.1564368009666504 
3 2 252 238 0.04230033626078722 
3 229 110 72 0.3680782394443625 
3 241 183 129 0.05416973493311439 
3 235 18 151 0.5195396167842146 
3 127 92 257 0.04006968019069412 
3 12 149 181 0.7079576503550962 
3 137 237 153 0.121365397771236 
3 101 75 155 0.083369969663875 
3 59 96 58 0.07183449540987208 
3 249 43 164 0.006679484290898374 
3 152 144 263 0.03227868789800259 
3 130 122 174 0.1643035802890649 
3 24 108 183 0.1345621071070934 
3 160 58 224 0.3603415893221351 
3 11 96 223 0.005200154289124348 
3 29 192 172 0.3954772279452982 
3 16 132 205 0.3182669766302417 
3 208 213 9 0.02517369120228885 
3 61 151 12 0.02147025502405742 
3 173 22 230 0.02575074885509487 
3 140 116 4 0.01018980657911883 
3 77 150 149 0.5797113752128062 
3 87 89 249 0.2318671091992333 
3 143 230 188 0.2875885792336638 
3 133 146 84 0.026806307763791 
3 7 231 223 0.04887919459197176 
3 102 180 111 0.8191880847188963 
3 236 244 47 0.04520152928738141 
3 227 170 161 0.2688291318382586 
3 14 198 164 0.6159482502930099 
3 98 163 110 0.04574966992332241 
3 172 113 143 0.05521432968066364 
3 242 68 253 0.0293674229851052 
3 91 137 153 0.2354058687181123 
3 137 26 17 0.2918742799041285 
3 32 177 152 0.3386914046915931 
3 87 105 103 0.2773532780197754 
3 104 103 105 0.3908459102612808 
3 213 221 154 0.07317281019806643 
3 89 81 219 0.03312228186207211 
3 89 219 249 0.4920045756476039 
3 72 109 71 0.525894926214753 
3 158 73 123 0.008200310569987823 
3 217 174 122 0.2050865756161809 
3 24 76 248 0.4593492443559827 
3 156 159 128 0.09665679523690252 
3 237 181 121 0.1575283617213824 
3 1 59 235 0.05478588184589273 
3 40 242 253 0.01764449250319655 
3 70 163 10 0.7894396503797814 
3 39 126 52 0.04959314492006572 
3 83 256 259 0.01889477678999485 
3 128 27 165 0.00901563277717643 
3 238 192 114 0.04316218173094422 
3 103 90 88 0.4594337018177469 
3 103 88 87 0.346705461695917 
3 237 121 167 0.1106767843898645 
3 124 131 197 0.3513772108303942 
3 160 85 62 0.00751470956836231 
3 17 70 10 0.7086403140938726 
3 104 79 78 0.2264189931985161 
3 33 182 134 0.05981847246071459 
3 171 160 226 0.03486653893890079 
3 144 130 178 0.03345170447213897 
3 161 74 132 0.7051686912420769 
3 241 141 38 0.1673082291230956 
3 209 38 9 0.01230825528446289 
3 116 208 4 0.01028349366390646 
3 92 36 207 0.0111074397167138 
3 222 24 248 0.5107613579732699 
3 58 160 171 0.06875349097096695 
3 187 216 69 0.6480569360143964 
3 198 216 187 0.2436616347145266 
3 69 44 64 0.3972241979546437 
3 5 142 232 0.03754768735102798 
3 70 17 71 0.7900704788411467 
3 206 43 219 0.1922354229627808 
3 206 219 81 0.09840440265743378 
3 152 67 144 0.08256125894036914 
3 42 223 96 0.0007833528103269316 
3 28 135 189 0.003503748555584441 
3 155 75 202 0.03564565431604083 
3 12 151 210 0.2326307828471769 
3 135 28 99 0.005701570050645199 
3 195 10 98 0.008906832509324114 
3 137 91 205 0.2224610116891437 
3 246 180 252 0.01874050994151588 
3 85 201 62 0.03360816494936947 
3 171 265 99 0.03949308027708376 
3 108 24 211 0.3890589242386423 
3 98 10 163 0.379832400081599 
3 148 73 158 0.05311433259201392 
3 5 130 67 0.09585154463674361 
3 247 240 86 0.03858118051571091 
3 227 31 203 0.2567028886201203 
3 171 226 265 0.0112662752087388 
3 69 216 14 0.3662536053614658 
3 108 187 69 0.336045966884259 
3 128 165 156 0.07455899876647032 
3 65 5 126 0.03980459698125938 
3 166 177 32 0.2838722928679689 
3 252 2 246 0.0507723790117578 
3 14 216 15 0.6509069939125002 
3 184 247 197 0.05519513740351667 
3 142 5 67 0.0105369632671134 
3 66 138 200 0.001066235001174975 
3 63 120 129 0.3239630836559642 
3 249 150 169 0.03830758654122923 
3 203 115 227 0.3235165484622344 
3 205 91 92 0.01889571513375132 
3 9 38 208 0.02895538390092689 
3 141 208 38 0.03300628844673414 
3 100 182 168 0.09576580678683988 
3 133 40 146 0.003955097248936945 
3 158 123 45 0.1335390987887367 
3 240 25 215 0.08132206424675237 
3 207 16 205 0.1998065273688574 
3 23 234 37 0.05472543532155694 
3 255 164 127 0.06175539196253543 
3 83 46 57 0.2071329434686606 
3 167 121 199 0.1530873614788496 
3 170 117 113 0.009007766087846147 
3 30 73 148 0.2070212852337703 
3 107 145 170 0.06631097756266557 
3 177 142 67 0.01206647329868049 
3 238 185 2 0.1015076137790015 
3 188 202 75 0.07423080516084146 
3 155 202 233 0.1201417274396055 
3 238 114 185 0.08557045254557738 
3 7 74 231 0.1843706165293872 
3 173 21 22 0.8284145193857437 
3 179 27 201 0.05699227743421587 
3 94 173 147 0.1324899042288465 
3 189 179 220 0.06392708875460795 
3 36 248 204 0.1829507785053414 
3 230 113 173 0.09695874798754189 
3 233 202 22 0.7988517578251852 
3 118 82 186 0.0516150111278072 
3 119 23 37 0.0444199859711899 
3 108 64 220 0.02732051783424949 
3 53 19 42 0.1028587930354212 
3 178 193 144 0.03020029707186556 
3 18 78 210 0.6938827146071078 
3 6 93 254 0.09286657839432932 
3 39 23 65 0.3170063297260719 
3 98 229 59 0.3008525270180014 
3 65 126 39 0.1229057566882068 
3 115 117 227 0.2526592870765244 
3 255 148 199 0.007796462766714862 
3 94 213 208 0.3398406155887208 
3 221 147 117 0.07962851901604462 
3 164 136 127 0.4278485839696832 
3 201 27 239 0.04477657454239914 
3 200 119 228 0.2862987780871097 
3 114 29 214 0.3193138034395154 
3 223 231 145 0.7362179787884455 
3 205 26 137 0.2681741808226473 
3 183 108 63 0.1483038364832391 
3 167 153 237 0.05139035399801117 
3 112 95 242 0.0527214731578427 
3 95 234 242 0.05944115118484494 
3 239 60 62 0.2624579307730093 
3 194 131 124 0.1812955943826207 
3 118 186 0 0.02223474936357961 
3 140 145 107 0.04496640439221544 
3 91 153 3 0.04410685726079566 
3 76 204 248 0.2048488858303789 
3 42 59 229 0.403150265462247 
3 115 221 117 0.2126360517647217 
3 193 178 168 0.05002988892057281 
3 115 207 221 0.07655434957664609 
3 156 93 6 0.03678001924386176 
3 236 56 244 0.114880809335742 
3 86 106 247 0.01131965145375546 
3 226 160 62 0.04138958690507288 
3 51 228 131 0.205397529556084 
3 212 211 222 0.2735707113456218 
3 211 24 222 0.6253218678959971 
3 185 47 2 0.16115193769614 
3 202 188 230 0.3884064663464175 
3 134 131 194 0.3617295580373127 
3 197 228 184 0.1440888669292201 
3 137 17 237 0.131352672538407 
3 151 1 235 0.3848278820775036 
3 19 223 42 0.3745553937281833 
3 170 227 117 0.3230979502441038 
3 218 116 140 0.01108731341265501 
3 119 37 184 0.1521925549543692 
3 131 228 197 0.09477659668562055 
3 148 48 30 0.1953943366447045 
3 21 233 22 0.8213466406423626 
3 148 158 199 0.032462474629115 
3 57 75 101 0.03393776000706039 
3 192 238 250 0.03132217947801885 
3 127 36 92 0.06247294748854149 
3 177 33 134 0.2294772832531642 
3 260 265 226 0.0159978757755298 
3 18 104 78 0.5405088660880453 
3 210 78 12 0.907852663439733 
3 149 12 78 0.244015228479685 
3 30 243 73 0.07256711855463338 
3 96 11 125 0.028779368936519 
3 162 190 45 0.02712969956373623 
3 253 68 0 0.006850524138677816 
3 204 154 207 0.0431621442091179 
3 34 176 8 0.1306547379370616 
3 17 8 176 0.09728635861299006 
3 157 190 162 0.02041632507560542 
3 167 190 157 0.03402663535744888 
3 150 121 181 0.3702573893675914 
3 62 60 226 0.05888082387792415 
3 153 157 3 0.1731110930583377 
3 170 172 107 0.07394853562279147 
3 171 99 28 0.02402176244922849 
3 136 212 222 0.71623963582619 
3 142 124 232 0.3465763364859312 
3 94 208 116 0.09962046881521591 
3 132 31 161 0.5663929148463805 
3 217 122 23 0.185407845764871 
3 45 123 215 0.12604950292321 
3 177 166 33 0.1084573073944853 
3 83 259 56 0.1148123186083214 
3 213 147 221 0.1973313562492633 
3 122 130 5 0.3682117829982009 
3 46 83 56 0.2194997587586009 
3 51 200 228 0.1229398874103987 
3 23 39 234 0.0434566548975831 
3 143 29 172 0.1624582276939359 
3 92 207 205 0.01780113238176784 
3 107 225 140 0.05305676867638309 
3 96 59 42 0.08563393620197446 
3 31 227 161 0.5507230625497912 
3 16 115 203 0.2570618882890791 
3 84 146 243 0.05904041793758597 
3 132 74 26 0.2665124157047519 
3 118 0 86 0.01783021551360964 
3 135 99 165 0.006311843716474641 
3 99 93 165 0.004143821268831616 
3 120 63 85 0.1026872177998182 
3 155 250 101 0.108681981035643 
3 217 23 119 0.02676900841008689 
3 94 147 213 0.1598795331587373 
3 28 189 235 0.26490313776031 
3 191 168 182 0.2803016808364369 
3 192 225 107 0.03821627992669885 
3 182 100 134 0.04129388178115989 
3 58 171 28 0.02224104485510525 
3 189 135 179 0.03012892204865925 
3 175 215 123 0.1076757874399912 
3 255 249 164 0.4243966122366679 
3 48 255 127 0.06023675417010943 
3 226 60 260 0.0178617030238849 
3 168 178 66 0.3311528724037819 
3 118 240 175 0.1750007481370227 
3 57 46 75 0.07066384615006971 
3 209 204 76 0.2087552839068524 
3 147 113 117 0.05329631203625496 
3 183 63 129 0.05273162605012272 
3 58 28 59 0.05717523731928253 
3 66 100 168 0.2126821234164383 
3 222 248 136 0.1673198003381881 
3 136 248 36 0.8640108866725209 
3 52 86 0 0.02173380366982292 
3 124 197 232 0.07758314512297171 
3 76 241 209 0.2800707822734969 
3 25 95 112 0.01250790875393659 
3 186 82 243 0.0472132262835846 
3 253 186 146 0.02685620991575766 
3 189 18 235 0.3893342099529439 
3 4 223 145 0.1036445002990207 
3 77 169 150 0.5974212629977628 
3 46 236 214 0.005847676625503451 
3 200 217 119 0.127561988831125 
3 54 229 72 0.4951215003372056 
3 201 239 62 0.05983633581332559 
3 165 93 156 0.02936658128973146 
3 99 265 93 0.07466351563025897 
3 228 119 184 0.3071704263089753 
3 48 148 255 0.07170509319848262 
3 74 161 231 0.1388956322577861 
3 94 21 173 0.05557409790744006 
3 38 209 241 0.06336077001202045 
3 36 127 136 0.1227485817272511 
3 92 91 257 0.07301490345163775 
3 178 138 66 0.4756958759702284 
3 47 185 236 0.1323048702478195 
3 192 107 172 0.03644981588610818 
3 122 5 65 0.06046647758688062 
3 255 150 249 0.4382354879895604 
3 236 185 214 0.1060095642094538 
3 214 185 114 0.08839135786455954 
3 118 175 82 0.1647798719948107 
3 132 26 205 0.0956725954268377 
3 192 29 114 0.07544894153754078 
3 17 10 237 0.231624257202025 
3 68 39 52 0.04984677560218442 
3 25 245 95 0.005269898348461255 
3 160 224 85 0.1012878609258131 
3 16 203 31 0.4974798681997417 
3 225 218 140 0.1272303650272556 
3 169 87 249 0.565946098172367 
3 225 250 155 0.0169260234334061 
3 66 200 51 0.1335589925377366 
3 33 268 182 1.680673103066077e-05 
3 250 225 192 0.02672367419711386 
3 251 263 193 0.007167503307297318 
3 250 252 101 0.0867414194804963 
3 3 157 261 0.07980983291321631 
3 253 146 40 0.009808520295928491 
3 215 175 240 0.2705652252403085 
3 131 100 51 0.1429887425420234 
3 127 257 48 0.006558713654493453 
3 48 257 41 0.00879468820648388 
3 256 83 111 0.8264877767615281 
3 144 67 130 0.1041164259625842 
3 84 243 30 0.05445560093214286 
3 3 41 257 0.1245251674309245 
3 96 224 58 0.07663742365384008 
3 238 252 250 0.03444199205405785 
3 112 215 25 0.01418270569028257 
3 252 180 101 0.06019584515732768 
3 257 91 3 0.1059272861825542 
3 262 267 159 0.06787370214098143 
3 267 262 20 0.05419910079667356 
3 6 254 262 0.06821738614297868 
3 260 20 254 0.04382798669442045 
3 258 264 244 0.01239199857515372 
3 25 240 247 0.06705347738271961 
3 244 56 258 0.03418250734213857 
3 259 258 56 0.05896829406843285 
3 260 254 265 0.01488729858581372 
3 122 65 23 0.09605184976440273 
3 260 60 20 0.04177139101712335 
3 157 162 261 0.04651625381658464 
3 133 261 162 0.05632844268025661 
3 11 129 125 0.1159722831301669 
3 84 261 133 0.0364768354277436 
3 20 262 254 0.03150492461434595 
3 120 224 125 0.5669111015105929 
3 30 41 84 0.03045949627576805 
3 251 191 268 0.005319174230896229 
3 84 41 261 0.01301697934813906 
3 3 261 41 0.1111448221483107 
3 25 247 245 0.05368147673161827 
3 13 263 251 0.008150781316004774 
3 256 111 180 0.0159340576724013 
3 246 256 180 0.008591525323577764 
3 159 156 262 0.4053735562074787 
3 265 254 93 0.09875329293335366 
3 268 191 182 0.1044087001388537 
3 244 264 47 0.022123764999464 
3 125 224 96 0.07367298580362436 
3 241 129 11 0.2295750439247649 
3 259 266 258 0.1225552956318753 
3 256 266 259 0.04848936213145305 
3 264 266 246 0.1498249310285993 
3 266 264 258 0.07888651791215373 
3 266 256 246 0.1131249288417049 
3 170 231 161 0.4723315455128961 
3 264 2 47 0.1344207234759234 
3 128 267 239 0.1477267940310817 
3 267 128 159 0.2208547478042991 
3 33 166 268 0.4362306708572599 
3 268 13 251 0.03327570143184855 
3 120 125 129 0.5669111015105929 
3 268 166 13 0.01913571919086887 
3 156 6 262 0.4053735562074787 
3 116 218 21 0.1670844906060095 
3 145 231 170 0.4723315455128961 
3 116 21 94 0.1209280983531067 
