ply
format ascii 1.0
comment VCGLIB generated
element vertex 335
property double x
property double y
property double z
property uchar red
property uchar green
property uchar blue
property uchar alpha
property double quality
element face 666
property list uchar int vertex_indices
end_header
204.0145515561258 85.61207527280109 884.1932603546663 255 255 255 255 0 
204.2715678897511 85.60118920740086 884.7341161352529 255 255 255 255 0 
204.1693793869139 85.59789333332725 884.8129769822302 255 255 255 255 0 
204.200375410613 85.54813276659128 884.7146416444607 255 255 255 255 0 
203.8355165756499 85.66513461966289 884.1910917365863 255 255 255 255 0 
204.6889459985497 88.09489394593437 884.0056029075525 255 255 255 255 0 
204.6966580661262 88.11711212272452 884.0661713121171 255 255 255 255 0 
204.7650282602305 88.09671692186566 884.0221071946122 255 255 255 255 0 
204.3347243970595 85.59983357212977 884.4743293703782 255 255 255 255 0 
204.0540413405763 85.65640680910758 884.1555986577056 255 255 255 255 0 
203.6416050390599 85.99490487779377 884.8297376674263 255 255 255 255 0 
203.7608304019384 85.92081237438646 884.8917333396455 255 255 255 255 0 
204.054670407648 85.76284199657965 884.091595504725 255 255 255 255 0 
204.3937434418476 85.65818245792278 884.4934327297483 255 255 255 255 0 
204.2700749573587 85.67167654492495 884.8271822792922 255 255 255 255 0 
204.3081481232037 85.58911005761486 884.6477718338756 255 255 255 255 0 
203.9954435131677 85.56097815665279 884.8089504482832 255 255 255 255 0 
203.9806577903336 85.51176656047427 884.7014865312998 255 255 255 255 0 
203.597904614534 85.80861890962362 884.3483092441318 255 255 255 255 0 
203.6379559611632 85.91637117024314 884.233039827377 255 255 255 255 0 
203.7083288374718 85.81028875161319 884.1896228442134 255 255 255 255 0 
204.4263338534188 85.70199202936884 884.5332600184915 255 255 255 255 0 
204.3981551634148 85.67966372480247 884.6356869182512 255 255 255 255 0 
203.8264864549899 85.6371465885354 884.2395079307285 255 255 255 255 0 
203.9371538241329 85.61681824356876 884.1974254789783 255 255 255 255 0 
204.1693030468032 85.59799570311083 884.2529934589788 255 255 255 255 0 
204.1093481753505 85.54256142406737 884.5964245005173 255 255 255 255 0 
204.3832300509327 85.68928036662506 884.3724028454764 255 255 255 255 0 
204.1950462424827 85.6651232020842 884.1914099557293 255 255 255 255 0 
204.1305518423022 85.7696071266074 884.1021647773995 255 255 255 255 0 
204.0934884435019 85.82912539352766 884.0731502959612 255 255 255 255 0 
204.1639544521718 85.71426858433968 884.141738305084 255 255 255 255 0 
204.1250852184208 85.61670038182748 884.8574419781289 255 255 255 255 0 
203.9239937439683 85.65846869818859 884.8965999015094 255 255 255 255 0 
203.7914340501661 85.66656801631605 884.8430678978125 255 255 255 255 0 
203.6187011070268 86.16456665869092 884.7112964878314 255 255 255 255 0 
203.6734361129556 86.13567131949863 884.8241365457777 255 255 255 255 0 
204.4330538766243 85.72385576756186 884.4642374516238 255 255 255 255 0 
204.4617485574782 85.78274914106331 884.5970890575078 255 255 255 255 0 
204.760865371181 88.119288540387 884.0918278514623 255 255 255 255 0 
204.2592725654811 85.73927663135764 884.1784767049771 255 255 255 255 0 
204.5937538777878 87.38882450846228 884.7266808152641 255 255 255 255 0 
204.680640665145 87.17373848657493 884.7963592825824 255 255 255 255 0 
204.7863972911254 87.49945379295227 884.7120491801235 255 255 255 255 0 
204.8759008379801 87.28311169420947 884.6254912423997 255 255 255 255 0 
204.52386345135 86.81761716280485 883.9221913012755 255 255 255 255 0 
204.2245935883712 85.83019886863029 884.1159105464174 255 255 255 255 0 
204.9041759586432 86.84659044856269 884.5714638298859 255 255 255 255 0 
204.7421219816728 86.86166835226038 884.7134798873732 255 255 255 255 0 
205.1385241341901 87.6124453166737 884.3908775229313 255 255 255 255 0 
204.3898557465761 85.70891133805273 884.6984928673146 255 255 255 255 0 
204.4788424964282 88.05022792809466 884.360701160043 255 255 255 255 0 
204.5101529244255 88.08278540323448 884.3129846670846 255 255 255 255 0 
204.4039285197117 88.01903894218577 884.3124584224992 255 255 255 255 0 
205.0758515949876 87.9011642762954 884.3656194209799 255 255 255 255 0 
205.1090805745189 87.82161663888893 884.3836006360573 255 255 255 255 0 
204.3575299734067 87.98436210224358 884.2844649084147 255 255 255 255 0 
204.3136111720689 87.9279948310041 884.3007289056333 255 255 255 255 0 
204.3348245622134 87.92836719675935 884.3551351173219 255 255 255 255 0 
203.7720461062183 86.50721631104352 884.4512037269653 255 255 255 255 0 
203.8269126234071 86.03588034711146 884.9650118829329 255 255 255 255 0 
204.183321337579 87.62087565615967 884.269074625841 255 255 255 255 0 
204.2371711991279 87.73012380714441 884.0708625069508 255 255 255 255 0 
204.2274570490788 87.63976441763063 884.0890411900774 255 255 255 255 0 
204.3384294864538 87.67184437690761 883.8762032652179 255 255 255 255 0 
204.3836680172145 87.79484793567221 883.8587020291213 255 255 255 255 0 
204.4364886166137 87.70535097680936 883.7960809805027 255 255 255 255 0 
204.1274795913382 85.70944443023933 884.9315106400128 255 255 255 255 0 
204.290696425257 87.72737113289173 883.9470968634297 255 255 255 255 0 
204.2555828792318 87.61270217233479 884.0048397692941 255 255 255 255 0 
204.4061822328329 87.99395682322175 884.3774655074424 255 255 255 255 0 
204.4243132943801 87.96479424452269 884.4460300621972 255 255 255 255 0 
204.8651699662098 88.07054833160664 884.3684368571268 255 255 255 255 0 
204.812627786734 88.06485792633723 884.4092050988406 255 255 255 255 0 
204.3276851261299 85.70753129451549 884.2606102279386 255 255 255 255 0 
204.3565228698376 85.77601198727957 884.2420127870403 255 255 255 255 0 
203.7023290653306 85.70749598090831 884.260630935589 255 255 255 255 0 
203.6338786267939 85.6933290249905 884.3979546295054 255 255 255 255 0 
204.2852398960167 87.90481812474565 884.2018528944956 255 255 255 255 0 
204.3533444014896 87.99202462213458 884.1980936641636 255 255 255 255 0 
204.3180002617093 87.94958094162493 884.1589353471406 255 255 255 255 0 
204.9775207297999 87.49418165056028 884.5565255331932 255 255 255 255 0 
205.061217695279 87.31789522768487 884.4504831965627 255 255 255 255 0 
204.3721661248559 85.74283828200593 884.7701967540072 255 255 255 255 0 
203.6069323450203 86.13726812001997 884.3476795095795 255 255 255 255 0 
203.5553610763144 86.03471687018536 884.4055457589618 255 255 255 255 0 
204.8032098392155 87.58825434460282 883.7307098074783 255 255 255 255 0 
204.6971310079907 87.65193046495261 883.7145526096421 255 255 255 255 0 
204.7364991818538 87.71662357580797 883.7205324108611 255 255 255 255 0 
203.9751877816373 85.76310914875113 884.9745013470733 255 255 255 255 0 
203.6036236552568 85.9560690218852 884.2790564581156 255 255 255 255 0 
203.7693514587431 86.12384463611686 884.9140526865663 255 255 255 255 0 
203.8476048967989 85.57749906306572 884.782851284078 255 255 255 255 0 
204.4602714736464 85.88135730088963 884.3003013162689 255 255 255 255 0 
204.3908219897398 85.74186022273345 884.3170744924197 255 255 255 255 0 
204.857021035511 87.73219184546318 884.6470934230954 255 255 255 255 0 
204.110527625069 85.51110791422974 884.6923996581446 255 255 255 255 0 
203.7882250089426 85.5898575852962 884.7525947071623 255 255 255 255 0 
204.5695827711819 88.11172547369922 884.1197287160008 255 255 255 255 0 
204.5115777778271 88.05989929329837 884.0164637788498 255 255 255 255 0 
204.5037761981232 88.09336405960642 884.1581850129278 255 255 255 255 0 
203.6085655863193 85.88053771991099 884.2823579963923 255 255 255 255 0 
203.5991510677513 85.81235844238735 884.7275066666075 255 255 255 255 0 
203.6607850808537 85.7561026429663 884.7913319286477 255 255 255 255 0 
204.2691253077192 85.95564756616362 884.9442589470264 255 255 255 255 0 
204.8916871266729 87.65200092387721 883.7554941815927 255 255 255 255 0 
204.9309463851801 87.58868259127337 883.779699218211 255 255 255 255 0 
203.6697651954861 85.63994919543293 884.6161477405863 255 255 255 255 0 
203.7981927751775 85.56735696241077 884.5855877021577 255 255 255 255 0 
204.878233462329 87.46673467497018 883.7898946087173 255 255 255 255 0 
204.569148684071 88.09478641011459 884.3439627925906 255 255 255 255 0 
204.8158639547245 86.63611020257039 884.5110964530929 255 255 255 255 0 
204.6832574035208 86.6189538515315 884.7246628500866 255 255 255 255 0 
204.3465740657017 85.809120001113 884.8475425807724 255 255 255 255 0 
204.479184413262 86.19360216251764 884.7988084225682 255 255 255 255 0 
204.6072676442717 86.16652396883211 884.6853717347808 255 255 255 255 0 
203.6826045935471 85.67144149249647 884.7385324030759 255 255 255 255 0 
204.9029484929354 87.98456677880021 884.4820734555566 255 255 255 255 0 
204.2547251399752 86.61351053639495 884.0132206807757 255 255 255 255 0 
203.9309901766454 86.15173664778033 884.1284529654544 255 255 255 255 0 
204.0565632395015 86.18430381997652 884.0781724912813 255 255 255 255 0 
204.6738168849058 86.75756818048832 884.7554996026215 255 255 255 255 0 
204.2632198782572 85.68319141422218 884.2204537189024 255 255 255 255 0 
203.5860928248094 85.7391913337685 884.4975140071562 255 255 255 255 0 
204.2348520459865 85.72978928973195 884.8993351064767 255 255 255 255 0 
204.2245033592778 85.83022337445415 884.9501388603298 255 255 255 255 0 
204.0932753719783 85.82849273318845 884.9926940904585 255 255 255 255 0 
204.3842048867969 87.79544903270038 884.5375481135275 255 255 255 255 0 
204.3846032754967 87.8999518333908 884.4711892870745 255 255 255 255 0 
204.3308429452403 87.87186395639202 884.4244856940908 255 255 255 255 0 
204.3358487603928 85.93299839617595 884.8886277374744 255 255 255 255 0 
204.5908393343103 87.58777825309424 883.7307490079005 255 255 255 255 0 
204.6968008605428 87.52360574908492 883.7319285915136 255 255 255 255 0 
204.6979876298878 87.89909545741276 884.6031057397483 255 255 255 255 0 
204.601730449847 88.01116818882437 884.4859828490484 255 255 255 255 0 
204.1375638407775 86.89919390628589 884.8055494706873 255 255 255 255 0 
204.2439424119972 87.17177471191422 884.7498063687826 255 255 255 255 0 
204.1449774686508 87.04209446865248 884.6923034630329 255 255 255 255 0 
204.2914863420209 85.85333064537008 884.9160412312021 255 255 255 255 0 
204.6967837019729 88.063081975361 883.9435896030592 255 255 255 255 0 
204.7748583262909 87.99115123847717 883.8624005696662 255 255 255 255 0 
204.6967912094333 87.99587415207999 883.8581907629741 255 255 255 255 0 
203.5804869766071 86.11027910209332 884.6746636693558 255 255 255 255 0 
203.5895015063841 86.06989083319662 884.7173759884665 255 255 255 255 0 
203.5667883242589 85.95306084961716 884.3576125783326 255 255 255 255 0 
204.5907965820453 87.71574327301759 883.7307084259168 255 255 255 255 0 
204.3028439058589 87.45216104484946 883.9041822982399 255 255 255 255 0 
204.399518029595 87.61314159388817 883.8189145280505 255 255 255 255 0 
204.9314445085877 87.71541230516932 883.7799905560792 255 255 255 255 0 
204.8430376273044 87.77957297944326 883.7551592098928 255 255 255 255 0 
204.502320070753 87.65199715470773 883.7554914578291 255 255 255 255 0 
204.4872991932365 87.77777109569351 883.7809523353898 255 255 255 255 0 
204.1213911305482 85.89163567923615 885.0001820653243 255 255 255 255 0 
204.9462661888901 87.81941187053427 883.8191116182333 255 255 255 255 0 
204.305585211315 86.53424522761054 884.9050358392243 255 255 255 255 0 
203.5573079142934 85.84989515648758 884.6128872106893 255 255 255 255 0 
203.5431402749785 85.85627835522703 884.5327098729887 255 255 255 255 0 
204.2413908958945 87.81008373429923 884.1960989721003 255 255 255 255 0 
204.2500504199781 87.82479981489259 884.1341013648539 255 255 255 255 0 
204.2799359652089 87.86178583535502 884.0724206805193 255 255 255 255 0 
205.1438187796014 87.50186204508498 884.2934715813365 255 255 255 255 0 
204.1929955524728 85.90596397708161 884.9788522646527 255 255 255 255 0 
204.5461980678273 86.01402067572741 884.4689663175164 255 255 255 255 0 
204.4955501529384 86.39890853756442 884.8339552642182 255 255 255 255 0 
203.5454653790306 85.89887244429023 884.4403183102254 255 255 255 255 0 
203.5682492008001 86.12950302791906 884.4695882968763 255 255 255 255 0 
203.5372892005419 86.02661968022007 884.5391468623981 255 255 255 255 0 
203.5681262170129 86.12917690322143 884.596525186887 255 255 255 255 0 
204.6965452275204 87.90607724225146 883.7867195192453 255 255 255 255 0 
204.772598759098 87.90294721972853 883.7917581255518 255 255 255 255 0 
204.716969089373 87.8125790625915 883.7441607709476 255 255 255 255 0 
204.7561295294364 87.81212074919162 884.6485346542786 255 255 255 255 0 
204.4430414588592 88.06309803331936 884.2012213504349 255 255 255 255 0 
204.5367245842066 88.10595969796934 884.2177253744716 255 255 255 255 0 
204.9455582689444 87.92454210481884 883.885514174503 255 255 255 255 0 
204.9371044163458 86.97405444026853 884.2475166251539 255 255 255 255 0 
204.9251562766379 86.92035436378113 884.4155927036273 255 255 255 255 0 
205.1040758260002 87.46113359736647 884.4112093829798 255 255 255 255 0 
203.5374779307779 85.99587996589895 884.4690003394552 255 255 255 255 0 
204.9483987894295 88.05799454930244 884.2733001485414 255 255 255 255 0 
205.007866073845 88.00741834898741 884.1124236293574 255 255 255 255 0 
204.8994122265665 88.08884800855701 884.1642449179379 255 255 255 255 0 
204.5817870109853 87.83858964465976 884.6288474026221 255 255 255 255 0 
204.515792992671 87.8378550025127 884.6058367050962 255 255 255 255 0 
204.618393391517 87.77878617320356 883.7381497975455 255 255 255 255 0 
204.4773952351951 87.87860268661129 883.8317441675759 255 255 255 255 0 
204.775370078747 87.52491481572598 883.7381866657444 255 255 255 255 0 
204.4913528705554 87.98456093294693 883.9136896928055 255 255 255 255 0 
204.5823678545699 87.94556216478905 883.8313953514692 255 255 255 255 0 
204.5280122825942 86.31598980029253 884.1984824376241 255 255 255 255 0 
204.4951540915289 86.6030101805884 884.0429042594764 255 255 255 255 0 
204.3077297789415 87.80261603156787 883.9544515962042 255 255 255 255 0 
205.0100157632886 87.79522275266584 884.5374552608888 255 255 255 255 0 
204.9448389223084 87.81974451239824 884.5775249941918 255 255 255 255 0 
204.9310750008291 87.71561216269281 884.6161884777989 255 255 255 255 0 
203.6771068201066 86.2362020270498 884.7344357983162 255 255 255 255 0 
204.8123685335506 87.8383479963464 883.7670978234067 255 255 255 255 0 
203.6319490036161 86.27127203411648 884.5291614240201 255 255 255 255 0 
204.4184705599214 86.17256158441947 884.1738358303664 255 255 255 255 0 
204.7179576775883 87.73151399024169 884.670556254732 255 255 255 255 0 
204.5812874141939 87.83894251988522 883.7674528859781 255 255 255 255 0 
204.5939272896932 88.03534238150108 883.9220621541375 255 255 255 255 0 
204.4660570784318 87.58883873341863 883.7782654909348 255 255 255 255 0 
204.3845173326426 87.90027171159365 883.92516794387 255 255 255 255 0 
204.3275668716279 85.81289882629267 884.1931113567279 255 255 255 255 0 
204.342073093122 85.88651112792516 884.1849092950324 255 255 255 255 0 
204.8766570432244 87.94267674486709 884.5399807062433 255 255 255 255 0 
204.8000001085118 88.0348612445233 883.9213978537385 255 255 255 255 0 
204.8034736578545 87.71630668493404 883.7308278085662 255 255 255 255 0 
204.3157846256265 87.37538148475906 884.7009423131099 255 255 255 255 0 
204.456962091621 87.27606328477638 884.74415479595 255 255 255 255 0 
204.3386702077293 87.93463219282721 884.0433187936533 255 255 255 255 0 
204.4062571385769 87.9937942828728 884.0180961722783 255 255 255 255 0 
204.7335447488177 88.13207672535994 884.2207965588548 255 255 255 255 0 
204.6325881174522 88.12950411033249 884.1585473729134 255 255 255 255 0 
204.6331665878269 88.11920925793643 884.3045488525476 255 255 255 255 0 
204.5620585918322 87.76271776071802 884.6475144013884 255 255 255 255 0 
204.5716358618484 88.06917486870367 883.9883226447972 255 255 255 255 0 
204.2686730290486 87.84725286151749 884.3014765072188 255 255 255 255 0 
204.4516635590249 87.87022593355999 884.5509139746385 255 255 255 255 0 
204.3050534561898 87.80281461064473 884.4371097742724 255 255 255 255 0 
204.4465170935739 88.05714975291599 884.1174175815931 255 255 255 255 0 
204.9946180067689 87.64950883430414 883.8190142399069 255 255 255 255 0 
204.8498104095792 87.89909071972099 883.8122887439413 255 255 255 255 0 
204.1676849162213 86.60684758236941 884.0391892854415 255 255 255 255 0 
204.5899087108081 88.10280458228135 884.0649489181209 255 255 255 255 0 
204.2641397111422 87.77262189605209 884.3745567861085 255 255 255 255 0 
204.3304891471732 87.87166891866821 883.9718891965551 255 255 255 255 0 
204.9513999527847 87.65171948873289 884.6090861034669 255 255 255 255 0 
205.0365221883664 87.6518245541511 884.5421414600204 255 255 255 255 0 
204.1553516427816 87.28656410455567 884.1722516270081 255 255 255 255 0 
204.0648175543872 87.22864119471879 884.3509701003991 255 255 255 255 0 
204.0779859534149 87.29076093430047 884.3584477478564 255 255 255 255 0 
204.6866001355268 86.98874162096278 883.9458394688096 255 255 255 255 0 
204.3577251666568 87.9874320628292 884.1199678437426 255 255 255 255 0 
205.0372849974506 87.6589638113993 883.9259426325975 255 255 255 255 0 
204.1473961582997 87.17344119372947 884.5793835289445 255 255 255 255 0 
204.8405229252924 87.99131717457686 883.8849958094959 255 255 255 255 0 
205.0296649571568 87.93613826692888 883.9922778445273 255 255 255 255 0 
204.7957063981219 88.11517014036022 884.2890149468724 255 255 255 255 0 
203.6318519097298 86.23210816049438 884.636324010255 255 255 255 255 0 
205.0528031317067 87.76165409100852 884.2176481304293 255 255 255 255 0 
204.9387126337511 88.04325216602142 884.3470246780162 255 255 255 255 0 
204.9877400420054 87.99389294692483 884.3777278675773 255 255 255 255 0 
204.9684534066225 87.91571940218603 884.4964008961566 255 255 255 255 0 
203.9224019959902 86.64921340324648 884.6681741463658 255 255 255 255 0 
203.9106620631688 86.55067399064104 884.7425327157526 255 255 255 255 0 
205.0391723068529 87.83173998050199 884.4883678266203 255 255 255 255 0 
204.8258302007136 88.11796672999587 884.1979031227048 255 255 255 255 0 
204.92313812464 88.01840618883877 883.9781923049088 255 255 255 255 0 
204.9383761076334 88.04332611255889 884.0486270537306 255 255 255 255 0 
205.1031620037709 87.72750820585381 884.4491026317357 255 255 255 255 0 
204.8878131253365 88.08940429800219 884.2660879517144 255 255 255 255 0 
205.086556107903 87.59712457743058 884.477031934209 255 255 255 255 0 
204.823058434445 88.06898386882085 883.9883758967078 255 255 255 255 0 
204.8833242666736 88.08294358933119 884.0827653156103 255 255 255 255 0 
205.0111226255536 87.90248661595957 884.4661982145011 255 255 255 255 0 
204.6126463853944 86.6952435126957 884.7980905532714 255 255 255 255 0 
204.5320994010468 86.52491779722482 884.8339359243084 255 255 255 255 0 
204.3896572039429 87.6104768665402 884.6383793228504 255 255 255 255 0 
204.0835724926185 86.83027819369164 884.054628127521 255 255 255 255 0 
204.0188121453268 86.83577646903764 884.1984508953873 255 255 255 255 0 
204.0774280502483 86.94863164497039 884.1501874159475 255 255 255 255 0 
204.5441588522037 86.8948359706896 883.9013907798177 255 255 255 255 0 
204.5969753745321 87.03678291491656 883.8663889309331 255 255 255 255 0 
204.1262004935695 87.10350776627419 884.1412012854094 255 255 255 255 0 
204.080686777272 87.02930548297432 884.1991998092499 255 255 255 255 0 
204.0560052179785 87.06996209839109 884.2808021466728 255 255 255 255 0 
204.9224064040432 86.94782594795623 884.117149372835 255 255 255 255 0 
204.8549161784632 86.95860007307327 884.0673439191858 255 255 255 255 0 
204.6305948570078 87.65209656221327 884.6768595651076 255 255 255 255 0 
204.0027899573524 86.92797670395356 884.2971741424418 255 255 255 255 0 
204.0421335015234 87.1842450894914 884.3855096844921 255 255 255 255 0 
204.1181370064628 87.29428251358478 884.4260922760086 255 255 255 255 0 
204.6755756378063 87.28271066192687 883.8017301003275 255 255 255 255 0 
203.9545126697356 86.80156678335081 884.3136746487576 255 255 255 255 0 
204.0579254949704 87.08777099768373 884.4978193860031 255 255 255 255 0 
204.1050997772148 87.07194950853381 884.5950763904127 255 255 255 255 0 
204.2858774043739 87.65182493984064 883.9436475119358 255 255 255 255 0 
203.868116197896 86.76001537093718 884.4665432705485 255 255 255 255 0 
204.5510493099674 87.52415617209178 883.7552063819452 255 255 255 255 0 
204.1498360681074 86.99115105644198 884.0233054235332 255 255 255 255 0 
204.2085656863823 87.16822016006441 883.9850865851487 255 255 255 255 0 
204.242614734277 86.99767080731472 883.9899387409516 255 255 255 255 0 
204.4562910727168 87.10471271569658 884.7926853232898 255 255 255 255 0 
204.1910579140599 87.40944495213209 884.4569190053513 255 255 255 255 0 
204.1141927725158 87.39743614148884 884.3320125608711 255 255 255 255 0 
204.6352242915636 86.83424936105206 884.8010055537674 255 255 255 255 0 
204.5280286497218 86.7724125031237 884.882363623518 255 255 255 255 0 
204.1950630166418 87.33441539558788 884.1059603161482 255 255 255 255 0 
204.4352874972301 86.81299034149107 883.9445121931058 255 255 255 255 0 
204.3706370643031 86.87180210078465 883.9607167005212 255 255 255 255 0 
204.429272343698 86.95628300453249 883.9321682507223 255 255 255 255 0 
203.9576727442152 86.97129355556235 884.4268485162937 255 255 255 255 0 
203.7186040555766 85.96754664322575 884.1892199339296 255 255 255 255 0 
204.1823947484102 87.47324184942545 884.2038161015359 255 255 255 255 0 
204.3630062248613 86.17134011041328 884.8851536610764 255 255 255 255 0 
204.4104175280492 87.24611521886379 883.9000437240496 255 255 255 255 0 
204.5768385728001 87.08768782550523 883.8647040679791 255 255 255 255 0 
203.8457959094159 86.59251922237331 884.5888136568376 255 255 255 255 0 
203.8496919178939 86.52144837088214 884.664063921471 255 255 255 255 0 
204.6064404098093 86.96377604761184 884.8456962804891 255 255 255 255 0 
203.8050245902086 86.42742464283616 884.6780223016798 255 255 255 255 0 
204.0121896659648 86.66106118755265 884.0846337101668 255 255 255 255 0 
204.3144727040066 86.9777798056228 884.8079479526 255 255 255 255 0 
204.4220110758758 86.09917976930018 884.1785463656122 255 255 255 255 0 
204.0678768469656 86.63823146678472 884.0671056906883 255 255 255 255 0 
204.2417895928917 86.6999267306779 884.0116404090203 255 255 255 255 0 
203.881134119548 86.58850004892113 884.654475878078 255 255 255 255 0 
204.0406643600992 86.96638266613697 884.5780909897057 255 255 255 255 0 
204.9837038114048 87.08368589892069 884.4499102462961 255 255 255 255 0 
204.5526703936729 87.1927197561788 884.7779314234979 255 255 255 255 0 
204.3222187342757 87.70854180416698 884.4964161668991 255 255 255 255 0 
204.2843548939673 87.57369764886303 884.4857965539316 255 255 255 255 0 
203.9554936838934 86.86317862647196 884.5225681200973 255 255 255 255 0 
204.9858231585274 87.08949541602114 884.5123836258981 255 255 255 255 0 
203.9841343085785 86.75666164465191 884.6726671755516 255 255 255 255 0 
204.2295896448329 87.32750264061605 884.0221665041615 255 255 255 255 0 
204.2520011410916 87.29013041655499 883.9500932731006 255 255 255 255 0 
204.2693965449215 87.30024298494122 883.9406337511227 255 255 255 255 0 
204.3325693940771 86.95633813949169 883.9649375440941 255 255 255 255 0 
203.6319695895032 86.23241505628323 884.4300500889551 255 255 255 255 0 
204.8140393049788 87.04096621089283 884.6667024095966 255 255 255 255 0 
203.7934576731876 86.60184864601105 884.4871815697709 255 255 255 255 0 
205.0322787717804 87.57414235749779 884.537476990886 255 255 255 255 0 
204.2904118162309 86.84426126458784 883.9872992159461 255 255 255 255 0 
204.9457457477073 86.98734994111695 884.3454096563091 255 255 255 255 0 
204.97629542802 87.07779991041572 884.3185787482807 255 255 255 255 0 
204.9680649355689 87.04636646436985 884.3864457489169 255 255 255 255 0 
204.2185085461753 87.42787359029457 884.0961334013903 255 255 255 255 0 
204.4583472913467 86.93945295457864 884.8344304818831 255 255 255 255 0 
204.9729861265971 87.5493479072008 884.5814101903089 255 255 255 255 0 
204.2309195842301 87.75465007308225 884.2713290113644 255 255 255 255 0 
204.6041854279235 86.39443717018689 884.7444050757633 255 255 255 255 0 
204.578994617355 86.47005718064248 884.7827810020434 255 255 255 255 0 
3 23 0 25 
3 1 2 3 
3 32 67 33 
3 5 6 7 
3 25 0 9 
3 119 12 9 
3 14 2 1 
3 3 15 1 
3 18 19 20 
3 21 22 13 
3 3 26 15 
3 23 4 24 
3 108 27 8 
3 8 27 13 
3 4 23 294 
3 28 25 9 
3 108 8 26 
3 29 12 30 
3 9 31 28 
3 12 31 9 
3 32 16 2 
3 35 143 36 
3 50 1 15 
3 22 50 15 
3 3 96 26 
3 37 38 21 
3 39 7 6 
3 31 40 28 
3 41 42 43 
3 42 44 43 
3 29 30 46 
3 47 48 112 
3 14 50 83 
3 51 52 53 
3 241 54 55 
3 25 108 23 
3 9 0 119 
3 56 57 58 
3 119 24 4 
3 61 62 63 
3 64 65 66 
3 23 24 0 
3 13 26 8 
3 62 68 69 
3 70 58 71 
3 0 24 119 
3 74 40 75 
3 76 108 77 
3 78 79 80 
3 81 44 82 
3 40 31 46 
3 46 31 29 
3 74 27 108 
3 12 29 31 
3 84 294 85 
3 4 294 119 
3 86 87 88 
3 33 67 89 
3 90 294 19 
3 36 91 154 
3 34 92 33 
3 75 93 94 
3 95 171 199 
3 95 199 43 
3 2 96 3 
3 26 96 17 
3 26 92 97 
3 16 17 96 
3 98 99 100 
3 96 2 16 
3 26 22 15 
3 18 101 19 
3 11 102 103 
3 130 11 104 
3 1 50 14 
3 143 10 36 
3 86 105 106 
3 106 235 109 
3 13 22 26 
3 92 26 17 
3 11 33 89 
3 26 97 108 
3 16 33 17 
3 92 17 33 
3 73 134 117 
3 190 189 118 
3 97 107 108 
3 107 97 116 
3 116 97 34 
3 112 48 121 
3 25 28 122 
3 28 40 122 
3 108 76 23 
3 108 107 77 
3 77 107 123 
3 123 107 155 
3 34 97 92 
3 11 34 33 
3 23 20 294 
3 67 124 125 
3 2 14 124 
3 32 2 124 
3 32 124 67 
3 127 128 129 
3 23 76 20 
3 53 79 56 
3 131 87 132 
3 135 136 137 
3 125 113 138 
3 125 124 113 
3 139 140 141 
3 103 116 34 
3 18 144 101 
3 131 145 87 
3 67 125 126 
3 68 65 64 
3 146 64 147 
3 148 105 149 
3 14 83 113 
3 124 14 113 
3 150 66 151 
3 152 126 125 
3 148 149 153 
3 111 115 189 
3 77 123 18 
3 157 158 62 
3 159 62 158 
3 21 13 37 
3 13 27 37 
3 125 161 152 
3 22 21 50 
3 38 50 21 
3 86 106 109 
3 132 87 86 
3 130 138 113 
3 155 156 123 
3 107 102 155 
3 102 107 116 
3 116 103 102 
3 103 34 11 
3 156 164 18 
3 18 123 156 
3 19 101 90 
3 144 90 101 
3 19 294 20 
3 126 11 89 
3 165 166 167 
3 168 169 170 
3 152 11 126 
3 172 173 100 
3 90 144 294 
3 98 100 173 
3 235 153 174 
3 198 189 93 
3 175 176 189 
3 82 177 81 
3 178 156 166 
3 156 155 166 
3 154 60 11 
3 18 164 144 
3 179 180 181 
3 182 133 183 
3 76 18 20 
3 77 18 76 
3 10 143 155 
3 10 91 36 
3 184 170 88 
3 151 65 185 
3 102 10 155 
3 132 86 186 
3 155 143 166 
3 85 144 178 
3 178 164 156 
3 10 102 11 
3 187 188 185 
3 51 110 52 
3 173 52 110 
3 164 178 144 
3 128 71 58 
3 109 186 86 
3 68 191 65 
3 192 193 194 
3 36 195 35 
3 144 85 294 
3 91 10 11 
3 60 91 11 
3 196 170 169 
3 154 195 36 
3 167 197 165 
3 165 84 85 
3 60 154 91 
3 95 133 171 
3 165 178 166 
3 165 85 178 
3 167 143 142 
3 166 143 167 
3 143 35 142 
3 70 51 53 
3 200 185 188 
3 201 141 188 
3 202 150 131 
3 203 65 191 
3 131 150 145 
3 151 66 65 
3 46 204 40 
3 46 205 204 
3 141 140 169 
3 184 88 145 
3 5 7 139 
3 7 207 139 
3 172 79 53 
3 208 105 86 
3 209 210 41 
3 151 184 145 
3 145 150 151 
3 150 202 66 
3 147 66 202 
3 64 66 147 
3 86 88 208 
3 88 170 208 
3 203 211 212 
3 62 191 68 
3 151 200 184 
3 194 193 95 
3 188 168 200 
3 213 214 215 
3 151 185 200 
3 184 200 170 
3 200 168 170 
3 87 145 88 
3 216 199 182 
3 187 217 201 
3 188 141 168 
3 78 218 57 
3 133 182 171 
3 127 183 219 
3 171 182 199 
3 129 220 127 
3 216 182 183 
3 158 157 78 
3 65 203 185 
3 133 134 183 
3 100 221 172 
3 134 219 183 
3 71 219 134 
3 128 127 219 
3 148 222 105 
3 223 153 196 
3 219 71 128 
3 134 51 71 
3 169 168 141 
3 188 187 201 
3 198 224 189 
3 158 78 159 
3 149 196 153 
3 99 217 187 
3 217 99 225 
3 129 226 220 
3 218 226 129 
3 157 62 61 
3 58 57 218 
3 185 203 187 
3 225 98 214 
3 98 173 214 
3 159 227 191 
3 58 70 56 
3 194 95 228 
3 43 228 95 
3 228 229 194 
3 99 98 225 
3 230 231 232 
3 80 159 78 
3 233 190 45 
3 57 79 78 
3 80 79 234 
3 191 227 203 
3 134 215 110 
3 58 218 129 
3 56 70 53 
3 211 159 80 
3 78 157 218 
3 236 137 136 
3 223 174 153 
3 223 169 140 
3 237 223 140 
3 201 139 141 
3 217 5 139 
3 201 217 139 
3 110 51 134 
3 212 221 99 
3 129 128 58 
3 207 140 139 
3 208 149 105 
3 5 225 6 
3 71 51 70 
3 159 211 227 
3 187 212 99 
3 203 212 187 
3 191 62 159 
3 227 211 203 
3 73 239 215 
3 217 225 5 
3 235 180 241 
3 195 240 35 
3 214 213 39 
3 215 173 110 
3 215 214 173 
3 80 234 211 
3 234 221 212 
3 133 193 206 
3 72 73 242 
3 73 117 243 
3 100 99 221 
3 244 117 206 
3 39 6 214 
3 225 214 6 
3 215 134 73 
3 170 149 208 
3 196 149 170 
3 148 235 222 
3 211 234 212 
3 52 172 53 
3 173 172 52 
3 234 79 221 
3 172 221 79 
3 56 79 57 
3 154 245 246 
3 55 54 247 
3 235 106 222 
3 174 223 237 
3 213 248 39 
3 81 43 44 
3 169 223 196 
3 105 222 106 
3 148 153 235 
3 207 237 140 
3 161 104 11 
3 237 249 174 
3 229 192 194 
3 229 251 192 
3 181 252 179 
3 49 160 241 
3 253 251 229 
3 95 193 133 
3 180 235 238 
3 206 117 134 
3 206 134 133 
3 193 244 206 
3 192 244 193 
3 213 215 239 
3 242 243 241 
3 207 254 249 
3 207 249 237 
3 248 213 239 
3 239 73 72 
3 248 255 39 
3 247 54 256 
3 241 55 251 
3 244 192 247 
3 257 154 258 
3 257 258 112 
3 252 181 248 
3 247 256 244 
3 7 254 207 
3 255 7 39 
3 7 255 254 
3 239 252 248 
3 72 252 239 
3 241 251 49 
3 49 251 253 
3 247 192 251 
3 251 55 247 
3 249 238 174 
3 244 243 117 
3 244 256 243 
3 243 256 54 
3 255 248 181 
3 243 242 73 
3 254 255 250 
3 249 254 250 
3 174 238 235 
3 72 242 252 
3 250 181 180 
3 255 181 250 
3 252 242 179 
3 242 241 179 
3 250 180 249 
3 249 180 238 
3 54 241 243 
3 180 179 241 
3 216 183 259 
3 197 167 240 
3 38 115 83 
3 260 261 262 
3 233 263 264 
3 12 119 120 
3 30 12 120 
3 265 266 267 
3 175 189 268 
3 270 43 199 
3 262 261 271 
3 272 232 231 
3 273 232 272 
3 241 269 233 
3 269 268 189 
3 274 132 186 
3 109 274 186 
3 59 275 119 
3 236 276 277 
3 241 109 235 
3 269 241 268 
3 241 175 268 
3 68 278 69 
3 279 275 59 
3 69 278 146 
3 205 93 204 
3 204 93 75 
3 40 204 75 
3 131 280 202 
3 281 265 282 
3 282 283 281 
3 27 74 94 
3 74 75 94 
3 284 210 136 
3 285 61 286 
3 286 232 273 
3 230 232 286 
3 45 263 233 
3 257 287 288 
3 230 289 282 
3 290 291 292 
3 37 162 38 
3 293 275 279 
3 280 146 202 
3 146 147 202 
3 131 132 280 
3 37 94 93 
3 286 273 285 
3 61 295 286 
3 63 295 61 
3 163 154 296 
3 292 297 298 
3 299 59 300 
3 288 287 301 
3 286 295 230 
3 189 224 118 
3 302 59 240 
3 59 197 240 
3 111 189 176 
3 127 259 183 
3 50 38 83 
3 83 115 113 
3 119 303 120 
3 154 163 258 
3 146 280 297 
3 280 132 274 
3 298 274 264 
3 136 304 284 
3 302 154 246 
3 257 112 121 
3 205 120 305 
3 120 303 306 
3 260 306 303 
3 163 296 114 
3 236 273 272 
3 37 27 94 
3 246 300 302 
3 306 307 224 
3 162 93 189 
3 162 37 93 
3 274 241 264 
3 233 264 241 
3 274 109 241 
3 138 130 104 
3 271 261 275 
3 299 308 245 
3 298 297 274 
3 280 274 297 
3 135 137 309 
3 241 82 310 
3 41 311 42 
3 63 62 69 
3 130 115 114 
3 226 312 220 
3 306 224 198 
3 205 198 93 
3 209 259 313 
3 41 259 209 
3 288 154 257 
3 309 293 314 
3 114 296 130 
3 293 276 272 
3 315 82 44 
3 315 310 82 
3 309 314 316 
3 301 287 48 
3 74 122 40 
3 265 262 266 
3 317 146 318 
3 319 318 146 
3 292 320 297 
3 154 135 316 
3 64 146 278 
3 84 165 321 
3 292 298 264 
3 84 321 294 
3 41 270 259 
3 198 205 305 
3 30 120 46 
3 120 205 46 
3 302 300 59 
3 315 322 47 
3 259 270 216 
3 299 323 59 
3 279 323 299 
3 120 306 198 
3 260 307 306 
3 302 240 195 
3 41 43 270 
3 315 176 310 
3 315 47 176 
3 263 45 290 
3 292 264 263 
3 47 111 176 
3 313 285 209 
3 307 290 190 
3 115 38 162 
3 111 112 115 
3 115 162 189 
3 113 115 130 
3 138 104 161 
3 198 305 120 
3 299 245 279 
3 302 195 154 
3 229 228 324 
3 282 265 230 
3 265 231 230 
3 322 315 44 
3 322 44 42 
3 136 210 209 
3 282 319 297 
3 146 297 319 
3 260 281 325 
3 294 59 119 
3 290 45 190 
3 316 135 309 
3 253 229 324 
3 322 42 301 
3 293 309 276 
3 325 291 290 
3 309 277 276 
3 135 154 304 
3 294 321 59 
3 47 112 111 
3 81 177 324 
3 316 245 154 
3 285 236 209 
3 273 236 285 
3 284 311 210 
3 48 47 322 
3 209 236 136 
3 322 301 48 
3 33 16 32 
3 89 67 126 
3 161 11 152 
3 138 161 125 
3 285 313 61 
3 226 61 313 
3 293 271 275 
3 326 327 328 
3 310 328 327 
3 216 270 199 
3 190 233 269 
3 190 269 189 
3 317 329 146 
3 69 146 329 
3 329 295 63 
3 63 69 329 
3 257 121 287 
3 263 290 292 
3 142 240 167 
3 329 317 289 
3 317 318 282 
3 236 272 276 
3 241 160 82 
3 301 330 288 
3 154 288 330 
3 165 197 321 
3 59 321 197 
3 279 59 323 
3 35 240 142 
3 190 118 307 
3 304 154 330 
3 325 283 320 
3 293 279 314 
3 283 325 281 
3 307 325 290 
3 236 277 137 
3 293 267 271 
3 272 231 267 
3 272 267 293 
3 136 135 304 
3 127 312 259 
3 220 312 127 
3 319 282 318 
3 137 277 309 
3 324 331 81 
3 81 331 43 
3 324 228 331 
3 43 331 228 
3 271 266 262 
3 313 312 226 
3 61 332 157 
3 176 328 310 
3 326 328 176 
3 310 327 241 
3 64 278 68 
3 115 112 333 
3 11 296 154 
3 11 130 296 
3 324 177 253 
3 160 49 177 
3 253 177 49 
3 160 177 82 
3 259 312 313 
3 267 266 271 
3 281 262 265 
3 260 262 281 
3 261 119 275 
3 260 325 307 
3 265 267 231 
3 282 289 317 
3 284 304 330 
3 301 284 330 
3 176 175 326 
3 314 279 316 
3 114 333 163 
3 115 333 114 
3 303 119 261 
3 303 261 260 
3 333 112 334 
3 258 163 334 
3 112 258 334 
3 279 245 316 
3 307 118 224 
3 210 311 41 
3 42 311 301 
3 284 301 311 
3 241 327 175 
3 320 291 325 
3 320 292 291 
3 226 332 61 
3 218 157 332 
3 218 332 226 
3 175 327 326 
3 300 308 299 
3 163 333 334 
3 246 308 300 
3 108 122 74 
3 25 122 108 
3 282 320 283 
3 297 320 282 
3 48 287 121 
3 329 289 295 
3 295 289 230 
3 246 245 308 
