ply
format ascii 1.0
comment VCGLIB generated
element vertex 418
property double x
property double y
property double z
property uchar red
property uchar green
property uchar blue
property uchar alpha
property double quality
element face 832
property list uchar int vertex_indices
end_header
49.91711641857032 43.83785222117334 956.3212966530291 255 255 255 255 0 
49.90744414766857 43.88493225608011 956.3154394852062 255 255 255 255 0 
49.85883987247327 43.88085024346601 956.3763528901246 255 255 255 255 0 
49.88833411032986 43.64270511858857 952.8039568223647 255 255 255 255 0 
49.74630834543765 43.7218306731851 952.990439375388 255 255 255 255 0 
49.75926340078073 43.7334575403303 952.8385056945464 255 255 255 255 0 
49.93244632676838 43.86309305812857 956.2811357238764 255 255 255 255 0 
49.67845863923962 44.09211907168475 956.1544104255407 255 255 255 255 0 
49.71451160595205 44.08664211454854 956.1959013775823 255 255 255 255 0 
49.78205977813509 44.07632068564232 955.9950808418522 255 255 255 255 0 
49.52153416885974 44.02042214574866 956.3013831714021 255 255 255 255 0 
49.58327517368429 44.07869377226603 956.2129659505465 255 255 255 255 0 
49.5061056444225 44.04520578536335 956.2117378094409 255 255 255 255 0 
49.51908184225164 44.05585406430249 956.1542077793711 255 255 255 255 0 
49.92094557086239 43.64002482984647 956.208141032903 255 255 255 255 0 
49.9184143371147 43.67761555726111 956.2798890125189 255 255 255 255 0 
49.87113984991556 43.61316984213983 956.2927577233667 255 255 255 255 0 
49.92821897359983 44.2105433267552 952.7789826550811 255 255 255 255 0 
50.00855017922915 44.22151135402346 952.7792219506545 255 255 255 255 0 
50.008715895649 44.20998887859 952.696257836055 255 255 255 255 0 
49.57919715777975 43.53084778374831 956.2929351683036 255 255 255 255 0 
49.58335740649246 43.50327351916827 956.2129088679461 255 255 255 255 0 
49.66259152703013 43.50007769925702 956.2469324658013 255 255 255 255 0 
49.45036443433276 43.79140430475228 956.3791820727555 255 255 255 255 0 
49.50410442649468 43.79086643152608 956.4214387505779 255 255 255 255 0 
49.4899701774727 43.85525751840183 956.4036921489726 255 255 255 255 0 
49.66317575744951 44.04831637375952 956.3230958917163 255 255 255 255 0 
49.72900353324909 44.03316655045471 956.3322341285391 255 255 255 255 0 
49.70271913794852 44.07294563678592 956.2649077749049 255 255 255 255 0 
50.22118566894323 43.70887944834706 952.8274348810942 255 255 255 255 0 
50.1543248628812 43.65483661845084 952.7703572222462 255 255 255 255 0 
50.19671579975551 43.68307507018585 952.7540931549531 255 255 255 255 0 
49.97293706751836 44.10503283472642 954.055108533161 255 255 255 255 0 
50.00122785648543 44.11023363054893 954.0509877544039 255 255 255 255 0 
50.01221159198035 44.12230362912676 953.8659151995683 255 255 255 255 0 
49.83578728040823 43.72694882613089 956.4039147537461 255 255 255 255 0 
49.87572220282603 43.79123768526323 956.3791067984573 255 255 255 255 0 
49.80985509590063 43.83080925272291 956.4254712951 255 255 255 255 0 
49.59306181006843 43.95705219902529 954.6668578504333 255 255 255 255 0 
49.57232468213847 43.80300218309417 954.8460153371457 255 255 255 255 0 
49.58996336634689 43.97785447650345 954.7009822814744 255 255 255 255 0 
50.00877211207368 43.70381519068345 952.5663550330202 255 255 255 255 0 
50.00945946636195 43.76024074194386 952.5215011602679 255 255 255 255 0 
50.08038391073527 43.76512206866673 952.5296041641468 255 255 255 255 0 
50.03316708889788 44.15610636924543 952.5926802492251 255 255 255 255 0 
49.96957597297551 44.18073346204977 952.6324990505785 255 255 255 255 0 
50.04948678741192 44.21776956248831 952.7541018911917 255 255 255 255 0 
50.09549268297862 44.19904512055037 952.8832539339779 255 255 255 255 0 
49.91646645272187 43.91425601737433 955.8549004386872 255 255 255 255 0 
49.99502029979759 43.78798978021054 955.9407345767016 255 255 255 255 0 
49.95452845146658 43.8789485693387 955.7521639142203 255 255 255 255 0 
49.54879802082699 43.97423968427549 955.081559631227 255 255 255 255 0 
49.56143078380662 43.91736695288782 954.9478446774791 255 255 255 255 0 
49.55851263357028 43.82655806357602 954.9694045283323 255 255 255 255 0 
49.54860742930294 43.78660552489062 955.0538063529031 255 255 255 255 0 
49.9749750953386 44.21114041851776 952.8481817752961 255 255 255 255 0 
49.64779218030457 43.99592384570074 954.1509774734687 255 255 255 255 0 
49.66945272478512 44.00847492316939 953.9464612278449 255 255 255 255 0 
49.66040568706325 43.88269147843349 954.0080472268369 255 255 255 255 0 
49.50227332008695 43.9688303762767 955.4588462926714 255 255 255 255 0 
49.6665123867276 44.03061446771078 955.6613479041872 255 255 255 255 0 
49.66810493846819 44.02444200915567 955.4723658109241 255 255 255 255 0 
49.89652132468875 44.10132682558964 952.5654127702362 255 255 255 255 0 
49.9112203418502 44.16240221296986 952.62945549288 255 255 255 255 0 
49.96589040998064 44.12572093659823 952.5631020298324 255 255 255 255 0 
49.90120213676917 43.94452409928854 956.2693327925082 255 255 255 255 0 
49.85852826072306 43.94640677602717 956.3347088606362 255 255 255 255 0 
49.64658756560178 43.55434853963975 955.7300157507752 255 255 255 255 0 
49.63843493506887 43.50130963677605 956.0840393281269 255 255 255 255 0 
49.45438696870257 43.61251709735927 955.8594353811396 255 255 255 255 0 
49.77890330818842 44.04640723440425 956.2773871056536 255 255 255 255 0 
49.76904008841309 44.09164130790128 952.714691870812 255 255 255 255 0 
49.81014869291926 44.06651589685794 952.6061092483792 255 255 255 255 0 
49.75381897688506 44.03258436294634 952.6627951238345 255 255 255 255 0 
49.42097626547502 43.97005920224437 956.1342565942176 255 255 255 255 0 
49.45110467486109 44.0064759738605 956.1613802925708 255 255 255 255 0 
49.4512360033705 43.97148314533292 955.9022722024066 255 255 255 255 0 
50.26648892836354 44.0777993413019 952.7792656422017 255 255 255 255 0 
50.30129220068306 43.98586250162741 952.8191982248883 255 255 255 255 0 
50.29767202332582 43.99785328104709 952.7391509032732 255 255 255 255 0 
49.89336157232833 43.71803211979236 956.3458001990367 255 255 255 255 0 
49.93902707686775 43.76563199841617 956.2851457209315 255 255 255 255 0 
49.7795398739605 43.99098199263328 952.5954564047798 255 255 255 255 0 
49.86209252133564 43.95851350781407 952.517517405651 255 255 255 255 0 
49.79631436319247 43.91869091211073 952.5638604183358 255 255 255 255 0 
49.83730970660353 44.11282066864624 952.6228356195923 255 255 255 255 0 
49.77637226718788 43.67505170568146 956.4193944285445 255 255 255 255 0 
49.7344054999059 43.60741074661901 956.3935997753937 255 255 255 255 0 
49.84022626381589 43.66133171889949 956.3719852450937 255 255 255 255 0 
49.85974321447069 43.50381543778523 955.2989171653844 255 255 255 255 0 
49.70940762033847 43.56288353218834 955.0722463462932 255 255 255 255 0 
49.88863203426997 43.50710625561334 955.072673469751 255 255 255 255 0 
50.03377853558803 44.106773715342 952.5431021790682 255 255 255 255 0 
50.03383481081482 44.03944267974035 952.5026114546636 255 255 255 255 0 
49.93698836866091 44.03617328052262 952.5095523514469 255 255 255 255 0 
49.63825486574392 43.60365890441969 956.400237355725 255 255 255 255 0 
49.68822599445749 43.66996992468651 956.4401054241841 255 255 255 255 0 
49.85207996704462 44.17331897134321 952.8260974300237 255 255 255 255 0 
49.92222747915203 44.1946879900158 952.8669230528078 255 255 255 255 0 
50.22249640994482 44.13002300509857 952.8082721023436 255 255 255 255 0 
50.19654112107138 44.1550884566777 952.7542446565064 255 255 255 255 0 
49.60544190291415 43.82671029609445 954.5462090797623 255 255 255 255 0 
49.61566507689076 43.74682454199304 954.4478635989404 255 255 255 255 0 
49.5924161488784 43.69037485420163 954.6599679501199 255 255 255 255 0 
50.30867957761312 43.96029946258728 952.7787617459248 255 255 255 255 0 
49.48776466324381 43.81084850118106 955.5694397643638 255 255 255 255 0 
49.47927572407983 43.97119635215962 955.668125995134 255 255 255 255 0 
50.16579886219486 44.17339990162154 952.8259951733635 255 255 255 255 0 
50.19384633269235 44.13136662615645 952.8890352852077 255 255 255 255 0 
49.50809812529994 43.61746170442223 955.3918262170976 255 255 255 255 0 
49.53689218264626 43.61701207048545 955.1550906352502 255 255 255 255 0 
49.70330934770712 43.54630033555134 955.4766301713577 255 255 255 255 0 
49.61376459247418 43.93781391378121 954.4746814285396 255 255 255 255 0 
49.61757344977637 43.84597771610744 954.434139947541 255 255 255 255 0 
49.77665707133766 43.90688837597835 956.4192914537497 255 255 255 255 0 
50.25543128802001 43.93129279011472 952.6052641818844 255 255 255 255 0 
50.21889042956734 43.87042827449518 952.5666051670514 255 255 255 255 0 
50.16829662322788 43.91888002155794 952.5218137569393 255 255 255 255 0 
49.45490747958953 43.96862547321978 956.2930802888409 255 255 255 255 0 
49.48493660496988 43.91977932709689 956.371911623286 255 255 255 255 0 
49.5504650722473 43.97310242332551 956.3777693963655 255 255 255 255 0 
49.54953270023898 43.90706993395047 956.4192992699859 255 255 255 255 0 
49.63831460556917 43.97871228437374 956.3999622690404 255 255 255 255 0 
49.86725003701824 43.68964135890344 952.6417949258824 255 255 255 255 0 
49.85338614236428 43.74823735200482 952.5837041056362 255 255 255 255 0 
49.94460394377266 43.67910689093392 952.6062916947384 255 255 255 255 0 
49.74722735227913 44.07697528421815 952.9943972356341 255 255 255 255 0 
49.81308199800446 43.76389095833102 952.6084882395776 255 255 255 255 0 
49.76451940972969 43.82531695212629 952.6274458861315 255 255 255 255 0 
49.81326865780901 43.82959716548312 952.5663547155732 255 255 255 255 0 
49.4850627252242 43.61708335194165 955.5837488670079 255 255 255 255 0 
49.89516064301777 43.60003499446385 956.1343333177435 255 255 255 255 0 
49.76442917473185 43.50244965639955 956.0852912038355 255 255 255 255 0 
49.78075686764571 43.50232887291981 955.9543258025179 255 255 255 255 0 
49.98069096769762 44.10206865162608 954.2478555221091 255 255 255 255 0 
50.24610660794537 43.73271651901155 952.7544324831707 255 255 255 255 0 
50.22145597075131 43.72326856319117 952.6891568448104 255 255 255 255 0 
50.26991765046452 43.78782747575179 952.7000389461282 255 255 255 255 0 
49.5907118531094 43.67440185512868 956.4336312806868 255 255 255 255 0 
49.5547728435773 43.751571441619 956.4437290347215 255 255 255 255 0 
49.53148240149425 43.7125873979788 956.4249102937806 255 255 255 255 0 
49.70844541421577 43.68204160170944 953.4703511631329 255 255 255 255 0 
49.69173694338716 43.6722395648226 953.6543574171014 255 255 255 255 0 
49.68918024797166 43.88058692154996 953.6933156064041 255 255 255 255 0 
49.86280145218647 44.06789822396575 954.7286778799829 255 255 255 255 0 
49.92594504085829 44.08784548196994 954.7330499801525 255 255 255 255 0 
49.93991837246048 44.0913417778466 954.5885869877358 255 255 255 255 0 
50.18681492866768 44.04787639883698 952.5709256043999 255 255 255 255 0 
50.12255108595498 44.03504566195494 952.5237277713952 255 255 255 255 0 
50.12116339236346 44.10080971001202 952.5648024043219 255 255 255 255 0 
50.05238654759945 43.64449186917851 954.406231669616 255 255 255 255 0 
50.0951958273284 43.73258627046838 954.666677029556 255 255 255 255 0 
49.9392399303176 43.51563570620332 954.5772063519929 255 255 255 255 0 
49.95545981682624 43.85732821354752 956.2037698411599 255 255 255 255 0 
49.92036301146734 43.95001582329727 956.1637464859886 255 255 255 255 0 
49.78245275417048 44.06522823845735 956.2036509491493 255 255 255 255 0 
49.84507344827121 44.00495761521377 956.2762180984594 255 255 255 255 0 
49.85154486870144 44.02630002568648 956.1875118656675 255 255 255 255 0 
49.42560161482736 43.61413140004039 956.082982727854 255 255 255 255 0 
49.40127172276386 43.64446587583448 956.2032809772816 255 255 255 255 0 
49.38332063556665 43.68265080134019 956.1245128345811 255 255 255 255 0 
49.89534419214898 43.80301239397525 952.5237512433591 255 255 255 255 0 
49.598460136042 44.03076314675435 956.3368367905804 255 255 255 255 0 
49.64597261226901 44.01124022135683 955.2856805608386 255 255 255 255 0 
49.94033488548894 43.69992715721918 956.2433945329553 255 255 255 255 0 
50.26124191694817 43.86664025293238 953.4314465019971 255 255 255 255 0 
50.2745448445329 43.87578156701525 953.2654106406931 255 255 255 255 0 
50.2197007835987 43.95597871076725 953.2667763483076 255 255 255 255 0 
50.19534539812914 43.76615174820908 953.2498835885091 255 255 255 255 0 
49.58380402892389 44.07883874510615 956.1150722694397 255 255 255 255 0 
49.63792931502572 44.03060336712042 955.8978723402655 255 255 255 255 0 
49.48093306618435 43.5770069638441 956.2761532788423 255 255 255 255 0 
49.53187399114554 43.57861961250098 956.3339515489157 255 255 255 255 0 
49.46721193649969 43.63549873484213 956.3342954467739 255 255 255 255 0 
49.6205829532491 43.63248068759037 954.4016227292017 255 255 255 255 0 
49.79236105017019 43.56457323759089 954.5575926933959 255 255 255 255 0 
49.68638399346403 43.59230416144894 954.6691661804274 255 255 255 255 0 
50.14278753101744 44.17633822143686 952.6962273430941 255 255 255 255 0 
50.13004613236629 44.19515327401868 952.7543411225993 255 255 255 255 0 
49.96182112150365 43.76624306177913 956.2042121992063 255 255 255 255 0 
49.5638576062963 43.62105953354258 954.9164501356088 255 255 255 255 0 
49.56077539762078 43.73641838331719 954.9451284962634 255 255 255 255 0 
49.72117645424755 43.86995576437531 952.6998102183518 255 255 255 255 0 
49.75186137892107 43.91873680525038 952.6196418613886 255 255 255 255 0 
50.26665216699867 43.86587306410407 952.6310338190331 255 255 255 255 0 
49.7654730908632 44.03596822504923 954.1647863983974 255 255 255 255 0 
49.70459501128257 43.79064544711132 956.4636463493313 255 255 255 255 0 
49.77123556451173 43.75133165211768 956.4437033618067 255 255 255 255 0 
49.74094874218375 43.84942515958374 956.4493932311411 255 255 255 255 0 
49.79167309424366 43.58313083018196 956.3421790242819 255 255 255 255 0 
49.81400697584721 43.5461578160899 956.2576454147106 255 255 255 255 0 
49.66272188063378 44.09060337433081 956.2059212947045 255 255 255 255 0 
49.78911083475858 44.05132217649266 955.0888563312076 255 255 255 255 0 
49.86043336330157 44.07893695316818 955.3286944945313 255 255 255 255 0 
49.88667625644894 44.08122359975893 955.1013396814993 255 255 255 255 0 
49.57948801667666 43.9788488530718 954.8227132554639 255 255 255 255 0 
49.76796574718695 43.51881429781848 955.6227676515351 255 255 255 255 0 
50.17900241311956 43.85363245723525 952.5377256922188 255 255 255 255 0 
50.20471919080227 43.76380438294824 952.6083192182755 255 255 255 255 0 
50.27051587011582 44.0487753605785 952.7000519355124 255 255 255 255 0 
50.22152297038401 44.11482804939539 952.6895022359333 255 255 255 255 0 
49.63842804380972 43.55417181831832 956.3506097291075 255 255 255 255 0 
49.76734372548531 43.61375736345232 953.9874699988962 255 255 255 255 0 
49.83297211857197 43.59961340722644 953.8987879936939 255 255 255 255 0 
49.87472694437724 43.57814128685742 953.997275686385 255 255 255 255 0 
49.42286087611112 43.9631344380707 956.2288056654584 255 255 255 255 0 
49.4507183300622 44.00087805605696 956.2130252630335 255 255 255 255 0 
49.66300385096641 43.87135425466683 956.4556593422059 255 255 255 255 0 
49.63759089484088 43.91209815381097 956.4400431413113 255 255 255 255 0 
49.55480649058668 43.83119611505913 956.4436348493597 255 255 255 255 0 
49.41130308555615 43.79756783612298 956.3306557822466 255 255 255 255 0 
49.41802920051131 43.88409652880163 956.3151194738272 255 255 255 255 0 
49.55184585571425 43.52026727746267 956.0888307848545 255 255 255 255 0 
50.30861470825944 43.87723377134858 952.7794945612679 255 255 255 255 0 
50.29937534286949 43.85939660801766 952.7223803590167 255 255 255 255 0 
50.30072832598959 43.91898148884465 952.6989765925254 255 255 255 255 0 
50.08860446824394 44.19620465764003 952.6876754619213 255 255 255 255 0 
50.07795024270447 44.16523775047015 952.6188614917878 255 255 255 255 0 
49.9397787563613 43.66887254738825 956.1642382611799 255 255 255 255 0 
49.74598891674231 43.95788936823333 956.4013983144408 255 255 255 255 0 
49.81131594075374 43.95064918810859 956.3725837383208 255 255 255 255 0 
49.79171783647549 43.99932812580678 956.3416328155824 255 255 255 255 0 
49.71146810849543 44.00352226939623 956.373780560079 255 255 255 255 0 
49.45297423138716 43.74220239690632 956.3761988773606 255 255 255 255 0 
49.94669119571412 44.06474751485187 954.7283088174994 255 255 255 255 0 
49.48540880616855 43.66252551038539 956.372499694718 255 255 255 255 0 
49.5507076451678 43.60917564361684 956.3781280901712 255 255 255 255 0 
49.71663416949764 43.9857416436103 952.8188251610222 255 255 255 255 0 
49.73041288987829 44.02914537078247 953.1991185157907 255 255 255 255 0 
50.08925222415426 43.66476103627819 954.0930622033444 255 255 255 255 0 
50.06041358458971 43.61765145508033 953.9977961228307 255 255 255 255 0 
50.11251878649 43.68276477288432 953.9258800793652 255 255 255 255 0 
50.0766300304382 43.68260687007344 952.6033010210006 255 255 255 255 0 
50.00914971524131 43.66155056850623 952.6201235878762 255 255 255 255 0 
49.91526607524521 44.0827988272683 954.8740168415187 255 255 255 255 0 
49.92633367520764 43.61605071062536 955.4587145561163 255 255 255 255 0 
49.82631857607854 43.50683121898018 955.6232370280873 255 255 255 255 0 
49.85777399478672 44.16357097460316 952.6850385035998 255 255 255 255 0 
50.17610677379447 43.71897758510498 952.6262235773783 255 255 255 255 0 
50.12114221397502 43.73673729216235 952.5651770945941 255 255 255 255 0 
49.82873826189169 44.07823785556551 955.5561266772187 255 255 255 255 0 
49.70886624955914 44.01860394315028 954.7284469433444 255 255 255 255 0 
49.60105908837578 43.98390236351074 954.70815656739 255 255 255 255 0 
49.72728927607041 43.55098720201962 956.3365672756787 255 255 255 255 0 
49.74185609753658 43.52990125994184 956.294856358675 255 255 255 255 0 
49.85180027828937 44.1730243934626 952.7312891888819 255 255 255 255 0 
49.74235301010105 43.50320508629916 956.2129808978533 255 255 255 255 0 
49.93739504449304 43.73576091488464 952.54919336461 255 255 255 255 0 
49.96017883692441 43.83958787990938 952.4911992327147 255 255 255 255 0 
50.28518105284253 43.94395679027406 952.658063057256 255 255 255 255 0 
50.23852676248028 43.99045694774515 952.5953356879041 255 255 255 255 0 
50.23824621846707 44.05596907061541 952.6368852390896 255 255 255 255 0 
49.82181318745059 43.53352169741767 956.164321206315 255 255 255 255 0 
50.15356006040387 43.93338102007291 953.8692758603063 255 255 255 255 0 
50.22293239397975 43.83695449147606 953.8723644355553 255 255 255 255 0 
50.24206911374915 43.84481945457512 953.662387395859 255 255 255 255 0 
49.87545725280259 43.58116503608274 956.2125334506514 255 255 255 255 0 
49.62277779404817 44.0705021340023 956.2725211104232 255 255 255 255 0 
49.65775538851917 43.71077069450637 956.4552708340221 255 255 255 255 0 
49.65900508870639 43.70887379098215 954.0140046245074 255 255 255 255 0 
49.66453417443595 43.79401794013428 953.9606796861493 255 255 255 255 0 
49.6211667830488 43.79093331711208 956.4636232940973 255 255 255 255 0 
49.7965510296598 43.7230539091869 952.6895901673466 255 255 255 255 0 
49.85162889538249 43.66497498035057 952.731834023804 255 255 255 255 0 
49.70643865046686 43.91042255363286 956.4375694912144 255 255 255 255 0 
49.66319754574246 43.48847582537159 956.16378680259 255 255 255 255 0 
49.59043441560917 43.49847213824419 956.1526861748035 255 255 255 255 0 
49.99086370891395 43.91471739889579 955.2445293106924 255 255 255 255 0 
49.95120657616067 43.99258289529523 955.1094376913048 255 255 255 255 0 
50.18202126970758 43.98341487030272 952.5393411053101 255 255 255 255 0 
49.5292386561761 43.53359887148854 956.2466208395315 255 255 255 255 0 
49.45041354261013 43.58124238829516 956.2122123660803 255 255 255 255 0 
49.37537216780602 43.74173627118935 956.0842238586511 255 255 255 255 0 
49.36248065195448 43.77744979786929 956.1420306475004 255 255 255 255 0 
49.38625101016101 43.91317665590491 956.1643703759552 255 255 255 255 0 
49.37054529282891 43.8573352923659 956.1241801946042 255 255 255 255 0 
49.3641551260584 43.81571505293459 956.204023661607 255 255 255 255 0 
49.96309066662312 43.54507079235869 954.0520719397589 255 255 255 255 0 
49.81298970057358 43.59099456762763 954.0863132178748 255 255 255 255 0 
50.10971779760821 43.66953893537769 953.7662548249186 255 255 255 255 0 
50.18858680885036 43.77719835344951 953.7638596638968 255 255 255 255 0 
49.59404245752248 43.62367640611279 954.6600943938772 255 255 255 255 0 
49.72128904218454 43.96785539566132 952.6992832436383 255 255 255 255 0 
49.72944583981137 44.02748944542665 952.738977871 255 255 255 255 0 
50.28760830632607 43.89376538839813 953.0996706946117 255 255 255 255 0 
50.27057001641773 43.77224405975878 952.8185692835201 255 255 255 255 0 
49.98014430898456 43.52832980169681 954.2041656371515 255 255 255 255 0 
49.86241998577436 43.87942345012012 952.5173281440018 255 255 255 255 0 
49.43515922293329 43.68713531514957 956.3321650973483 255 255 255 255 0 
49.96878517912975 43.62023122750678 952.7537394115479 255 255 255 255 0 
50.0865509888615 43.61376208874854 952.9659821515825 255 255 255 255 0 
50.12470927784401 43.6634805480185 952.6656977190638 255 255 255 255 0 
50.12883288784219 43.79399686336149 954.7961297857586 255 255 255 255 0 
50.02098532802456 43.66588770886868 954.9280966268302 255 255 255 255 0 
50.05525185912514 43.69671784802728 954.813773603881 255 255 255 255 0 
49.7471307630447 43.77283149522134 952.7393095930444 255 255 255 255 0 
49.71793977446651 43.83649826118401 952.779131758579 255 255 255 255 0 
49.39354974878682 43.718627552621 956.2809659516917 255 255 255 255 0 
49.38673303952456 43.81629857415519 956.2846273297738 255 255 255 255 0 
49.37058771576495 43.72469034191781 956.2042364690649 255 255 255 255 0 
49.38580616115163 43.88219361657852 956.2438231765605 255 255 255 255 0 
49.77174506177747 43.76324027988707 952.6742879905381 255 255 255 255 0 
49.66334111709084 43.64562656754834 954.0106351557514 255 255 255 255 0 
49.64249785732702 43.64024700560461 954.1886697011079 255 255 255 255 0 
50.0207853308953 43.7176183217662 955.2894172147335 255 255 255 255 0 
50.28670715364596 43.80097018666719 952.7679669051519 255 255 255 255 0 
49.42584413496068 43.63493905935822 956.2685170104297 255 255 255 255 0 
49.50418309815068 43.53351473504918 956.1640138434493 255 255 255 255 0 
49.38673371558431 43.81599447306538 956.0432720462048 255 255 255 255 0 
50.24689023740711 43.80573099394161 952.6321805261156 255 255 255 255 0 
49.79371909941032 44.07589486438024 955.9020491144254 255 255 255 255 0 
49.80036223435237 44.0781403835058 955.7988671769371 255 255 255 255 0 
49.77558648225298 44.07633610754003 955.9518719249478 255 255 255 255 0 
50.17971161101479 44.11456555347335 952.6236415034341 255 255 255 255 0 
49.90674649003317 43.95676454575531 955.6820805555052 255 255 255 255 0 
49.92910482644677 44.19626505019888 952.6881001210832 255 255 255 255 0 
50.07571522414528 43.95897733710628 952.4866419220551 255 255 255 255 0 
49.98417173181558 43.95944626571522 952.4802179862113 255 255 255 255 0 
49.73340585165158 44.0242210293592 954.4547158828001 255 255 255 255 0 
49.60520151087037 43.98418434232057 954.5932201173636 255 255 255 255 0 
49.70647752121153 43.91900754814692 952.7786735868917 255 255 255 255 0 
49.73601661188979 43.56382681428372 954.8877471824441 255 255 255 255 0 
49.91078237317124 43.5094606864949 954.8590290030022 255 255 255 255 0 
50.02779178471069 43.82236564663861 952.4942613248511 255 255 255 255 0 
50.14632271495131 43.77728610666598 952.5496871086941 255 255 255 255 0 
50.10327951644518 43.83418459768795 952.5048031080307 255 255 255 255 0 
50.03377475946922 43.87919677817269 952.480141018223 255 255 255 255 0 
50.10959114717267 43.89143060192676 952.4958862312673 255 255 255 255 0 
49.90193186897835 44.07859005263229 954.4098850352389 255 255 255 255 0 
49.96269375885421 44.09598182204329 954.4194652995583 255 255 255 255 0 
50.04969431852935 43.62026491327484 952.7541565847428 255 255 255 255 0 
49.89198856578295 44.11953808763433 953.1053573686195 255 255 255 255 0 
49.85289955562918 44.02378627440878 952.5419830997744 255 255 255 255 0 
49.92889436558916 43.64186860670189 952.6878745534158 255 255 255 255 0 
49.92617280989428 43.91900859509823 952.4880305020675 255 255 255 255 0 
49.69279842632918 44.02394021318691 953.7072872773222 255 255 255 255 0 
49.7085905386321 44.03504518785699 953.4716486796403 255 255 255 255 0 
50.24596948605124 44.07532387286262 952.8835472214189 255 255 255 255 0 
50.09298544079532 43.63337370590133 952.7273552568978 255 255 255 255 0 
50.00901602218758 43.62808380410539 952.6960091857796 255 255 255 255 0 
50.0491527738427 43.63955696109361 952.6703107906287 255 255 255 255 0 
50.10075204551548 43.79628932950525 955.0485410392578 255 255 255 255 0 
50.0738608069408 44.00662978498111 954.069580622526 255 255 255 255 0 
49.79389843879641 44.13173337703601 952.7789989081792 255 255 255 255 0 
50.06682646495038 43.59027532910989 953.2572651051748 255 255 255 255 0 
50.13069206420832 43.68323778972346 953.4407172925725 255 255 255 255 0 
50.03794073356639 43.56338107482298 953.5932322856141 255 255 255 255 0 
49.46179613314992 43.86734450116435 955.7858203696372 255 255 255 255 0 
49.81138282777389 43.65705237208516 953.3758876126763 255 255 255 255 0 
49.86675873737637 43.63234098948818 953.4426070156129 255 255 255 255 0 
49.75907506587869 44.09071733319384 952.8405911989829 255 255 255 255 0 
49.82502815366932 43.66780601207775 953.2335453869384 255 255 255 255 0 
49.72856658936174 43.70008635674252 953.2305443036303 255 255 255 255 0 
49.72659265228827 43.7781294234785 953.236553979668 255 255 255 255 0 
49.91875142522795 43.65650904658141 953.060385558591 255 255 255 255 0 
50.18342628789333 43.80975132644032 954.2811595717175 255 255 255 255 0 
50.20216864240832 43.82420976188526 954.0967356292117 255 255 255 255 0 
49.52356722527215 43.76317417982345 955.2672507833405 255 255 255 255 0 
50.01522236932664 43.86594988683096 955.3330093866896 255 255 255 255 0 
50.07261525535849 43.79152617074829 955.2957752077994 255 255 255 255 0 
49.73290294415806 44.06152900644292 953.1885278694838 255 255 255 255 0 
49.47372889728071 43.81029547171176 955.6850348616681 255 255 255 255 0 
50.07625914221243 43.94593111938439 954.3877826150519 255 255 255 255 0 
50.15776698151927 43.74035361349578 953.8544322466607 255 255 255 255 0 
49.6735436126683 43.83141269489849 953.8670580355893 255 255 255 255 0 
49.62698891498477 43.81132027379823 954.3406865198923 255 255 255 255 0 
49.84572175230694 43.63015374692397 953.5302496507144 255 255 255 255 0 
49.94530908942437 43.61095247251936 953.4038643252394 255 255 255 255 0 
49.84882562978899 43.55548626772837 954.4131055459984 255 255 255 255 0 
49.94525530703104 43.68506887956174 955.7304030391127 255 255 255 255 0 
50.03319879363174 43.94299382987826 954.7413013254707 255 255 255 255 0 
49.83898329791397 44.01420757052325 955.8971764954786 255 255 255 255 0 
49.52501789358417 43.97017731205982 955.2697192199855 255 255 255 255 0 
50.06943118999748 44.16966524391067 953.222375374799 255 255 255 255 0 
50.13445951112035 44.06855434820114 953.2934205569181 255 255 255 255 0 
50.16267364140076 44.05886962441196 953.1412085512667 255 255 255 255 0 
49.96910308677872 44.06294624212376 954.562217773259 255 255 255 255 0 
50.15517282865126 43.80635959190223 954.5585852423185 255 255 255 255 0 
49.98264128796519 43.85933005483012 955.6378890740417 255 255 255 255 0 
49.96472351906594 43.92379679679581 955.4032855601405 255 255 255 255 0 
50.0422892052012 43.79323739262914 955.5414362321292 255 255 255 255 0 
50.05184259341868 44.14770678580295 953.4752643915106 255 255 255 255 0 
49.75813604244681 44.06650208340542 953.2627895353102 255 255 255 255 0 
50.21089220537722 43.81559090274328 953.8994639051269 255 255 255 255 0 
49.65657769546971 43.58532800055004 954.970818865883 255 255 255 255 0 
50.01939079672087 43.78954918066439 955.7408377787408 255 255 255 255 0 
49.72051990627762 44.04700292267397 953.3286854681771 255 255 255 255 0 
49.86164392881164 43.60967880492007 953.6881262665 255 255 255 255 0 
50.11911788978047 44.01970919588214 953.66119901064 255 255 255 255 0 
49.91053209565922 44.09652992834057 953.6552639179321 255 255 255 255 0 
49.91810342449957 43.52834453047259 954.479581893355 255 255 255 255 0 
49.64642697304881 43.84108286607868 954.1514757138863 255 255 255 255 0 
49.62908738664208 43.9907547997269 954.3573767842792 255 255 255 255 0 
49.46735138601377 43.70433123279697 955.7328427324931 255 255 255 255 0 
50.00275826495158 43.5438255262527 954.0556943946391 255 255 255 255 0 
49.99305606460943 43.53539958945171 954.0548047175403 255 255 255 255 0 
49.89939055905507 43.58716668604847 953.7998585957087 255 255 255 255 0 
49.67668940784097 43.65802972186334 953.832477995 255 255 255 255 0 
49.50645386028154 43.81866900255417 955.413473820615 255 255 255 255 0 
49.87539784685178 44.00084514503487 956.1152572735343 255 255 255 255 0 
50.01167936224928 43.62635943673002 954.7251196325248 255 255 255 255 0 
50.08595301627403 44.18187694576601 953.0526464583171 255 255 255 255 0 
50.02668811978641 43.55511827112387 953.7501145844003 255 255 255 255 0 
49.72344034160004 44.04517194969275 955.5661199455876 255 255 255 255 0 
49.51884681923704 43.8672560278154 955.3120073365261 255 255 255 255 0 
49.81312238933448 44.03674015270606 955.975880789046 255 255 255 255 0 
50.00916520781801 43.54295323310333 953.9045775193749 255 255 255 255 0 
49.47965377345885 43.56128293802597 956.0923452049446 255 255 255 255 0 
49.53547660322354 43.86952160777475 955.1701118321192 255 255 255 255 0 
50.11560959749573 44.0672841047126 953.4361236096419 255 255 255 255 0 
50.00297223232059 43.55860347952484 953.746278827138 255 255 255 255 0 
50.03143353300198 44.1348234078736 953.6710754845097 255 255 255 255 0 
49.95984983247991 43.52133349257099 954.3914823635976 255 255 255 255 0 
50.17593444685689 44.02446705631102 953.2248845900393 255 255 255 255 0 
50.04410015101508 44.13947146021776 953.5758101037235 255 255 255 255 0 
50.09699354626481 44.07047411353428 953.5546612530022 255 255 255 255 0 
49.46372444327559 43.78356894327879 955.7662240159081 255 255 255 255 0 
49.52708705957154 43.83652121897793 955.2404684349898 255 255 255 255 0 
3 0 1 2 
3 3 4 5 
3 6 1 0 
3 7 8 9 
3 10 11 12 
3 11 13 12 
3 14 15 16 
3 17 18 19 
3 20 21 22 
3 23 24 25 
3 26 27 28 
3 29 30 31 
3 32 33 34 
3 35 36 37 
3 38 39 40 
3 41 42 43 
3 19 44 45 
3 46 18 47 
3 48 49 50 
3 51 52 53 
3 51 53 54 
3 55 18 17 
3 56 57 58 
3 59 60 61 
3 46 19 18 
3 62 63 64 
3 65 66 1 
3 67 68 69 
3 27 70 28 
3 71 72 73 
3 74 75 76 
3 77 78 79 
3 47 18 55 
3 80 15 81 
3 82 83 84 
3 62 85 63 
3 86 87 88 
3 89 90 91 
3 92 93 94 
3 95 87 96 
3 17 97 98 
3 99 77 100 
3 101 102 103 
3 81 36 80 
3 79 78 104 
3 59 105 106 
3 99 107 108 
3 109 110 111 
3 112 113 101 
3 114 37 2 
3 115 116 117 
3 118 119 120 
3 120 121 122 
3 123 124 125 
3 126 98 97 
3 127 128 129 
3 111 130 109 
3 131 132 133 
3 32 134 33 
3 135 136 137 
3 138 139 140 
3 141 142 143 
3 144 145 146 
3 147 148 149 
3 150 151 152 
3 153 49 154 
3 0 2 36 
3 155 156 157 
3 158 159 160 
3 129 161 124 
3 120 122 162 
3 59 61 163 
3 15 164 81 
3 165 166 167 
3 168 166 165 
3 169 170 76 
3 171 172 173 
3 174 175 176 
3 107 99 100 
3 177 178 100 
3 81 164 179 
3 180 181 39 
3 16 15 80 
3 65 157 156 
3 128 182 183 
3 115 184 116 
3 100 178 107 
3 185 32 57 
3 186 187 188 
3 189 190 16 
3 81 6 0 
3 8 191 28 
3 192 193 194 
3 120 162 10 
3 195 52 51 
3 67 111 196 
3 197 116 198 
3 77 199 200 
3 88 35 86 
3 201 172 20 
3 202 203 204 
3 75 205 206 
3 207 208 209 
3 210 23 211 
3 69 68 212 
3 213 214 215 
3 81 179 153 
3 19 216 217 
3 183 84 128 
3 49 179 218 
3 119 118 211 
3 189 16 88 
3 55 17 98 
3 219 220 221 
3 219 221 222 
3 223 23 210 
3 224 146 145 
3 139 209 24 
3 121 120 119 
3 225 226 140 
3 4 126 227 
3 4 228 126 
3 26 162 122 
3 26 122 222 
3 88 16 80 
3 229 230 231 
3 25 211 23 
3 35 80 36 
3 232 41 43 
3 232 233 41 
3 89 111 110 
3 144 234 145 
3 70 221 156 
3 89 235 236 
3 85 237 63 
3 96 138 95 
3 238 232 239 
3 61 240 193 
3 241 242 195 
3 243 189 87 
3 28 70 155 
3 140 139 24 
3 119 211 25 
3 190 189 244 
3 153 65 6 
3 97 17 245 
3 36 81 0 
3 190 244 246 
3 219 114 220 
3 2 220 114 
3 66 220 2 
3 247 161 248 
3 155 8 28 
3 201 243 87 
3 95 138 226 
3 80 35 88 
3 249 250 251 
3 222 122 219 
3 27 26 222 
3 249 79 215 
3 96 86 187 
3 81 153 6 
3 37 188 187 
3 220 66 221 
3 66 156 221 
3 211 118 205 
3 79 249 199 
3 246 252 190 
3 253 254 255 
3 190 256 16 
3 257 26 28 
3 179 49 153 
3 154 65 153 
3 157 65 154 
3 218 179 164 
3 65 1 6 
3 187 186 258 
3 70 156 155 
3 96 258 138 
3 259 58 260 
3 36 2 37 
3 209 121 25 
3 258 186 261 
3 187 258 96 
3 96 87 86 
3 258 139 138 
3 35 37 187 
3 35 187 86 
3 114 188 37 
3 190 252 256 
3 209 208 121 
3 1 66 2 
3 262 123 263 
3 164 14 218 
3 164 15 14 
3 207 264 208 
3 265 266 68 
3 222 221 27 
3 27 221 70 
3 16 256 14 
3 122 121 208 
3 207 186 188 
3 207 261 186 
3 208 264 122 
3 207 188 264 
3 209 261 207 
3 264 114 219 
3 264 188 114 
3 22 21 265 
3 189 88 87 
3 162 257 10 
3 28 191 257 
3 156 66 65 
3 193 267 268 
3 148 147 269 
3 217 44 19 
3 270 171 271 
3 272 160 273 
3 274 275 276 
3 277 278 204 
3 279 255 280 
3 103 281 180 
3 282 283 73 
3 213 284 285 
3 213 78 284 
3 79 199 77 
3 286 278 277 
3 213 104 78 
3 257 11 10 
3 272 69 158 
3 160 272 158 
3 251 199 249 
3 226 172 201 
3 287 84 83 
3 116 197 117 
3 12 75 206 
3 288 173 225 
3 289 290 3 
3 275 273 276 
3 291 238 136 
3 251 250 147 
3 217 216 177 
3 226 201 95 
3 10 206 118 
3 292 293 294 
3 130 67 69 
3 182 295 296 
3 243 22 244 
3 201 22 243 
3 244 22 246 
3 297 298 299 
3 7 191 8 
3 300 276 298 
3 172 270 20 
3 262 295 301 
3 273 160 299 
3 299 160 159 
3 298 211 300 
3 211 298 210 
3 72 85 62 
3 259 302 303 
3 91 304 89 
3 273 299 276 
3 285 135 305 
3 271 306 159 
3 270 307 21 
3 21 307 266 
3 210 288 223 
3 297 288 210 
3 223 288 225 
3 223 225 140 
3 265 246 22 
3 173 306 171 
3 257 191 11 
3 275 308 273 
3 64 63 45 
3 184 137 309 
3 104 215 79 
3 298 297 210 
3 201 20 22 
3 140 24 223 
3 23 223 24 
3 274 205 74 
3 299 159 297 
3 170 310 311 
3 312 310 170 
3 276 299 298 
3 147 313 251 
3 173 288 306 
3 297 306 288 
3 172 171 270 
3 21 20 270 
3 314 240 311 
3 225 173 226 
3 172 226 173 
3 226 138 140 
3 249 184 115 
3 13 75 12 
3 211 205 300 
3 247 41 125 
3 213 215 104 
3 309 116 184 
3 266 307 212 
3 306 297 159 
3 262 127 123 
3 265 21 266 
3 106 76 170 
3 169 191 7 
3 169 11 191 
3 315 245 17 
3 11 169 13 
3 10 12 206 
3 74 205 75 
3 274 276 300 
3 206 205 118 
3 93 316 317 
3 318 319 241 
3 313 200 251 
3 42 41 247 
3 171 306 271 
3 129 287 161 
3 291 136 31 
3 31 30 291 
3 215 184 249 
3 135 29 31 
3 198 116 309 
3 29 290 30 
3 282 182 320 
3 91 321 322 
3 241 192 234 
3 315 17 19 
3 29 135 285 
3 42 323 43 
3 111 236 196 
3 111 89 236 
3 307 270 271 
3 215 214 184 
3 214 137 184 
3 324 239 43 
3 295 182 301 
3 158 271 159 
3 325 323 326 
3 325 326 327 
3 250 249 115 
3 248 326 323 
3 318 144 146 
3 328 329 134 
3 273 308 272 
3 330 290 289 
3 315 45 63 
3 213 285 305 
3 320 182 296 
3 128 127 301 
3 301 127 262 
3 251 200 199 
3 308 69 272 
3 126 331 98 
3 135 31 136 
3 72 332 82 
3 309 137 136 
3 92 149 148 
3 213 305 214 
3 137 214 305 
3 117 269 115 
3 250 115 269 
3 73 72 82 
3 333 3 263 
3 333 289 3 
3 125 41 233 
3 198 324 197 
3 155 9 8 
3 248 334 326 
3 250 269 147 
3 309 136 198 
3 94 332 62 
3 149 217 313 
3 127 129 124 
3 84 287 129 
3 241 195 192 
3 183 82 84 
3 93 148 316 
3 335 336 143 
3 135 137 305 
3 43 323 325 
3 248 323 42 
3 128 84 129 
3 337 77 99 
3 30 330 338 
3 30 290 330 
3 330 289 339 
3 62 332 72 
3 64 94 62 
3 339 340 330 
3 94 64 92 
3 320 4 227 
3 296 4 320 
3 200 100 77 
3 340 232 291 
3 233 232 340 
3 123 333 263 
3 234 268 341 
3 289 333 339 
3 291 30 338 
3 325 327 197 
3 282 320 283 
3 317 316 326 
3 148 93 92 
3 197 327 117 
3 149 313 147 
3 176 180 281 
3 268 194 193 
3 284 78 337 
3 301 182 128 
3 94 83 332 
3 342 253 34 
3 94 334 83 
3 136 238 198 
3 71 343 245 
3 338 340 291 
3 233 340 339 
3 330 340 338 
3 44 64 45 
3 325 324 43 
3 197 324 325 
3 316 327 326 
3 239 198 238 
3 239 324 198 
3 232 43 239 
3 344 345 346 
3 124 161 247 
3 77 337 78 
3 45 315 19 
3 269 316 148 
3 327 316 117 
3 117 316 269 
3 333 123 125 
3 200 177 100 
3 82 332 83 
3 83 334 287 
3 92 44 149 
3 149 44 217 
3 92 64 44 
3 73 283 71 
3 177 313 217 
3 313 177 200 
3 339 333 233 
3 125 233 333 
3 232 238 291 
3 315 237 245 
3 237 315 63 
3 72 71 85 
3 71 237 85 
3 71 245 237 
3 182 282 183 
3 73 82 282 
3 183 282 82 
3 247 248 42 
3 287 248 161 
3 94 317 334 
3 93 317 94 
3 247 125 124 
3 124 123 127 
3 287 334 248 
3 76 347 308 
3 106 347 76 
3 334 317 326 
3 178 177 216 
3 216 46 178 
3 216 19 46 
3 46 47 178 
3 47 107 178 
3 348 349 141 
3 245 343 97 
3 97 350 126 
3 343 350 97 
3 351 352 4 
3 353 4 352 
3 351 354 344 
3 71 350 343 
3 283 350 71 
3 283 227 350 
3 344 354 290 
3 283 320 227 
3 350 227 126 
3 342 355 356 
3 109 357 110 
3 274 300 205 
3 103 38 101 
3 234 194 268 
3 267 358 359 
3 228 360 126 
3 255 345 165 
3 143 336 141 
3 353 352 141 
3 105 361 106 
3 335 57 34 
3 337 99 108 
3 256 131 14 
3 362 134 329 
3 280 363 279 
3 335 364 57 
3 174 365 303 
3 346 366 367 
3 368 174 303 
3 169 76 13 
3 236 369 133 
3 180 110 181 
3 341 370 234 
3 311 310 371 
3 218 14 131 
3 252 131 256 
3 134 32 185 
3 163 372 59 
3 10 118 120 
3 314 311 48 
3 192 194 234 
3 89 304 235 
3 352 351 348 
3 242 319 40 
3 243 244 189 
3 373 374 375 
3 133 68 67 
3 376 377 362 
3 275 76 308 
3 111 67 130 
3 196 236 133 
3 133 67 196 
3 54 181 110 
3 143 364 335 
3 150 286 229 
3 365 174 102 
3 376 224 370 
3 341 293 292 
3 318 241 144 
3 90 321 91 
3 314 378 379 
3 380 379 378 
3 381 374 373 
3 331 360 382 
3 231 363 383 
3 90 110 384 
3 4 3 354 
3 4 354 351 
3 290 168 344 
3 284 168 290 
3 29 284 290 
3 385 50 49 
3 26 257 162 
3 3 290 354 
3 373 331 382 
3 126 360 331 
3 351 367 348 
3 360 386 382 
3 228 386 360 
3 130 105 109 
3 387 366 346 
3 336 353 141 
3 4 353 228 
3 342 362 355 
3 345 168 165 
3 264 219 122 
3 370 224 234 
3 170 60 106 
3 255 388 253 
3 253 356 254 
3 382 381 373 
3 163 51 372 
3 328 146 329 
3 378 50 385 
3 61 193 163 
3 255 279 345 
3 202 204 278 
3 131 252 132 
3 292 370 341 
3 381 336 389 
3 346 345 279 
3 180 384 110 
3 90 384 321 
3 175 368 390 
3 253 388 34 
3 262 5 295 
3 391 365 392 
3 69 393 130 
3 380 369 235 
3 369 236 235 
3 355 229 356 
3 150 377 151 
3 314 379 240 
3 180 39 103 
3 146 328 318 
3 394 286 395 
3 242 40 195 
3 387 396 397 
3 397 396 203 
3 379 380 358 
3 303 365 391 
3 376 370 377 
3 51 163 192 
3 142 366 387 
3 176 321 180 
3 13 76 75 
3 275 74 76 
3 275 274 74 
3 4 296 5 
3 295 5 296 
3 109 398 357 
3 234 144 241 
3 154 399 157 
3 392 319 318 
3 51 192 195 
3 400 152 151 
3 385 380 378 
3 139 261 209 
3 25 24 209 
3 253 342 356 
3 341 359 304 
3 304 359 380 
3 47 55 401 
3 98 401 55 
3 331 401 98 
3 373 401 331 
3 346 279 402 
3 240 403 60 
3 311 60 170 
3 292 377 370 
3 380 235 304 
3 399 48 371 
3 281 174 176 
3 355 362 377 
3 48 399 49 
3 154 49 399 
3 170 169 312 
3 357 398 404 
3 167 166 284 
3 284 166 168 
3 319 38 40 
3 228 353 386 
3 336 386 353 
3 382 386 381 
3 336 381 386 
3 151 294 400 
3 146 376 329 
3 371 405 399 
3 406 203 396 
3 383 254 356 
3 322 152 400 
3 394 230 229 
3 335 389 336 
3 246 132 252 
3 344 367 351 
3 201 87 95 
3 3 5 263 
3 234 224 145 
3 141 366 142 
3 319 242 241 
3 342 134 362 
3 377 150 355 
3 119 25 121 
3 366 349 367 
3 107 47 108 
3 307 407 212 
3 38 319 101 
3 342 34 33 
3 362 329 376 
3 278 286 368 
3 318 185 392 
3 133 369 49 
3 133 49 131 
3 392 112 319 
3 342 33 134 
3 346 367 344 
3 355 150 229 
3 303 302 278 
3 185 56 392 
3 40 39 195 
3 54 408 51 
3 56 391 392 
3 397 364 143 
3 357 54 110 
3 34 389 335 
3 406 230 394 
3 261 139 258 
3 312 9 310 
3 383 280 254 
3 255 254 280 
3 246 265 132 
3 102 101 113 
3 394 395 406 
3 391 259 303 
3 56 185 57 
3 68 133 132 
3 68 132 265 
3 302 202 278 
3 57 32 34 
3 409 374 381 
3 375 337 108 
3 401 108 47 
3 375 108 401 
3 193 240 379 
3 369 385 49 
3 131 49 218 
3 380 385 369 
3 393 105 130 
3 165 388 255 
3 352 348 141 
3 397 143 142 
3 346 402 410 
3 410 402 406 
3 397 142 387 
3 345 344 168 
3 284 29 285 
3 167 409 165 
3 371 310 405 
3 388 411 34 
3 389 34 411 
3 412 390 368 
3 380 359 358 
3 150 412 286 
3 150 152 412 
3 368 286 412 
3 375 401 373 
3 109 105 398 
3 387 410 396 
3 176 322 321 
3 146 224 376 
3 364 58 57 
3 311 371 48 
3 292 294 151 
3 103 39 38 
3 348 367 349 
3 318 328 185 
3 185 328 134 
3 368 175 174 
3 379 358 267 
3 110 90 89 
3 322 293 91 
3 304 293 341 
3 304 91 293 
3 400 293 322 
3 383 356 231 
3 356 229 231 
3 311 240 60 
3 279 363 231 
3 337 375 284 
3 105 59 398 
3 59 106 60 
3 393 361 105 
3 347 106 361 
3 259 397 302 
3 400 294 293 
3 368 303 278 
3 271 407 307 
3 158 407 271 
3 69 212 407 
3 69 407 158 
3 39 181 53 
3 403 61 60 
3 61 403 240 
3 359 341 267 
3 341 268 267 
3 167 284 413 
3 375 413 284 
3 163 193 192 
3 381 414 415 
3 372 51 408 
3 231 230 406 
3 263 5 262 
3 56 58 391 
3 175 390 152 
3 152 390 412 
3 379 267 193 
3 357 408 54 
3 346 410 387 
3 406 402 279 
3 231 406 279 
3 102 113 365 
3 176 175 322 
3 152 322 175 
3 381 415 409 
3 409 415 165 
3 308 416 69 
3 393 69 416 
3 361 393 416 
3 229 286 394 
3 286 277 395 
3 277 406 395 
3 391 58 259 
3 39 52 195 
3 157 9 155 
3 399 9 157 
3 405 310 9 
3 405 9 399 
3 7 9 169 
3 312 169 9 
3 212 68 266 
3 292 151 377 
3 54 53 181 
3 167 374 409 
3 374 413 375 
3 374 167 413 
3 280 383 363 
3 365 113 392 
3 319 112 101 
3 103 102 281 
3 174 281 102 
3 408 357 417 
3 404 417 357 
3 406 396 410 
3 165 415 388 
3 411 388 415 
3 180 321 384 
3 314 48 50 
3 314 50 378 
3 372 404 59 
3 398 59 404 
3 347 416 308 
3 361 416 347 
3 302 397 202 
3 203 202 397 
3 406 204 203 
3 277 204 406 
3 392 113 112 
3 364 397 260 
3 364 260 58 
3 259 260 397 
3 411 414 389 
3 389 414 381 
3 411 415 414 
3 39 53 52 
3 366 141 349 
3 372 417 404 
3 408 417 372 
