ply
format ascii 1.0
comment VCGLIB generated
element vertex 162
property double x
property double y
property double z
property uchar red
property uchar green
property uchar blue
property uchar alpha
property double quality
element face 320
property list uchar int vertex_indices
property double quality
end_header
52.15619652740006 197.8217854101032 937.374382011937 255 255 255 255 0.01618743873220507 
50.91643544142822 200.8088829939392 938.6213445901326 255 255 255 255 0.02042493412026381 
52.10879279222699 196.5795224970564 938.0991636354296 255 255 255 255 0.1377655539266135 
52.17957674576385 196.5813630936819 938.1717494299921 255 255 255 255 0.136858876361374 
52.13906281513938 196.6155047163092 938.1742614240765 255 255 255 255 0.1545742294961347 
51.97968577066985 195.0209075955645 937.7799818870993 255 255 255 255 0.006306276275476944 
51.48452108016311 199.5508737530085 937.5226012440148 255 255 255 255 0.01029786025734342 
51.98248573350428 195.9137767062257 937.8825219315162 255 255 255 255 0.05621225239282002 
51.94008811759633 197.2052466224033 938.3577564278713 255 255 255 255 0.1117156722244585 
51.87801058323296 197.2250200443401 938.1977338370216 255 255 255 255 0.1070308728308858 
50.85811441447941 199.8445997489787 938.4243066619658 255 255 255 255 0.01318630508365481 
52.75320346571633 196.5227249217466 938.2886181968233 255 255 255 255 0.1067126725663399 
50.52913038908042 200.7684953395081 937.7234968139421 255 255 255 255 0.01226529032348315 
51.6822879123176 199.8668010493788 938.2680951369148 255 255 255 255 0.01917660649049063 
52.84970317234413 196.8452952195039 939.3706902374934 255 255 255 255 0.02839344721927818 
51.72258766895173 197.1649956230286 937.7952644195504 255 255 255 255 0.1003039028290944 
52.57609690047581 197.6329558197806 937.6396719892107 255 255 255 255 0.02706168081826466 
52.35136823386099 196.0682259975376 938.1217133167626 255 255 255 255 0.1170923962183209 
52.36065325476036 195.0312981691025 937.9955051817329 255 255 255 255 0.009487174110141609 
52.37502806536492 197.3515366907972 938.6619868298642 255 255 255 255 0.1871261648957372 
51.71890199820712 198.8048666968203 938.4388484871171 255 255 255 255 0.004638327920912827 
50.6940223471939 199.8063075383297 938.023108953234 255 255 255 255 0.006309411942782163 
52.1280501507626 196.9404109604509 938.9194294391651 255 255 255 255 0.1062830425588981 
51.39314880174003 198.6072355415312 937.5272563168398 255 255 255 255 0.00804267310913657 
51.28470161437183 198.3054739190176 937.8904663936313 255 255 255 255 0.01588965513585463 
52.72796366804514 196.4319872679957 938.0142197105656 255 255 255 255 0.1223800330323573 
52.07559370320014 197.3531983810529 938.2847243167412 255 255 255 255 0.1441879857478595 
51.35064934759111 200.7529522361489 937.9132281000036 255 255 255 255 0.01864576220442571 
51.34707685123681 199.7482381978929 938.5222967835431 255 255 255 255 0.01732672578271754 
52.21385485953787 197.4045756622264 938.3905730400395 255 255 255 255 0.2494470745288654 
52.28384626674225 196.4879014394587 938.2025298899861 255 255 255 255 0.1753467839786686 
52.35057103139435 196.5788913145336 939.3903481027265 255 255 255 255 0.03277755483755147 
52.02877588236565 196.7105379027842 938.1625811443125 255 255 255 255 0.1457667358774976 
52.09524598608997 196.6606809224385 938.1142798448908 255 255 255 255 0.1204923461697759 
52.06250836707859 197.9138785595957 938.3635356999107 255 255 255 255 0.1037266952475887 
52.68507930704632 197.4039203545996 938.2114128789736 255 255 255 255 0.09299695289957914 
51.9364708057021 196.4715911699652 937.9742798334114 255 255 255 255 0.09900944165007566 
51.64285485349433 200.0315664797384 937.8460779019795 255 255 255 255 0.01738028727687718 
52.00936603337148 196.6778631381044 938.0674287375114 255 255 255 255 0.1196717749893357 
51.95427856564372 199.1774209457165 938.2073708037901 255 255 255 255 0.009041102672504738 
51.888731249659 196.3236354298124 937.5119914167933 255 255 255 255 0.05469152582885593 
52.4336916526378 197.4584834082628 938.2695148824895 255 255 255 255 0.1972220715980229 
52.65322531182275 197.4437053888936 938.0894377464634 255 255 255 255 0.1106759587176636 
51.90018557809642 196.762824235478 938.0282376717788 255 255 255 255 0.1249918605569218 
51.93725876540141 196.791080875264 938.1116493874571 255 255 255 255 0.1276034051709603 
51.88319983783867 196.8395592708531 938.078336204409 255 255 255 255 0.13738929422355 
52.56037747443663 196.5378261308485 938.1965568210151 255 255 255 255 0.2144485813392167 
52.28804711930783 196.4154350324673 938.1607581953922 255 255 255 255 0.1957191766379531 
51.49337093154705 200.3381353994747 938.3109223311166 255 255 255 255 0.02217063248646755 
51.59050960144437 198.0973116036809 937.4837082290106 255 255 255 255 0.01943176663548441 
52.5385926270107 195.0292745101517 937.0305463049857 255 255 255 255 0.009552328337033971 
52.29942890346941 196.467222258984 938.2510903221281 255 255 255 255 0.1862433193673889 
52.71414138842118 196.5561405707061 938.0363333938619 255 255 255 255 0.09643730290042214 
51.38920766181901 198.498591213557 938.3053016950482 255 255 255 255 0.01013505291313198 
51.92549044045941 196.9672823295863 938.2650852225461 255 255 255 255 0.1324672397249393 
52.77078743225506 195.4771479428998 937.8788516048995 255 255 255 255 0.01679200090947777 
53.1116722538374 196.6490412252965 938.7451500953899 255 255 255 255 0.0563613553942862 
53.20256843284634 196.6357123366019 939.0716887083648 255 255 255 255 0.02974593065201032 
52.12841960751838 196.8452162786728 937.2768343405136 255 255 255 255 0.04177615226760942 
51.96503567731322 198.3183277852302 937.4158799488107 255 255 255 255 0.008528380916422064 
52.89239164965547 195.8263858246042 937.5006540206374 255 255 255 255 0.02977903985229152 
52.36756043035105 195.6423431794032 938.0626043754269 255 255 255 255 0.03201006554125053 
52.59142690152059 196.5596969192109 937.250585185713 255 255 255 255 0.03421033219014526 
51.90983484562172 196.6942515251048 938.0152472385415 255 255 255 255 0.100034578930922 
52.25047886529721 196.4134075496767 939.1047820404417 255 255 255 255 0.04598041179679525 
52.08424694965264 196.5680800555463 938.6933344689695 255 255 255 255 0.09352091455983141 
51.77894901087604 197.4856032454319 938.2196956492954 255 255 255 255 0.08747009537099684 
51.70625051027681 198.9875611447227 937.4731753922946 255 255 255 255 0.01104802730538124 
51.80602470888743 198.7276055297333 937.4509193392792 255 255 255 255 0.008536977929306943 
52.30402363516745 197.4345532512619 937.3420305324631 255 255 255 255 0.03156299464075472 
51.60630112150479 197.4689410861551 937.8201606416367 255 255 255 255 0.08596606970453696 
52.47366192948063 197.2053312845867 938.9335634877223 255 255 255 255 0.1035131153305902 
51.94012553755112 197.1838614417988 937.4074414620088 255 255 255 255 0.06000786024472152 
51.96434129834683 196.7724454348723 937.4529273398967 255 255 255 255 0.07161828217418202 
52.25283745633097 197.5678938114955 938.2951436374444 255 255 255 255 0.2359614683608648 
52.20416753283416 197.545902757107 938.3328052712343 255 255 255 255 0.2244796222732076 
52.2800862090079 197.4804040275196 938.3477320536784 255 255 255 255 0.2806689034420963 
52.86575909398626 196.3356107709462 937.5743967840305 255 255 255 255 0.0612072159299524 
52.35232290573308 196.3975418857981 938.4024846620669 255 255 255 255 0.1358900194535481 
52.82623706638864 197.2094032534748 938.6393207388504 255 255 255 255 0.1123181525704592 
52.38089972351931 197.4805381150895 938.2378730864303 255 255 255 255 0.3176944374700054 
52.29548516931114 197.500716699409 938.2777826172755 255 255 255 255 0.3282093502936136 
52.64251879216358 195.3496086836694 937.0852784427643 255 255 255 255 0.01305058654261805 
52.88689074197901 195.0676504374286 937.4148535112926 255 255 255 255 0.01212169486073003 
52.40738291642723 197.5214536937092 938.1963096411929 255 255 255 255 0.2198920916225251 
51.00348488598508 200.7435675003669 937.6322633776384 255 255 255 255 0.01516632714875745 
52.01962039001477 197.3048670435616 938.2921376352059 255 255 255 255 0.1150632406466565 
51.93020957377391 196.7826597878145 938.2483300266459 255 255 255 255 0.1364539654432003 
52.76373384363719 195.0326148630452 937.8309683339552 255 255 255 255 0.0123789343078118 
52.21448485567384 198.5742077065091 937.7182445951076 255 255 255 255 0.006598923199440543 
52.89444122074647 195.4145078993657 937.4514854922443 255 255 255 255 0.01618002804040777 
52.32229846852668 196.4058911551321 938.1776386082647 255 255 255 255 0.1785965039230881 
51.77434336125071 199.7025815034438 937.8169724642462 255 255 255 255 0.01939454120442287 
51.85190207516285 198.4612218400827 938.4097851436529 255 255 255 255 0.0217163511867126 
51.52028409199785 198.2786388350931 937.4993674310969 255 255 255 255 0.0129757201907634 
51.89659829349495 197.2807774093318 938.2125277009732 255 255 255 255 0.1327810610743282 
52.54674810422448 196.5240434241797 938.1013969923553 255 255 255 255 0.2491056046812129 
52.65419239168369 196.5601502503316 938.0620689040317 255 255 255 255 0.1632937396360146 
51.91629272688826 195.2926062120294 937.3759592977534 255 255 255 255 0.006886395116423838 
51.91534037900446 195.8813077937134 937.4447365422162 255 255 255 255 0.02281606649471603 
51.94463364470052 196.7698254025649 938.0555225821026 255 255 255 255 0.1228587702444519 
51.85366559260568 196.8750270891517 937.9659181379112 255 255 255 255 0.112355922262047 
52.17134586338098 196.5651640086388 938.3232727157114 255 255 255 255 0.1536252588230002 
53.02023983606762 196.9025184234945 939.0919184826947 255 255 255 255 0.04084335080562074 
52.69787022697339 196.5974804323297 938.1208584221778 255 255 255 255 0.1097295036182987 
52.75938523767401 196.0343752980634 937.9504999534462 255 255 255 255 0.0595472698283078 
51.5740439140589 198.0188760477095 938.2640622046484 255 255 255 255 0.0531307049166954 
51.15751142273401 200.2203363309499 938.5656184729954 255 255 255 255 0.01985332441059577 
51.82490460318311 196.8615382229428 937.609921317511 255 255 255 255 0.09587609736137548 
52.01815380249747 197.5592295857325 938.290673058007 255 255 255 255 0.1469707259375879 
51.57046054451828 199.1844734203601 938.4721782192553 255 255 255 255 0.009633161050419161 
51.8474190598149 199.5157497542898 937.7993482014519 255 255 255 255 0.01151411421244296 
52.0491223666465 199.0016035941611 937.7547609554425 255 255 255 255 0.007892023792473396 
51.19661314024247 200.2711729830136 937.5877840158071 255 255 255 255 0.01259199593837168 
52.63915818346344 195.9398159977084 937.1549215857261 255 255 255 255 0.02194185196555153 
51.98701792995067 197.1431624008724 938.5107831563432 255 255 255 255 0.1409251289541985 
52.8283437281326 197.0643848791094 937.9585186931494 255 255 255 255 0.06419555284849049 
52.49232851139416 197.7839655754511 938.0886139237604 255 255 255 255 0.1191825760708841 
52.21050475229713 195.6174059956315 937.0887376016645 255 255 255 255 0.01627765481581176 
52.89670282405424 196.2928412339935 938.6147071472299 255 255 255 255 0.08546546180225521 
52.29677702169826 198.2943822464739 938.1317057293591 255 255 255 255 0.02343096087845432 
52.56093103713098 196.4907543089563 938.0911225351928 255 255 255 255 0.2080034316391021 
51.16504563504242 199.1912388396522 937.5781733640104 255 255 255 255 0.007221949273021413 
52.58608109568439 196.5658564372803 938.1464387252599 255 255 255 255 0.2160444037780892 
52.61608042208717 196.5368101802686 938.0746109438282 255 255 255 255 0.2129907313399785 
52.63038316067131 196.5613327800261 938.1726136800285 255 255 255 255 0.2069665578074706 
50.97689850194185 199.6669356753085 937.6204757232595 255 255 255 255 0.006257224798593691 
51.22937450141082 198.907942956678 938.3404075439125 255 255 255 255 0.004768428038152298 
52.20459977644645 195.1672122186639 937.038451806903 255 255 255 255 0.009524762818988897 
51.4804190168834 197.7971766357647 937.8477861183978 255 255 255 255 0.04524969104615886 
51.82065531141845 199.5184760408027 938.2371093395683 255 255 255 255 0.01508685342304834 
52.50385829850341 196.1493541956771 938.7399409538339 255 255 255 255 0.06349828357112411 
51.99868169945298 196.7427251943453 938.0894287563422 255 255 255 255 0.122129320251013 
52.66195229971109 196.5653598714268 938.1758195988967 255 255 255 255 0.1564495594405675 
52.95992024856583 196.889863115106 938.3955473575041 255 255 255 255 0.07567517999903575 
50.99246006564626 199.5090194130955 938.3939297810149 255 255 255 255 0.008265049173557934 
52.1917054379139 197.4150360660598 938.3420268494789 255 255 255 255 0.1695170067046001 
52.27869574777688 196.7002071931057 939.2546462028806 255 255 255 255 0.05466966149404555 
52.21000419373093 197.4775027552122 938.3225021698878 255 255 255 255 0.2235798360283234 
52.09874497212024 198.8063341930865 938.1754307185505 255 255 255 255 0.004369092448940153 
50.76378522588038 200.1969530011188 937.6689798240271 255 255 255 255 0.007057786881215445 
51.79357951358837 197.566865498675 937.4394401640138 255 255 255 255 0.03712494725184765 
52.18662257360825 196.3013859356001 938.0749317402417 255 255 255 255 0.1312163327678572 
52.73409838929403 197.2887091622402 937.6965821441331 255 255 255 255 0.03411644136110897 
50.93730298492275 199.1950277595517 937.9672877328644 255 255 255 255 0.004491691319939511 
51.08099310094244 198.8294330477448 937.9351601700016 255 255 255 255 0.006872064871861985 
52.61897345387649 196.9796643109442 939.2553405619572 255 255 255 255 0.04382885637057082 
51.9895213049608 195.5118562688167 937.8320845658075 255 255 255 255 0.00939296695965303 
52.35051322674174 198.2210338411691 937.688236048053 255 255 255 255 0.01472989936826942 
52.18923368666342 196.2511710139462 937.173916462739 255 255 255 255 0.03402125586181535 
52.79423626449583 196.9706265342576 937.6886903126135 255 255 255 255 0.04256930050065134 
52.10716781172097 197.2959799561448 938.4266153744545 255 255 255 255 0.1790287383834288 
51.88755491530581 196.664272998981 937.8306368072152 255 255 255 255 0.0966538023579146 
50.87656848958777 201.0692810700347 938.1045801244097 255 255 255 255 0.01848238339145221 
52.69889890205496 196.3763151885216 939.1171099714459 255 255 255 255 0.0320896900276264 
52.50287945657157 197.0687090659638 937.3430191107159 255 255 255 255 0.03047881991328912 
52.47314162287264 194.8788286847552 937.5335170721942 255 255 255 255 0.007347389952407815 
51.99314755472809 195.0197651076439 937.2138759329231 255 255 255 255 0.007455018201107823 
50.61245374109657 200.4491616556746 938.4806780364104 255 255 255 255 0.016583227851592 
50.49861454061627 200.2887604530445 938.0675441946421 255 255 255 255 0.0101372102690047 
50.65239005075355 200.780398621785 938.1365670768108 255 255 255 255 0.01690832565740035 
51.28718542723647 200.8412677205012 938.358972753355 255 255 255 255 0.02330470446602644 
3 2 3 4 0.2385017949578447 
3 119 57 154 0.01364878365400912 
3 137 146 22 0.1266184617832906 
3 109 86 26 0.6187605612303005 
3 103 14 57 0.225771323026863 
3 21 135 10 0.1724989718892666 
3 119 154 131 0.01559649912091254 
3 36 2 38 0.158416584674791 
3 32 38 33 0.003069941270850807 
3 43 44 45 0.02426087061028237 
3 87 45 44 0.5150788390094563 
3 47 30 3 0.5700848226524327 
3 18 156 88 0.02731402235323865 
3 156 83 88 0.005541120261585708 
3 102 51 78 0.2168845710452074 
3 121 17 25 0.4418123333738254 
3 131 64 65 0.04090753070048891 
3 68 23 67 0.1946374269322034 
3 157 128 50 0.4493921171386825 
3 74 75 76 0.1392533809643354 
3 75 74 34 0.70059304694848 
3 80 84 81 0.5600829144353479 
3 80 81 19 0.6265526587519968 
3 137 31 146 0.4018420255913125 
3 112 139 89 0.0183619008703515 
3 27 37 113 0.0114947870885872 
3 146 31 14 0.2129978996626886 
3 62 58 155 0.03292585440619566 
3 82 83 50 0.08340603229282573 
3 84 74 81 0.5170012357710829 
3 28 107 10 0.0002973621388872028 
3 56 57 119 0.1134668646643893 
3 69 16 143 0.161108733910404 
3 20 127 53 0.01658388549015632 
3 41 84 80 0.2986537216173609 
3 41 42 84 0.4172326477045367 
3 98 118 128 0.02153586627097603 
3 8 95 9 0.418744637734274 
3 58 149 73 0.365440884306985 
3 63 100 43 0.264471051805558 
3 161 27 153 0.001727405567322648 
3 113 37 6 0.04475049394736252 
3 88 90 55 0.05571919677847625 
3 101 43 45 0.09791602514635966 
3 70 72 15 0.326535834658212 
3 2 33 38 0.3250362201900205 
3 89 59 68 0.01792768694131752 
3 28 10 135 0.08069228083834235 
3 39 111 130 0.1251293712140877 
3 0 49 59 0.1082578570720508 
3 61 147 18 0.06710240663429612 
3 3 142 47 0.3549310557891775 
3 9 70 15 0.163218639942973 
3 134 35 79 0.119632588235518 
3 139 112 39 0.03250719850309292 
3 67 23 122 0.03997599346016212 
3 40 73 149 0.1395533631553209 
3 103 71 146 0.2509958104655952 
3 159 12 140 0.04098954225889595 
3 93 106 34 0.0162048146298559 
3 131 65 78 0.1279273067182231 
3 2 4 33 0.002501819923765747 
3 118 99 149 0.03996304564813691 
3 111 67 6 0.07303965116422673 
3 9 95 66 0.795767934731483 
3 66 70 9 0.2530335754655855 
3 37 92 6 0.2664753224643295 
3 123 124 125 0.296191848890155 
3 121 124 123 0.0594283235028209 
3 111 39 112 0.009833630423049522 
3 77 62 150 0.06429159391383155 
3 22 19 115 0.02411710569459513 
3 0 59 148 0.01146444004232383 
3 94 68 59 0.0382449894680279 
3 142 3 36 0.008429978857984244 
3 150 155 143 0.106699060656781 
3 74 84 117 0.3547511878230751 
3 148 59 89 0.04136486444156562 
3 140 85 113 0.06208182693395548 
3 103 146 14 0.1237822805972782 
3 41 79 35 0.3711370912708076 
3 68 112 89 0.009493245278176188 
3 152 101 108 0.09156338811550058 
3 79 56 134 0.2110384684041985 
3 32 33 4 0.3558510777199794 
3 71 103 79 0.07843472790621098 
3 126 113 6 0.02117812342983727 
3 93 120 139 0.01431190240650415 
3 63 132 100 0.3137802553654429 
3 11 125 133 0.5889290712195965 
3 25 52 97 0.4182412374053303 
3 77 52 25 0.6661864413388655 
3 19 41 80 0.7862022728624914 
3 128 82 50 0.07681731916921841 
3 136 109 26 0.1359287611237801 
3 132 32 44 0.3430034940657531 
3 36 3 2 0.9074036501175778 
3 145 24 53 0.03482515565626643 
3 36 152 40 0.2363292021851006 
3 105 60 77 0.001636510610118824 
3 4 3 102 0.4551667034084474 
3 116 52 150 0.2189380585193634 
3 76 29 19 0.5023963872708952 
3 36 38 63 0.2676434838971196 
3 104 52 116 0.6745326036456134 
3 87 4 102 0.4613171602482394 
3 129 106 24 0.01575278115627576 
3 59 49 94 0.3212416525540139 
3 63 152 36 0.04440301259158486 
3 43 152 63 0.5560488505270922 
3 101 15 108 0.0009694960352858439 
3 41 19 79 0.1231148653380169 
3 13 37 48 0.04392109333774996 
3 136 26 29 0.4741282589258951 
3 65 115 54 0.2511742482890813 
3 129 49 141 0.02117398229131939 
3 63 38 132 0.1987824227688043 
3 22 65 137 0.1505875876700191 
3 96 46 91 0.411923422099199 
3 97 125 124 0.3598281052654321 
3 91 142 17 0.197034352026487 
3 92 130 111 0.3132280331838477 
3 138 109 136 0.5228191702216903 
3 92 37 13 0.06819054702580352 
3 7 17 142 0.1548983408150277 
3 127 20 110 0.03682690693187451 
3 153 27 85 0.1504138084857612 
3 123 46 96 0.1886794998978139 
3 121 123 96 0.5739541011884322 
3 99 118 98 0.01504574420503835 
3 68 94 23 0.1359409016696511 
3 87 65 54 0.5535488173727527 
3 13 28 130 0.2269083135099911 
3 72 69 58 0.199914456289686 
3 72 58 73 0.1590971265005368 
3 22 71 19 0.2048697008692802 
3 99 7 40 0.06562999216829379 
3 11 46 125 0.1899996144833246 
3 122 6 67 0.03729012681129484 
3 102 3 30 0.06400906628575298 
3 8 86 95 0.02638659457948112 
3 122 126 6 0.006032912229655851 
3 132 44 100 0.07046374985539094 
3 45 54 101 0.7089217898000978 
3 148 16 0 0.03093304366901706 
3 139 39 20 0.03450078618422603 
3 24 94 49 0.51151891966056 
3 129 141 70 0.1942681478474668 
3 21 140 126 0.01068943606970962 
3 39 110 20 0.02773337633530981 
3 78 51 46 0.2336702422901863 
3 91 46 51 0.4118203247088055 
3 91 47 142 0.7653392739011499 
3 147 5 18 0.1262118841536483 
3 133 104 11 0.5295927359692738 
3 52 104 97 0.1032794246042678 
3 97 104 133 0.2230806548541723 
3 40 149 99 0.03205572605582319 
3 118 114 82 0.01974526745876071 
3 51 47 91 0.390828671856955 
3 102 30 51 0.4972202453252892 
3 47 51 30 0.2845973813871382 
3 120 34 117 0.005459499245777488 
3 110 39 130 0.05045071037031856 
3 86 151 26 0.2921478568181456 
3 28 110 130 0.04295516995775572 
3 79 103 56 0.09153859017315547 
3 126 122 144 0.05414720433568476 
3 79 19 71 0.09504939585793359 
3 18 88 55 0.1586307095865894 
3 65 22 115 0.1145871272537385 
3 90 60 55 0.0528337398311014 
3 55 60 105 0.00671555829287751 
3 23 94 24 0.06700356703000032 
3 92 111 6 0.3091014200201745 
3 83 90 88 0.1807234442362803 
3 56 11 134 0.1170931287448835 
3 75 34 109 0.2652045845377288 
3 112 68 67 0.1642528835450788 
3 97 133 125 0.5166905046657959 
3 113 126 140 0.01040099854516829 
3 129 66 106 0.02512901829360292 
3 106 53 24 0.01965439064586316 
3 92 13 130 0.04773224560778488 
3 118 82 128 0.01023631710991924 
3 76 138 29 0.09593908080989122 
3 76 75 138 0.1678344536880764 
3 135 144 127 0.03801722807291452 
3 98 147 99 0.01776272226127851 
3 99 147 7 0.07723109569895059 
3 48 37 27 0.04157767939559398 
3 116 42 35 0.4940202312808969 
3 76 19 81 0.9339881634306291 
3 76 81 74 0.1284250411092219 
3 112 67 111 0.09269654862740861 
3 84 42 117 0.09622484817408539 
3 109 66 86 0.04356354814441732 
3 129 24 49 0.01349314268150226 
3 66 95 86 0.3896454249640563 
3 32 132 38 0.1177977909942798 
3 87 44 32 0.01254321649036849 
3 100 44 43 0.4769075877884376 
3 55 105 61 0.02599035806653915 
3 36 40 7 0.01835737520755265 
3 149 58 62 0.02322137216705622 
3 119 78 11 0.2726588811609668 
3 31 137 64 0.1803603061130866 
3 102 65 87 0.2175791637002331 
3 61 18 55 0.05388179488136435 
3 102 78 65 0.1599268120646654 
3 120 148 89 0.05919734998292725 
3 126 144 21 0.0489612184142254 
3 135 21 144 0.04411861102202685 
3 25 17 105 0.0713051804668301 
3 17 7 61 0.01912901955354318 
3 82 90 83 0.08496755632527231 
3 78 46 11 0.339635829517396 
3 46 123 125 0.1361945316608077 
3 17 121 91 0.3062844052594202 
3 124 121 25 0.4383562402321677 
3 121 96 91 0.7388362520323724 
3 139 20 93 0.05109654729950197 
3 145 127 144 0.1124793481975477 
3 101 54 15 0.3793221043629615 
3 98 128 157 0.1208610213826209 
3 53 93 20 0.0477213087795948 
3 56 103 57 0.05439392739037763 
3 43 101 152 0.2226954728968003 
3 45 87 54 0.07745158558305154 
3 40 108 73 0.3961585805301781 
3 66 109 106 0.3712692965894541 
3 145 53 127 0.1081314880755865 
3 151 8 115 0.03225249340381953 
3 114 90 82 0.09359221916450533 
3 60 90 114 0.2779560553504429 
3 117 34 74 0.1185504651068565 
3 69 72 141 0.06494793176386904 
3 69 141 0 0.06048574284616148 
3 49 0 141 0.08593676177385101 
3 116 150 143 0.02651965816793644 
3 15 73 108 0.8432202161144462 
3 72 73 15 0.1188727695905979 
3 15 54 9 0.3458908418471066 
3 12 85 140 0.04410630043505437 
3 151 29 26 0.01954608140341474 
3 138 136 29 0.4033949611522852 
3 70 66 129 0.2066680741064715 
3 108 40 152 0.2324972483337133 
3 109 34 106 0.2337917482631782 
3 7 147 61 0.03494364426429708 
3 89 139 120 0.005469806358290419 
3 35 42 41 0.2846628919343136 
3 17 61 105 0.08671977673904174 
3 16 69 0 0.05451967964391824 
3 9 54 8 0.1317631968860939 
3 120 93 34 0.01790892305149916 
3 42 143 16 0.04973277861809611 
3 86 8 151 0.1149697861169051 
3 42 116 143 0.03845871005038504 
3 52 77 150 0.04078997284152419 
3 106 93 53 0.01258403306853118 
3 107 28 48 0.1336708421291773 
3 29 151 19 0.3329354537509458 
3 8 54 115 0.2076732408163243 
3 16 148 117 0.05232001564610589 
3 21 159 140 0.005965531781728206 
3 145 122 23 0.03226283566419352 
3 42 16 117 0.05292526658979957 
3 24 145 23 0.01898969112992255 
3 144 122 145 0.05540103999537294 
3 72 70 141 0.1796882748596992 
3 142 36 7 0.2091472964909303 
3 124 25 97 0.5239409233258538 
3 78 119 131 0.1197905899994991 
3 56 119 11 0.1456979213212344 
3 22 146 71 0.1563144381691494 
3 147 98 5 0.001504183932257597 
3 134 116 35 0.09654083611974007 
3 104 134 11 0.3708354664409776 
3 77 25 105 0.02885883001140355 
3 116 134 104 0.00343892187813899 
3 149 114 118 0.03113157419381773 
3 137 65 64 0.2727461294983859 
3 19 151 115 0.4216701714831138 
3 75 109 138 0.4702442580148852 
3 87 32 4 0.4108547621485188 
3 14 154 57 0.01224684272365562 
3 154 14 31 0.0169203731948212 
3 31 64 154 0.08456155999377979 
3 85 12 153 0.05551408032494254 
3 12 159 160 0.08232705708441868 
3 154 64 131 0.01192339428324329 
3 153 160 1 0.1130129569961597 
3 155 58 69 0.2064261251309631 
3 155 69 143 0.1058220393263615 
3 62 155 150 0.08015758894861014 
3 62 114 149 0.03677127392758406 
3 28 13 48 0.1351847480961934 
3 117 148 120 0.06228673114120287 
3 5 156 18 0.06662602469248069 
3 157 50 156 0.01441169365575912 
3 83 156 50 0.01108984556660797 
3 98 157 5 0.1528045998613018 
3 157 156 5 0.004172618243251769 
3 153 1 161 0.1196006917263193 
3 158 107 1 0.04747760473221596 
3 107 158 10 0.05082322692233177 
3 10 158 159 0.09818453752212608 
3 12 160 153 0.2997434438943651 
3 160 158 1 0.02048541324840802 
3 158 160 159 0.01801019455854291 
3 60 62 77 0.3170596876423518 
3 48 27 161 0.1419371102185938 
3 161 1 107 0.2815688999046613 
3 27 113 85 0.05564172822191482 
3 48 161 107 0.2155905134819909 
3 159 21 10 0.1727809661821214 
3 114 62 60 0.3170596876423518 
3 110 28 135 0.1039528608125139 
3 127 110 135 0.09330329364514378 
