ply
format ascii 1.0
comment VCGLIB generated
element vertex 31
property double x
property double y
property double z
property uchar red
property uchar green
property uchar blue
property uchar alpha
property double quality
element face 58
property list uchar int vertex_indices
property double quality
end_header
47.0059346101077 213.2824130244825 936.8945660414009 255 255 255 255 0.08967146638214779 
47.98350505890932 213.5542160955176 938.2251409899091 255 255 255 255 0.1698611183254018 
48.15707799340321 213.4690547754932 937.7502000013167 255 255 255 255 0.1703795051973219 
48.2420068325311 213.9577154759812 937.9924826539038 255 255 255 255 0.1933418538157731 
46.77832557262754 213.6591154323922 936.9178335137616 255 255 255 255 0.07004472381399654 
47.46591373946931 213.9600133594712 938.2374277998854 255 255 255 255 0.2579091821366036 
47.75495673988338 213.9137122723462 937.2146751207813 255 255 255 255 0.1495537072050364 
47.88843518263506 213.1522245314679 937.8894648311644 255 255 255 255 0.09693568504153686 
47.17854730867353 213.954458764885 937.8489203569536 255 255 255 255 0.2593539435492652 
47.64761010863607 213.1482770370551 937.5570493859782 255 255 255 255 0.1205184970001098 
47.04181572474562 213.9808445773823 937.5253087316011 255 255 255 255 0.176065140621414 
47.04045959211459 213.5419583885049 937.8698959777506 255 255 255 255 0.1692297187385851 
47.62893964808266 213.1443906909603 937.5398806418286 255 255 255 255 0.1041463898056308 
47.50045981156152 213.5514216986862 938.4756846925392 255 255 255 255 0.2241125941508288 
47.70455973145469 213.9684552880416 936.878146575733 255 255 255 255 0.08004521358205979 
47.76463613984779 213.5013230405056 937.0374375022425 255 255 255 255 0.08732370957594766 
46.93631043783893 214.0546945743811 937.0173903865658 255 255 255 255 0.1079163666383461 
47.90451132281835 213.462806770797 937.4196411070521 255 255 255 255 0.1153305590108163 
46.87585979923879 213.5832948657744 937.4359224556738 255 255 255 255 0.1138526081209933 
47.39090758349572 214.1435065925984 937.2617374493125 255 255 255 255 0.1310244318758136 
47.59500292104541 214.1113384745817 937.7454863782464 255 255 255 255 0.1985334127336865 
47.24759800158015 213.5378504941693 938.1777234630853 255 255 255 255 0.2003702455822096 
47.74410202734399 214.0619758538178 938.2397547223273 255 255 255 255 0.2378574227198963 
47.15198684958817 213.9830344836467 936.8934211443787 255 255 255 255 0.07971581451007634 
47.83721360240748 214.1204527720207 938.0501692556116 255 255 255 255 0.3005519515569684 
47.10734114646667 213.2118009005534 937.3841252537607 255 255 255 255 0.1072769151525201 
47.54107053185608 213.1779956595942 938.139370420021 255 255 255 255 0.1439901749147237 
47.46750350700999 213.2156554893619 937.0182003270659 255 255 255 255 0.08724370228862509 
48.05323159046728 213.8954457858808 937.7294471666064 255 255 255 255 0.1785731420874549 
47.32279864045253 213.1746332734289 937.7625751388549 255 255 255 255 0.1435169221378974 
47.30553875509854 213.6539141576417 936.804498806804 255 255 255 255 0.07834587037349151 
3 2 3 1 0.004060392333615437 
3 1 7 2 0.0409276446583442 
3 24 22 3 0.4994892817121228 
3 1 3 22 0.005811761923827152 
3 7 1 26 0.08578169709067884 
3 20 10 8 0.2661873595878709 
3 8 10 11 0.1828072658222278 
3 30 15 27 0.06090492500343858 
3 12 27 9 0.9728793001653387 
3 7 12 9 0.99346273272934 
3 4 16 23 0.2576335573846311 
3 13 22 5 0.3580985277135552 
3 8 11 21 0.1143059322279887 
3 23 19 14 0.02034727254997959 
3 9 15 17 0.2768821795045742 
3 6 17 15 0.04625627104976049 
3 28 6 20 0.02080871423488717 
3 23 16 19 0.2713635927998181 
3 17 2 7 0.1027012151300939 
3 13 1 22 0.00825729769950756 
3 10 18 11 0.0550322446029039 
3 30 14 15 0.01021658291593164 
3 11 18 25 0.0932947400479941 
3 1 13 26 0.02932079199009463 
3 21 5 8 0.01266999953520853 
3 16 10 19 0.01190547775348638 
3 18 16 4 0.1052889807672857 
3 15 14 6 0.08945638538120237 
3 18 0 25 0.1195823422436169 
3 27 25 0 0.00299222447060532 
3 25 12 29 0.1229688840250845 
3 7 9 17 0.1179717322475256 
3 14 19 6 0.1371420721920997 
3 17 28 2 0.08611749692868542 
3 3 28 24 0.03971207750217298 
3 3 2 28 0.1674072830438101 
3 24 28 20 0.05265763370393783 
3 18 4 0 0.1013932533050784 
3 27 15 9 0.1224376845580657 
3 12 7 26 0.1636491592814401 
3 12 25 27 0.004343987810533467 
3 5 21 13 0.03237094918379091 
3 20 6 19 0.0665595324955498 
3 10 20 19 0.05760510154700704 
3 17 6 28 0.01507004232909059 
3 26 21 29 0.05708340939569967 
3 13 21 26 0.0453047685729483 
3 18 10 16 0.107623151707701 
3 5 22 24 0.4827576818168106 
3 4 23 30 0.07567973021578522 
3 30 23 14 0.09470815576386449 
3 0 4 30 0.03318127538955362 
3 29 12 26 0.2417063000846306 
3 11 29 21 0.1176130468272506 
3 29 11 25 0.08955357244923567 
3 30 27 0 0.009237927377586108 
3 24 8 5 0.4562791692930374 
3 20 8 24 0.4562791692930374 
