ply
format ascii 1.0
comment VCGLIB generated
element vertex 334
property double x
property double y
property double z
property uchar red
property uchar green
property uchar blue
property uchar alpha
property double quality
element face 664
property list uchar int vertex_indices
end_header
165.5857106098538 194.1803327361263 938.7668239622873 255 255 255 255 0 
165.6448880553038 194.0953743750097 938.7371789609886 255 255 255 255 0 
165.5475888152119 194.0721687882997 938.6390321245631 255 255 255 255 0 
166.4481108719346 194.5493939284136 940.9752828001382 255 255 255 255 0 
166.4798132247427 194.5103270214517 940.9094629968646 255 255 255 255 0 
166.4420098715584 194.5960309406462 940.8429371267248 255 255 255 255 0 
164.9154434801791 193.6990694709934 938.743397052913 255 255 255 255 0 
164.8825906472315 193.8337618435565 938.7576256473616 255 255 255 255 0 
164.9494349452223 193.7718294272617 938.6790944931438 255 255 255 255 0 
165.6024362976167 194.2271688411002 941.1303319505106 255 255 255 255 0 
165.6231703124314 194.0969859500781 941.0819582049154 255 255 255 255 0 
165.6796823014277 194.1772520314117 941.2009890814898 255 255 255 255 0 
165.0003535424777 194.2315061365954 939.066182200299 255 255 255 255 0 
164.9246290836587 194.126760428817 939.2354434212976 255 255 255 255 0 
165.1330660664973 194.3135510630129 939.3685457818104 255 255 255 255 0 
165.3159749129771 194.1962476497782 938.6670591133125 255 255 255 255 0 
165.2867774725138 194.2889607010458 938.801719849085 255 255 255 255 0 
165.4247037955773 194.2373441706142 938.7337478422096 255 255 255 255 0 
165.4222719357593 194.0858409064205 940.6145760654882 255 255 255 255 0 
165.33079995879 194.0427078153999 940.3676348018383 255 255 255 255 0 
165.5091234488614 193.9320294905293 940.4431364778214 255 255 255 255 0 
165.2485093908065 193.330945832101 939.0113160554629 255 255 255 255 0 
165.2072360686304 193.34663102948 939.1185911355012 255 255 255 255 0 
165.1122545609512 193.369238719633 939.0675049391315 255 255 255 255 0 
166.109422573866 194.623411225459 940.1267612271376 255 255 255 255 0 
166.2341034487293 194.6728494730091 940.4586235353436 255 255 255 255 0 
166.3028438965015 194.2267633264971 940.1683681246675 255 255 255 255 0 
166.4988192188007 194.1886692070075 940.8426307800955 255 255 255 255 0 
166.4756397574529 194.1748376654602 940.9776432848367 255 255 255 255 0 
166.4359229182674 194.0826828251555 940.9671131319983 255 255 255 255 0 
164.8623217354766 193.9557399876106 938.8282816396176 255 255 255 255 0 
164.9486040201687 194.0349812888148 938.7376140036066 255 255 255 255 0 
164.925432883057 193.9129856808013 938.7104985241172 255 255 255 255 0 
165.23895957357 194.4173628053178 940.0320442676907 255 255 255 255 0 
165.4390035723802 194.5556937712996 940.2552563942053 255 255 255 255 0 
165.62740010796 194.7073208634552 940.0267016441198 255 255 255 255 0 
165.9150868467137 194.5004375409339 939.6026634457135 255 255 255 255 0 
165.7058288951114 194.4630940299156 939.4098211833293 255 255 255 255 0 
165.5221821721018 194.5811494205883 939.6049824540889 255 255 255 255 0 
164.8560612219231 193.7556008253981 938.8248379338121 255 255 255 255 0 
164.8198934203452 193.8157201914551 938.9186116606315 255 255 255 255 0 
165.2742740050271 194.0369555466185 938.559820679652 255 255 255 255 0 
165.122468044685 194.0241537222858 938.5944457043661 255 255 255 255 0 
165.1955796140237 194.1430301174891 938.6385565867578 255 255 255 255 0 
166.1373747366009 194.1937478306182 941.3159168121513 255 255 255 255 0 
166.0508381432115 194.12454368824 941.3079727493628 255 255 255 255 0 
166.1997615724577 194.1327304730934 941.2729077015723 255 255 255 255 0 
166.1299741219746 194.018587706179 941.2289465727654 255 255 255 255 0 
165.5838068646411 193.8344079398794 938.5918545418291 255 255 255 255 0 
165.6692831723905 193.751943454732 938.6675099604882 255 255 255 255 0 
165.5502744200341 193.734503136159 938.5853025981048 255 255 255 255 0 
165.8050540381697 194.792677734087 940.8854099224283 255 255 255 255 0 
165.7543655933555 194.7401747902395 940.9998508071203 255 255 255 255 0 
165.8540136714111 194.7903240618313 940.9861369442734 255 255 255 255 0 
165.5725449888568 193.4191522177628 939.1682017936273 255 255 255 255 0 
165.6887835585446 193.4949937024938 939.1856381862099 255 255 255 255 0 
165.7520104720279 193.5627684533145 939.3466641228587 255 255 255 255 0 
166.0386619199247 194.0256731310987 941.2504470022591 255 255 255 255 0 
165.9294506879479 194.0640613764159 941.2711754134077 255 255 255 255 0 
165.9269672336015 194.1937174982702 941.3273015533631 255 255 255 255 0 
166.4767085822422 194.4505548047458 940.9972158210288 255 255 255 255 0 
166.076324569731 194.7988291919023 940.6610208030412 255 255 255 255 0 
166.144943851378 194.8187747239896 940.8430489428588 255 255 255 255 0 
166.2054408620878 194.7816887780585 940.7209174546588 255 255 255 255 0 
165.655712443239 194.4102897432508 941.2004181546199 255 255 255 255 0 
165.6485850480285 194.5170588060529 941.1490901671516 255 255 255 255 0 
165.581234993855 194.40778497078 941.1075644688817 255 255 255 255 0 
165.9007923141307 193.9240334272039 941.133571473198 255 255 255 255 0 
166.0501294967869 193.9290376198751 941.1568058821372 255 255 255 255 0 
165.9277650175439 193.9706414500627 941.1965794916624 255 255 255 255 0 
165.1887288991358 194.3011188793166 938.8686131668637 255 255 255 255 0 
165.3826426301393 194.3049557932883 938.843134136965 255 255 255 255 0 
166.4151994827799 194.2679214622334 940.4739744987197 255 255 255 255 0 
166.3988158868009 194.0504261099778 940.672125493537 255 255 255 255 0 
166.2046200785904 193.8798484158707 940.5302095463315 255 255 255 255 0 
165.8177064052044 194.1328537299133 941.2727235651034 255 255 255 255 0 
165.820137831049 194.0218414528326 941.2034497607785 255 255 255 255 0 
165.543832135839 194.2860162464752 941.0459303247403 255 255 255 255 0 
165.5180091796808 194.3276381351753 940.978078044192 255 255 255 255 0 
165.5583232597113 194.1346631470277 940.9866666020607 255 255 255 255 0 
165.4043665075429 193.5517766355954 939.6546779448348 255 255 255 255 0 
165.3092322605559 193.4524086531477 939.4135545830571 255 255 255 255 0 
165.4107932638132 193.3824197277334 939.2361800566439 255 255 255 255 0 
165.4696034284952 193.9685139783998 938.5584649572922 255 255 255 255 0 
165.606437620216 193.9427681316745 938.6210931580599 255 255 255 255 0 
166.4487196296916 194.0944046335036 940.7419873565528 255 255 255 255 0 
166.4420287814483 194.0600141986596 940.8425789812441 255 255 255 255 0 
166.1415277160734 193.8890321593835 941.0645048581454 255 255 255 255 0 
166.0086094478797 193.8621019113103 941.0486044986418 255 255 255 255 0 
166.1097106790131 193.8593642396698 941.0110920581425 255 255 255 255 0 
165.4367527076201 194.1427050520808 938.6384044769358 255 255 255 255 0 
165.4553879750517 193.8340103210173 938.5351907049923 255 255 255 255 0 
165.3576953452732 193.9016771521002 938.5219850427142 255 255 255 255 0 
165.7353017907501 194.3410163329496 939.14547886126 255 255 255 255 0 
165.4481280129533 194.2759536055982 938.8102101160331 255 255 255 255 0 
165.0166606195505 193.6171415982094 938.6747024910616 255 255 255 255 0 
165.1266285750111 193.5273215597986 938.6652527747988 255 255 255 255 0 
165.0345681569585 193.5144343666858 938.7478692748437 255 255 255 255 0 
166.4932645491114 194.2453722543984 940.708836012521 255 255 255 255 0 
165.7091893478324 193.5132445873378 939.0596612438319 255 255 255 255 0 
165.7817922672739 193.6281639601573 939.0252051306645 255 255 255 255 0 
166.3661538828374 193.9744317746348 940.9251966709041 255 255 255 255 0 
165.8001800239894 193.7513217338322 938.8906031971931 255 255 255 255 0 
165.8316102420534 193.8420981861007 938.9469926155359 255 255 255 255 0 
165.6713619003274 193.8835687244516 938.6658004529758 255 255 255 255 0 
164.8238548634586 193.7220735702007 939.0928677617133 255 255 255 255 0 
164.8463419233313 193.6386983122437 939.0247135309121 255 255 255 255 0 
164.8767369617208 193.6129270401327 939.1573593301646 255 255 255 255 0 
164.8563634606438 193.7991006215102 939.2393123074369 255 255 255 255 0 
164.8623819782776 193.9551286889676 939.2221780489024 255 255 255 255 0 
164.8259691910876 193.8436967416407 939.1607714456576 255 255 255 255 0 
165.3581572682311 193.7667200352401 938.521984751798 255 255 255 255 0 
165.2724501126051 193.8340157401649 938.518736748956 255 255 255 255 0 
165.0827324235986 193.3905586809975 938.9458577130188 255 255 255 255 0 
164.9902744505573 193.4450009774499 939.0548881493525 255 255 255 255 0 
165.5245206804245 194.4103523856589 940.9765195864055 255 255 255 255 0 
166.1134798150041 194.7354681424495 941.129282774584 255 255 255 255 0 
166.1300232719634 194.6365945298624 941.2295878708059 255 255 255 255 0 
166.2261370912623 194.6782096891822 941.1422154523655 255 255 255 255 0 
166.4592550522199 194.461756580077 940.648315189118 255 255 255 255 0 
166.474138576347 194.3696628117569 940.6399240357501 255 255 255 255 0 
165.2372130528461 193.9813104773841 940.1193996995935 255 255 255 255 0 
165.4322693899294 193.8583331739393 940.1771350336122 255 255 255 255 0 
165.4236138038639 193.9447987969957 940.3241966786709 255 255 255 255 0 
166.3595069612365 194.0287030948662 941.0595898980871 255 255 255 255 0 
166.4201316209079 194.1198447710736 941.0567555165554 255 255 255 255 0 
165.1045166187704 194.3087035928521 939.6814589249623 255 255 255 255 0 
165.468142498956 194.5963024915418 939.6243099637243 255 255 255 255 0 
165.374586864584 194.5038390193683 939.3712615365557 255 255 255 255 0 
165.2648889487224 194.395380143297 939.099781354061 255 255 255 255 0 
165.3097605959751 193.6984029503053 938.5346221619761 255 255 255 255 0 
165.9672128992122 194.3960518896442 941.3459542487768 255 255 255 255 0 
165.8880559618449 194.5248140608983 941.2968289564467 255 255 255 255 0 
165.8604649471162 194.4200281575016 941.3193190585426 255 255 255 255 0 
166.5120003166261 194.3698850617713 940.7753165196236 255 255 255 255 0 
166.362597165894 194.2459051249717 941.2001527551662 255 255 255 255 0 
166.4205318187819 194.3034210994818 941.1398626806365 255 255 255 255 0 
166.3669168649023 194.3284509923858 941.205255843444 255 255 255 255 0 
165.5832196595507 194.5777747981797 940.9681449772004 255 255 255 255 0 
165.6515006744072 194.6579537937813 940.9935418159769 255 255 255 255 0 
165.6929244080544 194.7251879065455 940.883810057342 255 255 255 255 0 
165.4435807835339 194.5276551676068 940.5870923197223 255 255 255 255 0 
165.8281864908959 194.4271923524828 939.3789100721799 255 255 255 255 0 
165.0020450911762 193.8751939769886 938.6261728361357 255 255 255 255 0 
164.9969973358674 193.9888323555206 938.6606907905579 255 255 255 255 0 
166.0463781605618 193.9572776015102 939.7404900701121 255 255 255 255 0 
166.1007821132676 194.0990855245319 939.6311342096361 255 255 255 255 0 
166.1792323232787 194.155689260799 939.8365228609209 255 255 255 255 0 
164.8452274034449 194.0164422240052 939.0914211907 255 255 255 255 0 
164.9167456816717 194.147436072067 938.9837955218646 255 255 255 255 0 
165.9544178328477 194.8024029150887 941.0170846493112 255 255 255 255 0 
165.8767685110874 194.7670975390722 941.0644435846981 255 255 255 255 0 
165.9677982332429 194.7274319949892 941.1561964353679 255 255 255 255 0 
164.8315077634704 193.9167220074593 938.8917904359341 255 255 255 255 0 
165.7373056397661 194.6020483534566 939.7883941536401 255 255 255 255 0 
165.8673699106072 194.6672971675176 940.083033302662 255 255 255 255 0 
166.0259883526141 194.5842618656776 939.9034119030993 255 255 255 255 0 
166.0509913488495 194.5318203985984 941.3077926171602 255 255 255 255 0 
165.5794573549105 193.6578127433787 938.6264231120299 255 255 255 255 0 
166.4388821940976 194.1372686984247 940.6476448362966 255 255 255 255 0 
165.5354787949126 193.378737431355 939.0767817948982 255 255 255 255 0 
165.4504248609759 193.3498641148223 939.1078707733751 255 255 255 255 0 
165.5192559022993 193.3690417048885 938.9823800008003 255 255 255 255 0 
165.6756907350027 193.6448260609421 938.718152005833 255 255 255 255 0 
165.7965098110826 194.7863224998345 940.4931935329579 255 255 255 255 0 
165.8051522963818 194.7928146089109 940.8015181260448 255 255 255 255 0 
165.7283434194726 193.6772430290363 938.7706074439798 255 255 255 255 0 
165.5789888790081 194.5184211286864 941.0383319591903 255 255 255 255 0 
165.888136858702 194.3219890707232 939.4047517479784 255 255 255 255 0 
165.866583100807 194.1409568219243 939.2264753495596 255 255 255 255 0 
165.7458404944718 194.0244788024143 938.8293450115626 255 255 255 255 0 
165.9145565651031 194.827779435567 940.8177053130125 255 255 255 255 0 
164.9170137239076 194.0970371769531 938.8490497906022 255 255 255 255 0 
164.8453967198919 194.0166345783112 938.9577847077385 255 255 255 255 0 
165.739494821506 194.2557042548033 941.2671257356481 255 255 255 255 0 
165.6516796127027 194.3170800326021 941.2046621187089 255 255 255 255 0 
165.9551482270626 194.2887342383004 941.346598867074 255 255 255 255 0 
165.8034298769236 194.3273480087637 941.3088978636681 255 255 255 255 0 
165.826669181995 194.2602852571944 941.3136275489501 255 255 255 255 0 
165.3582243615523 194.0369398025018 938.5598617366825 255 255 255 255 0 
165.3950457898632 194.0982177217095 938.5969113346603 255 255 255 255 0 
165.6314690182616 193.4363483421474 939.0659278934868 255 255 255 255 0 
165.9719552774352 194.6389397704639 941.2440275209459 255 255 255 255 0 
166.3736235884893 194.6718314639554 940.9286485713217 255 255 255 255 0 
166.2635550796616 194.7401099729192 941.0001927113934 255 255 255 255 0 
166.3591748185402 194.6275543440814 941.0597520521947 255 255 255 255 0 
166.0088554135132 194.8338669868762 940.8922512360406 255 255 255 255 0 
166.0760579281776 194.8201556475719 940.955300928595 255 255 255 255 0 
165.7437602921339 193.9142279671905 938.7605912642302 255 255 255 255 0 
165.749004581578 193.8339548351453 938.7569610133096 255 255 255 255 0 
166.0507197198078 194.2602251067398 941.3460007000142 255 255 255 255 0 
166.1482168700486 194.3272939636561 941.3328327382645 255 255 255 255 0 
166.120884325979 194.394956058668 941.3352566077946 255 255 255 255 0 
165.8196050750498 194.6343344197801 941.2030463858504 255 255 255 255 0 
165.8598995512254 194.6877525661493 941.1708502878769 255 255 255 255 0 
165.7341918663553 194.6363319852191 941.1380003678097 255 255 255 255 0 
165.900229889563 193.9154112310543 939.1190588115323 255 255 255 255 0 
166.3691521634064 194.1387563972875 941.1493037000786 255 255 255 255 0 
165.6666507304918 194.1328664346825 938.8080915811167 255 255 255 255 0 
166.4301921255712 194.2153729203039 941.1032432651946 255 255 255 255 0 
165.7708935724964 194.7139610960956 941.0746519603845 255 255 255 255 0 
165.5050582133309 194.2666420737671 940.8647217815768 255 255 255 255 0 
166.1251787843851 193.9097868608721 940.1767344827161 255 255 255 255 0 
165.6786597757923 194.0160275314934 938.7180845697279 255 255 255 255 0 
166.4207770158442 194.4859532394949 941.0975867828486 255 255 255 255 0 
166.3388282204839 194.4788243776651 941.200502349094 255 255 255 255 0 
165.7533173505227 193.6194336425698 938.8792230977188 255 255 255 255 0 
165.6660459628771 193.5344475859313 938.8080600621772 255 255 255 255 0 
165.0078086298281 194.1298069696891 938.7508940750736 255 255 255 255 0 
166.0090422575728 194.8323675485911 940.7725933086542 255 255 255 255 0 
166.0555731890315 194.7918573431455 941.0440280476367 255 255 255 255 0 
165.0068158854392 193.447745388162 939.1456460023063 255 255 255 255 0 
165.1272255429685 193.3869779908323 939.1744165946384 255 255 255 255 0 
165.0777805372484 193.4478197691572 939.2561999394222 255 255 255 255 0 
166.4601291703797 194.3838793814276 941.0692983545363 255 255 255 255 0 
165.7014125131649 193.7713102051548 940.4321900168843 255 255 255 255 0 
165.618802865548 193.725551996988 940.1960891123661 255 255 255 255 0 
165.6534022006921 194.7060821426846 940.2882008387616 255 255 255 255 0 
166.2304921408791 194.4605542910845 941.2819663934281 255 255 255 255 0 
166.2406196412168 194.5662224020673 941.2289169060656 255 255 255 255 0 
166.1621811361479 194.4628012004469 941.3095842622395 255 255 255 255 0 
165.2037657761253 193.9022392248274 938.5329942815447 255 255 255 255 0 
166.3054331262666 194.6020413010667 941.1506520547871 255 255 255 255 0 
165.63883890863 194.5894781474123 941.0719247773311 255 255 255 255 0 
166.0092354028935 193.8236036266539 940.9131863639009 255 255 255 255 0 
165.8743742199201 193.861291503444 940.995938253783 255 255 255 255 0 
165.8094695396312 193.8143493219215 940.7196297428314 255 255 255 255 0 
165.7319935872027 193.9101125768784 940.9259451468556 255 255 255 255 0 
166.1598890473481 193.9699727587225 941.172199043049 255 255 255 255 0 
166.270839054142 194.0409946628917 941.1722389221958 255 255 255 255 0 
165.4691570936659 193.700023423069 938.5581829627587 255 255 255 255 0 
165.5070628584758 193.6382019321918 938.5954779175424 255 255 255 255 0 
166.479711810164 194.5104955077923 940.7761529669907 255 255 255 255 0 
166.5058712375104 194.4096542070665 940.9106751202303 255 255 255 255 0 
166.5160904017775 194.3135518821907 940.866847103933 255 255 255 255 0 
165.2075744868033 194.237564872626 938.7339288834422 255 255 255 255 0 
166.205307249095 194.782013094972 940.9640682021969 255 255 255 255 0 
166.2829013667586 194.7566296657735 940.8483654029595 255 255 255 255 0 
165.4903308088365 194.113537620106 940.8018354750632 255 255 255 255 0 
166.2920890760332 194.3808227060255 941.2610361412934 255 255 255 255 0 
165.7475415698747 194.0405125451176 941.1721406630935 255 255 255 255 0 
166.2781987658077 194.7330838362833 940.6952322219452 255 255 255 255 0 
166.1414672495451 194.7674674737324 941.0635815592476 255 255 255 255 0 
165.65096715702 193.9984803468424 940.9931543259861 255 255 255 255 0 
165.3794462217678 193.3431490439382 938.9073347952071 255 255 255 255 0 
165.2884748187022 193.351960120513 938.8680734530724 255 255 255 255 0 
165.4145036543023 193.3785083798553 938.8237172087104 255 255 255 255 0 
166.2993068949739 194.2193240036363 941.2470147694575 255 255 255 255 0 
166.1919504093056 194.2608001812266 941.3134672536014 255 255 255 255 0 
164.8117172339617 193.9048714298426 939.0249884492528 255 255 255 255 0 
165.1260872918434 193.5278428246666 939.3848931685158 255 255 255 255 0 
165.7427479788962 194.4969046833843 941.2422625654715 255 255 255 255 0 
165.1188895519238 194.2877024285199 938.9041202571715 255 255 255 255 0 
166.4129996861663 194.6184266413992 940.7345439148686 255 255 255 255 0 
166.3662945430488 194.6814186055166 940.7607429208106 255 255 255 255 0 
165.1470170769314 193.4242001171855 938.7767157976975 255 255 255 255 0 
165.2431260734938 193.4671217459819 938.6806214312728 255 255 255 255 0 
165.2495419030504 193.3936090749704 938.7780701840672 255 255 255 255 0 
165.367197627275 193.4184725893302 938.7378391335679 255 255 255 255 0 
166.0094314422756 194.7055048247109 940.3540142934349 255 255 255 255 0 
165.645562923966 193.4616127126513 938.9207255162534 255 255 255 255 0 
165.6109220471805 193.4693318100367 938.828961317264 255 255 255 255 0 
166.3953620874852 194.5587100210433 940.604630577363 255 255 255 255 0 
165.3295875896794 194.2386466225886 940.326995340399 255 255 255 255 0 
165.1753113531334 194.1773168233842 939.9118082883828 255 255 255 255 0 
166.2471512783966 193.9418816002754 941.0743666286089 255 255 255 255 0 
164.9582193201191 193.4809098918271 938.943410476148 255 255 255 255 0 
164.9165938138103 193.5207442259898 939.0659666145128 255 255 255 255 0 
164.875639188665 193.5918518610785 938.9468763834238 255 255 255 255 0 
165.7617360101267 194.3948581499207 941.2831275768632 255 255 255 255 0 
165.0724836410645 193.9089810690307 938.5846539119462 255 255 255 255 0 
165.1104343285859 193.8337343590024 938.5590789380219 255 255 255 255 0 
166.4952164129251 194.3415936051178 940.9893552216769 255 255 255 255 0 
166.1445824184586 193.8371439972887 940.8423602971981 255 255 255 255 0 
165.0096685918918 193.4740747926535 938.8353857481812 255 255 255 255 0 
164.9539519809113 193.5899840275951 938.7658412649288 255 255 255 255 0 
165.071960336419 194.213961781542 938.7908712879969 255 255 255 255 0 
165.099885185521 194.1843788359756 938.7252474635189 255 255 255 255 0 
165.2041982844152 193.7666471284782 938.532760345155 255 255 255 255 0 
166.2596179106057 193.8947434259325 940.9308530725733 255 255 255 255 0 
165.3391639707146 194.4774975250272 940.3055916791084 255 255 255 255 0 
164.835326939221 193.7032850346603 938.9272632667376 255 255 255 255 0 
166.366896619998 193.9750520598365 940.7613485161517 255 255 255 255 0 
166.2980685106452 193.9123618674916 940.7880339827407 255 255 255 255 0 
165.050199668546 194.2643169170694 938.9805512201368 255 255 255 255 0 
165.770716926595 193.9416174537935 941.0737644097754 255 255 255 255 0 
165.0677239475311 194.0994695612572 938.6705348222657 255 255 255 255 0 
165.0129262936302 194.2209439337495 939.4563872654157 255 255 255 255 0 
164.8121439808301 193.8445584069964 939.0838299252729 255 255 255 255 0 
164.8115657676737 193.7641839446112 939.0246560222796 255 255 255 255 0 
165.1853805386726 193.3638724560795 938.8820396751985 255 255 255 255 0 
165.4089758523433 194.3037366335687 940.5360728071149 255 255 255 255 0 
166.4738053093882 194.2861218602418 941.0468159304543 255 255 255 255 0 
165.0065792520026 194.2201036969552 938.904532544945 255 255 255 255 0 
164.9652428924717 193.5352595602338 939.241888529022 255 255 255 255 0 
164.9249721597285 193.607641514656 939.2588260731975 255 255 255 255 0 
164.979199028591 193.7436257546744 939.4596363313674 255 255 255 255 0 
164.8620928825358 193.7122938660188 939.2211767998627 255 255 255 255 0 
165.1254993913403 193.638513777867 938.5950874899377 255 255 255 255 0 
165.0248719163449 193.7258821909761 938.621403456782 255 255 255 255 0 
165.1085003796939 193.877250579511 939.7883843393323 255 255 255 255 0 
165.0248196076392 194.0492271210215 939.525437844479 255 255 255 255 0 
165.5257139837628 193.6651249694008 939.9702105273321 255 255 255 255 0 
165.0238710245333 193.5601967049948 939.3368230018975 255 255 255 255 0 
165.9531837056015 193.861992383142 939.5470337920571 255 255 255 255 0 
166.021548873008 194.0361581462914 939.4275772776007 255 255 255 255 0 
166.0247776932976 193.977890783213 939.5924407118068 255 255 255 255 0 
165.2643719153529 193.719058355076 939.7406044438688 255 255 255 255 0 
165.5028114738647 193.4161118564702 938.8053078795117 255 255 255 255 0 
165.559688184898 193.4139336157914 938.8748983315929 255 255 255 255 0 
164.8863719530993 193.6432964823931 938.8291025945529 255 255 255 255 0 
165.7210660589757 193.9989889932019 941.1040779714536 255 255 255 255 0 
165.5776189262579 193.5466378352814 938.695878989577 255 255 255 255 0 
165.3566400647996 193.5182981212182 938.627510547955 255 255 255 255 0 
165.2366051440681 193.5701356443755 938.5967616260756 255 255 255 255 0 
165.865118553027 193.6727716713529 939.6318373024906 255 255 255 255 0 
165.9672618442114 193.7570560496828 939.8870088817832 255 255 255 255 0 
166.0853299909019 193.8280516551139 940.2174904773755 255 255 255 255 0 
165.3737306536908 193.605397653764 938.5753325559546 255 255 255 255 0 
166.3436747876988 194.6496280101032 940.6370390307881 255 255 255 255 0 
164.9209947945973 193.5646401630158 938.8512410068597 255 255 255 255 0 
165.2357010657514 193.3720844946096 939.2204788686078 255 255 255 255 0 
165.3259330717607 193.343693916625 939.1598867624258 255 255 255 255 0 
165.4371330199995 193.5249078813742 938.6388348727262 255 255 255 255 0 
165.4210331949068 193.3376390381761 939.0061306665067 255 255 255 255 0 
165.3337772587035 193.3279607202872 939.0592019075368 255 255 255 255 0 
165.4983625157932 193.4796022489819 938.7100619757041 255 255 255 255 0 
165.6546291924882 193.6788428635607 939.8906072526452 255 255 255 255 0 
165.7179716152762 193.53401363881 938.9439115238644 255 255 255 255 0 
165.0842119513996 193.4151169882549 938.8546936504762 255 255 255 255 0 
165.3659386378474 194.3650682698373 940.4035757559963 255 255 255 255 0 
165.7145558234427 194.7489369487359 940.262772069724 255 255 255 255 0 
165.9449802521773 193.8246674075121 940.4777936236661 255 255 255 255 0 
165.8778125134741 194.7077290382769 940.247290326557 255 255 255 255 0 
3 0 1 2 
3 3 4 5 
3 6 7 8 
3 9 10 11 
3 12 13 14 
3 15 16 17 
3 18 19 20 
3 21 22 23 
3 24 25 26 
3 27 28 29 
3 30 31 32 
3 33 34 35 
3 36 37 38 
3 7 39 40 
3 41 42 43 
3 44 45 46 
3 45 47 46 
3 48 49 50 
3 51 52 53 
3 54 55 56 
3 57 45 58 
3 58 45 59 
3 60 4 3 
3 61 62 63 
3 64 65 66 
3 67 68 69 
3 16 70 71 
3 72 73 74 
3 26 72 74 
3 58 75 76 
3 77 78 79 
3 80 81 56 
3 82 56 81 
3 83 2 84 
3 85 27 86 
3 27 29 86 
3 87 88 89 
3 90 0 2 
3 83 91 92 
3 93 0 94 
3 95 96 97 
3 98 27 85 
3 99 100 55 
3 86 29 101 
3 75 58 59 
3 100 102 103 
3 84 104 48 
3 105 106 107 
3 108 109 110 
3 111 112 92 
3 113 23 114 
3 77 66 115 
3 116 117 118 
3 72 119 120 
3 121 122 123 
3 124 29 125 
3 126 127 128 
3 93 71 129 
3 93 129 128 
3 112 111 130 
3 131 132 133 
3 120 134 98 
3 135 136 137 
3 138 139 140 
3 138 140 141 
3 37 142 93 
3 143 32 144 
3 145 146 147 
3 148 13 149 
3 150 151 152 
3 7 153 30 
3 154 35 155 
3 154 155 156 
3 132 131 157 
3 49 158 50 
3 77 79 9 
3 159 73 72 
3 160 161 162 
3 49 163 158 
3 164 140 165 
3 166 163 49 
3 66 65 167 
3 168 169 93 
3 170 93 169 
3 53 171 51 
3 127 33 35 
3 149 172 173 
3 11 174 175 
3 9 11 175 
3 176 177 178 
3 66 167 115 
3 179 41 180 
3 54 181 55 
3 182 132 157 
3 183 184 185 
3 186 187 62 
3 188 103 189 
3 190 191 192 
3 193 194 195 
3 83 84 48 
3 170 169 196 
3 192 131 190 
3 75 174 11 
3 171 165 51 
3 124 125 197 
3 93 198 0 
3 197 199 135 
3 139 200 52 
3 2 83 180 
3 17 0 90 
3 0 17 94 
3 176 178 59 
3 165 140 51 
3 79 78 201 
3 202 145 147 
3 2 1 203 
3 84 2 203 
3 198 1 0 
3 186 150 187 
3 170 203 1 
3 204 205 137 
3 128 127 38 
3 206 207 166 
3 53 151 150 
3 53 150 186 
3 208 31 172 
3 135 199 136 
3 61 209 62 
3 186 62 209 
3 84 203 104 
3 210 150 152 
3 150 210 187 
3 2 180 90 
3 211 212 213 
3 214 60 204 
3 215 20 216 
3 9 79 10 
3 190 45 44 
3 164 217 141 
3 128 38 37 
3 151 52 200 
3 177 174 178 
3 175 64 66 
3 218 219 220 
3 164 165 171 
3 42 41 221 
3 156 26 147 
3 219 222 118 
3 138 223 139 
3 164 171 209 
3 209 171 186 
3 118 117 219 
3 65 223 167 
3 58 76 69 
3 203 170 188 
3 180 83 179 
3 59 45 190 
3 210 152 116 
3 30 173 172 
3 224 225 226 
3 227 226 225 
3 194 151 200 
3 228 229 47 
3 230 50 231 
3 134 232 233 
3 60 233 4 
3 182 157 117 
3 90 15 17 
3 41 15 180 
3 163 166 207 
3 134 234 98 
3 198 170 1 
3 104 203 188 
3 15 235 16 
3 43 235 15 
3 236 184 237 
3 186 171 53 
3 190 131 176 
3 238 201 18 
3 239 205 218 
3 11 10 240 
3 11 240 75 
3 232 4 233 
3 237 241 63 
3 63 25 61 
3 184 236 242 
3 139 52 140 
3 59 178 75 
3 117 152 182 
3 116 152 117 
3 131 133 176 
3 227 243 238 
3 244 245 246 
3 87 228 68 
3 157 220 117 
3 157 192 220 
3 247 248 46 
3 53 52 151 
3 190 176 59 
3 157 131 192 
3 249 173 153 
3 210 116 242 
3 178 174 75 
3 206 102 100 
3 62 187 236 
3 176 133 177 
3 213 81 250 
3 228 47 68 
3 47 57 68 
3 220 219 117 
3 193 195 251 
3 200 195 194 
3 252 129 70 
3 188 189 104 
3 5 253 254 
3 255 256 257 
3 258 257 256 
3 41 43 15 
3 180 15 90 
3 253 232 119 
3 24 26 156 
3 164 209 61 
3 24 259 25 
3 61 25 259 
3 242 187 210 
3 242 236 187 
3 129 71 70 
3 51 140 52 
3 207 260 261 
3 247 137 239 
3 247 135 137 
3 189 49 104 
3 198 93 170 
3 251 65 64 
3 219 218 205 
3 262 119 72 
3 236 237 62 
3 62 237 63 
3 218 220 192 
3 241 25 63 
3 167 223 138 
3 259 164 61 
3 263 264 121 
3 228 265 229 
3 46 47 229 
3 126 264 33 
3 266 267 268 
3 221 41 92 
3 251 269 133 
3 177 269 174 
3 221 270 42 
3 251 195 65 
3 65 195 223 
3 132 193 251 
3 9 66 77 
3 175 269 64 
3 175 174 269 
3 175 66 9 
3 115 167 138 
3 141 115 138 
3 91 230 111 
3 232 134 119 
3 132 251 133 
3 177 133 269 
3 271 270 221 
3 168 142 36 
3 87 265 228 
3 168 93 142 
3 46 248 44 
3 116 118 242 
3 218 191 239 
3 218 192 191 
3 190 44 248 
3 191 190 248 
3 47 45 57 
3 151 194 152 
3 182 194 193 
3 152 194 182 
3 64 269 251 
3 182 193 132 
3 60 214 272 
3 57 58 69 
3 68 57 69 
3 247 46 229 
3 229 124 197 
3 36 156 147 
3 273 89 224 
3 18 20 226 
3 69 76 67 
3 223 195 139 
3 139 195 200 
3 205 222 219 
3 229 197 247 
3 239 191 248 
3 248 247 239 
3 197 135 247 
3 242 118 184 
3 254 237 183 
3 237 184 183 
3 222 185 118 
3 118 185 184 
3 271 143 270 
3 137 205 239 
3 274 275 97 
3 5 183 3 
3 276 235 277 
3 16 235 70 
3 179 92 41 
3 88 87 68 
3 92 112 221 
3 83 92 179 
3 271 221 278 
3 278 221 112 
3 278 112 130 
3 48 91 83 
3 92 91 111 
3 253 119 262 
3 229 265 124 
3 101 124 265 
3 279 89 273 
3 263 280 33 
3 127 126 33 
3 3 185 204 
3 235 43 277 
3 40 39 281 
3 282 74 73 
3 74 282 283 
3 25 72 26 
3 262 72 25 
3 32 31 144 
3 72 120 98 
3 72 98 159 
3 98 85 159 
3 137 214 204 
3 129 284 12 
3 185 3 183 
3 254 183 5 
3 136 214 137 
3 76 240 285 
3 76 285 67 
3 42 286 43 
3 14 287 126 
3 286 31 208 
3 79 243 10 
3 125 199 197 
3 101 29 124 
3 252 70 276 
3 288 289 105 
3 232 253 5 
3 235 276 70 
3 143 144 270 
3 257 290 255 
3 232 5 4 
3 19 291 263 
3 283 279 273 
3 125 29 28 
3 28 199 125 
3 292 28 272 
3 292 199 28 
3 293 208 172 
3 40 249 153 
3 136 199 292 
3 136 292 214 
3 272 214 292 
3 222 205 204 
3 60 3 204 
3 222 204 185 
3 267 294 107 
3 294 295 107 
3 94 71 93 
3 277 208 276 
3 270 144 42 
3 296 108 297 
3 271 298 299 
3 128 37 93 
3 43 286 277 
3 286 208 277 
3 144 286 42 
3 144 31 286 
3 284 129 252 
3 272 233 60 
3 119 134 120 
3 98 234 27 
3 28 27 234 
3 28 234 272 
3 134 233 234 
3 272 234 233 
3 172 31 30 
3 288 148 249 
3 249 289 288 
3 215 226 20 
3 298 95 299 
3 299 95 8 
3 276 293 252 
3 276 208 293 
3 293 284 252 
3 293 12 284 
3 101 283 282 
3 279 283 101 
3 68 67 88 
3 298 278 130 
3 172 149 293 
3 293 149 12 
3 13 12 149 
3 130 111 230 
3 50 158 231 
3 278 298 271 
3 121 19 263 
3 153 173 30 
3 91 50 230 
3 7 30 32 
3 148 173 249 
3 13 148 109 
3 109 148 110 
3 288 110 148 
3 102 206 166 
3 300 264 301 
3 282 73 85 
3 7 40 153 
3 85 73 159 
3 148 149 173 
3 48 50 91 
3 265 279 101 
3 273 224 226 
3 201 141 291 
3 100 103 196 
3 181 162 260 
3 143 271 299 
3 302 216 122 
3 295 303 296 
3 250 296 303 
3 304 305 306 
3 40 289 249 
3 156 155 24 
3 82 161 54 
3 294 303 295 
3 273 74 283 
3 296 307 300 
3 38 154 36 
3 188 170 103 
3 75 240 76 
3 282 86 101 
3 33 280 34 
3 85 86 282 
3 265 87 279 
3 279 87 89 
3 308 261 309 
3 260 309 261 
3 168 305 169 
3 305 304 196 
3 224 88 225 
3 39 6 310 
3 243 311 10 
3 207 261 312 
3 243 285 311 
3 237 254 241 
3 49 189 166 
3 258 256 313 
3 313 256 314 
3 89 88 224 
3 315 56 304 
3 32 143 8 
3 202 316 145 
3 106 289 281 
3 105 289 106 
3 215 216 317 
3 104 49 48 
3 10 311 240 
3 285 240 311 
3 39 7 6 
3 181 160 162 
3 314 130 318 
3 314 298 130 
3 227 285 243 
3 88 67 225 
3 227 225 285 
3 285 225 67 
3 250 307 296 
3 32 8 7 
3 95 6 8 
3 253 319 254 
3 8 143 299 
3 288 105 110 
3 40 281 289 
3 21 290 245 
3 290 21 113 
3 310 281 39 
3 202 317 316 
3 189 102 166 
3 158 312 231 
3 318 130 230 
3 275 274 320 
3 231 318 230 
3 34 280 141 
3 74 202 26 
3 105 107 297 
3 281 268 106 
3 301 264 126 
3 6 275 310 
3 126 287 301 
3 97 275 95 
3 95 275 6 
3 268 267 106 
3 298 96 95 
3 298 314 96 
3 13 287 14 
3 321 213 212 
3 110 105 297 
3 110 297 108 
3 161 82 322 
3 297 295 296 
3 245 290 257 
3 320 274 266 
3 121 300 307 
3 158 163 312 
3 33 264 263 
3 323 313 318 
3 106 267 107 
3 107 295 297 
3 324 325 244 
3 82 54 56 
3 312 261 326 
3 26 202 147 
3 17 71 94 
3 16 71 17 
3 216 327 316 
3 302 80 327 
3 302 307 80 
3 308 326 261 
3 312 326 323 
3 207 206 328 
3 260 207 328 
3 99 260 328 
3 327 315 316 
3 100 328 206 
3 55 181 99 
3 207 312 163 
3 318 313 314 
3 318 231 323 
3 312 323 231 
3 216 302 327 
3 100 99 328 
3 36 154 156 
3 36 142 37 
3 327 80 315 
3 300 301 296 
3 310 275 320 
3 109 108 296 
3 320 268 310 
3 310 268 281 
3 96 314 256 
3 320 266 268 
3 258 326 308 
3 323 326 258 
3 258 313 323 
3 258 246 245 
3 260 99 181 
3 181 54 160 
3 34 217 35 
3 23 22 212 
3 56 315 80 
3 97 255 329 
3 213 294 211 
3 267 211 294 
3 97 329 274 
3 263 330 280 
3 113 329 290 
3 255 290 329 
3 256 255 96 
3 96 255 97 
3 307 250 80 
3 19 123 20 
3 258 245 257 
3 56 55 100 
3 321 322 82 
3 303 213 250 
3 294 213 303 
3 211 267 114 
3 266 114 267 
3 113 274 329 
3 162 309 260 
3 250 81 80 
3 308 246 258 
3 113 114 266 
3 274 113 266 
3 19 121 123 
3 161 324 162 
3 254 319 241 
3 244 246 162 
3 309 162 246 
3 308 309 246 
3 321 22 322 
3 35 331 155 
3 212 22 321 
3 213 321 81 
3 82 81 321 
3 74 317 202 
3 74 332 317 
3 273 332 74 
3 226 332 273 
3 226 215 332 
3 332 215 317 
3 316 317 216 
3 114 23 211 
3 161 160 54 
3 23 212 211 
3 25 319 262 
3 262 319 253 
3 291 330 263 
3 162 324 244 
3 305 168 146 
3 245 244 21 
3 21 23 113 
3 201 291 18 
3 155 331 333 
3 13 109 301 
3 109 296 301 
3 21 244 325 
3 145 304 306 
3 300 121 264 
3 164 141 140 
3 226 227 238 
3 226 238 18 
3 243 79 238 
3 79 201 238 
3 22 21 325 
3 322 22 325 
3 322 325 161 
3 324 161 325 
3 56 196 304 
3 129 14 128 
3 12 14 129 
3 259 333 164 
3 331 164 333 
3 316 304 145 
3 291 141 330 
3 14 126 128 
3 18 291 19 
3 189 103 102 
3 196 103 170 
3 146 306 305 
3 56 100 196 
3 141 217 34 
3 196 169 305 
3 316 315 304 
3 127 35 154 
3 127 154 38 
3 13 301 287 
3 201 115 141 
3 115 201 78 
3 115 78 77 
3 155 333 24 
3 259 24 333 
3 217 331 35 
3 164 331 217 
3 307 122 121 
3 302 122 307 
3 36 146 168 
3 147 146 36 
3 241 319 25 
3 145 306 146 
3 280 330 141 
3 216 123 122 
3 20 123 216 
