ply
format ascii 1.0
comment VCGLIB generated
element vertex 212
property double x
property double y
property double z
property uchar red
property uchar green
property uchar blue
property uchar alpha
property double quality
element face 420
property list uchar int vertex_indices
property double quality
end_header
137.2475309815975 138.5822931499893 1859.131209696529 255 255 255 255 0.007945103879296577 
137.6241610627385 137.6043506214182 1859.703408820085 255 255 255 255 0.04517396504692226 
137.9864949825028 140.4025319166901 1849.295063621977 255 255 255 255 0.01277252094006874 
138.4632127155059 139.2747433414223 1853.215036696713 255 255 255 255 0.07395255033113265 
138.0001402258663 138.376193437319 1857.468753024248 255 255 255 255 0.01850779110789467 
137.9203517701482 138.1985503371047 1856.308155907847 255 255 255 255 0.01427596285172584 
137.7917224526006 139.6506724309895 1853.726537795063 255 255 255 255 0.04889726399381729 
138.1189655837557 138.5842612984387 1854.482097152342 255 255 255 255 0.07152708984310009 
137.9991170812056 139.0705800167277 1851.902177258687 255 255 255 255 0.03485898042135266 
138.7049350348878 140.4903634723508 1849.734372893373 255 255 255 255 0.01681651966005637 
138.1209711563455 139.3714505654485 1854.549888533479 255 255 255 255 0.0538987357698642 
136.9590312364358 137.9804552088702 1858.422986425354 255 255 255 255 0.02106967127623511 
136.8048299216928 138.0989463275805 1860.469165912599 255 255 255 255 0.02531379144782267 
138.2173632457307 138.8014528343583 1855.338703759157 255 255 255 255 0.05114177804843667 
138.0331551861149 140.1128588640325 1851.738202737883 255 255 255 255 0.01616315378459865 
137.6670778360941 139.4106312771895 1854.798666908634 255 255 255 255 0.03786116223737344 
138.5952650660535 140.2798253223089 1850.633233299134 255 255 255 255 0.0247307272374089 
137.7474202230325 137.8611371817893 1860.628114387493 255 255 255 255 0.08081589638499857 
138.1840531691989 139.4939984792725 1854.003449307772 255 255 255 255 0.06249263471089842 
137.5721942671449 138.2811966805003 1860.461225655534 255 255 255 255 0.06293291604609019 
138.6757600084191 139.6811002733541 1851.477051127514 255 255 255 255 0.08536330011415109 
137.7778070532242 137.924043133098 1860.211780908279 255 255 255 255 0.05904858721243037 
136.981799933212 138.4614866272425 1858.185152251082 255 255 255 255 0.01504359557184398 
138.2680893192039 139.5844570196831 1849.716660250974 255 255 255 255 0.01789316270737533 
137.3243489627708 138.6998439734794 1854.7260107087 255 255 255 255 0.03559309838086555 
138.0152748591192 140.0221015126373 1849.007839610095 255 255 255 255 0.005923223260009855 
137.6302404205058 139.2868288846705 1852.147283293219 255 255 255 255 0.03620412154832849 
139.0504993691229 140.3985659790508 1848.389694277223 255 255 255 255 0.02292703858771532 
138.3129980154904 139.7405678698218 1852.929124006371 255 255 255 255 0.04620569369029925 
138.0734119425962 138.5211887836263 1856.705613464808 255 255 255 255 0.02517130094088749 
138.813610186896 140.6976661077984 1848.831688108978 255 255 255 255 0.02764977270626338 
138.4479093719917 139.9290662959067 1848.215248538906 255 255 255 255 0.01057375364653625 
138.3577764608771 139.8258482980347 1852.563236294639 255 255 255 255 0.03345091342621153 
138.9377469905967 140.1820988709729 1849.338474916588 255 255 255 255 0.013692232920902 
136.8970075265719 138.2883108939302 1859.242150092495 255 255 255 255 0.01187708028354476 
137.6867206726962 139.3948007256493 1851.688001156421 255 255 255 255 0.02642216464374149 
137.7217988656284 139.5163526330144 1854.321334256372 255 255 255 255 0.04284931576543979 
138.1688511749628 138.7075991837654 1855.782791249806 255 255 255 255 0.04877694295318535 
138.9111961264996 140.8850953895031 1847.997002122956 255 255 255 255 0.02577109990236871 
136.9425911613219 138.3822375754759 1858.65834560441 255 255 255 255 0.01334218501071564 
137.9535656687121 138.2832659936259 1857.983982067812 255 255 255 255 0.01723974654873749 
138.4359824549101 139.1919300877878 1851.834648627713 255 255 255 255 0.0463740361466168 
138.6307293688899 139.5958546115091 1851.840521763989 255 255 255 255 0.04658976997828283 
137.4756345064787 139.0385773712876 1856.575141879788 255 255 255 255 0.04145886364810725 
137.8505118715311 139.7072448602067 1850.360613602829 255 255 255 255 0.05024955789097055 
138.0720252999418 138.4939587509658 1854.894650269295 255 255 255 255 0.06045170237875334 
137.3288635456749 138.7468112693712 1858.141823090043 255 255 255 255 0.009653953245941118 
137.0105079507678 138.0846218585473 1857.81480056002 255 255 255 255 0.01704721866793671 
137.0493179897619 138.161511258869 1857.385983785591 255 255 255 255 0.01577313865519141 
137.1639808028783 138.3878643728338 1856.213456013259 255 255 255 255 0.02031775878695957 
137.8664388114382 138.0926289013345 1856.846454576761 255 255 255 255 0.0127326007844307 
138.0344407224197 138.4436785705855 1857.105717649139 255 255 255 255 0.01766730373491668 
137.8574587788289 138.8594921383142 1857.008376489422 255 255 255 255 0.02776701895917838 
138.7526144747473 139.8281799833755 1850.853616260425 255 255 255 255 0.100214336849855 
138.4018108061384 139.1569928575661 1853.728560256363 255 255 255 255 0.08653574245309288 
138.1327104551323 140.2480891996317 1848.011777748149 255 255 255 255 0.01760002207091311 
137.6298477546758 139.7209055846289 1852.201192443866 255 255 255 255 0.03354049644477874 
137.9880183503744 139.1146699971855 1855.740362797422 255 255 255 255 0.05704822576824126 
136.8206867353213 137.696719271899 1860.222495712799 255 255 255 255 0.02668087441836871 
137.2356686491758 138.9625553079343 1855.576062293469 255 255 255 255 0.04053166166936597 
137.6532175735907 138.4488515651898 1859.372573226482 255 255 255 255 0.01238371784869051 
137.8542184383969 139.7707958242339 1853.202597181206 255 255 255 255 0.04480565593794896 
137.4855730436729 139.4443975448843 1853.392862051956 255 255 255 255 0.04439295985912028 
137.4735396105102 138.0568869127387 1856.502759953598 255 255 255 255 0.01022876629536565 
137.4382237220464 139.3537920811671 1853.788512851374 255 255 255 255 0.04667736721828596 
137.609897627117 138.3591063450381 1859.950212664173 255 255 255 255 0.04154117744289729 
138.6577169700628 140.3989920297239 1850.124504196052 255 255 255 255 0.01471177013416196 
137.5253664736923 138.157746858635 1856.000117258828 255 255 255 255 0.01156170815644095 
138.9904694477544 140.255038340286 1847.216877645054 255 255 255 255 0.02856725870951245 
138.4236433524308 139.9514694162413 1852.026500071507 255 255 255 255 0.02456003400244762 
137.7950323369375 137.9508684942291 1857.606781163145 255 255 255 255 0.02007039468100549 
137.7179805633843 139.8891139820579 1851.484507450939 255 255 255 255 0.01783142989949443 
138.173633154423 138.6892773211089 1854.010313883212 255 255 255 255 0.09171546539176363 
137.8757391375406 138.8345033411396 1852.914160424252 255 255 255 255 0.06346752697633792 
137.7724986813163 139.9932857935893 1851.044693918607 255 255 255 255 0.02098996590208364 
137.7972792154566 139.606363212868 1850.7904080365 255 255 255 255 0.05533491355507488 
138.2179461466362 139.5579576285237 1853.721719908119 255 255 255 255 0.07806810305256788 
137.9067680184093 138.1889704856197 1858.532842042253 255 255 255 255 0.01164876709613221 
138.5289387734373 139.4004386902594 1852.671944762261 255 255 255 255 0.05590214500753746 
137.3700856757218 138.7875236265768 1854.3274422565 255 255 255 255 0.04832359839135384 
138.1414385632262 139.3425971284875 1850.747399301607 255 255 255 255 0.126056933644053 
138.4973651997863 139.3091262004177 1851.336493704665 255 255 255 255 0.1088669761688407 
138.5671289654337 139.4421876229162 1850.772205853314 255 255 255 255 0.1692889451917781 
138.3927037126226 140.7996149897414 1848.794751271686 255 255 255 255 0.0289485282283776 
137.7328819608251 138.6104362689318 1858.381648929456 255 255 255 255 0.009079096078987055 
136.9164170640493 137.8937050505345 1858.952997975638 255 255 255 255 0.01869287618820608 
137.7052020054489 137.7701643484651 1858.657029922649 255 255 255 255 0.01653223126236837 
138.0415009952348 140.507565019546 1848.836407529971 255 255 255 255 0.01661067397197421 
137.5564326319695 139.5799171878683 1852.804271862321 255 255 255 255 0.03716571664773852 
137.90539195594 139.8683035344433 1852.781224321123 255 255 255 255 0.03279837444584308 
137.2091815627918 138.5032510426185 1859.633465863181 255 255 255 255 0.01758824298954729 
138.225027400743 140.4263643858917 1847.205846683728 255 255 255 255 0.03064485973548425 
138.5874609225519 139.4812223195406 1850.625040427189 255 255 255 255 0.2506838199183312 
137.5694884832815 139.2212517737578 1855.681134889228 255 255 255 255 0.06296997505322231 
137.2606694727189 137.6324205392813 1858.888466815372 255 255 255 255 0.02139617059027934 
138.7069247479574 139.7100128810538 1849.628683984079 255 255 255 255 0.01176783903575347 
137.6621988753919 137.6820173836153 1859.205946131686 255 255 255 255 0.02230349537617124 
138.4742461237998 140.0485460939522 1851.614310092209 255 255 255 255 0.02348588689453741 
137.9718685451338 139.9953366200018 1852.238361476774 255 255 255 255 0.02064089764984984 
137.3753883544971 138.8402623950139 1857.616073580444 255 255 255 255 0.01366312737682467 
137.6942267883943 138.4858427707176 1854.455744714043 255 255 255 255 0.05820296389440131 
139.13582486506 140.5629776406156 1847.650247354784 255 255 255 255 0.02708777165178633 
138.4036771986959 139.1298690872717 1852.098773383348 255 255 255 255 0.04711454159597778 
137.4120492978604 137.9354350194949 1857.13536949532 255 255 255 255 0.01581970444943823 
137.5457454856031 138.2260031987798 1860.826975434893 255 255 255 255 0.05779517448812526 
137.7451865033653 137.8509407818179 1858.175681369651 255 255 255 255 0.02029138662163421 
137.5387043957352 139.1119527214662 1852.898433673993 255 255 255 255 0.05040299514761008 
137.8118909175254 138.7692861043401 1857.486536469583 255 255 255 255 0.01975865649735733 
138.1080271990837 140.6357112244171 1848.272042218251 255 255 255 255 0.02023549918153332 
137.6690829536583 139.795670035743 1851.881542014511 255 255 255 255 0.02132056919713653 
137.599356428925 137.5529721686354 1860.0381915819 255 255 255 255 0.07218954829716256 
137.9550356328824 139.9073638273587 1849.505093224436 255 255 255 255 0.007787351624118294 
137.2870372317012 138.6630888103646 1858.635377095229 255 255 255 255 0.008834992120926501 
136.8676454820918 137.7926859828967 1859.593589921999 255 255 255 255 0.02111633242291798 
138.0530889224275 139.1735573706934 1851.464132104615 255 255 255 255 0.05308882998641535 
137.1340164362883 138.7637954819191 1856.550210158539 255 255 255 255 0.03289942086849183 
137.2188918650539 138.4937276312647 1855.691013607156 255 255 255 255 0.02564311817408371 
137.1859780681124 137.4772516865508 1859.874828308994 255 255 255 255 0.03649856085314463 
138.8173241550337 139.9515481155908 1850.327890953254 255 255 255 255 0.0611118713395333 
138.349703673687 139.0270041695565 1852.538198693549 255 255 255 255 0.05537466589248214 
137.9750414496023 138.3053161071028 1855.783666470881 255 255 255 255 0.02448454170729512 
138.1590353619046 140.7335829537344 1847.832430311471 255 255 255 255 0.02334263151649947 
138.5083597826632 140.0455275005406 1847.69300960346 255 255 255 255 0.02024101192787708 
137.3638377262493 137.8392208040908 1857.660774352506 255 255 255 255 0.02197265363249778 
137.9348940985894 138.9479102200911 1852.426226570594 255 255 255 255 0.0490694668655132 
137.2845937239113 139.0573336634735 1855.130114533953 255 255 255 255 0.03182926788778793 
137.9452362562714 138.6411525257774 1853.969986655215 255 255 255 255 0.1001411833264752 
137.7567980387433 139.5280032146377 1851.121686758168 255 255 255 255 0.03630619505672999 
138.7741846475357 139.8386219694531 1849.073020533007 255 255 255 255 0.007903711980245471 
137.401688365891 139.2831413089314 1854.103639689469 255 255 255 255 0.036543755312378 
138.5859961102871 139.4790067401139 1850.614629184566 255 255 255 255 0.1432449083184714 
138.0685475621384 140.1246621828597 1848.560146870559 255 255 255 255 0.009418191568833729 
137.7665619822058 138.6786981785683 1857.988973048943 255 255 255 255 0.01513753913849573 
138.5304693887938 140.1554712518469 1851.159872058919 255 255 255 255 0.02868225363036283 
138.8968097085877 140.0737255269798 1848.037998971703 255 255 255 255 0.01924081387170598 
138.2602366436324 138.8847843191923 1854.951000136269 255 255 255 255 0.06191452687342925 
138.2827688729792 138.8990609612241 1853.089151941248 255 255 255 255 0.08241784784784183 
137.5858251089169 139.2007415084464 1852.516098939397 255 255 255 255 0.046920296140808 
137.9000025290572 139.8024223777887 1849.955421757163 255 255 255 255 0.02434650966253268 
137.8194437928969 138.0101651234975 1859.650349338326 255 255 255 255 0.03420890882692238 
138.9618848289128 140.9830127625053 1847.553526945283 255 255 255 255 0.02157654950181704 
138.1064678406038 139.2763910051718 1851.028876967371 255 255 255 255 0.09498047730422952 
138.0530207018561 139.2407779214984 1855.147670899476 255 255 255 255 0.05149893837376909 
137.3430729021332 139.1707088494125 1854.608437021749 255 255 255 255 0.03036378321079735 
138.5082734263867 141.0224301865784 1847.800631550962 255 255 255 255 0.02251562211256199 
138.0337171383646 138.419460251577 1855.23981614704 255 255 255 255 0.03577440065806108 
137.6178807656435 139.3156513810663 1855.235704501196 255 255 255 255 0.05251643590486704 
137.0289628103838 138.5561430067328 1857.64834113212 255 255 255 255 0.01443949319542823 
138.8378777473669 139.9609196425164 1848.537214480694 255 255 255 255 0.0110543663978119 
137.1440098577598 137.3903591337528 1860.447224037824 255 255 255 255 0.0418153251042858 
138.3180351579629 139.6802055861011 1849.305251121925 255 255 255 255 0.003098004163955006 
137.0705446842933 138.6389623526206 1857.197625668999 255 255 255 255 0.01663427383867956 
138.3237460377576 139.0073266294341 1854.395121621526 255 255 255 255 0.0746122575307942 
138.9373288400861 140.1524396464882 1847.681409114676 255 255 255 255 0.02698990114402241 
137.810401741842 138.7092373952241 1853.459294572955 255 255 255 255 0.07655856360999355 
137.2164074246012 137.5404479758176 1859.46492802636 255 255 255 255 0.02912811187727707 
138.2680373077798 139.6545837656754 1853.300706205382 255 255 255 255 0.05874546105186066 
137.5652370170229 137.4825180041063 1860.502094438408 255 255 255 255 0.05890166226260772 
138.1318115760699 138.6353317406488 1856.133212150474 255 255 255 255 0.03406835962352367 
137.5227796148152 139.1308586413729 1856.115869280531 255 255 255 255 0.05445601069410622 
137.6997710071579 138.5434349152185 1858.784636492141 255 255 255 255 0.004971270723511912 
137.6524933815074 138.4057692911618 1854.821641643967 255 255 255 255 0.03502134301185678 
138.181749859202 140.3429494710999 1847.585322502888 255 255 255 255 0.02291098217229369 
138.755425031061 140.58654402204 1849.317365070161 255 255 255 255 0.02212084285538636 
137.8499354649955 140.1409265841864 1850.415751223473 255 255 255 255 0.02444408867658029 
137.138334667312 138.3574999779626 1860.587735922444 255 255 255 255 0.0528853463578163 
137.2684550358295 138.5911718255833 1855.229988277747 255 255 255 255 0.02746570921691851 
138.2373993102308 138.811830382401 1853.469662254541 255 255 255 255 0.09244355663729614 
137.4416983465397 138.9254908792448 1853.712606048395 255 255 255 255 0.05604858282562907 
137.9442560924776 139.0292844534935 1856.151792165882 255 255 255 255 0.06181442982727946 
138.8782974757468 140.0678960638337 1849.829670123474 255 255 255 255 0.01788657380965058 
138.9868983708968 140.2762993906428 1848.92772185261 255 255 255 255 0.01840335926600191 
137.8347477821574 138.0299417654513 1857.176119466793 255 255 255 255 0.02004502590768069 
137.1028240085718 138.2684059493517 1856.820162948623 255 255 255 255 0.0153789489108484 
138.2037124872105 139.4617996499395 1850.240157420259 255 255 255 255 0.07756103095146602 
138.3499482889331 140.7179486307207 1849.152786564138 255 255 255 255 0.02280516503943808 
138.444112143475 140.8990024520401 1848.355762138965 255 255 255 255 0.02720831047476926 
138.2099741799921 140.8321236886486 1847.38432310006 255 255 255 255 0.02335454440522711 
138.620025391342 139.5543634791028 1850.916269887154 255 255 255 255 0.1531925799445341 
138.2066239477621 140.443887253472 1850.331642032632 255 255 255 255 0.01397137489661878 
137.912969187589 140.2614360299366 1849.901459690275 255 255 255 255 0.01412622652788307 
137.478031795007 138.994922857917 1853.406051969468 255 255 255 255 0.05714388429161617 
137.3007246953051 137.7129241169914 1858.393556348212 255 255 255 255 0.02240982576056368 
138.3651479774888 139.0865987043257 1854.039963806083 255 255 255 255 0.08347193800259703 
138.1327692432247 140.3023682111076 1850.934437867267 255 255 255 255 0.01590315361165868 
137.1988842659459 138.890861687858 1855.920426696223 255 255 255 255 0.04323133738209401 
137.7517866094342 138.5970364452088 1853.955457660325 255 255 255 255 0.06873445714355687 
138.2757035620499 140.5762718274691 1849.765944365309 255 255 255 255 0.0161021566005357 
137.91023071852 138.9629191939851 1856.480919153148 255 255 255 255 0.04115795143498886 
138.6481666562045 139.5974161971209 1850.111966207376 255 255 255 255 0.08379379014155695 
137.2797978427248 137.3361876548516 1860.908864938156 255 255 255 255 0.04808272873173812 
138.5774586087564 139.4933584792858 1852.275662599768 255 255 255 255 0.03672305454794496 
138.6078465302202 141.1172954256161 1847.373936422789 255 255 255 255 0.02021205582293246 
138.65296517042 139.6160037335286 1850.583798058798 255 255 255 255 0.1382615555465123 
138.8592838602093 140.785268587872 1848.444206952282 255 255 255 255 0.03193872768927352 
138.5689257591206 140.1628959850351 1847.160628548698 255 255 255 255 0.033197247378503 
137.1666719860568 138.4157590541409 1860.203295771241 255 255 255 255 0.03443694318717545 
137.4268146889109 138.9400831815621 1857.07870727011 255 255 255 255 0.02323415005141328 
137.8625158944801 138.0991884887328 1859.086854785888 255 255 255 255 0.01036396452398901 
139.0933893062145 140.4806625862484 1848.019972145105 255 255 255 255 0.02738853285749253 
137.3324838959928 137.7751632765486 1858.02702167171 255 255 255 255 0.0270018227497127 
136.7594975641958 137.6685645457815 1860.777413422029 255 255 255 255 0.02767329541007624 
138.0829771417513 140.2075945818985 1851.336317676576 255 255 255 255 0.01481367787968301 
138.3818617847336 139.803167558785 1848.770842763203 255 255 255 255 0.00306739825199363 
137.5856501324886 138.2750078183709 1855.432607711974 255 255 255 255 0.02149809319607747 
136.8530495830915 138.1988703880597 1859.816155476927 255 255 255 255 0.01860403865815816 
137.6816592448723 137.6396327818365 1860.933929256956 255 255 255 255 0.05972570461012049 
136.910105994579 138.1937695996645 1860.947532168261 255 255 255 255 0.03480163933207539 
138.4744482719463 140.9801496280511 1846.861291512549 255 255 255 255 0.02507168016644444 
137.1955117198214 137.8385144252715 1861.330665214504 255 255 255 255 0.03870601049995718 
138.653202572377 140.3256653765515 1846.811816663326 255 255 255 255 0.02966702428519766 
139.1458114018552 140.7507795916277 1847.012740389029 255 255 255 255 0.02776304137664577 
3 96 1 155 0.009929413999188452 
3 7 152 135 0.02782256543351724 
3 76 18 54 0.1577665131955884 
3 81 82 178 0.5334838731996436 
3 112 39 0 0.07237252731242771 
3 27 30 171 0.03636811249710148 
3 122 162 195 0.05529248505534845 
3 120 37 158 0.08160034237532154 
3 92 82 130 0.9673090804700184 
3 187 66 9 0.100239519372585 
3 18 10 183 0.08320353483459908 
3 126 167 72 0.3675170887234991 
3 25 87 131 0.01076286917148728 
3 16 118 66 0.001924286919970819 
3 75 127 74 0.07181262136623956 
3 40 4 132 0.1251404275765213 
3 152 7 72 0.006760041242542036 
3 18 183 54 0.108888455572799 
3 89 32 98 0.008794981761609977 
3 146 125 59 0.1544752439267231 
3 181 64 62 0.05447903151724942 
3 24 125 143 0.009844842698228828 
3 80 44 174 0.07089733220881278 
3 82 81 141 0.01822166347166598 
3 54 183 72 0.3147473450833592 
3 77 198 86 0.02131744898817889 
3 43 197 52 0.07591520137664276 
3 130 189 193 0.5438852940982444 
3 195 162 91 0.2111613219007938 
3 119 191 78 0.1424700877737648 
3 34 90 0 0.01586791077125682 
3 76 6 18 0.1895009706382057 
3 15 142 10 0.02527628818726924 
3 74 164 75 0.08400007384708863 
3 128 95 150 0.01213372039564575 
3 100 45 161 0.1863470865286145 
3 121 55 108 0.01628951759020481 
3 33 128 171 0.0246443334165356 
3 117 155 1 0.01937460418174808 
3 47 11 22 0.02616115414901199 
3 151 147 99 0.04938581257189045 
3 6 64 36 0.06201507659299432 
3 178 193 53 0.01818454539229153 
3 146 15 125 0.1566452067460533 
3 2 180 187 0.03709900056414817 
3 172 51 4 0.04898795419748458 
3 164 74 184 0.05712224678560673 
3 189 170 118 0.06294836851439423 
3 171 163 33 0.07090289753093315 
3 80 130 82 0.4623419981888856 
3 30 27 194 0.1607838310006643 
3 164 180 138 0.033269336312863 
3 156 6 76 0.2180746142585499 
3 191 102 41 0.3288679428222876 
3 152 72 183 0.09544831007155541 
3 3 156 76 0.2006525752077204 
3 133 97 20 0.08684726571931889 
3 13 135 142 0.04210254769689703 
3 25 111 2 0.0107348053546229 
3 59 93 146 0.1545732495229769 
3 66 179 16 0.002290575552982732 
3 117 113 155 0.05218081541560504 
3 133 20 53 0.04602134228363464 
3 142 15 146 0.04671757822341127 
3 42 191 41 0.05282215297767334 
3 20 42 81 0.2206449655906153 
3 8 114 41 0.02883608307067609 
3 128 150 203 0.008459381422553869 
3 18 36 10 0.02036676264722681 
3 119 124 102 0.1203916343655916 
3 32 191 69 0.01157229976547258 
3 56 137 88 0.0518741445038533 
3 78 191 32 0.02396525239842506 
3 163 171 30 0.02126766552088588 
3 151 173 48 0.0122598330751077 
3 89 98 56 0.1172359623807883 
3 47 147 48 0.01332079299521949 
3 181 62 106 0.06126883373890635 
3 73 136 154 0.07977468872084192 
3 56 109 26 0.2598909041714234 
3 194 27 199 0.1660251225086546 
3 49 116 67 0.01469215757574005 
3 62 88 106 0.04362972142909094 
3 0 60 160 0.02798980589286915 
3 153 68 101 0.03264797787947848 
3 145 13 37 0.169894008772222 
3 8 35 114 0.006787179637937069 
3 203 148 128 0.008774162184728596 
3 205 113 58 0.07790521038371057 
3 14 202 71 0.02908784905841966 
3 38 176 194 0.0957460923354374 
3 151 115 173 0.04575295255339662 
3 186 168 154 0.0009272668052268118 
3 101 199 153 0.04903620594133273 
3 81 114 141 0.007648080334988205 
3 87 175 83 0.05400176604850648 
3 71 109 14 0.03047983740561133 
3 184 16 179 0.02895831867248722 
3 40 84 77 0.02004771354852453 
3 69 42 97 0.04402088594018772 
3 1 96 139 0.04439931250026052 
3 75 80 141 0.2002335063071435 
3 86 198 96 0.02194191950097346 
3 22 147 47 0.005930423224185688 
3 113 117 58 0.03392767538734809 
3 24 161 166 0.05545524997317852 
3 131 31 203 0.01548854446766024 
3 129 64 168 0.1776163463521029 
3 82 141 80 0.2893838065144674 
3 173 63 103 0.03786111230896572 
3 10 36 15 0.00455794925741515 
3 22 11 39 0.01849081705155364 
3 191 119 102 0.09055865018667753 
3 136 3 167 0.1523177720056769 
3 61 62 6 0.005321761894620969 
3 64 181 168 0.1823151483987825 
3 170 33 9 0.02207039862758198 
3 194 176 83 0.09525610041661414 
3 30 175 163 0.0355054376374081 
3 33 163 9 0.07013294511195445 
3 125 15 143 0.07801995625607916 
3 60 65 139 0.01650318325222033 
3 44 75 164 0.2355618113193346 
3 132 107 99 0.03074453978257519 
3 161 45 145 0.1953028139667703 
3 24 79 100 0.03207166945103812 
3 2 111 180 0.02885050104266129 
3 33 95 128 0.04669229646853768 
3 98 32 69 0.007835387708365782 
3 149 117 110 0.07715521461438024 
3 161 204 166 0.04220015588250303 
3 123 47 48 0.03318649511190241 
3 181 73 154 0.1080410540797859 
3 89 61 28 0.04279538851360165 
3 164 138 44 0.1158324069011176 
3 125 166 59 0.008577085787820904 
3 24 166 125 0.01166777887224657 
3 188 43 52 0.06145068312184054 
3 120 158 5 0.003114474704169701 
3 124 8 102 0.05547708078207203 
3 23 95 189 0.02156434322249667 
3 169 57 93 0.222376556629801 
3 185 116 49 0.04079096280474193 
3 109 71 35 0.06523611514799232 
3 120 145 37 0.08188433881324597 
3 150 23 111 0.01766819085414106 
3 66 118 170 0.001635482904857599 
3 189 130 174 0.008298067599259218 
3 87 2 175 0.002478787143624039 
3 25 2 87 0.007064802717218654 
3 105 77 86 0.004604348102099309 
3 112 84 46 0.002081388675992057 
3 92 193 178 0.3189065332970601 
3 96 94 86 0.006232903439603477 
3 50 5 29 0.008243995934940851 
3 118 53 193 0.1216539892255776 
3 79 24 143 0.02174178935285775 
3 75 44 80 0.1419102708490247 
3 45 100 7 0.1186979554389727 
3 160 198 77 0.02058366095324349 
3 11 47 200 0.03579571560061301 
3 138 180 111 0.02222631963767796 
3 167 126 154 0.07527726451249184 
3 100 186 126 0.4496522440573739 
3 197 43 115 0.1090778593961812 
3 90 34 205 0.01613215478068397 
3 129 168 79 0.03217733827508196 
3 53 118 16 0.005185248009023202 
3 84 160 77 0.02185466508580525 
3 132 84 40 0.1164470729594577 
3 62 61 88 0.0215946090073621 
3 132 99 46 0.02479662979762332 
3 36 18 6 0.02829631726785542 
3 43 188 159 0.04526441076155019 
3 70 123 103 0.06688149130939769 
3 112 46 22 0.05151853957674091 
3 56 98 109 0.1265343879475318 
3 55 122 31 0.006587029623040253 
3 40 105 70 0.01247090558610109 
3 146 57 142 0.09269060764042825 
3 13 142 57 0.02568462140005778 
3 89 28 32 0.05869301743958555 
3 68 153 195 0.1590814380699415 
3 31 134 148 0.0004075771101510473 
3 167 154 136 0.2643859172545964 
3 4 40 70 0.004285758643783666 
3 171 148 27 0.006350541773807783 
3 181 106 73 0.1365199204970118 
3 50 63 5 0.005425230790666924 
3 71 127 35 0.01474248523847432 
3 104 165 207 0.1196588311429796 
3 197 115 151 0.06864480162883468 
3 174 130 80 0.008073092470919363 
3 165 104 19 0.3765693150916454 
3 147 151 48 0.01041773311651317 
3 135 152 10 0.0948852408584796 
3 178 82 92 0.5622584947352117 
3 58 117 149 0.01674030786529423 
3 26 124 137 0.09681353098338519 
3 161 145 204 0.03400359060705127 
3 159 93 185 0.05398190878472076 
3 185 93 59 0.1673977685374591 
3 44 138 174 0.0603376204606122 
3 145 120 204 0.007162404878883644 
3 20 178 53 0.2726151917712549 
3 99 147 46 0.06701355052395142 
3 143 15 36 0.06768884251866691 
3 8 41 102 0.1609206698650538 
3 205 12 196 0.04503842475677144 
3 26 8 124 0.007281913370460136 
3 83 175 30 0.1682694813070963 
3 136 73 119 0.08297784341041525 
3 117 1 110 0.08551348602390796 
3 187 175 2 0.03924564573580491 
3 105 182 200 0.07672025736304944 
3 108 176 121 0.1543949574292701 
3 148 134 27 0.0004449014884275737 
3 162 55 121 0.02337696793121835 
3 26 109 35 0.06396752349810542 
3 137 73 106 0.2272233103574682 
3 164 179 180 0.01642783397534764 
3 52 29 188 0.003845474673065952 
3 188 29 158 0.01421678910659807 
3 181 154 168 0.1303663427023809 
3 50 172 103 0.2168438245954988 
3 22 39 112 0.06592576822521889 
3 28 78 32 0.04139154872243367 
3 137 106 88 0.02956634049780615 
3 45 7 135 0.1108511118608496 
3 50 103 63 0.03962801887307288 
3 107 52 197 0.06969117492174481 
3 159 188 169 0.2100696077776999 
3 97 14 69 0.02595082211944222 
3 89 56 88 0.09074823887933159 
3 52 107 51 0.02492317045356474 
3 122 195 153 0.09795221986666358 
3 193 189 118 0.002438231204141883 
3 137 56 26 0.2422463576261678 
3 85 113 34 0.05525363097339586 
3 111 23 138 0.003356143036156722 
3 13 45 135 0.1163424691732204 
3 158 37 169 0.1340896003069606 
3 182 105 86 0.002867199786009689 
3 170 9 66 0.02995864986822161 
3 51 29 52 0.03079840528506239 
3 5 63 67 0.0004792065305551096 
3 28 3 78 0.02340517705002154 
3 169 37 57 0.05802668372667652 
3 144 192 177 0.0256423462382217 
3 65 21 139 0.01083785474269439 
3 186 100 79 0.03133179316023005 
3 169 188 158 0.1467750177470906 
3 70 103 172 0.151503864830316 
3 186 79 168 0.03532442356861265 
3 76 54 3 0.09899721788209959 
3 17 21 19 0.1193636995754973 
3 21 1 139 0.06636067788371436 
3 95 33 170 0.07400696704924714 
3 50 29 51 0.02661217357173495 
3 150 111 25 0.01497617278568919 
3 140 192 144 0.02748260476660436 
3 29 5 158 0.01439236663820864 
3 141 127 75 0.1123997357017117 
3 137 124 73 0.09532607924029335 
3 99 197 151 0.01659456966735107 
3 141 114 127 0.08465301864674579 
3 204 116 166 0.002085394477841729 
3 114 81 41 0.007648845232639645 
3 116 185 59 0.06578197195762669 
3 26 35 8 0.001829654179578255 
3 105 40 77 0.006487705666811339 
3 57 37 13 0.05582069617851049 
3 69 191 42 0.04235782506717545 
3 110 157 149 0.1608901699361196 
3 64 129 36 0.3803924671396314 
3 23 150 95 0.02318606396983713 
3 112 160 84 0.04186058414622129 
3 107 132 4 0.13673686764519 
3 23 189 174 0.01352309394123474 
3 3 28 156 0.1505337195677156 
3 134 122 153 0.09260051104718769 
3 100 126 7 0.04788403323308932 
3 16 133 53 0.005450283714882098 
3 189 95 170 0.0723520930533802 
3 162 122 55 0.03709197965021416 
3 11 85 39 0.02959599762689047 
3 38 144 176 0.03818062479681295 
3 116 59 166 0.004240638988682988 
3 91 162 177 0.07802577524890386 
3 108 87 83 0.06010991653399311 
3 65 196 19 0.06640152546111344 
3 66 187 179 0.01870422226976864 
3 202 14 97 0.02842695562739239 
3 123 70 105 0.08508764931546597 
3 107 4 51 0.1353340957473613 
3 19 104 17 0.3232429635952911 
3 50 51 172 0.07678401668534018 
3 10 152 183 0.3194708403652049 
3 167 54 72 0.04306503562746899 
3 108 83 176 0.1527027399798097 
3 195 91 210 0.2695945849799253 
3 140 38 101 0.01883174081220074 
3 194 83 30 0.1607570068476125 
3 49 115 185 0.04374360680298273 
3 85 11 94 0.1289667576879364 
3 97 42 20 0.09601380414043026 
3 81 42 41 0.06249106580121211 
3 140 144 38 0.01455601101789394 
3 126 186 154 0.3990887448173144 
3 74 127 71 0.01226040496354519 
3 160 60 198 0.02403082951022351 
3 21 110 1 0.339940209860384 
3 144 121 176 0.06447560951492326 
3 25 203 150 0.01220362871433234 
3 61 89 88 0.04016143121663374 
3 177 121 144 0.037354352258686 
3 35 127 114 0.02862637075885111 
3 178 20 81 0.06553481348023971 
3 108 55 131 0.03773936736292127 
3 156 28 61 0.09419506027993285 
3 87 108 131 0.03694618802580951 
3 62 64 6 0.02786536471253409 
3 48 103 123 0.004941619811847153 
3 205 58 12 0.07857999055310927 
3 100 161 24 0.0620041452787965 
3 22 46 147 0.06254914897687602 
3 58 149 201 0.0233086381361477 
3 138 23 174 0.008559143482563814 
3 160 112 0 0.04115458720111587 
3 179 187 180 0.01843156237511689 
3 70 172 4 0.009905517614727022 
3 49 173 115 0.03177499098915026 
3 93 57 146 0.2220743961251896 
3 79 143 129 0.01337231114451276 
3 55 31 131 0.01445693053032382 
3 54 167 3 0.03433386484721146 
3 173 103 48 0.01747301189021955 
3 159 169 93 0.1874607972611904 
3 72 7 126 0.3239480744407449 
3 61 6 156 0.1037862049829842 
3 131 203 25 0.003862963559689292 
3 92 130 193 0.8592450083367101 
3 145 45 13 0.18102608317909 
3 148 171 128 0.00586995249257749 
3 184 179 164 0.05362777379760542 
3 132 46 84 0.02929906222445311 
3 63 173 49 0.02627769094487331 
3 187 9 163 0.2605091236433404 
3 155 94 96 0.01433658685312167 
3 133 16 184 0.01578274053690787 
3 67 120 5 0.003488158233940886 
3 157 17 206 0.03258154296105165 
3 182 86 94 0.003360166217246885 
3 19 196 165 0.2144092854306009 
3 107 197 99 0.04072019449365993 
3 199 134 153 0.06273984415766076 
3 134 199 27 0.05497133539308896 
3 199 38 194 0.070391552780941 
3 90 205 196 0.01442090364995274 
3 135 10 142 0.07987965492277349 
3 143 36 129 0.05182905506320779 
3 196 12 165 0.1108753540169625 
3 12 207 165 0.02302737365160012 
3 210 68 195 0.02431389696115538 
3 192 208 177 0.02369619819579361 
3 198 139 96 0.02770751018788697 
3 162 121 177 0.02126775470373266 
3 198 60 139 0.01422090123791631 
3 182 94 11 0.1616933190171074 
3 63 49 67 0.009982963055505167 
3 187 163 175 0.08727115145389841 
3 34 39 85 0.02686545781847149 
3 11 200 182 0.1977765920642939 
3 119 73 124 0.1271813021494054 
3 123 200 47 0.05465041917903557 
3 105 200 123 0.3240791720339141 
3 58 201 12 0.03281540698786178 
3 12 201 207 0.005376843493131722 
3 31 122 134 0.003332675484668868 
3 34 0 39 0.04373808869583973 
3 101 38 199 0.0807109625420549 
3 14 109 98 0.000559734524915978 
3 140 101 211 0.1721492021169965 
3 14 98 69 0.0008006678522876065 
3 190 201 149 0.03261765610583367 
3 184 74 202 0.01935559337382231 
3 71 202 74 0.00882994814798721 
3 116 204 67 0.01747653038194286 
3 203 31 148 0.01179592227118731 
3 17 104 206 0.1883357153097455 
3 157 190 149 0.03182955047789049 
3 184 202 133 0.01887376998394608 
3 97 133 202 0.004115852999898251 
3 113 205 34 0.05166115012279471 
3 60 0 90 0.002264217185650064 
3 157 206 190 0.007469565390151756 
3 204 120 67 0.01314622806147481 
3 65 90 196 0.01208703681634082 
3 68 211 101 0.03890439825657588 
3 177 208 91 0.05762890532869946 
3 209 190 206 0.008182019702285048 
3 65 60 90 0.01425078308839933 
3 110 17 157 0.3243722744638263 
3 140 211 192 0.09253539362847496 
3 206 104 209 0.08164261116703364 
3 115 159 185 0.2649320633299096 
3 207 209 104 0.01397172257758039 
3 201 209 207 0.04968010400625855 
3 19 21 65 0.06108309437188564 
3 190 209 201 0.07040322047305925 
3 208 210 91 0.02983909311745458 
3 21 17 110 0.3243722744638263 
3 210 211 68 0.06784439886267712 
3 208 192 211 0.09335444650524405 
3 43 159 115 0.2649320633299096 
3 136 119 78 0.166896093112076 
3 85 94 155 0.1456034281779101 
3 211 210 208 0.01669824332594849 
3 3 136 78 0.1734284350907234 
3 85 155 113 0.1152057332286061 
