ply
format ascii 1.0
comment VCGLIB generated
element vertex 33
property double x
property double y
property double z
property uchar red
property uchar green
property uchar blue
property uchar alpha
property double quality
element face 62
property list uchar int vertex_indices
property double quality
end_header
122.2007877902063 150.7369461010957 1035.225278469429 255 255 255 255 0.1709958242683555 
122.5092639079583 150.2901780208771 1035.643573005863 255 255 255 255 0.221803151279209 
121.352934659493 150.1717699461977 1034.971429739711 255 255 255 255 0.3410158496425319 
122.0483627191905 150.7082003210459 1036.363784892994 255 255 255 255 0.2493282560529646 
121.2037021626251 150.2459566606055 1034.450317836378 255 255 255 255 0.3232895540476369 
121.7996788455033 149.847541702557 1035.305527140614 255 255 255 255 0.2578444058990163 
122.0896840478871 150.7913940139065 1034.819139230812 255 255 255 255 0.1385064653797333 
121.333982213874 150.6134241002356 1034.93443132179 255 255 255 255 0.2738645210643832 
121.6518392445573 149.9205334605313 1034.769653202845 255 255 255 255 0.2407946261827717 
121.8416924960492 150.8023000661428 1035.530491873344 255 255 255 255 0.2432384466811914 
121.7254644546033 150.858511043256 1035.09492096654 255 255 255 255 0.2154105497090939 
121.5970630417668 150.4873293795311 1035.9294497134 255 255 255 255 0.2586910619042068 
122.3439264124825 150.6698968647443 1035.785315337061 255 255 255 255 0.2069409291118753 
122.620924581066 150.2399611008332 1036.0986989614 255 255 255 255 0.251176793904853 
121.5763947314426 150.9335424478723 1034.568115074462 255 255 255 255 0.2153098660312845 
122.260494581178 149.9264229823694 1035.402930764437 255 255 255 255 0.1851540095552708 
121.6771492698199 150.0179421390804 1036.228231708761 255 255 255 255 0.3237958905743036 
121.4946834899616 150.5349742490202 1035.526387771555 255 255 255 255 0.2963055166303103 
122.4901426004979 150.6046307211378 1036.384555118156 255 255 255 255 0.255912647446644 
121.5137165196355 150.0921784691537 1035.570816820437 255 255 255 255 0.2930058264710085 
122.349903918912 150.3658152764384 1035.027167517618 255 255 255 255 0.1246919596195849 
122.1229428602554 149.9930816261977 1034.883189041582 255 255 255 255 0.1709871386178561 
122.2075234597839 150.4363662619771 1034.515515663502 255 255 255 255 0.1033724836225772 
121.9158628604663 150.8802354712195 1034.213314507699 255 255 255 255 0.1579553220562583 
121.7319025802888 150.4269389970175 1036.482119202846 255 255 255 255 0.2249760237857366 
121.1790218410141 150.6927832201845 1034.397576951742 255 255 255 255 0.3129965401899753 
122.2001594422702 150.1527211609654 1036.473530392075 255 255 255 255 0.2117767103685142 
121.6737306776576 150.6917434012116 1034.126470752987 255 255 255 255 0.2127801661594634 
122.0046528609628 149.7535068725524 1036.125055851089 255 255 255 255 0.2433949539301394 
122.4111797722376 149.8576306618186 1036.011758470612 255 255 255 255 0.2254400855155037 
121.9856779801352 150.061629753402 1034.398755667079 255 255 255 255 0.1759655020644282 
121.9221165533997 150.5274682685759 1034.262982365562 255 255 255 255 0.1955745198756828 
121.6428199381855 150.2634004384164 1034.332466626547 255 255 255 255 0.2540250948078333 
3 22 6 20 0.01103272230823982 
3 21 22 20 0.03982111594053084 
3 27 14 23 0.1659790399687626 
3 23 22 31 0.4339616231471174 
3 16 24 11 0.0856167500258096 
3 19 5 28 0.05861462511213067 
3 26 13 18 0.01378835833547953 
3 5 15 28 0.03789472629228463 
3 10 9 0 0.009638842674710379 
3 11 24 3 0.0101475245497582 
3 10 14 7 0.01190435578358029 
3 12 0 9 0.03243789573211397 
3 19 2 5 0.07730466997298469 
3 21 30 22 0.05163561507124126 
3 15 21 20 0.04113451786563849 
3 2 7 4 0.3544253645026987 
3 11 17 19 0.3340559757563158 
3 19 28 16 0.1809407730662643 
3 12 9 3 0.0406959350803151 
3 20 6 0 0.05909894478054689 
3 24 16 26 0.03743511762760088 
3 21 15 5 0.01627256970039681 
3 0 6 10 0.02470867191513249 
3 17 9 10 0.09943785147006756 
3 15 1 29 0.03781323556474669 
3 3 18 12 0.03116265496320303 
3 11 3 9 0.03789645553391663 
3 23 14 6 0.04508118460103028 
3 10 6 14 0.04140054316748598 
3 11 9 17 0.1011117563203113 
3 14 25 7 0.01275876108428009 
3 3 24 26 0.05675954105857173 
3 32 4 25 0.1893947504434673 
3 6 22 23 0.05406841856940248 
3 1 15 20 0.04284612472866434 
3 7 17 10 0.03891201957178059 
3 18 3 26 0.131200484334394 
3 14 27 25 0.02421566304396006 
3 26 16 28 0.0391836379620879 
3 27 31 32 0.1422034040499819 
3 8 21 5 0.01439160669763251 
3 2 8 5 0.1033600009957127 
3 32 25 27 0.04162193471709641 
3 29 1 13 0.0680948732762402 
3 29 28 15 0.04381312251377434 
3 28 29 26 0.001283176410199371 
3 26 29 13 0.03722936718427694 
3 30 21 8 0.002421533205033799 
3 23 31 27 0.002071943810111443 
3 8 2 4 0.1027427034332113 
3 31 30 32 0.06798015044271788 
3 30 31 22 0.044093243703063 
3 8 4 32 0.07497371881263526 
3 32 30 8 0.08268424580173117 
3 1 18 13 0.2887629407506292 
3 0 1 20 0.140374559133115 
3 2 19 17 0.1114284917119365 
3 7 25 4 0.3544253645026987 
3 11 19 16 0.3340559757563158 
3 2 17 7 0.1141909939445129 
3 12 18 1 0.2887629407506292 
3 12 1 0 0.140374559133115 
