ply
format ascii 1.0
comment VCGLIB generated
element vertex 421
property double x
property double y
property double z
property uchar red
property uchar green
property uchar blue
property uchar alpha
property double quality
element face 838
property list uchar int vertex_indices
end_header
49.69980080512565 43.65933741701618 950.2424912946772 255 255 255 255 0 
49.61481821418572 43.66635642082205 950.230967783073 255 255 255 255 0 
49.69994860809423 43.60770819861677 950.2013334258282 255 255 255 255 0 
49.7587894491652 43.58551669035528 950.1652395988214 255 255 255 255 0 
49.82905335162312 43.59512378389132 950.1330315295736 255 255 255 255 0 
49.84133207874687 43.64810537262901 950.1858404254582 255 255 255 255 0 
46.76361212366413 45.02684356292384 947.0192627772932 255 255 255 255 0 
46.78574082470564 45.06577197205564 947.0923688865373 255 255 255 255 0 
46.72695968738155 45.07989646315622 947.0142988542568 255 255 255 255 0 
46.68089574503819 45.16662460364239 946.865012439979 255 255 255 255 0 
46.68740222010788 45.18864055243179 946.9752719340348 255 255 255 255 0 
46.68021055719693 45.22399905083446 946.8952023942965 255 255 255 255 0 
46.7748958757637 45.2708323615178 946.7083698445333 255 255 255 255 0 
46.72152613875146 45.23222604131865 946.7589341079611 255 255 255 255 0 
46.74413963550643 45.31421760986611 946.7731083592696 255 255 255 255 0 
47.09424182882788 45.0334638275308 946.7237474144921 255 255 255 255 0 
47.11839990189577 44.99384216315703 946.7997078270931 255 255 255 255 0 
47.03450744188788 44.99573953165058 946.723343015884 255 255 255 255 0 
47.14684973583115 45.18871131768316 946.706211607374 255 255 255 255 0 
47.1666978507654 45.11661323646274 946.736060778301 255 255 255 255 0 
47.07247289902508 45.11712564361878 946.664357028186 255 255 255 255 0 
47.31415685658162 45.31374712674571 947.0755001457264 255 255 255 255 0 
47.43797790944694 45.20093657979103 947.1652485870634 255 255 255 255 0 
47.26847360946894 45.21555022700595 946.9422102150244 255 255 255 255 0 
46.91003473597247 45.04577854235512 946.6705765197 255 255 255 255 0 
46.86987235275862 45.11640020250663 946.6495430825501 255 255 255 255 0 
46.95299399133035 45.11557996076445 946.6364315162152 255 255 255 255 0 
47.03600286281431 45.26173525960654 946.6495377091878 255 255 255 255 0 
47.063825973849 45.18864561338792 946.6497602396807 255 255 255 255 0 
46.99112206978461 45.18912826696734 946.6291216012681 255 255 255 255 0 
46.71861629826324 45.18897107118677 947.0468495081282 255 255 255 255 0 
46.70748017270103 45.25478943797466 947.0083423025909 255 255 255 255 0 
47.43190338504507 45.25713322166357 947.1995563782179 255 255 255 255 0 
46.84970080324241 45.2944307390158 946.6693476658299 255 255 255 255 0 
46.92985169279881 45.29929182727947 946.6505925037421 255 255 255 255 0 
46.88047413755659 45.24492452697194 946.6430721567048 255 255 255 255 0 
46.95281897588523 45.26277846832814 946.6365454976561 255 255 255 255 0 
47.55047082436166 45.19830527869955 947.3189259916286 255 255 255 255 0 
46.84191632838336 45.18890719282962 946.6498550924297 255 255 255 255 0 
46.81941040092834 45.22556502562146 946.6638288532922 255 255 255 255 0 
49.93249679768237 43.70084560947179 949.9020839490303 255 255 255 255 0 
49.85571866155589 43.6257973808981 949.8669169427141 255 255 255 255 0 
49.89506960983171 43.70189584045917 949.8423721455117 255 255 255 255 0 
49.48503167667408 43.78113434183996 950.1787977577045 255 255 255 255 0 
49.49097400030198 43.67913713926954 950.136959108726 255 255 255 255 0 
49.53810811803039 43.68698607526714 950.1977721814969 255 255 255 255 0 
46.91465870326664 45.18923388505087 946.6291628494009 255 255 255 255 0 
47.17592449638071 45.27368558261811 946.7640161670136 255 255 255 255 0 
47.1937792315227 45.19533168292397 946.7700267851221 255 255 255 255 0 
47.70264719905569 44.62229346494869 948.0545046729292 255 255 255 255 0 
47.86542452722306 44.5393359100204 948.2267946120825 255 255 255 255 0 
47.81005606912034 44.80357179552269 948.1022411015382 255 255 255 255 0 
46.75931644662445 45.18914264130882 946.7060333010496 255 255 255 255 0 
46.79571955886597 45.13032538842842 946.6835133972343 255 255 255 255 0 
46.74389005076612 45.12357174553059 946.7349437914913 255 255 255 255 0 
47.70063638821262 44.55611585173022 947.7007711717091 255 255 255 255 0 
47.70509761676717 44.54447507638348 947.653488016597 255 255 255 255 0 
47.77127326607128 44.51222038955942 947.7228258954112 255 255 255 255 0 
46.77473502871587 45.04734922583221 946.7468644784292 255 255 255 255 0 
46.72062011535891 45.08551966201163 946.796142701254 255 255 255 255 0 
48.23427853598995 44.71411338081294 948.5283908031475 255 255 255 255 0 
48.02553030183518 44.46012934374637 948.4012428709818 255 255 255 255 0 
48.18581545364139 44.37985825098315 948.5770289888691 255 255 255 255 0 
46.75828181629119 45.29133221072612 947.0679150802072 255 255 255 255 0 
46.76189429155455 45.23295280800487 947.095544564374 255 255 255 255 0 
46.93040006496052 45.35968663650266 946.6869010666605 255 255 255 255 0 
48.76099059604893 44.48939433962108 949.0052282116104 255 255 255 255 0 
48.54841107891485 44.56036508390456 948.8780536677286 255 255 255 255 0 
48.70386291076171 44.48232042355097 949.0556744925499 255 255 255 255 0 
49.76533783722507 43.97117313972029 950.2170483182549 255 255 255 255 0 
49.78293149630246 43.87628509674504 950.2605943724441 255 255 255 255 0 
49.80794287214781 43.91498314761577 950.2353431065353 255 255 255 255 0 
49.51359431617442 43.72542499309378 949.6103868082575 255 255 255 255 0 
49.43707845971981 43.66323141315502 949.6442552490928 255 255 255 255 0 
49.32349263611675 43.72433701840519 949.4997325354202 255 255 255 255 0 
46.9963289626854 45.33169289453144 946.6703337672882 255 255 255 255 0 
46.82768310866108 45.060027149353 946.6932513515818 255 255 255 255 0 
46.9998330709232 44.88636260415019 946.912636983945 255 255 255 255 0 
46.95304088852085 44.93682894276149 946.7909765893698 255 255 255 255 0 
47.02476722101468 44.95128992311523 946.7825903722872 255 255 255 255 0 
48.61940445538248 44.63215131271726 948.6131860625035 255 255 255 255 0 
48.39501680475895 44.64014600095258 948.6996776581921 255 255 255 255 0 
49.65531763269267 43.73130004914641 950.2699767624836 255 255 255 255 0 
49.59494224244846 43.76801668958326 950.2597356128763 255 255 255 255 0 
47.07029986137817 45.37850671738471 946.7400000340131 255 255 255 255 0 
47.07810922038191 45.31833966738432 946.693358061833 255 255 255 255 0 
46.73733862228872 45.35900652542297 946.8797557133347 255 255 255 255 0 
46.69832497134993 45.28771756519227 946.9382285933044 255 255 255 255 0 
46.75975396323222 45.38028761224628 946.9464749023574 255 255 255 255 0 
47.13096877206869 45.33069928505919 946.7465599753943 255 255 255 255 0 
47.11870015667499 45.38381388779379 946.7994922918401 255 255 255 255 0 
49.55506923059579 43.80429346163451 950.2423250154268 255 255 255 255 0 
49.63938999411636 43.84031942531672 950.2743106366934 255 255 255 255 0 
49.58012484604794 43.87550449929909 950.2455468784192 255 255 255 255 0 
46.9756439524683 44.97412321653169 947.2895109536711 255 255 255 255 0 
47.03537774472258 44.89045974147319 947.0684693995771 255 255 255 255 0 
47.1674193485032 44.80633395751673 947.0843234742366 255 255 255 255 0 
46.81150898570012 45.34401459791424 946.7235205789991 255 255 255 255 0 
46.71490417069209 45.05511579249158 946.9379452315991 255 255 255 255 0 
46.78207840212257 44.97402751214278 946.9240309930126 255 255 255 255 0 
49.86706480173136 44.01316177602737 950.0732388089356 255 255 255 255 0 
49.87070410639807 44.01912849858609 949.9857818630708 255 255 255 255 0 
49.81240037498113 44.05422133019376 950.0317471225233 255 255 255 255 0 
49.77321461209132 44.06867753755781 950.0194346692862 255 255 255 255 0 
47.26483599361058 45.07293227006783 946.8379141581012 255 255 255 255 0 
47.36082088588266 45.02269663958075 946.937703505151 255 255 255 255 0 
49.93158306691726 43.84723488622338 949.8651203178913 255 255 255 255 0 
49.9492297242364 43.76530155676463 949.8990586940869 255 255 255 255 0 
49.90597215364669 43.80648812841105 949.8264684094489 255 255 255 255 0 
47.08667772734305 45.22507754776188 946.6637910496844 255 255 255 255 0 
47.0114664466978 45.40715118428486 946.7442095247959 255 255 255 255 0 
46.92288461699759 45.4172554142932 946.7522458598875 255 255 255 255 0 
46.76162170283682 45.14503865130812 947.0952669933615 255 255 255 255 0 
46.69097129187576 45.23367230391715 946.8294628677356 255 255 255 255 0 
46.71470022135326 45.32259122265692 946.8662889611501 255 255 255 255 0 
46.95290135746093 45.44118331593153 946.7910077060025 255 255 255 255 0 
46.98970532959147 45.45530721186756 946.8416100849215 255 255 255 255 0 
47.05857724378133 45.42166168547259 946.7988688390013 255 255 255 255 0 
46.9164481949695 45.46117256709495 946.8797012936548 255 255 255 255 0 
46.91638962064561 45.45526521059743 946.9626599397905 255 255 255 255 0 
46.98955798121208 45.46115657023722 946.9246013717292 255 255 255 255 0 
47.63925208026318 44.57653818080662 947.5839030633819 255 255 255 255 0 
46.83592335923494 45.37846056655629 946.7397942421093 255 255 255 255 0 
48.13683639074862 44.90172113141185 947.9861920943189 255 255 255 255 0 
48.1318342398174 44.84231497449545 948.179744873613 255 255 255 255 0 
48.27886376116999 44.84427660146127 948.0961640099505 255 255 255 255 0 
46.70154405110561 45.16639676680175 946.7916672342799 255 255 255 255 0 
48.51303718484102 44.72768524486229 948.3575726315429 255 255 255 255 0 
48.20177787805973 44.78628956081104 948.325026584381 255 255 255 255 0 
46.88009668673702 45.44150702150507 946.8193116787075 255 255 255 255 0 
46.69647067962725 45.12192487323577 946.8296163993119 255 255 255 255 0 
46.73462485234638 45.03160526215505 946.8432126891981 255 255 255 255 0 
46.99640099600986 45.04587494587097 946.6706030968417 255 255 255 255 0 
47.02454394335499 45.42687620075563 947.0211917139704 255 255 255 255 0 
47.06352900842634 45.44036842112416 946.9244210397516 255 255 255 255 0 
46.98893438620755 45.44384071093697 947.0003397738595 255 255 255 255 0 
49.05762529692137 43.86704025198126 949.1659136919311 255 255 255 255 0 
49.09848505009578 43.97403769042229 949.0594777497281 255 255 255 255 0 
49.28514646603259 43.88549243656945 949.2760923883906 255 255 255 255 0 
49.54240496802638 43.74556120242221 950.2263145791849 255 255 255 255 0 
46.68787966887035 45.11401624823505 946.902194345717 255 255 255 255 0 
46.88171020096422 45.42673680981743 947.0216310068787 255 255 255 255 0 
46.84281524684123 45.44053515288797 946.9244502724689 255 255 255 255 0 
46.81522678856174 45.41188758440908 946.987186308958 255 255 255 255 0 
49.84211891828058 43.80431980743607 950.2438288826013 255 255 255 255 0 
49.89328050919929 43.80352821242251 950.2043205031334 255 255 255 255 0 
49.85759681343549 43.86263629379032 950.2262650866541 255 255 255 255 0 
47.5079220761451 45.07737483328115 947.7392731714459 255 255 255 255 0 
47.61630029206607 45.01943168962393 947.8607532785728 255 255 255 255 0 
47.67827124087144 45.06296672281944 947.6995637200926 255 255 255 255 0 
49.69982616505973 43.94871118463976 950.2424640568385 255 255 255 255 0 
49.70020510860537 43.99994810610796 950.2016998420631 255 255 255 255 0 
49.41336306164171 43.99428508848933 949.2179335225198 255 255 255 255 0 
49.51869001930307 43.9444628751222 949.3457835881466 255 255 255 255 0 
46.78574756622918 45.39795649436643 946.8365768355966 255 255 255 255 0 
46.80567161528089 45.42156698254456 946.900188054763 255 255 255 255 0 
49.88166397138026 43.69579041721479 950.1834052234053 255 255 255 255 0 
49.85700237496901 43.74502695472 950.2265830561371 255 255 255 255 0 
49.82148359524005 43.67923052394681 950.2209990300696 255 255 255 255 0 
46.79717242680354 45.36715203807934 946.7609914235559 255 255 255 255 0 
46.84689239264823 45.4212618512331 946.7985474992349 255 255 255 255 0 
49.63309408757593 43.90838912232417 950.2539006817211 255 255 255 255 0 
49.12555242577223 44.15304294261159 948.8648925028293 255 255 255 255 0 
48.97252539011409 44.22453504865217 948.6874138658936 255 255 255 255 0 
49.03732466010415 44.34446136707349 948.8654157856481 255 255 255 255 0 
49.73458540833615 44.04197915640741 950.1422664743671 255 255 255 255 0 
47.00752151489092 45.1379776523225 946.6374727127377 255 255 255 255 0 
49.30732126529298 44.05166376193934 949.0859690526777 255 255 255 255 0 
49.8171694585017 43.9935011523412 950.1700996694453 255 255 255 255 0 
49.6183376268938 43.61036729642328 950.1861914395993 255 255 255 255 0 
49.92261079056194 43.71842607309201 950.1459354735545 255 255 255 255 0 
47.13135844335871 45.27052552029559 946.708457047716 255 255 255 255 0 
46.8815063370746 45.01752817546932 947.1888650805797 255 255 255 255 0 
46.97521947805063 44.97296187214406 946.7324418548911 255 255 255 255 0 
46.88129145383424 44.95147058123026 946.782205094987 255 255 255 255 0 
49.76532425159565 43.63676340153302 950.2170016811699 255 255 255 255 0 
49.48178356000501 43.64627036364626 950.0664003466046 255 255 255 255 0 
49.350952289347 43.77684211132502 949.9778062558802 255 255 255 255 0 
49.52893998925727 43.58913836870096 949.9860650151516 255 255 255 255 0 
49.77087519473556 43.81444008705488 950.273467976545 255 255 255 255 0 
46.95278453565416 45.42336096246058 947.0468795259455 255 255 255 255 0 
47.06280497980754 45.44061553309636 946.8788397592616 255 255 255 255 0 
46.84373551574821 44.93934253415138 946.8665091933442 255 255 255 255 0 
46.78582645930909 44.97990675487687 946.8368142330776 255 255 255 255 0 
46.87165574663612 44.99549446638714 946.723524215047 255 255 255 255 0 
46.81492124079267 44.96633798418997 946.9872412376121 255 255 255 255 0 
49.89344160121826 43.98228809885694 949.9261110909613 255 255 255 255 0 
49.91606191519188 43.97354730393555 950.0298769634088 255 255 255 255 0 
48.72186455535886 44.11224742399106 949.197509397198 255 255 255 255 0 
48.74380905846653 44.34806914655694 949.1433304174482 255 255 255 255 0 
48.63808434845284 44.25358143378794 949.0672297370052 255 255 255 255 0 
48.63356291825264 44.31456508964384 948.3960681782345 255 255 255 255 0 
48.82414972914013 44.30739633017906 948.5138114477426 255 255 255 255 0 
48.76207869260715 44.17203170696538 948.6336011717643 255 255 255 255 0 
49.91860935384602 43.64679656849837 949.9496365761007 255 255 255 255 0 
49.95347829878705 43.71403564277541 949.9515150250859 255 255 255 255 0 
49.9384437472819 43.67070827249245 950.0439291260897 255 255 255 255 0 
49.23203448300108 44.36070014628037 949.1837148707928 255 255 255 255 0 
49.24270976408596 44.24711585821355 949.1171887328569 255 255 255 255 0 
49.18014501853405 44.31736055319627 949.0690667556677 255 255 255 255 0 
49.20134054615627 44.05112028403119 949.7209301405329 255 255 255 255 0 
49.3471401754696 44.14241830209847 949.8438344977974 255 255 255 255 0 
49.17517075548111 44.1378260236733 949.6628124841616 255 255 255 255 0 
47.06101105416835 45.28855071186573 947.279588351973 255 255 255 255 0 
46.95368685092668 45.34271272855413 947.1659914228342 255 255 255 255 0 
46.94783338512794 45.14781227737414 947.2172902132598 255 255 255 255 0 
46.8237039785803 44.98036058642111 946.7768388216826 255 255 255 255 0 
46.70047112615426 45.10624316163477 946.974765491529 255 255 255 255 0 
49.81024044360623 43.55251023027293 949.9852824621855 255 255 255 255 0 
49.80589003759929 43.57164994950377 949.9044920993372 255 255 255 255 0 
49.86703817952164 43.59487926520337 949.9425630661448 255 255 255 255 0 
49.96208573204851 43.84866167706667 950.0803375360039 255 255 255 255 0 
49.97214720035255 43.82656585525536 949.9713469871392 255 255 255 255 0 
49.96495178011794 43.879562331951 950.0083336651414 255 255 255 255 0 
49.23678362734842 44.04691133009437 949.0505075954727 255 255 255 255 0 
49.21844883859385 44.10346107744252 948.976217709858 255 255 255 255 0 
49.77274798907639 43.55159583949634 950.091161875753 255 255 255 255 0 
49.70016644626492 43.55373419763175 950.1226943600799 255 255 255 255 0 
49.86725459239472 43.595013560075 950.0733260502461 255 255 255 255 0 
49.81685380435602 43.55658523458546 950.0352163298788 255 255 255 255 0 
46.73703418981069 45.3310863607276 946.9973217161687 255 255 255 255 0 
49.66372783974673 43.531814840924 950.0305834127283 255 255 255 255 0 
49.68024784523578 43.53825529399896 949.940698155619 255 255 255 255 0 
49.73689667242886 43.5318898787827 950.0305666106283 255 255 255 255 0 
47.71051829041485 44.72353458357334 947.4479729688879 255 255 255 255 0 
47.47889327680228 44.65632781828874 947.4081245683026 255 255 255 255 0 
47.51626075129145 44.78347093135779 947.2828393936745 255 255 255 255 0 
49.90858723087487 43.92944481805824 950.1370903779095 255 255 255 255 0 
49.86156607395074 43.92120430567557 950.1979129543539 255 255 255 255 0 
49.90916364873636 43.86920294819426 950.1750758292296 255 255 255 255 0 
49.85956161201542 43.9803974364379 950.1463313585959 255 255 255 255 0 
46.8428848178304 44.9374781662515 946.9249329583272 255 255 255 255 0 
47.26409426791474 44.78396530005256 947.3276939069195 255 255 255 255 0 
47.32290375183327 44.73112385112827 947.2464535522066 255 255 255 255 0 
46.79724797234974 45.36712732277638 947.0431450890768 255 255 255 255 0 
46.82785851744732 45.31815693465006 947.1107449425314 255 255 255 255 0 
46.84521163423418 45.39016480068398 947.0551533365359 255 255 255 255 0 
49.69993324051218 43.87756124670545 950.2735269612853 255 255 255 255 0 
49.55085163853743 43.60216428274156 949.7886758611307 255 255 255 255 0 
49.37278021760233 43.71988970552314 949.7188096029159 255 255 255 255 0 
47.26113333546139 44.8351064693023 947.5861188756244 255 255 255 255 0 
47.34644497768343 45.02707414100468 947.6123101073061 255 255 255 255 0 
47.16020286793346 45.01957970747122 947.445381488201 255 255 255 255 0 
49.49402530852011 44.15287900457211 949.4558675724454 255 255 255 255 0 
49.31556521343743 43.9082273175136 949.8941675628275 255 255 255 255 0 
49.39525617146578 43.89010571535356 949.9868052180761 255 255 255 255 0 
47.55430543196406 44.9087324580659 947.8359338642421 255 255 255 255 0 
47.64454742466924 44.90394287811243 947.9201443753182 255 255 255 255 0 
49.76567423624423 43.69764210320245 950.2535433364709 255 255 255 255 0 
49.79872922235741 43.76736990254811 950.2626025967787 255 255 255 255 0 
49.93819251159731 43.93766665980036 949.9717733136841 255 255 255 255 0 
48.58233804439245 44.36332169126364 948.9762500212296 255 255 255 255 0 
48.68027688813216 44.45746456357283 949.0438655343916 255 255 255 255 0 
48.10633605247511 44.78266980001975 948.3830133594015 255 255 255 255 0 
47.9722091682019 44.84883742354723 948.2372931491715 255 255 255 255 0 
49.62203770332934 43.54459428721131 949.9599791198317 255 255 255 255 0 
49.58992594315052 43.55242983503408 950.0306541488446 255 255 255 255 0 
49.59416033614869 43.57173400998995 950.1117203802793 255 255 255 255 0 
49.7402172817546 44.09018162883056 949.8204215902829 255 255 255 255 0 
47.76321113040873 45.09630298134895 947.5497873794988 255 255 255 255 0 
47.79360673716624 45.05689778316723 947.6608912461802 255 255 255 255 0 
47.90348413045571 45.02832595660615 947.6935036596942 255 255 255 255 0 
49.7726753189604 44.05651225387942 950.0908978610166 255 255 255 255 0 
49.7369825689257 43.53779662182943 949.947348532314 255 255 255 255 0 
49.50092765126496 43.91312696693079 950.1627924840742 255 255 255 255 0 
49.50890518636961 43.84781160263922 950.2015751486113 255 255 255 255 0 
49.811427565045 44.030882182572 950.1163779890031 255 255 255 255 0 
48.07729477779974 44.7207507660066 948.3772685981827 255 255 255 255 0 
49.59234307264258 44.1020729599089 949.8593714685682 255 255 255 255 0 
49.60897871735147 44.16031660770519 949.6595562804861 255 255 255 255 0 
49.50216624643108 44.05894111180118 950.0412374266829 255 255 255 255 0 
49.69970321993592 44.06907972589737 950.0831335784354 255 255 255 255 0 
48.98503283593236 44.00568599852394 948.9563056047423 255 255 255 255 0 
49.95243757053404 43.88673901454354 949.9349264579898 255 255 255 255 0 
49.91216736483616 43.93654563846621 949.8940978063833 255 255 255 255 0 
48.72557754815839 44.62126405008254 948.5939808340622 255 255 255 255 0 
48.92820039762275 44.51741155954852 948.8213379734341 255 255 255 255 0 
48.83976038683272 44.46100598317592 948.6467043262465 255 255 255 255 0 
49.89481109131784 43.90663681613559 949.8423826462304 255 255 255 255 0 
48.40246777068569 44.51387100655205 948.0429322786644 255 255 255 255 0 
48.24096847535871 44.45131989553921 948.0296247452733 255 255 255 255 0 
48.26246120764179 44.5873916041669 947.8896896029642 255 255 255 255 0 
49.1090490001074 44.42480072797065 949.0359845500577 255 255 255 255 0 
49.6887506076113 43.84986538517964 949.5617905188486 255 255 255 255 0 
47.16860832830935 45.33125527527221 946.8061746879914 255 255 255 255 0 
49.55851948056848 43.95919445900692 950.1863542687073 255 255 255 255 0 
48.30485229558524 44.40860107884448 948.6895029500383 255 255 255 255 0 
48.35387509020637 44.52275926610681 948.7019563866966 255 255 255 255 0 
47.89959112491861 44.45094553510337 947.8543732727785 255 255 255 255 0 
48.09120267300138 44.48012685351899 947.9189393366597 255 255 255 255 0 
48.10686785671341 44.35041820620751 948.0758502291176 255 255 255 255 0 
47.37297061105026 45.24682893371943 947.2647389534199 255 255 255 255 0 
47.28224778796411 45.25618821736979 947.2806015967117 255 255 255 255 0 
47.33110522829477 45.21645530725983 947.3831003837789 255 255 255 255 0 
49.6414131677999 44.02241249501969 950.1654172865077 255 255 255 255 0 
49.72275216431358 43.76702222239681 950.2800801482061 255 255 255 255 0 
49.63442487607696 43.97116651111885 950.2169727818697 255 255 255 255 0 
48.85556462195643 44.40501230586232 949.2325076169985 255 255 255 255 0 
49.53283288982055 43.59496478861676 950.0733936944712 255 255 255 255 0 
49.89594378282206 43.61029825455606 950.0082536879305 255 255 255 255 0 
48.09362219490312 44.39593849438134 948.3062877818843 255 255 255 255 0 
48.14180881646153 44.38651132938017 948.4410327300092 255 255 255 255 0 
49.80287515918095 43.63858595729245 949.8131676806166 255 255 255 255 0 
49.54454570444337 43.62576060026279 950.1493545562863 255 255 255 255 0 
49.93780585365769 43.92342984274735 950.0794091376489 255 255 255 255 0 
49.46660090295831 43.84549096165481 950.1478852381665 255 255 255 255 0 
49.37298020327435 44.21482482522186 949.5976336353262 255 255 255 255 0 
49.48130597282075 44.22914760703524 949.4945222390252 255 255 255 255 0 
49.97291571921145 43.76615921361469 950.0078440737391 255 255 255 255 0 
49.93455806515604 43.8040435723679 950.1525489956143 255 255 255 255 0 
49.95585597483866 43.8200122418427 949.9091398367227 255 255 255 255 0 
49.20849727353926 43.85218756354818 949.7960105276545 255 255 255 255 0 
49.11098471172363 43.88374037768123 949.5465049494156 255 255 255 255 0 
49.05985614956624 43.93555229419697 949.6099672915367 255 255 255 255 0 
49.10883549435435 44.06675547063769 949.6166713634045 255 255 255 255 0 
49.05031519185204 44.15726678889336 949.5236339635785 255 255 255 255 0 
49.8897526617074 43.64199231859438 950.1248742471697 255 255 255 255 0 
49.96192404993516 43.75903559360004 950.0807029855051 255 255 255 255 0 
49.7001315892457 43.55206427345826 949.896477649633 255 255 255 255 0 
49.11711254058885 44.16124182191525 949.5926455385903 255 255 255 255 0 
49.07976934338927 44.28749636948346 949.5047853600947 255 255 255 255 0 
49.16688500822032 44.23576181441351 949.6196996410007 255 255 255 255 0 
49.75871497534769 43.58530646393369 949.8510583366535 255 255 255 255 0 
47.93643867836422 44.45902714443019 948.0541028413576 255 255 255 255 0 
47.39054222743751 45.1328745172268 947.6191638357683 255 255 255 255 0 
48.55231776891186 44.12817920982173 948.5705519415689 255 255 255 255 0 
48.81542867081151 44.05854914714255 949.3051606897432 255 255 255 255 0 
48.87240772493916 44.18594198146499 949.3281713783583 255 255 255 255 0 
48.29263417001522 44.70007490697002 948.0115645242832 255 255 255 255 0 
47.11920353595776 44.90697016009336 947.4396490768679 255 255 255 255 0 
48.90864367188965 44.01091434390336 949.4214305813326 255 255 255 255 0 
47.50907081631625 45.1478653435692 947.5128774292023 255 255 255 255 0 
48.10550234386266 44.72369157125426 947.7618038456998 255 255 255 255 0 
47.9669814703631 44.72814705103252 947.5734094687425 255 255 255 255 0 
47.91148478373382 44.9438260434021 947.6429119056683 255 255 255 255 0 
49.20413828114276 44.28733651589254 949.4437009213336 255 255 255 255 0 
49.3448423334618 44.26000928754116 949.4632827425448 255 255 255 255 0 
49.35318062755299 44.29589887339391 949.3303107168705 255 255 255 255 0 
48.68415895960034 44.37550994857335 948.3548065009165 255 255 255 255 0 
48.67316100736189 44.47185990404554 948.4051523935905 255 255 255 255 0 
47.64726496923233 44.62430682253072 947.8727460515245 255 255 255 255 0 
48.39593625499311 44.4235563550092 948.7735890409537 255 255 255 255 0 
49.32289258649995 44.05682394983666 949.1082081467239 255 255 255 255 0 
47.55872985909225 44.65249438794898 947.6981237317557 255 255 255 255 0 
48.04187796746776 44.95866533293351 947.8367458117583 255 255 255 255 0 
48.16988687515447 44.82714821110866 947.9258381211481 255 255 255 255 0 
49.21363617279388 44.19211234234979 949.0317853930443 255 255 255 255 0 
48.34020488145577 44.30831065992096 948.7549307109956 255 255 255 255 0 
48.49971846911805 44.22144542654581 948.9332039677172 255 255 255 255 0 
48.47987259606187 44.38620162399292 948.86754078161 255 255 255 255 0 
48.062275182026 44.60562931129126 947.7604997813114 255 255 255 255 0 
48.73185671439798 44.56056966317179 948.7887827929853 255 255 255 255 0 
48.38633240471064 44.23939902117596 948.5731075688402 255 255 255 255 0 
47.48923759181334 44.72309627282394 947.8232998272275 255 255 255 255 0 
47.65047041648653 44.78669345890504 947.9593873887843 255 255 255 255 0 
48.9851884108699 44.33562872757556 949.3918744000533 255 255 255 255 0 
48.60794552560456 44.11895225498423 948.7775855501613 255 255 255 255 0 
47.8311320709168 45.01635909032624 947.7719789638468 255 255 255 255 0 
49.39943702784615 44.04335800855513 949.9370884713513 255 255 255 255 0 
47.6834436060627 45.03914349645741 947.3917358974288 255 255 255 255 0 
47.66963014779063 44.87402938560791 947.2595104726257 255 255 255 255 0 
47.58786125990297 45.05553369332503 947.2707348089453 255 255 255 255 0 
47.73140984449234 44.96466670331701 947.9817320645517 255 255 255 255 0 
46.91599698316005 44.92279296383533 946.8413828642921 255 255 255 255 0 
48.53971913230293 44.28289570218661 948.382535495836 255 255 255 255 0 
48.40198172458813 44.62127059222649 948.1138673255915 255 255 255 255 0 
47.95035182234748 44.92304959409279 948.0114709486824 255 255 255 255 0 
48.67037986300736 44.35453659590741 949.0671643099585 255 255 255 255 0 
48.27512100832468 44.29805870127922 948.4648258626867 255 255 255 255 0 
48.61094288188185 44.16603355958361 949.0656150853655 255 255 255 255 0 
48.60343790790937 44.14403563562703 948.9071366688577 255 255 255 255 0 
48.68149107449534 44.10539327030914 949.0073701906809 255 255 255 255 0 
47.8159747958375 44.79963558382654 947.4151481033792 255 255 255 255 0 
47.44223609651623 44.71514007667947 947.6077157879744 255 255 255 255 0 
47.47005325558103 44.71611322008986 947.7148021237834 255 255 255 255 0 
47.37503483140316 44.77937203337643 947.7049315634284 255 255 255 255 0 
48.54325653335451 44.44399726533573 948.1980872733632 255 255 255 255 0 
48.32810255966294 44.23803618810643 948.3239979282246 255 255 255 255 0 
47.85227684869329 44.90720734285527 948.1088906211148 255 255 255 255 0 
47.59518260742576 44.67505918489402 947.9398337125443 255 255 255 255 0 
49.15478853802956 44.35557483158611 949.2449175754658 255 255 255 255 0 
49.30509006134763 44.20871245640434 949.1894033166246 255 255 255 255 0 
47.71791715220851 45.08053319737584 947.6232468155456 255 255 255 255 0 
47.81269493835098 44.66402196302716 947.5670711767631 255 255 255 255 0 
47.19573002977904 45.37086142130374 946.9524696739717 255 255 255 255 0 
47.21297130420903 45.24809676910318 947.3414715197844 255 255 255 255 0 
49.40226898998705 44.2339779945663 949.5202209162351 255 255 255 255 0 
47.80435381877324 44.72947487415991 947.4886683710871 255 255 255 255 0 
49.17845457737238 43.80408788971619 949.3451781610532 255 255 255 255 0 
47.69632465788516 44.55907636911006 947.6271833208906 255 255 255 255 0 
48.3075031691192 44.36417906088326 948.1648555278056 255 255 255 255 0 
48.49697131380938 44.32916591444149 948.3058066902071 255 255 255 255 0 
48.9036712627418 43.97917469205861 949.2034440412145 255 255 255 255 0 
47.40710344082092 44.86361516162359 947.7140455500236 255 255 255 255 0 
47.24466165238147 45.2867717839459 947.2017233492061 255 255 255 255 0 
47.57434820817937 44.66134934210155 947.8035902389543 255 255 255 255 0 
48.35945316935742 44.24128008052858 948.4752069778334 255 255 255 255 0 
49.11007380137816 44.32621165551136 949.3631961557825 255 255 255 255 0 
49.19674797900149 43.79443953142705 949.3358625866578 255 255 255 255 0 
47.27595285866609 45.1896344543686 947.4967453367121 255 255 255 255 0 
47.50861626285322 45.02562228139683 947.1404227483241 255 255 255 255 0 
47.51495404741549 44.94758279846664 947.098416405699 255 255 255 255 0 
47.4316175419716 44.86925294805717 947.1440103280986 255 255 255 255 0 
48.78136627227615 44.00830766977276 948.8414019731272 255 255 255 255 0 
48.91999280395239 43.93756556137102 949.0026768004806 255 255 255 255 0 
47.41641499017308 44.78979593140019 947.2259030011277 255 255 255 255 0 
47.31600897372191 44.81338456959331 947.1492463589339 255 255 255 255 0 
48.66719996633685 44.06783796803264 948.7055455257504 255 255 255 255 0 
49.64966369306463 43.71200629629387 949.7090699438294 255 255 255 255 0 
48.47741899622281 44.21755599043465 948.4254558748676 255 255 255 255 0 
49.79851751536486 43.7906204611746 949.7017267522211 255 255 255 255 0 
46.81958566127141 45.22501415437024 947.1403687974293 255 255 255 255 0 
48.43842637678983 44.18212184584047 948.4518606398999 255 255 255 255 0 
48.11613319480284 44.65628284986435 947.7321153060687 255 255 255 255 0 
48.86262553304122 44.11852572403691 948.752485001998 255 255 255 255 0 
48.76496892844468 44.10437186611295 948.715193564514 255 255 255 255 0 
49.37237293289507 43.95965124128397 949.9373860746526 255 255 255 255 0 
47.16824397206878 45.23916537271629 947.3889016042834 255 255 255 255 0 
48.16122500226057 44.90103524274901 947.9657626987586 255 255 255 255 0 
47.14626395887652 45.18248529453776 947.3868875351078 255 255 255 255 0 
47.52475693676875 44.686134320211 947.7545917484905 255 255 255 255 0 
3 0 1 2 
3 3 4 5 
3 6 7 8 
3 9 10 11 
3 12 13 14 
3 15 16 17 
3 18 19 20 
3 21 22 23 
3 24 25 26 
3 27 28 29 
3 30 31 10 
3 22 21 32 
3 33 34 35 
3 35 34 36 
3 22 32 37 
3 35 38 39 
3 40 41 42 
3 43 44 45 
3 36 27 29 
3 46 35 36 
3 47 48 18 
3 49 50 51 
3 52 53 54 
3 12 39 52 
3 55 56 57 
3 54 58 59 
3 60 61 62 
3 63 31 64 
3 33 65 34 
3 66 67 68 
3 69 70 71 
3 72 73 74 
3 34 65 75 
3 35 39 33 
3 76 53 25 
3 77 78 79 
3 67 80 81 
3 1 82 83 
3 84 85 75 
3 86 87 88 
3 89 84 90 
3 91 92 93 
3 94 95 96 
3 12 97 33 
3 38 25 53 
3 36 34 75 
3 58 53 76 
3 46 38 35 
3 25 38 46 
3 52 39 38 
3 8 98 6 
3 98 99 6 
3 0 82 1 
3 100 101 102 
3 101 103 102 
3 104 105 16 
3 104 16 15 
3 53 58 54 
3 53 52 38 
3 12 33 39 
3 106 107 108 
3 85 109 27 
3 110 75 65 
3 65 111 110 
3 112 30 8 
3 113 114 14 
3 11 114 113 
3 115 116 117 
3 118 119 120 
3 55 121 56 
3 122 65 33 
3 123 124 125 
3 54 59 126 
3 33 97 122 
3 60 127 128 
3 75 27 36 
3 75 110 84 
3 118 115 129 
3 129 115 111 
3 65 122 111 
3 126 13 52 
3 130 59 131 
3 131 59 58 
3 75 85 27 
3 76 25 24 
3 83 92 91 
3 24 26 132 
3 133 134 135 
3 136 137 138 
3 14 114 86 
3 43 45 139 
3 29 46 36 
3 98 140 131 
3 140 130 131 
3 141 142 143 
3 144 145 146 
3 147 148 149 
3 150 69 151 
3 138 152 153 
3 154 86 155 
3 126 59 130 
3 156 157 158 
3 114 87 86 
3 12 14 97 
3 122 159 160 
3 93 92 161 
3 162 163 164 
3 111 160 129 
3 46 29 26 
3 151 69 165 
3 116 118 120 
3 20 15 132 
3 166 20 132 
3 54 126 52 
3 154 160 159 
3 138 167 152 
3 165 69 168 
3 108 107 42 
3 2 1 169 
3 157 170 145 
3 18 28 109 
3 166 132 26 
3 13 126 113 
3 52 13 12 
3 97 159 122 
3 122 160 111 
3 130 9 126 
3 11 113 9 
3 159 14 154 
3 14 159 97 
3 29 28 166 
3 46 26 25 
3 171 85 89 
3 27 109 28 
3 29 166 26 
3 20 166 28 
3 20 28 18 
3 7 172 112 
3 173 78 174 
3 175 2 3 
3 130 140 9 
3 176 177 178 
3 11 10 87 
3 13 113 14 
3 126 9 113 
3 70 179 144 
3 160 155 129 
3 173 79 78 
3 119 141 180 
3 181 90 117 
3 117 90 84 
3 117 84 110 
3 115 117 110 
3 111 115 110 
3 20 19 15 
3 182 99 183 
3 99 131 183 
3 24 184 76 
3 129 155 142 
3 115 118 116 
3 6 99 185 
3 186 101 187 
3 15 17 132 
3 76 184 58 
3 188 189 190 
3 180 133 135 
3 191 192 193 
3 194 195 196 
3 119 135 120 
3 197 198 199 
3 119 142 141 
3 200 201 202 
3 203 204 205 
3 99 98 131 
3 58 184 206 
3 173 132 17 
3 181 117 116 
3 183 58 206 
3 206 182 183 
3 182 206 174 
3 174 206 184 
3 24 132 173 
3 184 24 173 
3 173 174 184 
3 183 131 58 
3 14 86 154 
3 207 30 10 
3 207 8 30 
3 17 79 173 
3 208 209 210 
3 11 87 114 
3 211 212 213 
3 214 215 167 
3 216 4 3 
3 217 216 3 
3 218 216 219 
3 87 220 88 
3 221 222 223 
3 217 221 223 
3 224 225 226 
3 10 9 140 
3 120 134 181 
3 16 79 17 
3 227 228 229 
3 230 228 227 
3 182 231 99 
3 232 233 225 
3 234 235 236 
3 119 118 142 
3 120 181 116 
3 30 64 31 
3 237 179 70 
3 64 235 63 
3 238 178 239 
3 177 239 178 
3 240 241 242 
3 153 152 243 
3 244 177 245 
3 10 31 87 
3 207 10 140 
3 200 244 201 
3 148 246 247 
3 236 143 234 
3 143 88 234 
3 248 158 249 
3 129 142 118 
3 160 154 155 
3 134 120 135 
3 250 187 213 
3 220 87 31 
3 86 88 155 
3 99 231 185 
3 143 236 141 
3 8 207 98 
3 98 207 140 
3 7 112 8 
3 142 155 143 
3 88 143 155 
3 119 180 135 
3 30 112 64 
3 67 251 252 
3 180 141 236 
3 31 63 220 
3 220 234 88 
3 234 220 63 
3 253 124 254 
3 255 221 256 
3 222 221 255 
3 256 221 257 
3 101 186 258 
3 100 187 101 
3 235 234 63 
3 214 137 215 
3 259 260 261 
3 103 262 102 
3 209 208 263 
3 264 265 93 
3 266 262 165 
3 60 253 267 
3 101 258 103 
3 268 103 258 
3 268 258 269 
3 223 208 219 
3 263 208 223 
3 161 92 237 
3 252 189 68 
3 138 137 214 
3 245 264 270 
3 271 262 103 
3 272 215 137 
3 273 106 274 
3 275 276 277 
3 44 177 176 
3 108 278 106 
3 279 280 281 
3 162 164 199 
3 262 266 102 
3 100 230 227 
3 252 68 67 
3 276 66 282 
3 269 258 283 
3 47 89 284 
3 89 47 171 
3 270 264 285 
3 62 286 287 
3 164 163 277 
3 288 289 290 
3 291 292 293 
3 271 165 262 
3 294 165 271 
3 0 295 82 
3 296 151 294 
3 270 285 294 
3 270 294 271 
3 44 43 177 
3 278 258 186 
3 139 91 43 
3 83 91 139 
3 66 68 297 
3 257 298 256 
3 264 93 285 
3 194 299 210 
3 102 266 100 
3 228 168 71 
3 274 186 250 
3 249 179 295 
3 69 71 168 
3 266 165 168 
3 100 266 230 
3 229 211 227 
3 168 230 266 
3 61 300 301 
3 41 302 42 
3 45 44 303 
3 187 304 213 
3 227 304 100 
3 229 146 145 
3 245 305 264 
3 74 138 153 
3 306 269 307 
3 186 187 250 
3 274 106 278 
3 274 250 273 
3 274 278 186 
3 211 304 227 
3 298 178 256 
3 289 281 280 
3 295 92 82 
3 239 74 73 
3 169 257 217 
3 82 92 83 
3 100 304 187 
3 211 308 212 
3 145 309 229 
3 213 212 273 
3 310 273 212 
3 304 211 213 
3 273 250 213 
3 196 299 194 
3 139 1 83 
3 139 45 1 
3 294 151 165 
3 177 311 239 
3 303 257 169 
3 296 161 150 
3 40 194 41 
3 107 195 40 
3 106 273 310 
3 106 310 107 
3 311 74 239 
3 311 312 74 
3 313 314 315 
3 200 311 244 
3 285 296 294 
3 144 146 70 
3 249 295 248 
3 44 176 303 
3 176 178 298 
3 161 285 93 
3 42 107 40 
3 249 158 157 
3 93 265 91 
3 296 150 151 
3 43 91 265 
3 296 285 161 
3 298 303 176 
3 316 5 4 
3 230 168 228 
3 150 161 237 
3 295 237 92 
3 145 144 157 
3 107 310 212 
3 308 107 212 
3 256 178 255 
3 195 308 196 
3 196 308 317 
3 169 1 45 
3 169 45 303 
3 298 257 303 
3 263 223 222 
3 238 255 178 
3 211 229 309 
3 70 150 237 
3 248 295 0 
3 218 316 4 
3 133 204 203 
3 255 238 318 
3 255 318 222 
3 229 228 146 
3 315 319 320 
3 321 320 319 
3 175 3 5 
3 211 309 317 
3 211 317 308 
3 308 195 107 
3 322 302 41 
3 150 70 69 
3 144 249 157 
3 156 158 5 
3 146 71 70 
3 146 228 71 
3 175 248 0 
3 263 318 209 
3 222 318 263 
3 169 217 2 
3 290 323 288 
3 194 40 195 
3 295 179 237 
3 144 179 249 
3 158 175 5 
3 253 128 124 
3 147 324 241 
3 209 318 322 
3 238 322 318 
3 191 193 325 
3 309 145 170 
3 317 309 170 
3 2 217 3 
3 270 271 268 
3 270 268 201 
3 322 41 209 
3 157 156 170 
3 257 221 217 
3 210 41 194 
3 171 109 85 
3 41 210 209 
3 188 326 327 
3 279 281 328 
3 0 2 175 
3 170 196 317 
3 248 175 158 
3 242 329 240 
3 5 316 156 
3 316 196 170 
3 170 156 316 
3 311 313 312 
3 312 313 330 
3 217 223 216 
3 196 316 218 
3 299 196 218 
3 216 218 4 
3 219 299 218 
3 219 208 299 
3 299 208 210 
3 216 223 219 
3 61 60 267 
3 331 324 147 
3 332 333 334 
3 50 323 300 
3 335 336 337 
3 192 338 339 
3 315 327 330 
3 103 268 271 
3 57 340 55 
3 287 341 67 
3 23 104 48 
3 167 342 152 
3 94 96 232 
3 55 343 121 
3 23 105 104 
3 289 280 290 
3 344 345 332 
3 180 236 204 
3 205 172 94 
3 162 199 346 
3 269 306 201 
3 347 348 349 
3 350 289 288 
3 18 171 47 
3 80 351 275 
3 331 147 149 
3 62 352 347 
3 246 353 354 
3 355 297 327 
3 315 330 313 
3 321 201 306 
3 325 356 352 
3 334 259 261 
3 261 260 357 
3 201 358 270 
3 359 360 361 
3 199 198 346 
3 192 339 277 
3 362 357 148 
3 77 363 78 
3 325 364 191 
3 232 329 94 
3 365 328 125 
3 334 261 344 
3 344 366 123 
3 190 189 367 
3 352 62 368 
3 369 370 371 
3 275 339 127 
3 225 224 121 
3 334 372 259 
3 373 374 375 
3 171 18 109 
3 127 365 125 
3 365 376 279 
3 377 300 290 
3 366 378 254 
3 354 379 49 
3 346 215 162 
3 346 167 215 
3 346 342 167 
3 359 361 37 
3 37 361 22 
3 337 380 335 
3 191 338 192 
3 284 89 90 
3 283 72 153 
3 381 198 197 
3 259 331 382 
3 232 96 233 
3 89 85 84 
3 267 253 254 
3 269 201 268 
3 56 383 57 
3 380 197 282 
3 356 370 348 
3 181 384 90 
3 134 384 181 
3 362 366 357 
3 259 359 37 
3 287 81 60 
3 293 292 385 
3 337 197 380 
3 342 381 152 
3 307 386 306 
3 7 6 172 
3 185 172 6 
3 360 359 372 
3 333 383 387 
3 312 388 74 
3 389 56 121 
3 127 80 275 
3 214 167 138 
3 133 180 204 
3 390 376 391 
3 282 164 276 
3 341 286 347 
3 56 389 383 
3 105 23 22 
3 284 90 384 
3 369 348 370 
3 371 392 188 
3 61 267 50 
3 241 393 147 
3 240 393 241 
3 277 163 192 
3 149 382 331 
3 203 385 394 
3 203 394 133 
3 349 251 67 
3 379 353 395 
3 379 395 340 
3 276 164 277 
3 368 396 352 
3 377 290 390 
3 335 380 397 
3 136 398 388 
3 376 390 279 
3 15 19 104 
3 18 48 19 
3 104 19 48 
3 307 336 386 
3 174 363 182 
3 347 356 348 
3 352 356 347 
3 232 240 329 
3 57 383 350 
3 380 355 397 
3 265 305 43 
3 265 264 305 
3 241 324 399 
3 153 72 74 
3 360 400 361 
3 313 311 200 
3 360 401 400 
3 401 402 105 
3 400 401 105 
3 354 247 246 
3 275 277 339 
3 43 305 177 
3 149 357 260 
3 50 300 61 
3 125 128 127 
3 67 81 287 
3 80 127 81 
3 127 60 81 
3 384 133 394 
3 384 394 21 
3 61 301 62 
3 403 404 371 
3 297 282 66 
3 355 380 297 
3 405 406 402 
3 148 247 362 
3 50 267 254 
3 193 407 325 
3 72 283 408 
3 231 95 185 
3 77 95 231 
3 77 96 95 
3 362 354 51 
3 368 62 301 
3 121 224 383 
3 121 383 389 
3 22 361 400 
3 246 147 393 
3 331 399 324 
3 197 337 381 
3 325 409 364 
3 148 357 149 
3 410 302 408 
3 235 204 236 
3 233 96 406 
3 127 339 376 
3 365 127 376 
3 376 339 338 
3 68 189 297 
3 105 22 400 
3 235 64 411 
3 112 411 64 
3 77 16 96 
3 79 16 77 
3 16 105 96 
3 330 388 312 
3 330 136 388 
3 388 398 74 
3 138 398 136 
3 74 398 138 
3 62 347 286 
3 60 62 287 
3 121 343 373 
3 390 290 280 
3 390 280 279 
3 325 352 412 
3 242 94 329 
3 37 331 259 
3 372 359 259 
3 224 360 372 
3 128 253 60 
3 201 321 202 
3 357 366 344 
3 57 350 288 
3 332 334 344 
3 333 332 413 
3 332 281 413 
3 350 333 413 
3 281 350 413 
3 414 415 193 
3 272 404 403 
3 128 125 124 
3 394 385 292 
3 261 357 344 
3 372 334 333 
3 153 243 283 
3 269 283 243 
3 243 307 269 
3 243 337 307 
3 200 202 314 
3 67 351 80 
3 51 254 378 
3 152 381 337 
3 152 337 243 
3 282 199 164 
3 377 409 412 
3 325 412 409 
3 241 399 242 
3 305 245 177 
3 163 193 192 
3 360 224 226 
3 345 328 281 
3 189 252 367 
3 51 378 362 
3 366 362 378 
3 358 201 416 
3 245 416 244 
3 244 416 201 
3 297 380 282 
3 371 404 392 
3 404 136 392 
3 330 392 136 
3 72 238 73 
3 291 37 32 
3 384 23 284 
3 385 417 399 
3 203 417 385 
3 238 239 73 
3 311 177 244 
3 197 199 282 
3 410 408 283 
3 322 408 302 
3 72 408 238 
3 322 238 408 
3 272 162 215 
3 174 78 363 
3 134 133 384 
3 390 391 377 
3 191 391 338 
3 338 391 376 
3 23 48 47 
3 95 94 172 
3 95 172 185 
3 411 112 172 
3 411 172 205 
3 335 320 321 
3 355 327 315 
3 121 373 225 
3 232 225 373 
3 232 373 240 
3 50 254 51 
3 356 325 407 
3 356 407 403 
3 350 383 333 
3 336 306 386 
3 394 292 291 
3 231 363 77 
3 182 363 231 
3 202 321 319 
3 188 190 369 
3 190 348 369 
3 188 369 371 
3 381 342 198 
3 401 226 402 
3 401 360 226 
3 281 289 350 
3 66 276 351 
3 276 275 351 
3 66 351 67 
3 332 345 281 
3 123 418 344 
3 344 418 345 
3 123 125 418 
3 418 125 345 
3 205 204 411 
3 411 204 235 
3 323 49 288 
3 49 323 50 
3 300 323 290 
3 42 302 410 
3 403 414 272 
3 193 163 414 
3 51 354 49 
3 349 348 251 
3 190 251 348 
3 384 21 23 
3 284 23 47 
3 67 341 349 
3 353 246 393 
3 373 375 240 
3 393 240 375 
3 353 393 375 
3 383 224 387 
3 399 293 385 
3 42 410 108 
3 108 410 278 
3 278 410 258 
3 283 258 410 
3 49 340 288 
3 57 288 340 
3 340 49 379 
3 353 379 354 
3 287 286 341 
3 412 396 377 
3 233 406 405 
3 105 406 96 
3 246 148 147 
3 368 377 396 
3 337 336 307 
3 242 419 94 
3 205 94 419 
3 399 419 242 
3 205 419 203 
3 419 417 203 
3 226 405 402 
3 193 415 407 
3 200 314 313 
3 123 366 124 
3 254 124 366 
3 279 328 365 
3 125 328 345 
3 162 414 163 
3 272 414 162 
3 409 377 391 
3 188 327 189 
3 327 297 189 
3 252 251 367 
3 251 190 367 
3 392 326 188 
3 404 137 136 
3 272 137 404 
3 355 315 320 
3 327 326 330 
3 392 330 326 
3 403 407 415 
3 403 415 414 
3 32 394 291 
3 21 394 32 
3 375 374 353 
3 352 396 412 
3 333 387 372 
3 417 419 399 
3 368 301 377 
3 377 301 300 
3 349 341 347 
3 335 321 336 
3 306 336 321 
3 224 372 387 
3 362 247 354 
3 245 270 416 
3 403 371 370 
3 403 370 356 
3 355 320 397 
3 320 335 397 
3 331 293 399 
3 331 37 293 
3 291 293 37 
3 343 420 374 
3 395 420 343 
3 346 198 342 
3 226 225 405 
3 233 405 225 
3 402 406 105 
3 391 364 409 
3 391 191 364 
3 343 374 373 
3 340 395 55 
3 343 55 395 
3 314 319 315 
3 314 202 319 
3 270 358 416 
3 260 259 382 
3 260 382 149 
3 353 420 395 
3 374 420 353 
