ply
format ascii 1.0
comment VCGLIB generated
element vertex 87
property double x
property double y
property double z
property uchar red
property uchar green
property uchar blue
property uchar alpha
property double quality
element face 170
property list uchar int vertex_indices
property double quality
end_header
122.3825612141845 27.78777103358341 807.7444698855239 255 255 255 255 0.0619929873945738 
122.4556189410846 27.29199787220606 807.6051376051244 255 255 255 255 0.07818957967015025 
122.8536090906703 26.99193952020223 807.4580178307452 255 255 255 255 0.09316289454176642 
123.4600101616127 27.27553768786679 805.8846514088937 255 255 255 255 0.1941319115087004 
122.5308091926749 28.51665187662732 809.0317867836533 255 255 255 255 0.08530793757111559 
122.8577095554678 29.0853563708253 810.7362486011475 255 255 255 255 0.1554127348529374 
123.2219754779222 27.97338700979117 808.8048363436801 255 255 255 255 0.09489587398714201 
123.0823091783265 27.04559418172875 806.1019622868379 255 255 255 255 0.2290274841216489 
123.3477033139031 26.97804169791193 806.9582540977318 255 255 255 255 0.1701314427998577 
122.9272642838302 28.58268983812776 809.4208952259339 255 255 255 255 0.08264876526283525 
122.6586008165387 28.17171183349577 807.9785664188764 255 255 255 255 0.06626618457222327 
122.1049655987875 28.91072881896216 810.9098533154367 255 255 255 255 0.3402375569289151 
122.665119826505 27.40807509542683 808.791773098514 255 255 255 255 0.1115198006600965 
123.1935899215031 27.63195044421142 806.2132315680554 255 255 255 255 0.178872714673099 
122.4241493013087 29.20952276149101 810.8626720077629 255 255 255 255 0.2177119211360214 
122.1475562575667 28.32046531835512 810.6064788643633 255 255 255 255 0.2191497004063022 
123.1688085086744 27.32981517575307 808.1212289948913 255 255 255 255 0.09966423576461714 
122.9067266413798 28.47558401190117 811.3117379668151 255 255 255 255 0.2033291947520179 
123.0078163260463 27.7554296998027 809.4256990531536 255 255 255 255 0.1227934426036184 
123.1160415386394 27.44928919958469 808.5012558301934 255 255 255 255 0.09895375012238998 
122.1670734403635 28.15727438886905 810.1864901220126 255 255 255 255 0.1563727088949727 
122.9944379551597 26.73160710066528 806.5815025825814 255 255 255 255 0.2429759781165963 
123.2114269760703 27.24030948900437 807.8302110422654 255 255 255 255 0.08265633860794507 
122.7932349155915 27.89503883815824 807.074428117489 255 255 255 255 0.152416278641018 
122.2457153816277 27.81139472232753 809.2224882410695 255 255 255 255 0.1673699499975425 
122.8968628919238 28.72383654016922 809.8091081761003 255 255 255 255 0.08168849128325004 
122.6121093782525 27.56158686717438 809.2526351799797 255 255 255 255 0.1338147485868971 
123.0681486106168 28.84963933192125 811.1570283763931 255 255 255 255 0.1224874664901429 
122.1938546209917 28.01068907501566 809.7915008979402 255 255 255 255 0.1520994481012045 
123.5582581910847 27.27503441530376 806.5290902230757 255 255 255 255 0.1700987531422403 
122.9794471576106 28.40097488432563 808.8937724625461 255 255 255 255 0.07317184038846508 
122.8145749835977 26.81514231876404 806.4556809111652 255 255 255 255 0.2926272702938157 
122.4651038509982 28.79432048210526 809.8078251920803 255 255 255 255 0.1151209280784251 
122.3931761966699 27.42333987481997 808.0329300595109 255 255 255 255 0.05729163042275252 
122.9744573735427 27.88690505242646 809.7977425992661 255 255 255 255 0.1126926078770093 
123.1587291397161 27.97063534814772 807.544963163208 255 255 255 255 0.09047830790623294 
123.2720696751589 27.11963639186477 807.4331763518719 255 255 255 255 0.1083820520349393 
122.8780427260034 27.73722181971662 806.5444884190955 255 255 255 255 0.1878118025183522 
122.2761232923171 27.71611975756286 808.9419750930977 255 255 255 255 0.1288056673242063 
122.4879976970604 28.67735812196512 809.4884096126467 255 255 255 255 0.09845889126682701 
123.2206164397391 27.84878863861658 807.1422264714241 255 255 255 255 0.103528423350289 
122.7971738096125 27.10377310841929 807.8270413701912 255 255 255 255 0.06487175446114334 
122.3153942528883 27.6087703401948 808.6153290583686 255 255 255 255 0.08131513026798788 
122.162614352481 28.4230550227282 809.6524960003461 255 255 255 255 0.136908067025665 
123.116044299932 28.3582258126553 809.9092446701525 255 255 255 255 0.08258673292053108 
122.9116241324432 26.88236081503955 807.0911771370982 255 255 255 255 0.1748908083767591 
122.7411343675097 27.99719667829033 807.4132203277235 255 255 255 255 0.08588428740977704 
122.1271949496494 28.63154440953428 810.2087918914599 255 255 255 255 0.1604815577016759 
122.5947098442647 28.3263508866111 808.4614964911893 255 255 255 255 0.06834924131088875 
123.0378069430939 28.24067290141942 808.4085363557255 255 255 255 255 0.07104810941749047 
122.9352968979638 27.63295884023416 806.190084559476 255 255 255 255 0.2527306469587132 
123.0925989550782 28.50679091744299 810.3037272378411 255 255 255 255 0.08093186409212427 
123.329547970215 27.71456376893257 807.9926002854501 255 255 255 255 0.08763218928098228 
122.2065826813489 28.24767988239742 809.1554415852879 255 255 255 255 0.1362184219977312 
122.727339617478 27.25605052031586 808.3168637651314 255 255 255 255 0.07720999631152105 
123.0917002522055 28.11239640461016 808.0044234498823 255 255 255 255 0.09469977605245208 
122.93339663186 28.11666481748262 810.4151785885333 255 255 255 255 0.09018463216964169 
122.5597244568381 27.75459832046997 809.80611844264 255 255 255 255 0.1508095764100057 
122.1326035006685 28.56960683083723 811.2223641194253 255 255 255 255 0.2865251090244838 
123.0782415106688 28.65220059050484 810.6733571512706 255 255 255 255 0.07332011035163345 
122.6238007898513 27.33003908192723 806.2132351936579 255 255 255 255 0.2486432743357821 
122.5072200735065 28.08270883923661 810.6772223300698 255 255 255 255 0.1406922063653626 
122.3048945098151 27.96617352366437 808.3087838410254 255 255 255 255 0.05116449477469744 
122.6231538120825 26.97681463361148 806.5520526640506 255 255 255 255 0.2457434766681418 
122.5651203319018 27.4361833378468 806.5736352706944 255 255 255 255 0.2408517151771809 
123.2725662048671 27.84392750270483 808.4063767777207 255 255 255 255 0.1009587327828491 
122.254329177823 28.09740565137137 808.7129380271099 255 255 255 255 0.08147489042103191 
122.5264169692049 27.15448673541009 807.1493203361142 255 255 255 255 0.1614561377629374 
122.8710548965825 28.90487620742679 810.28478168333 255 255 255 255 0.0776017922372623 
123.4660952666023 27.44328183841176 807.098645386489 255 255 255 255 0.1244866422752058 
122.5281599000775 27.91765693437212 810.2487074570932 255 255 255 255 0.1295007137906948 
123.158227473244 28.17404268309773 809.3957254533963 255 255 255 255 0.08293680101858834 
123.4160991745625 26.85467794848523 806.5394128841067 255 255 255 255 0.2302706878470047 
123.4019944813309 27.56383060427265 807.499410795331 255 255 255 255 0.08442234592192203 
122.9138849935465 28.33525728599857 810.9680017782139 255 255 255 255 0.1112210498887348 
122.4537359384132 27.64407905196195 807.2718194524897 255 255 255 255 0.1085736863456064 
123.5090393731485 27.40144126090198 806.3498695898211 255 255 255 255 0.1660666722679196 
123.0615658258146 27.59004337994489 808.9337516067729 255 255 255 255 0.1153231030947874 
123.5444183056924 26.91118359318895 806.2885825325137 255 255 255 255 0.1971395615760996 
122.9993153391761 27.53080823449007 805.9161749144848 255 255 255 255 0.2245267094158621 
122.4435521941422 28.65573140179833 811.267682583853 255 255 255 255 0.276166551951133 
122.5965695670709 28.91195892963863 811.1951404448048 255 255 255 255 0.2143595522598144 
122.4949466975606 28.28200930166532 811.1708956763122 255 255 255 255 0.2174046593685775 
122.5091287663701 27.5404282598805 806.922594031348 255 255 255 255 0.1884849245214193 
123.2972047280927 27.70659792350268 806.6638907948234 255 255 255 255 0.1586272723837527 
122.1157183262538 28.77149361284654 810.5591720854402 255 255 255 255 0.2591946928810893 
122.4376996024696 29.01090732249665 810.3707848945181 255 255 255 255 0.1667029310259183 
3 12 38 42 0.1186041810505073 
3 13 76 3 0.0673223159218046 
3 72 31 7 0.02983909609812607 
3 7 78 72 0.3086499648460148 
3 31 60 7 0.02452231149761575 
3 30 4 9 0.01857334226823382 
3 19 12 54 0.01319598705395941 
3 19 65 6 0.1893032792555848 
3 71 30 9 0.0318539531901727 
3 13 84 76 0.01724722236993936 
3 46 75 0 0.009099479553190015 
3 61 20 70 0.1168745781648619 
3 44 51 56 0.1404282640704868 
3 44 25 51 0.1132552106809683 
3 46 35 40 0.102948226039496 
3 26 24 38 0.1411228486754441 
3 10 62 48 0.004405135001617211 
3 40 35 73 0.01571291878719128 
3 75 1 0 0.003818103747528001 
3 63 60 31 0.3684112410149198 
3 79 60 50 0.1868544601478014 
3 13 79 50 0.1020063383815218 
3 33 62 0 0.05552620691671473 
3 6 49 30 0.0007304594841416323 
3 86 32 47 0.01979434613802633 
3 48 49 10 0.04444308658048191 
3 72 29 8 0.07325200557601008 
3 74 56 59 0.05528800061175854 
3 21 8 45 0.0302235940969422 
3 65 19 16 0.1833251016191751 
3 42 66 62 0.0186819023086604 
3 58 82 80 0.08720530800194459 
3 2 1 67 0.006927397047867823 
3 71 9 44 0.02686271273831298 
3 59 27 74 0.0313249316031573 
3 41 54 33 0.020522268211002 
3 22 52 16 0.1767331840653614 
3 1 33 0 0.01857943328436085 
3 27 81 17 0.04528200025155482 
3 42 38 66 0.09421624995983302 
3 51 68 59 0.04432970444163387 
3 70 57 34 0.1606426838949483 
3 66 48 62 0.01356784700493052 
3 16 41 22 0.1958015878206755 
3 36 69 73 0.02257131643458954 
3 2 67 45 0.03531212310983889 
3 52 73 35 0.01278121924911635 
3 30 49 48 0.0483353750977652 
3 32 86 68 0.07536447629725984 
3 22 73 52 0.001241060334644994 
3 49 65 55 0.02893730573504294 
3 42 33 54 0.05765578102522195 
3 53 39 4 0.1076033352722809 
3 54 41 16 0.004167997465450601 
3 68 5 59 0.001626296200423649 
3 42 54 12 0.1034327021256902 
3 68 25 32 0.1239705541680407 
3 37 50 64 0.1687317375643553 
3 5 81 27 0.02498760749697815 
3 4 39 9 0.03800316153225003 
3 71 6 30 0.03700139284810744 
3 34 71 44 0.004899367916174846 
3 4 30 48 0.03620417226732453 
3 12 19 77 0.03013900890509869 
3 26 38 12 0.004592226215793804 
3 67 75 83 0.07608153427686959 
3 75 67 1 0.003111829325715965 
3 21 72 8 0.08751022087260008 
3 42 62 33 0.05525666343874014 
3 21 45 63 0.07901334095192647 
3 63 45 67 0.0577457042134828 
3 27 17 74 0.1740662575306448 
3 67 64 63 0.07424740782997485 
3 47 15 85 0.0601942227896598 
3 21 63 31 0.5636443603289112 
3 82 74 17 0.04612596168545802 
3 64 50 60 0.159096784019659 
3 69 8 29 0.02438993302723269 
3 29 76 84 0.3297484648507335 
3 19 54 16 0.02795303247861969 
3 5 68 86 0.03972260061252386 
3 55 10 49 0.1121447244580556 
3 5 27 59 0.004310505205079029 
3 81 5 14 0.04792606215931017 
3 46 40 23 0.1998559584541034 
3 2 45 36 0.1158826087047884 
3 70 56 61 0.005657629031596167 
3 34 44 56 0.05279282426081067 
3 56 51 59 0.2210255230597622 
3 24 53 38 0.3287427031356793 
3 69 40 73 0.01668063776865714 
3 1 2 41 0.06497655430753135 
3 44 9 25 0.1144873713113457 
3 52 55 65 0.02295440340450638 
3 19 6 77 0.1426320512103643 
3 15 82 58 0.08953436190611519 
3 46 0 10 0.01651200301033828 
3 3 76 78 0.007753815746980752 
3 78 76 29 0.3502059605926231 
3 36 45 8 0.02198565641891403 
3 20 47 43 0.04013264912288195 
3 32 43 47 0.02106652463710401 
3 35 55 52 0.02201102782999598 
3 24 26 57 0.1085366870149352 
3 78 29 72 0.1526229693786901 
3 47 85 86 0.07586288841416833 
3 0 62 10 0.01778520358646973 
3 31 72 21 0.6457965935146848 
3 1 41 33 0.05384545615421099 
3 77 18 26 0.01714993889047123 
3 13 37 84 0.006969564153309848 
3 43 28 20 0.1521222551379123 
3 32 25 39 0.1328490600734369 
3 28 57 70 0.0628620619209741 
3 34 18 71 0.06875421967172357 
3 69 29 84 0.01895126606647335 
3 8 69 36 5.37657268528946e-05 
3 13 50 37 0.275182063115649 
3 26 18 57 0.0380666990626477 
3 66 53 4 0.09694551316149169 
3 22 36 73 0.02272406857235443 
3 60 63 64 0.04453771632805892 
3 36 22 2 0.1135201409489712 
3 9 39 25 0.04416189260287762 
3 74 61 56 0.02114309308511397 
3 41 2 22 0.1530083073877757 
3 39 43 32 0.1029243180798362 
3 75 46 23 0.05892050006390814 
3 15 47 20 0.009811210085748923 
3 15 20 61 0.1265535137696298 
3 65 16 52 0.1344572096508604 
3 64 83 37 0.1683173102146589 
3 12 77 26 0.0290965793982656 
3 39 53 43 0.07732036697249745 
3 51 25 68 0.04153794694440449 
3 49 6 65 0.02943889716369297 
3 48 66 4 0.03942875584829675 
3 57 28 24 0.1023733668286243 
3 18 77 6 0.2052711529159305 
3 38 53 66 0.06920754124777362 
3 78 7 3 0.01416525658114665 
3 7 60 79 0.003368558564488366 
3 3 7 79 0.005847842135135783 
3 79 13 3 0.1175343205919517 
3 11 80 81 0.2198388656858299 
3 80 11 58 0.2049927104724329 
3 17 81 80 0.2025826209391882 
3 81 14 11 0.06322463756706242 
3 74 82 61 0.02304742218604028 
3 80 82 17 0.03493516161459642 
3 70 34 56 0.06821639250907008 
3 61 82 15 0.1462100980585633 
3 67 83 64 0.3321895426330547 
3 75 23 83 0.04953154809206151 
3 37 83 23 0.02164037953808173 
3 84 40 69 0.01049916548063823 
3 85 15 58 0.1123970524194717 
3 85 14 86 0.0812620764550217 
3 28 70 20 0.1125180719367164 
3 18 34 57 0.1732514279214223 
3 85 11 14 0.2602254206980966 
3 5 86 14 0.02381092039998933 
3 10 55 35 0.249936640027874 
3 71 18 6 0.2052711529159305 
3 11 85 58 0.1123970524194717 
3 23 40 84 0.1976349503246564 
3 46 10 35 0.249936640027874 
3 23 84 37 0.1441840885201556 
3 28 43 53 0.1733633436923004 
3 24 28 53 0.1180950080994646 
