ply
format ascii 1.0
comment VCGLIB generated
element vertex 336
property double x
property double y
property double z
property uchar red
property uchar green
property uchar blue
property uchar alpha
property double quality
element face 668
property list uchar int vertex_indices
end_header
160.5157875562887 194.8346541733301 938.6191323849135 255 255 255 255 0 
160.394436301892 194.849337750274 938.5349043437471 255 255 255 255 0 
160.4880650023548 194.7902954537512 938.5577715528187 255 255 255 255 0 
160.4528814103414 197.1770828561691 938.2004843523108 255 255 255 255 0 
160.452392469917 197.1252405585276 938.0653288882984 255 255 255 255 0 
160.4146538098463 197.0424337423029 938.1994396610476 255 255 255 255 0 
161.232056979307 196.9304475505019 937.8005086618952 255 255 255 255 0 
161.2883404788043 197.0385891688886 937.8575401886413 255 255 255 255 0 
161.3186407556233 196.927756178 937.8879979279228 255 255 255 255 0 
160.5286353559887 194.7423817211281 937.9957028973469 255 255 255 255 0 
160.6737202542 194.6848992438562 938.0385386161238 255 255 255 255 0 
160.5711350656796 194.674140423615 938.1059074095872 255 255 255 255 0 
161.2061811122142 197.3018444917609 938.4608371028372 255 255 255 255 0 
161.3251190013991 197.2182264653274 938.3807285987449 255 255 255 255 0 
161.2280975847976 197.3584131545847 938.3203295603248 255 255 255 255 0 
161.2967673067633 197.3059148914118 938.2625599450888 255 255 255 255 0 
160.7801179119141 196.9724343204217 937.7100591797877 255 255 255 255 0 
160.7657422336466 197.1061790531467 937.7332605797734 255 255 255 255 0 
160.8775911483097 197.0393206340638 937.6969342728125 255 255 255 255 0 
160.307634882916 195.1822400378346 937.9431759732734 255 255 255 255 0 
160.3911608220572 195.1002370993363 937.8600450189016 255 255 255 255 0 
160.3078002629277 195.0990094078089 937.9431056527005 255 255 255 255 0 
160.5214426556333 196.9302416919124 937.8845185935107 255 255 255 255 0 
160.4913352860383 197.0522021620031 937.9354307213189 255 255 255 255 0 
160.5608406324551 196.9726183372693 937.8380041821756 255 255 255 255 0 
160.4605866098046 196.93875129677 937.9832095786711 255 255 255 255 0 
160.5568900058535 197.3300764021378 938.1998452120652 255 255 255 255 0 
160.5151159137552 197.2627464221099 938.3080509492568 255 255 255 255 0 
160.5920844091729 197.3461918959371 938.3063965168682 255 255 255 255 0 
161.1656354037718 197.0390001394724 937.7595173654335 255 255 255 255 0 
161.1813406208808 197.1482698202405 937.8007096176511 255 255 255 255 0 
161.2487340492118 197.1226356869253 937.842328679871 255 255 255 255 0 
161.3822166925179 197.1171112585583 938.0491276228778 255 255 255 255 0 
161.4091682997433 197.0419579818584 938.0866609670602 255 255 255 255 0 
161.3837940873777 197.013238398909 937.9960985290784 255 255 255 255 0 
160.4503194103948 194.7290856510454 938.1014945659632 255 255 255 255 0 
160.5924147530374 195.0731462773657 937.7670157806755 255 255 255 255 0 
160.7053236842777 195.0055883483238 937.7680832452409 255 255 255 255 0 
160.5984345810485 194.968827670509 937.7933223091914 255 255 255 255 0 
161.1064970343668 194.8311366442121 938.3015210496592 255 255 255 255 0 
161.1456308075907 194.8947627746044 938.3263086533279 255 255 255 255 0 
161.1036358878909 194.877658740366 938.4352552503689 255 255 255 255 0 
161.1823788347463 197.1481547825679 938.598652538503 255 255 255 255 0 
161.3052276367395 197.093360993388 938.5089048876199 255 255 255 255 0 
161.2518203896282 197.1737118552037 938.5260916783308 255 255 255 255 0 
160.9486200613362 197.1550888204859 937.7272419546707 255 255 255 255 0 
160.8764479021728 197.1758562691529 937.7353003124001 255 255 255 255 0 
160.5329471322876 197.2030210495328 937.9613885227894 255 255 255 255 0 
160.627436215704 197.2476486462566 937.8891210624255 255 255 255 255 0 
160.5891926975344 197.1225892942998 937.8423784629873 255 255 255 255 0 
160.8969224057843 197.3425251551469 937.8534838253147 255 255 255 255 0 
160.9148161549841 197.4061005891028 937.9343530962295 255 255 255 255 0 
161.0696607719411 197.3298393056331 937.8704641533242 255 255 255 255 0 
160.3986472044773 194.781094656587 938.4486160645465 255 255 255 255 0 
160.3187290905817 194.9103471316829 938.4975762664917 255 255 255 255 0 
160.3012051008116 194.8502614805127 938.3674585949458 255 255 255 255 0 
160.672138166405 197.038633906971 937.7595899799492 255 255 255 255 0 
160.8105122650189 197.3756479885809 937.9090639337441 255 255 255 255 0 
160.7725327324709 194.6702032490997 938.0770391178323 255 255 255 255 0 
160.7660516090321 194.7208907756814 937.9809081639672 255 255 255 255 0 
160.9002252792253 194.7113884681615 938.0675514092679 255 255 255 255 0 
161.0728336124756 197.1067142630132 937.7336120103242 255 255 255 255 0 
160.5068350995461 196.8147629448056 937.945564839332 255 255 255 255 0 
160.4620124396716 196.8544757504068 938.0099347650934 255 255 255 255 0 
160.2021383609809 195.1830474810601 938.3274232786521 255 255 255 255 0 
160.2382599045316 195.2943977783175 938.3929913575556 255 255 255 255 0 
160.2150059784598 195.2796559590602 938.258556027432 255 255 255 255 0 
160.2285723079442 195.1174717775363 938.4325101074729 255 255 255 255 0 
160.6449353028178 194.8498982330669 938.671015024348 255 255 255 255 0 
160.7055892679343 194.7789482465159 938.6171085504718 255 255 255 255 0 
160.784426947027 194.8768816301015 938.6870964726926 255 255 255 255 0 
160.2206811015581 195.0589226541543 938.1247846495171 255 255 255 255 0 
160.1957497043539 195.1414101339217 938.2590032486968 255 255 255 255 0 
160.220793668845 195.2242693774759 938.1250636508083 255 255 255 255 0 
161.0764125050723 197.2265560334724 937.7879718294732 255 255 255 255 0 
160.3800414011843 194.8859134174397 937.9625819871413 255 255 255 255 0 
160.3113030529224 194.9168565774044 938.0280234345861 255 255 255 255 0 
160.3244374550277 195.0046246917958 937.950793083786 255 255 255 255 0 
161.2025623314354 195.0625359717128 938.3244848483932 255 255 255 255 0 
161.1837600427421 195.2256517800902 938.5546781654435 255 255 255 255 0 
161.1713790876444 194.9872451748222 938.3938324512472 255 255 255 255 0 
161.0922476135584 196.9032212855286 937.7260912669669 255 255 255 255 0 
161.0306882698828 197.0395202526359 937.7077584441515 255 255 255 255 0 
160.7237575046074 197.4019030113785 938.0091984186118 255 255 255 255 0 
160.7155200728417 197.4369892615587 938.1587749419663 255 255 255 255 0 
160.7848539395873 197.4562519094015 938.1172626949551 255 255 255 255 0 
160.4182142907369 195.4366448358594 938.6361450512107 255 255 255 255 0 
160.4581259881892 195.2081627986086 938.6993159263002 255 255 255 255 0 
160.5735576624757 195.20872357939 938.7452349103135 255 255 255 255 0 
160.6566101076734 197.1482807554767 937.8007423495342 255 255 255 255 0 
160.7981275923151 197.1684462768731 938.6539969886173 255 255 255 255 0 
160.9188970778323 197.2395572008086 938.6333075133274 255 255 255 255 0 
160.8278415328825 197.2488834872879 938.6163037138471 255 255 255 255 0 
160.9193330634421 197.1083021928721 938.6906493607901 255 255 255 255 0 
160.6880692338931 197.2111319447494 937.8142447408661 255 255 255 255 0 
160.7982676582208 197.2810158848284 937.8136349153638 255 255 255 255 0 
161.222820931358 197.2934718917677 937.9502052431585 255 255 255 255 0 
161.2258549529336 197.3352713121363 938.019308833023 255 255 255 255 0 
161.3051067876061 197.2027171742835 937.9612115595222 255 255 255 255 0 
161.2485262381856 197.2337631223496 938.4867175359673 255 255 255 255 0 
160.857818967403 195.0065627347422 937.792206011278 255 255 255 255 0 
160.7619793265634 194.9126408759522 937.8091046848974 255 255 255 255 0 
160.3061265841101 194.8271050586579 938.2177394178138 255 255 255 255 0 
160.3890915660775 194.7437748012462 938.2172082192785 255 255 255 255 0 
160.3657465490558 194.7684546222542 938.3235909688209 255 255 255 255 0 
161.091034478182 194.9096005448559 938.0207353889456 255 255 255 255 0 
161.1327493723356 195.0615140004351 937.9943265270132 255 255 255 255 0 
161.1668219344365 195.0021391107943 938.0954243107715 255 255 255 255 0 
160.29279944773 195.2977896431756 938.0043777871625 255 255 255 255 0 
160.3188172409532 195.3718554439086 938.0204516971879 255 255 255 255 0 
160.3974808073209 195.3002093169479 937.8875896096329 255 255 255 255 0 
160.6561521003847 196.8584257777933 937.778871576758 255 255 255 255 0 
160.5889403540959 196.8214943646497 937.842592077911 255 255 255 255 0 
160.8261774557653 194.7513603103428 938.5618527238449 255 255 255 255 0 
160.867818595405 194.8335627146321 938.6292185283259 255 255 255 255 0 
160.5000258069139 195.1414828277905 937.7928390746506 255 255 255 255 0 
160.6345091610962 195.1413632631895 937.7546531355271 255 255 255 255 0 
161.114336947808 194.8569364628827 938.1567028563777 255 255 255 255 0 
161.0622445955857 194.7874743672027 938.1769562814843 255 255 255 255 0 
161.0112393973111 194.7808675822302 938.0696153773113 255 255 255 255 0 
161.1215560638913 196.6237764421788 937.7757916190868 255 255 255 255 0 
160.8743200223023 194.6770632003681 938.3764353354261 255 255 255 255 0 
160.7050298813373 194.6510966245403 938.3980654298955 255 255 255 255 0 
160.7731283562006 194.6381314346247 938.3014476784213 255 255 255 255 0 
160.2654559750951 194.9206066939384 938.1265163555547 255 255 255 255 0 
160.2391704478536 194.9352338135037 938.2590052088617 255 255 255 255 0 
160.5654826692144 197.2850630360244 938.3872714528263 255 255 255 255 0 
160.7090293268239 197.3304639358499 937.9066482695822 255 255 255 255 0 
160.6124695086507 197.331784772984 938.0104520879195 255 255 255 255 0 
161.3209821859545 195.717854952092 938.5457977722388 255 255 255 255 0 
161.3770622243772 195.8859895480965 938.4091796766462 255 255 255 255 0 
161.3749018214511 195.9957013800228 938.6008485306462 255 255 255 255 0 
160.2612044857899 195.0397103031743 938.0346361821182 255 255 255 255 0 
160.4416743118837 194.964784048973 937.8603343278887 255 255 255 255 0 
160.5156164567865 194.8348532194541 937.8987908351635 255 255 255 255 0 
160.2401764301559 195.1822678162317 938.0551594782989 255 255 255 255 0 
160.4281954786477 196.9719437455416 938.0641543355275 255 255 255 255 0 
160.5152068048099 197.2627442094549 938.0915498352005 255 255 255 255 0 
160.6544705935027 197.3998220635488 938.1203958834651 255 255 255 255 0 
160.2128037226616 195.0288580520725 938.191974574468 255 255 255 255 0 
161.18052394699 197.2597177613726 937.8711351131063 255 255 255 255 0 
160.9599992939907 197.2878592006705 937.8026444105624 255 255 255 255 0 
160.9607629286196 196.9041773995188 937.6970088125611 255 255 255 255 0 
160.458257580943 195.0744846233608 937.8185070213157 255 255 255 255 0 
161.1229137113991 197.4367828854946 938.2414639272533 255 255 255 255 0 
161.1143409656975 197.4016747190756 938.3912157215105 255 255 255 255 0 
160.8625262148509 194.8866471031151 937.8468966454246 255 255 255 255 0 
160.75517189136 194.8158573882681 937.8714187791505 255 255 255 255 0 
161.0089218351727 197.4710587019587 938.1717456065045 255 255 255 255 0 
160.9690409690103 197.4753829479133 938.2492798221535 255 255 255 255 0 
161.0532935537998 197.4562189709235 938.2826524792833 255 255 255 255 0 
161.2349035009112 197.3693317717684 938.2407049908351 255 255 255 255 0 
161.1834616529767 197.3996859667295 938.1196219234083 255 255 255 255 0 
161.0836885961458 197.4412969483718 938.097954266074 255 255 255 255 0 
160.9162851721771 195.2304045609054 937.7927294451576 255 255 255 255 0 
160.7047332937755 195.2765647371137 937.7681203913681 255 255 255 255 0 
160.7625552341627 195.6439586176816 937.8539954233181 255 255 255 255 0 
160.5015913557673 194.675999254973 938.2172657192648 255 255 255 255 0 
160.9331917043582 194.7720519320079 937.9952094968265 255 255 255 255 0 
160.8512093893711 197.464022628394 938.3124849968312 255 255 255 255 0 
160.8510576758523 197.4749960624556 938.241128455995 255 255 255 255 0 
160.7600816067569 197.4493824579081 938.2681247017889 255 255 255 255 0 
161.3895295263987 197.154659182435 938.2675576473271 255 255 255 255 0 
161.423389577205 197.0422584720776 938.2000191674596 255 255 255 255 0 
161.389833388959 197.1542325638111 938.1333648963054 255 255 255 255 0 
161.0345909749592 194.9903028939081 937.9012238505122 255 255 255 255 0 
160.9673577366646 194.9648237680254 937.8596804482358 255 255 255 255 0 
160.9512217332406 195.0744360980915 937.8182407465075 255 255 255 255 0 
160.3739203636953 195.049740576573 938.6330166951665 255 255 255 255 0 
160.4517396977041 194.9457719912462 938.654025678948 255 255 255 255 0 
160.458259309634 195.0733944095818 938.699293634935 255 255 255 255 0 
160.3874757263911 194.9324290782848 938.5962105955385 255 255 255 255 0 
160.2980526854427 195.0534261467151 938.5494395109614 255 255 255 255 0 
161.040707612057 197.1687690015014 938.653665090248 255 255 255 255 0 
161.0398156327543 197.281303469718 938.5860988470924 255 255 255 255 0 
160.6591685487414 195.9235733887481 937.8797551135794 255 255 255 255 0 
161.0524418898706 195.685996969355 937.8327858943961 255 255 255 255 0 
161.2329936620495 197.0133793376044 938.5987724588688 255 255 255 255 0 
160.4270388211783 197.084580821566 938.2679934327084 255 255 255 255 0 
160.4526108109175 197.1256465820595 938.3349202768544 255 255 255 255 0 
160.4424354252428 197.0375790140136 938.3621144806053 255 255 255 255 0 
161.1577067158897 197.3580090633802 937.9690073320463 255 255 255 255 0 
160.4347563341341 196.8893878336929 938.3342376424822 255 255 255 255 0 
160.5012723499134 196.5621806805358 938.3507655528114 255 255 255 255 0 
160.5771332373177 196.7875218335271 938.5927397331171 255 255 255 255 0 
160.5068306638742 197.1286906272648 938.4547208097837 255 255 255 255 0 
160.4859777015554 196.972346673751 938.4680011013913 255 255 255 255 0 
160.5724795039025 197.0473094149179 938.5645880094677 255 255 255 255 0 
160.7298694973616 197.2785116711453 938.5600295113873 255 255 255 255 0 
160.6561409802207 197.1485228746957 938.5988557808441 255 255 255 255 0 
160.7435829752611 197.1948496970353 938.6215462768532 255 255 255 255 0 
160.5899359824229 197.2332334876832 938.4877591713382 255 255 255 255 0 
160.6534487713469 197.4015152379989 938.2547843993655 255 255 255 255 0 
160.6053684717558 196.4973721530664 938.643699553303 255 255 255 255 0 
160.5810307334148 197.1332955177448 938.543697475954 255 255 255 255 0 
161.2374075620852 196.3836583619824 937.9140275221823 255 255 255 255 0 
161.136381727055 196.3635622605764 937.8141401258326 255 255 255 255 0 
161.3724343804486 197.094092456608 938.3969987001791 255 255 255 255 0 
160.3466381014102 195.1411487297754 938.62080433314 255 255 255 255 0 
160.7924212286265 197.3527349878107 938.5113096647392 255 255 255 255 0 
160.8677660759475 197.3311389195351 938.555233654175 255 255 255 255 0 
160.8523119769659 197.4124502867049 938.4467796257787 255 255 255 255 0 
160.6041908017018 194.7511185608161 938.5685082213785 255 255 255 255 0 
161.4034711519562 197.0540421111588 938.3336913599677 255 255 255 255 0 
160.7232762360632 197.401541301781 938.3911044357357 255 255 255 255 0 
161.3148139175481 197.1042045816203 937.9100906463399 255 255 255 255 0 
161.4210547326362 196.2108322669783 938.2848313971889 255 255 255 255 0 
161.3963953398498 196.267697850569 938.4889745370447 255 255 255 255 0 
161.39970630337 196.0823112963617 938.4295109238288 255 255 255 255 0 
160.7412201603175 195.0059885673425 938.7469954255039 255 255 255 255 0 
160.6349219950459 195.1409682150419 938.7634129730275 255 255 255 255 0 
160.6408919531143 194.9755172704912 938.7345766216188 255 255 255 255 0 
161.3516583545009 197.2061194848466 938.0721620693756 255 255 255 255 0 
160.663469455557 194.742044065353 937.9452394388003 255 255 255 255 0 
160.6428809764493 194.8530575526454 937.8450606692036 255 255 255 255 0 
161.3521636726055 197.2397589364249 938.2005937731521 255 255 255 255 0 
161.2768558273405 197.3250501006406 938.1186364607541 255 255 255 255 0 
161.0510950597825 197.4112792336605 937.9788137106437 255 255 255 255 0 
160.7750473099424 195.8477743783033 938.7566909070265 255 255 255 255 0 
161.0008233190959 196.0513879091643 938.8293508693216 255 255 255 255 0 
160.7934792151657 196.1177572121606 938.7491583128559 255 255 255 255 0 
160.2128483734982 195.0289168372144 938.326595859246 255 255 255 255 0 
160.2770532912173 195.2206429492932 938.5233152915163 255 255 255 255 0 
160.3149718035747 195.5764439152254 938.2244247394268 255 255 255 255 0 
161.0333969494667 194.7542738553391 938.2889345145252 255 255 255 255 0 
160.9605403181531 197.3713411874907 938.5132698994381 255 255 255 255 0 
160.9189819678819 197.4763914756747 938.1297551613553 255 255 255 255 0 
160.9696588844963 194.7133117314049 938.1791429014841 255 255 255 255 0 
160.4409679530793 194.7130361029446 938.3392996871548 255 255 255 255 0 
160.5021306043746 194.6758412528302 938.3012622735486 255 255 255 255 0 
160.5702323436912 194.6744654767884 938.4123743455477 255 255 255 255 0 
161.1014049337922 197.0390772247735 938.6707165987534 255 255 255 255 0 
160.9902702555336 196.8675556328422 938.7328810028009 255 255 255 255 0 
160.8773813612647 197.0399585068111 938.7029800324304 255 255 255 255 0 
160.8515411705129 197.4425232140391 938.0172795856386 255 255 255 255 0 
161.0963861003133 197.3432933087277 938.4968153229519 255 255 255 255 0 
161.1798245347558 197.2597380019361 938.5293832214705 255 255 255 255 0 
160.2386955401075 194.9872071067801 938.3940040657249 255 255 255 255 0 
161.1796715960142 194.9595950465195 938.2588862652501 255 255 255 255 0 
160.9854941020391 197.4428062358843 938.0176604709867 255 255 255 255 0 
160.4177527136509 194.8113314919285 937.9979740204658 255 255 255 255 0 
160.3471377504054 194.8116095525558 938.1080934966081 255 255 255 255 0 
161.0144337117331 194.7551107483584 938.3800745251341 255 255 255 255 0 
160.9923030593241 194.8121870718702 938.5210197712352 255 255 255 255 0 
160.9434788056758 194.7550564167145 938.4903418240892 255 255 255 255 0 
160.541564633822 195.0733525860443 938.7354515931412 255 255 255 255 0 
160.5347657169042 194.9453387572869 938.6960055806795 255 255 255 255 0 
160.6879966759489 195.5036955071996 938.7373743324673 255 255 255 255 0 
160.5126176229166 195.7596273596185 938.6627457953972 255 255 255 255 0 
160.8960603687684 194.9451136162461 938.6884760062181 255 255 255 255 0 
161.2395620398101 195.3140107568728 938.3529634184474 255 255 255 255 0 
161.2881606351847 195.4652126309495 938.3677666919298 255 255 255 255 0 
161.2537323646682 195.4544030265608 938.5840369910056 255 255 255 255 0 
161.4039300690837 195.8682037850739 938.1554146117236 255 255 255 255 0 
161.3183600673714 195.4716602877408 938.1439204431013 255 255 255 255 0 
160.8053548977441 197.0398143388628 938.6916676864477 255 255 255 255 0 
160.7020859558756 197.3227133083361 938.4987779746999 255 255 255 255 0 
160.6669062836997 194.6352254791097 938.2624337903007 255 255 255 255 0 
160.4557211410766 196.262980968106 938.2463216661864 255 255 255 255 0 
160.9856439322853 197.4425503764967 938.3829278266547 255 255 255 255 0 
160.7754373436061 195.1408382234818 937.7546386310538 255 255 255 255 0 
160.858577570363 195.0068011559108 938.725630321441 255 255 255 255 0 
161.018617494417 195.1001379955638 937.8598649295144 255 255 255 255 0 
160.9667105810237 194.8539198237324 937.9297132580705 255 255 255 255 0 
160.5250387511456 194.9261731690069 937.8350455019062 255 255 255 255 0 
160.5092733593793 194.711594356594 938.4503755071138 255 255 255 255 0 
160.5515959520794 195.2747740002038 937.7922155946231 255 255 255 255 0 
160.6131683647965 197.3324576653309 938.3893738767567 255 255 255 255 0 
160.8558528690119 194.7834909417214 937.9291919718841 255 255 255 255 0 
161.1004364878881 195.4141805579953 937.9363213570296 255 255 255 255 0 
160.7073905949725 196.9820652179554 938.6621957996392 255 255 255 255 0 
160.7367183775563 196.9044302030884 937.7293230343207 255 255 255 255 0 
160.8361801710111 196.8380584333991 937.7157016579222 255 255 255 255 0 
161.2431644545275 195.2364584903539 938.1227048719019 255 255 255 255 0 
161.4223753020349 196.0027293382136 938.2370734387373 255 255 255 255 0 
160.7719596670212 194.7006749320232 938.5059221103932 255 255 255 255 0 
160.6384758809892 194.7003166759118 938.5053845014928 255 255 255 255 0 
160.4530814299532 196.556735788603 938.2100055742618 255 255 255 255 0 
160.5291396847624 196.5306874277095 938.0944927965725 255 255 255 255 0 
160.898938975215 195.5852048761524 938.8126255637882 255 255 255 255 0 
160.8135455134164 195.3036859533226 938.7862773171512 255 255 255 255 0 
161.3707835368848 196.8127014433236 938.5069449000854 255 255 255 255 0 
160.7013963930502 196.3847944203476 937.858083764604 255 255 255 255 0 
160.7730643084566 194.6380705667436 938.2169529753712 255 255 255 255 0 
160.6797764729948 194.6501517507693 938.1303675831113 255 255 255 255 0 
160.2591410378989 195.3445887221776 938.1246113638637 255 255 255 255 0 
160.3912843870636 195.1827159950439 937.8600347384405 255 255 255 255 0 
161.000626712854 194.9170200451223 938.6070959702545 255 255 255 255 0 
161.1317885695809 196.1119966368989 937.8384735592622 255 255 255 255 0 
160.4714779842523 195.8941279244102 938.1428540905562 255 255 255 255 0 
160.5313958767943 195.4704763329096 937.8488009015264 255 255 255 255 0 
160.4160327640008 197.0132247436781 938.26811515569 255 255 255 255 0 
160.7043955881002 197.1041483148034 938.6420250495909 255 255 255 255 0 
160.8391219648746 194.6568669983803 938.1756575291802 255 255 255 255 0 
160.4268711646738 196.8090015541987 938.1657221323468 255 255 255 255 0 
160.5934476675189 196.2035171863725 938.6680334707651 255 255 255 255 0 
161.0348115100701 194.8798323189564 938.5459356034507 255 255 255 255 0 
160.4227062607437 195.8803459278381 938.321873565716 255 255 255 255 0 
161.4201126447237 196.7914264005634 938.0697591560302 255 255 255 255 0 
160.8665906514689 194.6600092155168 938.2749431907728 255 255 255 255 0 
160.8007481409 196.6898833376121 938.6897412828853 255 255 255 255 0 
160.8503900137186 196.3435839975163 938.7471663359789 255 255 255 255 0 
161.0216006341817 196.5843242365773 938.78215724547 255 255 255 255 0 
161.4320408240526 196.0195413089511 938.160416708619 255 255 255 255 0 
160.969018383414 194.7128078809733 938.338117335595 255 255 255 255 0 
161.1169647034927 194.98367355406 938.5137117239191 255 255 255 255 0 
161.0580570159044 195.0586661015405 938.616627388024 255 255 255 255 0 
160.951918645093 195.0745638870841 938.6993998976631 255 255 255 255 0 
161.2172924100175 195.7464031368064 938.6534315679005 255 255 255 255 0 
161.314241090726 195.7255028068979 938.5928881101905 255 255 255 255 0 
161.3819637564563 196.2665240101711 938.5797140550561 255 255 255 255 0 
161.3454679462128 195.6751150505824 938.2916065863477 255 255 255 255 0 
160.4032915452757 195.8995241892003 938.2472814989869 255 255 255 255 0 
161.1510855554365 196.0288813345046 938.7386222096156 255 255 255 255 0 
160.8536817372855 196.1237022707602 937.8640380596945 255 255 255 255 0 
161.4151251403455 196.3511790238464 938.3566331888265 255 255 255 255 0 
160.6135890810254 196.1629272549818 937.9997602066943 255 255 255 255 0 
160.6762310757844 196.1963474190678 937.9006967905325 255 255 255 255 0 
161.3910677877886 196.5382539681228 938.5562248563842 255 255 255 255 0 
161.4230302320928 196.5047721574499 938.3214973332829 255 255 255 255 0 
161.4434488312207 196.3568208495266 938.1316371703314 255 255 255 255 0 
161.3459737568189 195.7488647143618 938.411162917682 255 255 255 255 0 
161.399472434576 195.9887089496333 938.4140295511467 255 255 255 255 0 
160.9901485529573 196.3650985953755 937.8288443330034 255 255 255 255 0 
160.6966666384919 196.1926099349671 937.8749941497659 255 255 255 255 0 
161.1923407360657 196.337515255866 938.6926372398664 255 255 255 255 0 
161.0096084085594 196.3182536252485 938.8061275644312 255 255 255 255 0 
161.4409959494174 196.5867012811707 938.1051184893209 255 255 255 255 0 
160.4669550822162 195.271136186537 937.8280295190912 255 255 255 255 0 
160.5761485609949 195.9858284300058 938.0207548837262 255 255 255 255 0 
161.3117566853911 195.608444007681 938.4314604280697 255 255 255 255 0 
161.4219919492784 196.9306663075228 938.2679530112279 255 255 255 255 0 
161.3987881832925 196.7206792903287 938.3518650256491 255 255 255 255 0 
161.2035619070182 195.0700222235742 938.1916684826733 255 255 255 255 0 
160.5717909882661 196.2597250739506 938.0608960307352 255 255 255 255 0 
160.5067701934136 196.0785013441133 938.4483015717794 255 255 255 255 0 
3 0 1 2 
3 3 4 5 
3 6 7 8 
3 9 10 11 
3 12 13 14 
3 14 13 15 
3 16 17 18 
3 19 20 21 
3 22 23 24 
3 22 25 23 
3 26 27 28 
3 29 30 31 
3 32 33 34 
3 9 11 35 
3 36 37 38 
3 39 40 41 
3 42 43 44 
3 45 18 46 
3 17 46 18 
3 47 48 49 
3 50 51 52 
3 53 1 54 
3 55 53 54 
3 56 17 16 
3 50 57 51 
3 58 59 60 
3 30 29 61 
3 25 62 63 
3 64 65 66 
3 67 65 64 
3 68 69 70 
3 71 72 73 
3 74 61 45 
3 30 61 74 
3 75 76 77 
3 78 79 80 
3 29 81 82 
3 83 84 85 
3 86 87 88 
3 17 56 89 
3 90 91 92 
3 90 93 91 
3 94 95 17 
3 96 97 98 
3 13 12 99 
3 100 101 37 
3 102 103 104 
3 29 82 61 
3 105 106 107 
3 108 109 110 
3 24 111 112 
3 113 114 69 
3 24 49 56 
3 115 116 36 
3 117 118 119 
3 6 120 81 
3 121 122 123 
3 124 102 125 
3 27 126 28 
3 127 83 57 
3 48 128 127 
3 129 130 131 
3 132 21 77 
3 4 47 23 
3 23 47 49 
3 133 134 75 
3 73 108 135 
3 23 136 4 
3 73 135 71 
3 135 19 21 
3 21 132 135 
3 117 119 105 
3 4 137 47 
3 138 84 83 
3 95 94 127 
3 71 124 139 
3 132 124 71 
3 140 96 98 
3 4 136 5 
3 52 141 50 
3 3 137 4 
3 49 89 56 
3 135 132 71 
3 20 77 21 
3 82 142 18 
3 139 72 71 
3 38 143 36 
3 115 36 143 
3 144 145 14 
3 101 146 147 
3 148 149 150 
3 144 151 152 
3 152 153 144 
3 154 155 156 
3 35 157 103 
3 119 60 158 
3 34 8 7 
3 159 160 161 
3 162 163 164 
3 48 94 89 
3 165 166 167 
3 168 169 170 
3 54 171 172 
3 48 47 128 
3 128 47 137 
3 173 42 174 
3 156 175 176 
3 43 42 177 
3 3 5 178 
3 140 74 52 
3 61 82 45 
3 89 94 17 
3 89 49 48 
3 178 179 3 
3 179 178 180 
3 97 181 152 
3 23 49 24 
3 182 183 184 
3 185 186 187 
3 188 189 190 
3 191 189 188 
3 28 192 26 
3 26 128 137 
3 184 183 193 
3 185 187 194 
3 195 196 120 
3 13 43 197 
3 170 87 198 
3 199 200 201 
3 69 68 202 
3 82 81 142 
3 203 163 162 
3 18 45 82 
3 159 204 201 
3 159 161 204 
3 95 46 17 
3 46 95 141 
3 7 205 34 
3 206 207 208 
3 94 48 127 
3 20 143 133 
3 20 133 77 
3 180 186 185 
3 209 210 211 
3 96 140 181 
3 140 52 181 
3 98 97 212 
3 141 95 50 
3 74 45 141 
3 46 141 45 
3 147 213 214 
3 125 102 55 
3 15 215 216 
3 51 217 52 
3 218 219 220 
3 221 64 72 
3 221 67 64 
3 67 172 222 
3 66 65 223 
3 16 18 142 
3 96 181 97 
3 39 224 118 
3 98 32 205 
3 31 7 29 
3 225 201 200 
3 31 140 98 
3 30 74 140 
3 30 140 31 
3 74 141 52 
3 185 179 180 
3 26 137 3 
3 226 149 148 
3 226 160 149 
3 227 119 118 
3 127 57 95 
3 50 95 57 
3 81 120 142 
3 52 217 181 
3 228 229 230 
3 231 93 232 
3 233 232 93 
3 57 83 234 
3 145 235 12 
3 12 235 236 
3 85 84 161 
3 216 215 212 
3 97 216 212 
3 51 57 234 
3 221 125 237 
3 117 107 238 
3 216 97 152 
3 138 26 192 
3 26 138 128 
3 127 128 83 
3 231 232 177 
3 148 239 226 
3 76 240 241 
3 124 125 139 
3 105 107 117 
3 242 243 244 
3 245 170 246 
3 86 88 247 
3 248 86 247 
3 114 249 70 
3 217 51 239 
3 239 153 217 
3 51 234 239 
3 217 153 181 
3 181 153 152 
3 2 202 0 
3 250 251 252 
3 138 83 128 
3 221 72 139 
3 190 92 188 
3 54 1 171 
3 192 161 84 
3 253 254 176 
3 151 14 15 
3 240 134 9 
3 240 75 134 
3 34 205 32 
3 240 9 35 
3 192 84 138 
3 104 53 55 
3 93 255 233 
3 188 256 191 
3 44 99 236 
3 103 229 228 
3 157 229 103 
3 257 230 229 
3 3 27 26 
3 151 144 14 
3 116 37 36 
3 258 193 183 
3 54 237 55 
3 226 239 234 
3 259 149 159 
3 76 124 132 
3 37 116 260 
3 215 164 212 
3 216 151 15 
3 152 151 216 
3 41 40 80 
3 85 226 234 
3 70 261 209 
3 70 249 261 
3 262 167 154 
3 212 32 98 
3 263 166 165 
3 77 76 132 
3 221 139 125 
3 213 10 9 
3 143 264 133 
3 221 237 67 
3 228 265 53 
3 116 266 155 
3 148 150 144 
3 172 171 168 
3 37 260 100 
3 64 66 72 
3 267 28 126 
3 267 204 28 
3 42 44 236 
3 185 27 179 
3 126 27 185 
3 179 27 3 
3 54 172 237 
3 113 244 114 
3 153 239 148 
3 160 226 85 
3 85 161 160 
3 144 153 148 
3 246 170 169 
3 263 158 268 
3 162 215 13 
3 215 15 13 
3 234 83 85 
3 67 222 65 
3 75 77 133 
3 198 172 168 
3 222 172 198 
3 237 172 67 
3 259 159 201 
3 75 240 76 
3 262 269 106 
3 81 29 6 
3 201 225 259 
3 184 270 187 
3 125 55 237 
3 16 271 56 
3 76 241 124 
3 102 124 241 
3 235 225 174 
3 142 120 272 
3 106 273 107 
3 111 56 271 
3 257 229 157 
3 206 208 274 
3 246 211 245 
3 134 133 264 
3 99 12 236 
3 160 159 149 
3 197 162 13 
3 203 162 197 
3 260 167 100 
3 154 167 260 
3 275 276 122 
3 262 165 167 
3 101 214 38 
3 101 38 37 
3 258 277 278 
3 38 264 143 
3 279 280 252 
3 103 228 104 
3 98 205 31 
3 276 69 202 
3 276 275 69 
3 6 29 7 
3 205 7 31 
3 197 43 281 
3 164 163 33 
3 112 278 62 
3 282 278 112 
3 262 106 165 
3 99 43 13 
3 44 43 99 
3 254 273 269 
3 106 269 273 
3 144 150 145 
3 169 168 171 
3 215 162 164 
3 102 104 55 
3 58 283 284 
3 66 223 285 
3 264 214 134 
3 38 214 264 
3 164 33 32 
3 164 32 212 
3 240 35 241 
3 241 103 102 
3 241 35 103 
3 19 110 286 
3 114 287 249 
3 176 288 253 
3 185 191 126 
3 91 225 200 
3 174 225 91 
3 42 231 177 
3 209 211 70 
3 256 267 191 
3 191 267 126 
3 192 28 204 
3 161 192 204 
3 204 256 199 
3 267 256 204 
3 201 204 199 
3 256 188 199 
3 100 166 146 
3 16 272 271 
3 235 174 236 
3 236 174 42 
3 235 145 259 
3 145 150 259 
3 149 259 150 
3 0 68 246 
3 14 145 12 
3 191 185 194 
3 265 2 53 
3 53 2 1 
3 223 289 290 
3 223 290 109 
3 235 259 225 
3 200 199 188 
3 188 92 200 
3 257 122 230 
3 171 1 0 
3 171 0 169 
3 169 0 246 
3 211 68 70 
3 186 182 184 
3 178 5 291 
3 187 186 184 
3 230 122 276 
3 104 228 53 
3 90 255 93 
3 230 265 228 
3 173 174 91 
3 92 91 200 
3 68 211 246 
3 0 202 68 
3 11 157 35 
3 157 11 257 
3 170 198 168 
3 147 214 101 
3 211 210 245 
3 25 22 62 
3 147 146 268 
3 189 191 194 
3 108 110 19 
3 70 69 114 
3 270 255 292 
3 60 293 58 
3 283 58 293 
3 113 69 275 
3 90 292 255 
3 190 292 90 
3 2 265 202 
3 291 294 182 
3 209 280 210 
3 276 265 230 
3 202 265 276 
3 295 248 218 
3 41 296 243 
3 245 87 170 
3 173 91 93 
3 182 180 291 
3 167 166 100 
3 134 214 213 
3 134 213 9 
3 90 92 190 
3 187 270 292 
3 292 189 187 
3 189 194 187 
3 292 190 189 
3 101 100 146 
3 284 283 257 
3 223 248 297 
3 163 298 33 
3 213 147 59 
3 293 227 299 
3 263 105 119 
3 146 166 263 
3 300 301 302 
3 274 253 303 
3 253 288 303 
3 80 40 238 
3 114 244 243 
3 299 304 121 
3 146 263 268 
3 39 41 242 
3 287 305 306 
3 224 227 118 
3 249 287 307 
3 257 123 122 
3 106 105 165 
3 245 88 87 
3 165 105 263 
3 11 284 257 
3 213 59 10 
3 11 10 284 
3 58 10 59 
3 58 284 10 
3 268 59 147 
3 278 277 294 
3 60 227 293 
3 114 243 287 
3 80 305 41 
3 121 244 275 
3 275 244 113 
3 121 275 122 
3 308 309 131 
3 39 242 224 
3 227 224 304 
3 117 40 39 
3 238 40 117 
3 131 208 310 
3 207 310 208 
3 227 304 299 
3 39 118 117 
3 304 224 242 
3 119 158 263 
3 287 296 305 
3 243 296 287 
3 59 268 60 
3 60 268 158 
3 296 41 305 
3 250 78 273 
3 250 273 254 
3 123 299 121 
3 123 283 299 
3 283 123 257 
3 293 299 283 
3 242 41 243 
3 119 227 60 
3 242 244 304 
3 304 244 121 
3 254 251 250 
3 116 115 266 
3 253 311 254 
3 307 280 261 
3 223 312 289 
3 297 312 223 
3 193 301 300 
3 223 86 248 
3 65 86 223 
3 252 308 279 
3 290 289 175 
3 186 180 182 
3 110 109 290 
3 313 308 131 
3 136 23 25 
3 129 131 309 
3 142 272 16 
3 22 112 62 
3 198 86 222 
3 303 288 195 
3 175 314 176 
3 305 80 79 
3 63 294 136 
3 178 291 180 
3 22 24 112 
3 111 24 56 
3 136 294 5 
3 291 5 294 
3 143 286 115 
3 20 286 143 
3 19 135 108 
3 183 277 258 
3 19 286 20 
3 206 315 207 
3 175 316 317 
3 260 155 154 
3 260 116 155 
3 129 309 252 
3 290 155 266 
3 318 315 319 
3 320 303 195 
3 130 129 321 
3 210 280 88 
3 208 131 322 
3 279 218 247 
3 176 314 288 
3 323 288 314 
3 218 220 295 
3 323 314 282 
3 209 261 280 
3 207 315 318 
3 314 175 324 
3 175 317 324 
3 289 312 258 
3 112 111 282 
3 272 282 111 
3 271 272 111 
3 222 86 65 
3 33 298 34 
3 208 322 274 
3 8 34 298 
3 325 302 326 
3 120 298 327 
3 250 79 78 
3 320 206 303 
3 302 232 300 
3 115 328 266 
3 306 305 79 
3 110 290 328 
3 247 218 248 
3 184 193 300 
3 184 300 270 
3 175 329 316 
3 110 328 286 
3 318 325 310 
3 327 320 195 
3 120 327 195 
3 307 306 79 
3 87 86 198 
3 254 269 176 
3 219 308 313 
3 255 232 233 
3 255 270 232 
3 290 266 328 
3 109 108 285 
3 330 311 321 
3 331 298 163 
3 327 298 332 
3 8 298 120 
3 332 298 331 
3 252 79 250 
3 307 79 280 
3 252 280 79 
3 252 309 308 
3 8 120 6 
3 286 328 115 
3 270 300 232 
3 66 285 73 
3 311 130 321 
3 330 321 129 
3 78 238 333 
3 334 329 258 
3 258 329 289 
3 313 325 326 
3 210 88 245 
3 219 279 308 
3 247 88 280 
3 247 280 279 
3 320 327 319 
3 332 318 319 
3 332 319 327 
3 302 325 318 
3 279 219 218 
3 290 156 155 
3 175 156 290 
3 176 269 154 
3 262 154 269 
3 278 294 63 
3 63 62 278 
3 258 295 193 
3 282 334 278 
3 294 277 182 
3 183 182 277 
3 295 301 193 
3 232 302 281 
3 197 281 203 
3 332 281 318 
3 232 281 177 
3 318 281 302 
3 63 136 25 
3 331 281 332 
3 331 203 281 
3 73 72 66 
3 154 156 176 
3 258 278 334 
3 207 318 310 
3 325 313 310 
3 313 131 310 
3 295 220 301 
3 93 231 173 
3 163 203 331 
3 173 231 42 
3 43 177 281 
3 238 78 80 
3 287 306 307 
3 249 307 261 
3 313 326 219 
3 302 301 326 
3 323 282 272 
3 272 120 323 
3 120 196 323 
3 323 196 288 
3 195 288 196 
3 109 285 223 
3 73 285 108 
3 334 282 317 
3 317 282 324 
3 314 324 282 
3 274 130 253 
3 254 311 251 
3 273 333 107 
3 303 206 274 
3 253 130 311 
3 238 107 333 
3 258 335 295 
3 295 335 248 
3 297 248 335 
3 258 312 335 
3 297 335 312 
3 252 330 129 
3 131 130 322 
3 78 333 273 
3 289 329 175 
3 334 316 329 
3 317 316 334 
3 326 220 219 
3 301 220 326 
3 130 274 322 
3 251 330 252 
3 311 330 251 
3 320 315 206 
3 320 319 315 
