ply
format ascii 1.0
comment VCGLIB generated
element vertex 47
property double x
property double y
property double z
property uchar red
property uchar green
property uchar blue
property uchar alpha
property double quality
element face 90
property list uchar int vertex_indices
property double quality
end_header
121.8911274991185 30.08919054506863 808.1712539327918 255 255 255 255 0.04519575574627628 
121.6417488103434 30.49962529831944 808.1406292275987 255 255 255 255 0.06212167370636548 
121.5032068279104 30.32774443097717 809.1914918189185 255 255 255 255 0.29782282851118 
121.8364182172438 30.2723895462257 811.1982439047594 255 255 255 255 0.1162212676498458 
121.5392677728614 30.09561096200963 810.1497664839079 255 255 255 255 0.1388733673757235 
121.430155091252 30.62633547397826 808.7021176952703 255 255 255 255 0.1400520467401299 
121.8166298335807 30.80484554102246 810.3664662186179 255 255 255 255 0.2742138137364042 
121.9501512052041 29.83628232010256 811.0919215988646 255 255 255 255 0.064734487568558 
121.4065283110629 30.49658104035653 810.573695031831 255 255 255 255 0.1846725501159994 
121.5661018777334 30.12099448990013 809.6105319469284 255 255 255 255 0.1894548083432147 
121.5536242667817 30.55349523347553 809.7029445954211 255 255 255 255 0.2727476026211538 
121.4511278150402 30.1314090270747 808.8621892523661 255 255 255 255 0.1768387915341121 
121.5063609198422 30.13941117473082 808.2931213076671 255 255 255 255 0.1080967998800419 
121.8025214002167 30.85112967536654 809.076744544709 255 255 255 255 0.1351066201106843 
121.5221062430826 30.35946099173019 810.962623857008 255 255 255 255 0.1633314590878105 
122.3341614960834 29.98228116027368 809.5465568812089 255 255 255 255 0.04814695203083263 
121.3922048809931 30.05371916934908 810.6457223034649 255 255 255 255 0.08903232258213621 
122.2572693999055 29.99271103918984 808.9629510378294 255 255 255 255 0.04865230307750091 
121.9228708191538 29.8562341550757 809.8448370180521 255 255 255 255 0.08736768240135491 
121.7337197128578 29.79611433031643 810.7146473432886 255 255 255 255 0.0210458140221716 
122.4409605480883 30.33663176117241 810.4457561987721 255 255 255 255 0.1134258118255931 
121.7731818841748 29.88072446848808 808.5150022262876 255 255 255 255 0.1016064408298053 
121.4965712729298 30.12940572503381 809.0913874991651 255 255 255 255 0.1955350022581258 
122.2027946034837 30.77760540012398 808.8803043085948 255 255 255 255 0.04695031880379737 
121.8970236473304 29.87266427095149 809.3784858138586 255 255 255 255 0.123076744925954 
121.8605985554224 29.8297382928698 810.3172861122606 255 255 255 255 0.03382680214346327 
122.3086998939128 29.95341781874836 810.1649596142142 255 255 255 255 0.04120043792672969 
121.8213050958501 30.87001520757058 808.6207597245623 255 255 255 255 0.06319391577596632 
122.5123468596088 30.37808109226957 809.6388117239053 255 255 255 255 0.06773806534849833 
122.2819420239895 30.77066233444297 809.383686182603 255 255 255 255 0.1001525496313903 
121.8082528586018 29.87673035484113 808.8444062531137 255 255 255 255 0.1257955368408586 
121.8669895550049 30.84410246517751 809.5374102894909 255 255 255 255 0.2143415435214918 
121.5043771226651 30.01877014477547 811.0877352862191 255 255 255 255 0.06629611092974642 
122.1908615928033 29.99515920525814 808.6232365893735 255 255 255 255 0.04313311570135211 
121.5469117070503 30.54111205684397 809.9965527929171 255 255 255 255 0.2512462039750765 
122.2682363787131 30.29098369925375 811.0100590860727 255 255 255 255 0.1259234154764715 
122.5074884584347 30.36643555489245 809.9972425234052 255 255 255 255 0.07947705861945788 
122.0164333863365 30.66259649576893 811.1106875746119 255 255 255 255 0.2163228271696316 
121.6702262577247 30.76220034992528 810.8205715671501 255 255 255 255 0.2273881294165071 
121.4740875628401 30.5639106831498 809.0880698476018 255 255 255 255 0.22878906929671 
122.4564289839414 30.39150161301133 809.1230033049459 255 255 255 255 0.04200929017752961 
121.8601231872334 30.81695044969526 810.1267745583657 255 255 255 255 0.2557903650046763 
122.3008225840111 30.75092116459338 809.9839749501256 255 255 255 255 0.1534393783024205 
122.386735288724 30.39463429340045 808.7363054727082 255 255 255 255 0.0292716803920083 
122.0613075056246 30.43220650450201 808.4578102024034 255 255 255 255 0.0290498378803118 
122.1810435327391 29.91362342470989 810.667673194063 255 255 255 255 0.05452505127290055 
122.1945709942048 30.72095337795798 810.5313038044445 255 255 255 255 0.195760408498314 
3 27 1 5 0.05884974773341145 
3 12 5 1 0.127798847371758 
3 1 27 44 0.03379587605905365 
3 1 44 0 0.01436358139701222 
3 27 23 44 0.0261071369626581 
3 12 1 0 0.03019726571883974 
3 11 5 12 0.03202953832256961 
3 37 14 3 0.1831332146916866 
3 39 11 2 0.343910874900393 
3 37 3 35 0.007760466108139075 
3 12 21 11 0.05794726951611084 
3 3 32 7 0.004369909668024197 
3 32 19 7 0.01472730328156235 
3 3 7 35 0.04527064512234102 
3 8 14 38 0.004445351671043651 
3 33 30 21 0.06779574434775903 
3 7 19 45 0.01958726691145463 
3 22 24 9 0.01823426517302007 
3 32 3 14 0.03665045887959639 
3 26 18 15 0.0395805329656308 
3 34 41 10 0.376613453902483 
3 5 39 13 0.1484940760657077 
3 15 18 24 0.01127413675339639 
3 9 10 2 0.05855474013333817 
3 26 15 36 0.04438318677271658 
3 17 33 43 0.07146857193920519 
3 9 34 10 0.322594808246494 
3 23 29 40 0.002573141375513899 
3 4 8 34 0.04446752312728863 
3 11 39 5 0.04958981047193745 
3 23 43 44 0.09141672262739031 
3 12 0 21 0.004818020982752746 
3 15 24 17 0.02944067431878361 
3 33 0 44 0.02649531783546411 
3 33 21 0 0.07671139873768096 
3 7 45 35 0.01394420960902287 
3 20 46 35 0.07445525179571189 
3 10 39 2 0.3650168099895494 
3 14 37 38 0.1090762041032409 
3 16 25 19 0.1960568948463676 
3 11 21 30 0.1789411748943677 
3 42 36 28 0.1564106974820576 
3 25 16 4 0.07936506526046938 
3 8 16 14 0.002219470592545236 
3 24 22 30 0.02061509969508091 
3 22 11 30 0.2502360148240976 
3 45 26 20 0.007129314241603013 
3 13 27 5 0.0568683719650166 
3 13 23 27 0.001923438604939265 
3 6 41 34 0.3443953262236535 
3 41 31 10 0.04862313921414163 
3 29 23 13 0.04461130664185209 
3 43 40 17 0.03087372730937588 
3 30 17 24 0.01932426032710388 
3 9 4 34 0.02645631737809795 
3 16 19 32 0.03130643043608372 
3 20 36 42 0.1830403267047443 
3 18 9 24 0.004590122696105259 
3 2 22 9 0.3343572382708202 
3 31 41 42 0.05986335846135582 
3 46 37 35 0.07744800010405739 
3 13 39 31 0.2146908710100217 
3 30 33 17 0.07086698143783199 
3 42 28 29 0.01614651651128907 
3 19 25 45 0.01487090904519617 
3 39 10 31 0.08632020908201654 
3 40 29 28 0.002984614819729225 
3 42 29 31 0.07665527817265805 
3 43 23 40 0.06431840491370056 
3 45 20 35 0.01485818698596642 
3 8 4 16 0.06399133653313749 
3 18 4 9 0.005682367615686412 
3 22 2 11 0.4246465209775298 
3 18 25 4 0.03297875318696053 
3 42 46 20 0.07204507659511272 
3 15 17 40 0.0422697297293736 
3 8 38 6 0.03925315043067201 
3 8 6 34 0.01148516483801343 
3 13 31 29 0.06721354341691799 
3 18 26 25 0.003617217814379181 
3 15 28 36 0.294990841951642 
3 26 45 25 0.005179403792113124 
3 26 36 20 0.005546180308144244 
3 33 44 43 0.01007016714500419 
3 46 41 6 0.3933147446819355 
3 41 46 42 0.02266677711042242 
3 15 40 28 0.07127451236289029 
3 14 16 32 0.04225371961721047 
3 6 37 46 0.4415643549974984 
3 38 37 6 0.4415643549974984 
