ply
format ascii 1.0
comment VCGLIB generated
element vertex 335
property double x
property double y
property double z
property double quality
element face 666
property list uchar int vertex_indices
property double quality
end_header
213.0839595333044 69.94254783168039 939.8733509288165 0.1027084659840618 
216.7818351460977 77.15677499096044 946.030896542294 0.007048837478337263 
218.1253298243088 76.51567968486358 946.0689738222826 0.06273241048122138 
217.1125521212832 72.5165257203153 942.7759820338795 0.0756185465675358 
213.0279796480334 72.31910172205694 948.0264040194749 0.01046684947920332 
212.3939841841059 76.34893681065478 946.0140581771577 0.1705912937311197 
209.0591683898391 73.69232558173387 937.2286522075246 0.01557557698323903 
212.4706302669067 73.78374354345463 947.2123504412634 0.02933261404311903 
217.5594978936791 76.55050613997356 945.680451753701 0.1107401009996452 
211.5596531774169 69.96611649582252 939.8210950660966 0.159761763407285 
209.9734436298969 72.01406503336466 942.3846125725826 0.05563404317184205 
215.8024269118174 70.77493305433342 941.4519338923527 0.1003412402620313 
213.6162995986572 68.42108152784412 946.0908886093314 0.2070007965400052 
210.2498089378242 71.10837211762895 937.8675952298031 0.03198109872219207 
213.434797716212 72.1957416152696 937.6573930692239 0.01944594642062871 
215.8322788633032 71.2332621418924 945.4670229870136 0.09805423441662676 
210.2227717228456 72.88382657135676 945.0645473636735 0.1398258930073308 
210.7114047244268 69.9717262601319 940.1707546153365 0.07982952689237141 
211.8080528592915 69.3485454022023 941.045842302232 0.09314059738412028 
212.3554810115321 70.40989633876033 947.001568573771 0.1065744998245628 
212.4526141691039 75.94662338807787 943.7862451669554 0.08018859059127424 
212.8478581464004 76.65882854971565 944.4247493321873 0.07207465091476103 
210.7996703065601 75.29340121208864 939.8712669801611 0.00535057855328958 
210.3422313914971 70.01071958715627 945.3851316219907 0.1590991069437547 
210.3034992291556 69.8597370194356 946.5086641108101 0.138568076346613 
209.9076825054809 70.11677884168544 947.0176505067164 0.06747499573804165 
209.4206231441999 74.76786028473147 938.5923442242071 0.08619986530020041 
217.0293333932018 76.58494524275081 944.1106545847775 0.0619892269765168 
210.2907297093347 69.87289104625982 943.1024095599362 0.07150490869272451 
216.3064568247441 73.60338981256436 941.4603474723023 0.1567929532682005 
210.3088606872174 69.77961842041162 943.9419620222193 0.05284822520804808 
212.9396205029267 76.01102888152164 945.7595207093796 0.1543364283760811 
211.9282888799345 69.72381147627085 947.3830224897174 0.06877711506977038 
214.446353997251 68.47023529211873 945.121153742176 0.1303190946319753 
215.1780612694656 76.61531362683746 943.3824017672388 0.002528083071176934 
216.2229159857314 72.11420935203387 940.8371025255479 0.09237982244960734 
216.3649263290145 71.82428667319427 943.7900986484668 0.1065653210645994 
210.6980664663403 70.97433575500476 938.5621445712354 0.01050646835372414 
211.3510335505823 72.62294228145258 947.0652836896828 0.1432410773925634 
215.4241637221849 70.71001793551851 941.1673514758277 0.1161537231794201 
210.6921206575211 69.3994141978811 945.3366907819235 0.03630202414948045 
215.9260511966428 74.64437952925547 941.4620150648769 0.1660879898546058 
211.7419413920853 69.30863401424021 946.5848093586226 0.0207064961197357 
210.3749179431165 69.86859380481866 943.4778548657245 0.04731760900365455 
210.2113334251067 74.43228948759618 943.097290421695 0.1090527736901947 
209.4950059608207 74.47755501995904 937.1053202859572 0.01491558451343565 
215.825465470627 71.0376651860638 943.7474824905821 0.1915233223537446 
211.6074337414495 69.63976689411929 940.5051338348027 0.1339385712000637 
213.7735168881573 76.40242976965799 944.7510687473795 0.153884042598199 
214.0362472295353 70.2919700373557 939.8184692779754 0.1689519162176221 
212.048938744001 73.415990282596 948.0733382141756 0.006590717390360003 
212.1237107869563 74.24808462062458 945.7272609403071 0.1062010202520615 
215.2308336823023 75.38646478000311 941.5335835266718 0.02812441450945965 
218.5515664999078 75.40529549150207 946.0171798273212 0.1255252849606015 
212.8862257606426 73.90941662908948 937.2301062530092 0.1043734636439967 
210.0860350789189 71.35106659695691 944.9840115103658 0.0891179110435196 
215.3739341158198 71.46460144260432 939.5172211873577 0.04393558220955441 
209.9980991132178 70.87999942919859 945.3526040815231 0.06025524060929333 
215.9337433309345 71.04385349278958 945.7182142801539 0.1160227888726452 
213.0927164633051 72.36397659003929 936.5192371039914 0.05917362919112402 
213.663986166365 68.66892824725899 944.6853957122868 0.08341581618029029 
212.4388939798063 68.75392954163048 942.4666134310133 0.05090849180215009 
211.3451166863429 75.56495749248379 937.3898717096848 0.08729452618765574 
214.3930430189323 76.9065731714396 944.3716061898922 0.1186352384962576 
217.00561306637 73.05995759236841 945.4215010642695 0.0914123121426577 
213.2182057978515 69.30345381104874 941.8402068639513 0.09370756916049287 
210.8613729758273 71.5527597607019 947.7062282195119 0.008344711291604901 
212.7532031214067 74.67838780626799 937.7562711284833 0.05632525682240563 
209.846351218102 73.45722182323316 943.108944704606 0.109917615068442 
216.333685366347 76.31343063281693 943.7242799166123 0.01215783776440557 
216.0812294311389 71.79484447888044 941.2067501518716 0.1040738332640277 
210.3151112819734 73.32527366167223 942.7207529962604 0.1883865296982498 
212.7634122934621 74.03560443316906 946.3823801812456 0.03529930623161608 
213.0078861428825 68.43430404629154 946.0149741285354 0.02686961223451827 
210.233156926079 74.80176017851539 941.4317616497232 0.1890613886282854 
209.5820726765171 73.04112438416901 939.5507011144369 0.05870386748466848 
210.530899730235 73.98296848306317 945.0471976098694 0.09745695512972871 
211.2494483171868 75.46745046949482 938.9369781732402 0.006005358737200305 
211.3211524471249 72.85719238133264 946.7197118965315 0.1327671536912766 
216.3866248881263 71.38012122255084 944.3490785334259 0.04070632655815493 
211.0295743468421 69.531091179353 946.0208856884883 0.1097939590955843 
209.2873233901248 73.68854246442746 939.1529063110174 0.03567538226652228 
212.2906317121832 74.95587196048325 938.2444595387552 0.07780104820792176 
212.0837084359875 76.1445163065456 941.8960871295618 0.09799550818991053 
211.591559433738 69.07662777233169 944.3284761835796 0.08039721530188282 
212.1076914835645 75.47300014762483 945.4151184119661 0.04852790194758447 
209.9211410666248 74.17807022022575 939.6822615722892 0.02118110276886035 
215.4722807660634 69.8090972935954 942.4249152646618 0.03711833315124351 
214.7268555647969 76.65473177340056 942.7870673498787 0.02946760686744903 
209.5703188432407 72.15848381486884 943.1443022956615 0.2290662096293559 
212.5477986557972 73.84335962092362 935.9130178136006 0.01065981150510313 
213.9011917192488 74.42761709712522 939.0536719977563 0.009237778245010856 
212.5703799581028 75.87544978425922 940.8274108210159 0.130277827720644 
215.3382174007014 71.51672458893532 939.8629292888218 0.07020527433647596 
214.8631107649161 69.66038348667078 941.4842062009924 0.1162519732931356 
212.0636905470578 69.00875081220188 941.9516714800238 0.04642671021593812 
210.7494441705351 75.58067163220888 941.4644729507488 0.1930292750073272 
212.8347823410697 72.48519306197402 935.8461373904206 0.004428771357232531 
214.0228511345899 76.55859173702115 945.1261160534233 0.07981998167809005 
216.6157964455949 72.26434797092494 943.1104527289516 0.1899832476946632 
213.2703197290328 76.36513200403647 945.3972519219922 0.1225293140363252 
216.3352270983771 71.9723511506989 944.8380620430905 0.02999081872062554 
212.4564817398637 68.96222857314744 942.9037168145779 0.0505560527231107 
209.8050780840094 70.92533855284397 943.1226264786001 0.07701456802090659 
211.8307813484029 75.55228009382465 946.024065870709 0.1047695963154344 
212.9842432559107 71.41860183326558 946.8839456799399 0.04749808670333441 
215.6988287408355 70.40383648810021 944.2037492869928 0.05257398287751125 
210.0183640625108 73.15192525525077 944.724765963887 0.1229901054868533 
211.7824424970538 69.3128911930737 940.1784621853336 0.1059255143865847 
209.6277513315995 72.43760609045927 940.4713836070049 0.0686081647393645 
210.8253794074395 74.99134883507708 944.0688094395728 0.05894707814796322 
213.6289608958245 76.13519459486398 941.517746171415 0.05430594098145013 
212.6521770550683 71.19375566937197 947.2114307862824 0.119880482179447 
209.8331214075695 75.0773603397765 938.2096723563951 0.1034160282733312 
215.9291831144536 73.29841902630287 941.1969068331096 0.1653369649430417 
215.8721655807664 70.83518077537195 941.8760361726664 0.02716030519334841 
212.1564254359315 71.66702098242439 936.9122668008828 0.07332808295747149 
213.1209393060795 75.89111248421561 941.1680978440726 0.1679356509304281 
211.2203697894608 75.44199911576108 941.1770419551318 0.1461122678905205 
215.4535978379349 70.42545777126891 943.0970479061389 0.08004915904744443 
215.2539186833305 74.59067609207916 940.8025005651231 0.04567596465393888 
212.352423610672 71.50493603985478 935.9532345341624 0.1034017311724428 
210.3472450729444 69.37642360106733 947.0640442069537 0.03620553960520093 
215.6652072750868 74.99065421846187 941.7940487829997 0.01466619482323816 
210.8311248766714 75.11249047834157 941.8696655998357 0.120182339814172 
213.1167942725168 69.65571095673521 939.5463479050328 0.05168257086169658 
215.907082284357 74.16669054008982 941.7975650977914 0.06118876907391076 
212.1962421813812 76.04971074153974 942.4433328121665 0.0854069461330387 
211.5985706067038 74.0826049206067 935.8151830755139 0.005955133008935022 
209.5171686058018 72.04314894813467 944.0673058272209 0.07325163196039973 
211.788759943991 70.19480489905013 939.2152072773167 0.1612102713356634 
216.5096461066153 72.64307132012246 941.6921991220177 0.05810128785715337 
215.0931180925757 74.7933181987226 941.1675394210674 0.06396655875074719 
210.7776041674103 70.4876900081169 939.8682328233235 0.1062430177750237 
210.406610364569 70.8004561478344 939.4661733217 0.01495477850624064 
214.1566964432399 68.99289812704298 943.3851223277078 0.03674544755225283 
215.606949890282 76.79289950123753 944.4989920949228 0.08281648435583104 
212.8152841713608 73.36689469994357 936.9269286387278 0.1407452015877489 
212.8560072714826 69.35622934655827 940.5838905266206 0.1740798309406731 
216.2377019331109 76.84898070888551 944.0843321307028 0.1206211661803882 
214.8831086420038 69.54541960567848 945.7270665650473 0.1237000316450467 
210.1949032675188 71.09242401712994 946.4468264614134 0.08771604044539788 
213.6007852408904 69.06389443771496 941.4862981000471 0.07897182419900925 
214.6291056558586 77.2510350955671 945.9631475915029 0.005136978502429538 
209.8596035154171 72.31434663645368 945.4202713357314 0.1320257858917785 
209.6115006051824 72.40162045603222 935.8368158825318 0.008035343453711909 
210.3677609396607 70.31054015716218 942.4304382301129 0.1008471196085185 
215.4519895173166 73.12956029709957 946.2034491980851 0.00677543663217738 
210.5673527551245 70.47597231425559 945.7846697041954 0.1681355531591656 
214.2744628338999 69.21969131656127 945.409612639921 0.1359866254807253 
209.6498230688946 70.81650460751101 943.7819095900738 0.03835826800395144 
211.4414842749241 68.96510653432085 946.295256503719 0.1368963351171049 
212.5887227920219 76.00950411242431 945.2778549932345 0.09707469126236529 
211.232910386752 75.16649910770172 943.4343964296077 0.1058454311323948 
211.1622788531675 72.70049775559902 948.0820740955969 0.01624520469418873 
215.7838350479827 70.80847510873947 940.855894258762 0.10374466405452 
217.9056224640063 73.59788446887977 945.7563060249456 0.0347960085900628 
212.6899827651521 76.47047564602866 941.4704095488233 0.09347193430807604 
214.5218455424946 76.55814179176829 943.0853006832486 0.0797866506306649 
210.4762495350437 74.00426171881047 944.3656660694988 0.1384395705560884 
211.4673728457067 69.51501210980483 947.0009139468638 0.1287237903183304 
213.3811839570652 72.99787846308271 937.2465388532534 0.1165223948785913 
210.1618145745155 70.9507473813953 947.3797043842147 0.004828363300415551 
213.2436305473111 76.28637935698538 941.8794901347511 0.05745118342612205 
211.1349966932871 74.75129172940869 943.7155520665614 0.1675785441364214 
213.0917330985135 71.52660493581442 937.763536535229 0.005715792841891023 
212.1540543420146 74.60026492981996 936.594731871361 0.07537772598411584 
214.3266258631712 72.16671261144118 938.3174205279316 0.004593929987235862 
214.9496907804595 69.97444333860028 940.750616528726 0.08523529121619121 
210.2120486384925 72.0624394063266 945.6527954483275 0.1195413638904128 
217.916097845406 76.38038395788546 945.2339624807372 0.08982070957138361 
211.6142746045335 75.49338299967948 940.4988662476204 0.1125739573400097 
212.4592708017472 75.86924102690413 944.7251113798332 0.1889221482692673 
218.3038658621259 75.43817048276189 945.7012278502756 0.09855189686574145 
210.070143872667 72.32014970442981 944.4122821064008 0.1546894443312148 
216.5906025574937 72.21889155535065 942.0724607052396 0.01589175338725932 
213.8994125308059 69.04188018800203 942.4382545599568 0.1201285713266788 
209.7780916002813 72.91899456358549 940.2517256504992 0.1538606258945048 
211.3544216515389 70.99272811565034 937.2486894136182 0.01691059238335277 
212.5830808837306 76.03180261401248 940.188823557182 0.03068418985093722 
215.3676625816186 72.85426540987793 939.8554899433184 0.005652308383846093 
214.3126897981818 69.73325133872443 941.1587634998689 0.1311886077867552 
217.2905131012776 74.019919992569 943.6295690952669 0.01354908291845437 
212.040837208469 70.9441128000318 938.1909401543049 0.004778215993101344 
217.7450031117379 75.77170673647798 944.6575612556236 0.08234881480039016 
213.5117233841798 73.82983336476399 937.9893676870122 0.100921518877385 
209.3739722313117 72.25986875773832 936.6449607883266 0.01174042239314041 
215.4745280881389 73.63209141604159 940.2705236854947 0.004751111094454284 
216.1494393485929 72.03602647697089 945.4059437740485 0.07337179162523601 
209.9429900819267 71.51763550512584 936.9281828693817 0.03813656066907941 
216.8602246062949 76.93854695625249 945.1081997633942 0.008303593337576522 
210.8430685967308 74.75222071610209 944.6618215953365 0.02419700453917779 
212.5866021818697 69.1338044194117 941.4805041636267 0.05637648428784684 
213.4460657773522 76.57813759215423 942.3174339647161 0.0945206585935516 
214.1650945920622 76.71850886223949 943.4595865680907 0.126378034104149 
211.8647124320294 76.34098304611135 942.7943133304451 0.07613375684382594 
217.2614914188353 73.16737073599411 945.3107597724876 0.135582180247782 
213.2217120782322 68.74644405677071 943.8130193985857 0.02067196761639758 
209.6139278360664 72.80576680655251 941.8308101644928 0.01295793809982382 
216.4721322436379 72.4966727213955 945.8594295253315 0.1006000169781204 
210.5077161506537 73.60552176751241 943.4374220916513 0.1090922667103624 
210.0882033939523 71.08319156762163 944.4334380906847 0.07805009381923113 
210.842644139254 69.50965002343331 947.4870499138937 0.003533233121534629 
210.3011542732085 71.21951261455297 946.0222384582415 0.1410742791693859 
212.8633627715043 73.79696248974442 936.6558554073276 0.1307246006924055 
209.2985546089442 72.74754417059583 939.1212121710874 0.01380358407484644 
210.5328449942726 75.86048484363236 937.7783693177746 0.01428451888260534 
213.5156844941813 69.9777819072612 946.3894274241197 0.005030410292853457 
211.5238719193592 73.0322061266022 946.3877745080985 0.1379370868948601 
209.2569038262362 74.31523231986304 937.9055879992401 0.07684104540498148 
214.8068627184445 69.57524592810702 942.7858078957416 0.1678620340855066 
211.4407151574729 74.58205445757893 936.0073688539331 0.03220429543724686 
212.9736590926076 72.79312929100139 947.0645150308798 0.09058085577143193 
216.1534180250476 70.52400969415807 943.4272143485495 0.1926131015602922 
210.0331406505348 71.06054451795427 940.0905009926132 0.01355288052044012 
211.6814300570677 69.79823102000211 939.5547234579394 0.1016014934108869 
217.2644202384857 72.78815798957986 945.7452208846652 0.1659578369230344 
214.6979465996334 76.62898999787667 943.8008911846902 0.08900124569310638 
210.8459924650282 69.59348388638293 941.961167833122 0.04388980396847132 
216.5660163409516 71.22160264592726 942.6536860195654 0.03904632479682574 
210.1123351964665 71.63997736342468 943.4425100020928 0.1818678472608699 
210.8849404750073 73.12180807037535 946.0128540540912 0.08653254965878833 
215.1903024824385 73.02098515516748 939.3443609969385 0.004308400867309874 
218.5024887069135 74.92665517379703 945.3930974537631 0.03323788795950947 
217.1283777083612 73.45396323918099 942.7785910405474 0.06752846500445545 
213.5286028888457 69.35436674300381 941.093288305868 0.09760574993429005 
212.7443798702006 70.26880847637972 938.9075634208581 0.03356025003522616 
213.0001037140294 76.27229544918193 943.1935163270126 0.0519265310577255 
210.6206214468278 71.37147782988583 936.9800593331928 0.0362324782088788 
213.2956291067745 76.82277154303868 942.7876091781351 0.1062977515443544 
211.8060338852026 75.48653119379819 938.4834801290444 0.03008912005359273 
214.1509448021956 71.68264737084391 946.3808706097749 0.005863472889632894 
210.9508678129639 69.64019455911676 944.3971620470516 0.06921333238971698 
213.4428596669392 68.93806407766102 945.3697560114074 0.208697216780258 
217.3921738140337 73.0461819849299 944.4669627060023 0.02022016200748623 
214.5449500246342 75.17325615223727 940.1495547972647 0.01522236810245228 
213.6921523190241 75.73476361557103 940.1389677405573 0.01790926684369911 
216.6213016628364 76.60259432453569 944.3661213212492 0.08537979901306368 
210.2667297024126 70.67174922338235 941.0340079437325 0.02385964609392331 
215.1097819832259 69.7698747460682 943.6368172062665 0.1587558804179169 
216.3411292503458 76.82143993828674 944.841519545905 0.04416593123615175 
213.8516566014729 71.15637470163871 938.5612856330451 0.003463856331994792 
209.5358650863891 73.21954728803459 939.8614590524073 0.07812179484537086 
209.9898527508993 73.7473153268146 944.0702020040785 0.08456177414250918 
210.9968471057768 69.39614335795414 942.6810526674169 0.03847654337303974 
215.6073671914823 77.31011109758359 945.641048515036 0.01896093645886757 
210.0592862770391 72.07397789661205 942.8072920134705 0.198310584449946 
210.3699053733652 70.31921178181884 945.1253332071118 0.07081523543051446 
216.5760712609587 75.05256601093819 942.7058416588875 0.003080425998906732 
215.9732884891886 77.04315494598158 946.093113293365 0.003659635942215134 
210.6165401163957 74.49123637117044 942.761793943298 0.09481315533848829 
217.0293416366156 74.34685540054099 942.7633390588851 0.01634847640220313 
210.634703195648 69.24765586196301 946.3932425516653 0.1211276392519833 
210.7156032468746 71.8313429777351 946.7238011391471 0.07674762468705162 
214.9863492163651 69.12555110983836 945.0668343127178 0.1171548748946634 
213.2847249779346 76.69349850896637 945.8699649466287 0.1666979486996728 
216.3738435652501 71.87737207056709 945.718073543148 0.1479730770340646 
210.9048102147233 74.95794349629209 942.4799618848604 0.220146305017872 
213.2375367563193 76.9582997214747 946.1132313016255 0.06308847127579272 
217.0401422038498 73.07953362899447 943.6011452582781 0.06136623346635037 
209.6298720571832 71.70692804282527 941.7904357060902 0.005632300775789497 
211.1924945205238 75.50592659397782 940.8241845526431 0.08923588389980817 
213.5963198994956 75.5208627903893 940.4718806873379 0.08449619333398391 
213.3318924421688 68.65555103878104 945.0460229010862 0.159998076887043 
211.5474105999007 68.85431173699456 945.5961671518224 0.04057673267144057 
211.7531628906613 73.70588811758314 947.1095293549982 0.09769786486758708 
209.4490141235324 71.86344335858178 937.8722942606498 0.006562364927046835 
211.3450448317278 72.13456257385484 946.4117583448032 0.1170053298577339 
217.9778689571971 74.9942949108099 944.402346733174 0.02719872305316053 
217.7341611975808 75.58943131825177 944.1451500015816 0.04833550028430086 
213.9441034603265 69.40496188075247 940.8214709391032 0.08559101843380969 
217.9353509958838 74.53081881141307 946.1474426550229 0.06781780069276185 
212.8766974168698 72.10690933264621 936.9570670897139 0.03409170035425507 
209.8713098541775 74.1031939774078 941.3169176005945 0.0988088263635281 
210.6189551501261 74.11660343648629 945.3890893282775 0.02931243800369075 
209.4847510371723 72.38440436794397 939.8445850167454 0.1167997043146164 
211.7226935758692 73.65151909979879 946.3548825003159 0.2776854127251219 
216.0546734274146 73.34496263694753 940.859406173484 0.08648285188753614 
218.3114503455871 75.87020112590368 945.2905775337974 0.07036239516859939 
209.8098727209953 71.92961018287525 939.5430965056761 0.1172080122013085 
212.4679593601534 75.53824668945407 946.1929515879608 0.08753734254058106 
214.4020705627876 69.10296339159513 944.4695471551062 0.06798830859819245 
214.414849828252 69.24876639727613 946.0525969798082 0.03249363231301514 
209.9879787770946 74.10204986563076 940.3110153273249 0.02590783658737893 
217.0578261118224 75.32068767518267 943.5818759953282 0.03115366682263179 
209.9601182760219 74.31120718185096 935.953708086829 0.006391944773845338 
216.4888167717647 73.10670974857592 941.8930373985888 0.04177516187802837 
215.4098403527013 70.68664281909848 945.287974629612 0.09531534601456791 
211.3895398451219 73.85207698090389 946.0543105820457 0.04649558241603919 
212.6176659873832 75.51069923296153 939.0886555732809 0.01035367440323834 
210.6574271967295 73.05708733385562 945.6509147110901 0.06771552369230437 
210.3524745580673 74.99858134115738 939.3610407869505 0.01073401964055375 
214.2529556466457 75.17553733863895 940.5210670058852 0.07377241244972201 
211.3786440653679 70.49033583965668 948.0585158653379 0.00258105273392632 
211.6524927009837 76.04444237563865 944.3608949794099 0.03780292701876895 
214.6047687524043 70.32569766321136 939.5257244055827 0.01975225801274967 
216.9728963218163 72.28044850616195 943.418087189218 0.1693349038880917 
209.9667380658164 70.7782354734309 941.7510864416766 0.009265890552632562 
214.3819641357972 72.76772027717668 938.3350323039256 0.007276536780428141 
211.6086368925795 74.74461916502365 936.9244497455239 0.1326770695361655 
211.1411700394356 75.72040482857381 942.9092600091469 0.05790691576444542 
213.4160520873949 69.46229116634913 940.2799670101573 0.08469900408233162 
214.2316442814711 74.76062856609414 946.2261294669295 0.001255245611036299 
209.2871553399401 72.95198705590802 940.861902007007 0.0332746543538824 
211.208664889073 69.49479587053712 946.7329375423374 0.1326514303857501 
214.8599463254244 69.84721005100867 941.8274906490536 0.05669353583891602 
213.3423242254544 72.99100223018091 937.6287593122884 0.04195450840181081 
209.9371275484487 71.17522857800297 942.8095140874253 0.01103729186755238 
209.8527956471365 71.64954163790419 938.7222572069765 0.01040761430328647 
211.623701419827 76.22069712001978 941.4991707699514 0.1036114734528839 
209.8023791130431 75.5832786846791 937.9303872337357 0.07134408282702938 
217.9079568737932 76.20350745053004 946.182135623788 0.003721455207365413 
212.6915859402933 68.73718658637496 944.3515126376537 0.04950934635702848 
215.174020350719 76.62290306131447 946.3908216519127 0.001912342291806816 
210.6662723179377 71.16628257195896 935.8633630542263 0.03182129960938349 
211.5955643683316 68.68074493488075 943.8171758550586 0.008670099733675881 
211.3621627245694 73.42538604467535 947.409026859263 0.03759142888153369 
212.8109723714307 71.38529320912707 948.1526915554103 0.005590834773892718 
214.8775635097715 76.58082056770938 944.7783859510428 0.07271406212628896 
209.5041551308082 71.93587001773896 940.9964813653958 0.01412509195446574 
214.3364939948097 75.44459644395224 941.1550123160899 0.05458748433175164 
214.451214563336 76.06493059526122 941.8473038356781 0.01420605276249755 
213.5082153470596 73.55426769841662 946.4115728430392 0.02885400473874086 
213.6510873727976 76.49857247172677 943.7376181501639 0.09826084069733759 
212.4086782178215 70.46698940691043 947.8726809237079 0.08641031276040959 
209.6930784527415 72.22564500794947 943.71510043915 0.1120259499363337 
209.5983233135083 71.88982892960745 939.1929496988583 0.01483406284001455 
211.8867688608723 68.866657899233 944.7868414088704 0.03259498212348195 
211.0581474701383 74.82073987451453 936.7038847024116 0.05428144620685594 
210.0209415690242 74.69688378182903 940.8457538149237 0.04655266261725518 
217.8590071734652 73.87833849785486 944.8454788868049 0.05614213238147086 
210.4479092879781 70.25576286594662 944.4242289457267 0.03708805373333605 
210.3249838305353 71.76275107471322 946.1092058762403 0.1011225005996445 
213.2266069566495 74.27294746341425 938.3098288912378 0.04331024622154892 
209.2993017229393 73.54294348534448 935.9259905801653 0.01036907590411012 
3 60 197 281 0.004138797029165309 
3 95 192 65 0.02190315762283457 
3 41 123 126 0.05126421421613714 
3 46 213 296 0.785507229729971 
3 164 200 243 0.1279433102048865 
3 168 39 181 0.5568184665754383 
3 117 92 118 0.1211595267149406 
3 242 75 275 0.3384126908199029 
3 112 105 212 0.658081038215965 
3 176 95 65 0.2049549588665722 
3 148 141 203 0.5882797594294062 
3 245 98 143 0.0005443009126585574 
3 10 246 71 0.8397037567180029 
3 176 210 102 0.1207309614982791 
3 236 235 91 0.02780046501821554 
3 68 71 246 0.2742057784220943 
3 24 141 148 0.4974367600051207 
3 159 174 107 0.009697925913740524 
3 127 309 257 0.1898733580601333 
3 208 38 276 0.2254669796507928 
3 300 153 20 0.12957166770263 
3 162 38 253 0.01083114646814021 
3 70 11 39 0.2064328299117228 
3 122 304 160 0.3203190194233365 
3 23 57 247 0.6852131526645 
3 122 24 304 0.5933147203183708 
3 209 81 26 0.1870022255399812 
3 27 269 284 0.01854757297552156 
3 15 188 256 0.04867257345776932 
3 225 181 142 0.409173485167722 
3 239 210 119 0.03666545186926917 
3 47 138 18 0.9325516180990674 
3 285 45 328 0.122257920204493 
3 290 85 274 0.03001356435019553 
3 169 203 332 0.09555953806191753 
3 87 115 219 0.03316839473909894 
3 109 177 275 0.4781059363023484 
3 104 31 51 0.3553111980364537 
3 177 242 275 0.03451145052053484 
3 162 141 25 0.02935839058931178 
3 172 48 21 0.304708818557368 
3 199 216 147 0.01344792233855696 
3 152 85 31 0.3281759312758916 
3 306 185 298 0.009859797712596818 
3 194 227 323 0.04807217146802867 
3 32 202 160 0.0335424547866785 
3 157 309 83 0.3429652405123619 
3 84 264 40 0.01066754657277569 
3 46 239 213 0.06120342106095833 
3 4 50 317 0.03567596603044154 
3 171 92 262 0.383410435630712 
3 217 323 63 0.3361187735904222 
3 20 153 164 0.4079566966658588 
3 301 0 49 0.02156534094581009 
3 108 17 9 0.1248995394535253 
3 220 325 200 0.7108880550125869 
3 187 120 277 0.2043441632433617 
3 98 245 318 0.01005253827842811 
3 62 230 82 0.05496943510096242 
3 82 230 289 0.002448295187766347 
3 221 290 169 0.08070966536615609 
3 89 246 307 0.2217548831458034 
3 88 193 229 0.06660258584800938 
3 234 330 196 0.03159589081304892 
3 128 145 334 0.06445040501306254 
3 267 332 253 0.7836418529657694 
3 99 213 119 0.7215793122527925 
3 333 185 67 0.2505283067836479 
3 259 99 224 0.7511818246169282 
3 50 316 154 0.07527672074294989 
3 229 158 88 0.2512110180829485 
3 214 319 109 0.1504071622565255 
3 155 35 39 0.3539916655688703 
3 69 139 27 0.00184209112799727 
3 304 252 151 0.005779264837615261 
3 135 102 210 0.5248226300303238 
3 286 131 29 0.02989089293648339 
3 70 115 11 0.01220438683190062 
3 104 51 288 0.03480254937475269 
3 205 75 81 0.05909506890483973 
3 165 178 116 0.04892898453126293 
3 173 170 8 0.3172878955597289 
3 124 257 309 0.1406132195665705 
3 272 59 137 0.04834103829262948 
3 158 227 194 0.08376617284522681 
3 310 45 209 0.01870063626654939 
3 108 301 138 0.20878946978244 
3 231 207 282 0.004581067034029829 
3 44 300 250 0.03823106912794372 
3 117 111 262 0.3308690824061515 
3 202 293 162 0.008187317247829839 
3 223 53 271 0.5046230349378422 
3 64 234 196 0.05586561156816305 
3 94 39 11 0.1976745235088674 
3 216 156 271 0.003072752227028075 
3 4 112 212 0.3757193195076038 
3 278 170 173 0.4282975520789138 
3 49 295 93 0.639379997143378 
3 244 28 146 0.216616898782776 
3 285 211 128 0.1149938895869113 
3 132 29 114 0.731593081371237 
3 98 318 48 0.2949538639570286 
3 143 258 313 0.07089395005585719 
3 196 216 64 0.2384611617947076 
3 331 201 30 0.08019098818427173 
3 34 69 248 0.1299437736729171 
3 63 136 139 0.03615741848566001 
3 304 151 42 0.04538771875440439 
3 9 17 133 0.3008790098410423 
3 287 58 140 0.01401354160544355 
3 196 156 216 0.4292104723279865 
3 274 76 16 0.00371771271704624 
3 88 34 52 0.06770063218766054 
3 60 33 263 0.08498945855372364 
3 52 248 123 0.00444629828045906 
3 163 193 321 0.02499927323010542 
3 300 20 227 0.1263833978099551 
3 116 272 165 0.05836608710352498 
3 267 208 221 0.1963150509005037 
3 30 232 331 0.4348808472455145 
3 301 225 138 0.09230627328673202 
3 24 80 252 0.4728668678698345 
3 264 151 80 0.01477966182278923 
3 70 114 29 0.3860996607120993 
3 74 71 250 0.02008457093806004 
3 87 119 210 0.282563666396509 
3 268 269 184 0.00659024751708337 
3 299 54 137 0.3327197627040794 
3 168 49 93 0.008981182010918132 
3 243 200 325 0.04835526813641045 
3 254 281 106 0.003209582223423491 
3 301 49 270 0.09815057548969308 
3 66 316 38 0.02528461658751679 
3 128 211 90 0.07080067637013598 
3 251 248 284 0.06279576053799596 
3 160 304 42 0.01184269745731703 
3 297 319 238 0.06426997434520643 
3 181 39 94 0.1121487849364551 
3 72 276 7 0.5414702467064298 
3 330 156 196 0.01986317053365116 
3 118 74 96 0.2035668366004779 
3 22 77 291 0.1457074130724504 
3 228 121 116 0.332776614220728 
3 304 24 252 0.2953947411652967 
3 55 247 57 0.1655306115401385 
3 294 110 191 0.004588533728414279 
3 121 59 272 0.01116889309365243 
3 70 39 35 0.2236170145292435 
3 73 12 207 0.0188256346540735 
3 50 154 317 0.03398126091608 
3 3 224 99 0.1577043720386796 
3 14 241 165 0.03143919584565791 
3 79 234 101 0.06228632966753755 
3 89 307 103 0.1343138753186924 
3 214 133 17 0.03865632628128257 
3 306 14 161 0.1446030573529765 
3 99 219 3 0.06511081334575597 
3 146 260 297 0.02187709218317446 
3 311 2 1 0.09621026525198928 
3 284 269 268 0.06345954221027561 
3 74 118 273 0.2802155743303365 
3 93 295 56 0.2472674377416916 
3 238 214 17 0.2027974129115225 
3 188 64 256 0.5254441994872694 
3 53 311 271 0.02943030258752821 
3 216 199 256 0.8925697349628267 
3 84 40 232 0.2669761043167118 
3 237 184 269 0.1660119030574169 
3 213 239 119 0.1281423926978672 
3 50 265 316 0.0803758634037679 
3 160 202 122 0.049839379587858 
3 107 174 55 0.1851648637677359 
3 34 217 69 0.04355790907136459 
3 289 91 82 0.1007390855962935 
3 314 97 121 0.01467805283566681 
3 32 160 19 0.5562562882787252 
3 228 189 314 0.1439415497698437 
3 15 58 287 0.2142962981923118 
3 147 311 302 0.02954180700574138 
3 102 135 197 0.1062719991925156 
3 100 172 152 0.3391568722582325 
3 285 6 45 0.1235667371804086 
3 200 153 44 0.08852716086318824 
3 62 45 206 0.03950657274689462 
3 65 142 94 0.3095203829001224 
3 127 193 83 0.3283860728409658 
3 237 139 136 0.2752648469846652 
3 154 66 293 0.01462647272007456 
3 54 299 62 0.01831328375436947 
3 151 252 80 0.3442176762847046 
3 270 168 181 0.333720422050317 
3 287 149 254 0.1203609396651049 
3 276 38 265 0.0399919015835708 
3 35 93 180 0.1080311831738536 
3 203 141 253 0.278029232964459 
3 218 244 146 0.0596010793593712 
3 221 51 290 0.5591894216988245 
3 260 198 319 0.2632284987037827 
3 29 126 286 0.05783147468611405 
3 193 163 83 0.007007280242492975 
3 223 271 156 0.2031072174396024 
3 118 157 117 0.01043393062761211 
3 125 215 226 0.02494535082554672 
3 327 233 264 0.1189723954620996 
3 334 285 128 0.01858918706144219 
3 165 272 161 0.02486340472673099 
3 29 41 126 0.3726638602847303 
3 212 231 322 0.06104353841080357 
3 301 108 0 0.1015877217864777 
3 267 221 332 0.08303553088236348 
3 241 14 167 0.03207095416241423 
3 125 49 0 0.2123138080446308 
3 139 237 27 0.02172318286096164 
3 77 179 289 0.02468401022726519 
3 251 286 126 0.167563158550651 
3 94 11 115 0.05393552555775649 
3 1 245 249 0.01276087860706066 
3 320 321 52 0.06987046951903975 
3 56 180 93 0.02039952797832445 
3 43 103 28 0.06504209903345159 
3 84 312 327 0.4843938503045915 
3 173 8 2 0.2102014367538297 
3 302 258 280 0.09730611587220284 
3 1 2 8 0.01837516475228407 
3 202 162 122 0.03685460667307072 
3 322 231 147 0.0003258494624448494 
3 326 75 205 0.2580145373407291 
3 149 287 140 0.3896320359772596 
3 91 187 222 0.01170088580627882 
3 66 38 162 0.05653652903472617 
3 282 149 140 0.04213061172132004 
3 50 4 7 0.02564823350079926 
3 311 53 2 0.7125294299299314 
3 22 86 283 0.04026908608458035 
3 95 61 244 0.1457762487354469 
3 283 261 171 0.09204371212446871 
3 329 303 273 0.2443223501363222 
3 90 166 204 0.02991994131911224 
3 298 333 91 0.01324472198383742 
3 299 137 204 0.489213997334439 
3 75 326 279 0.5131796867308134 
3 180 56 222 0.09561340363455395 
3 105 231 212 0.5790500273713715 
3 237 269 27 0.4506826840699748 
3 199 147 58 0.01314822054251608 
3 235 236 292 0.1586120516079793 
3 70 29 131 0.4606683791932257 
3 191 107 76 0.07516129265209759 
3 144 274 16 0.1226793316103825 
3 48 172 100 0.3665957692268262 
3 239 281 135 0.292396314485952 
3 241 167 56 0.01247666595596597 
3 78 253 38 0.09535073796272842 
3 229 127 195 0.1126635313708549 
3 43 315 30 0.1375007174276781 
3 195 300 227 0.01119562810217378 
3 170 184 190 0.1244250110954699 
3 57 169 144 0.2426129457213571 
3 113 310 209 0.02727078351757672 
3 259 79 36 0.1299349056163388 
3 217 139 69 0.0492787855322423 
3 21 294 172 0.03508938406235218 
3 6 285 334 0.007135230911773704 
3 19 112 324 0.08705715216683507 
3 134 133 214 0.05334164073115166 
3 90 211 166 0.007848378038446513 
3 6 186 266 0.1108734158755167 
3 318 136 63 0.07436976724136835 
3 197 312 315 0.02919634507842461 
3 239 46 106 0.120016956316079 
3 67 62 82 0.1516523470784291 
3 243 174 159 0.1562067604884128 
3 198 273 303 0.02259854133794392 
3 272 137 161 0.03441012606378568 
3 294 20 164 0.06715913302469401 
3 259 330 234 0.1085719160722948 
3 244 218 95 0.00185298003844081 
3 46 296 36 0.1542952296111111 
3 150 220 43 0.4299590221739771 
3 308 134 326 0.1289412733230162 
3 264 84 327 0.01061950499402509 
3 70 277 114 0.4692802469628236 
3 120 292 132 0.3436650536122503 
3 173 223 278 0.3461123698267786 
3 328 299 166 0.1082095771859182 
3 60 281 33 0.01983982337720536 
3 110 294 164 0.2345541564025106 
3 323 217 194 0.3059928162305114 
3 25 141 24 0.03137627820119659 
3 312 263 327 0.2736165333151088 
3 113 26 291 0.1827844367970874 
3 186 334 145 0.04068554552728665 
3 188 101 64 0.3183869749729458 
3 74 250 257 0.0560950525852012 
3 226 130 183 0.05980166986700586 
3 142 181 94 0.1525490248945008 
3 18 95 218 0.02430574243553241 
3 32 324 293 0.04904346343922716 
3 221 288 51 0.4836510459953052 
3 245 190 240 0.009267428342225714 
3 185 333 298 0.02847476812083083 
3 13 189 228 0.3265090267096958 
3 97 128 90 0.08112793664916595 
3 233 263 33 0.2340739540199999 
3 287 106 79 0.02445502288060331 
3 98 100 255 0.04931211953292625 
3 203 253 332 0.01170300216277154 
3 292 262 320 0.09209225884531402 
3 142 192 225 0.0007570863129022776 
3 324 317 293 0.1895919136971087 
3 291 77 206 0.1461127990855042 
3 125 9 215 0.418030847224269 
3 161 137 54 0.122506333225104 
3 255 258 143 0.08613168741996968 
3 277 35 180 0.19057831526088 
3 243 129 174 0.2276854572050234 
3 232 40 331 0.332257535787021 
3 10 198 260 0.1665677441085399 
3 298 167 306 0.008466389946882091 
3 289 179 236 0.09567442030447093 
3 110 243 159 0.05660109672187486 
3 125 295 49 0.04032275273689334 
3 32 293 202 0.006830163890631624 
3 19 105 112 0.05912607943495629 
3 113 206 310 0.0402643885496381 
3 247 331 40 0.01919931038083111 
3 280 104 72 0.02032004195642234 
3 132 52 41 0.1066050934324206 
3 0 9 125 0.2482672741541346 
3 280 258 5 0.2555286012390768 
3 101 15 287 0.05335074566198961 
3 56 295 241 0.04936377508173639 
3 50 7 265 0.004270011171113475 
3 29 132 41 0.1368542357929371 
3 328 166 211 0.06007732969724067 
3 102 61 176 0.3230568620731978 
3 46 36 79 0.0319235753417374 
3 201 174 129 0.1492959396080671 
3 121 97 59 0.01366483546364072 
3 305 65 94 0.435598704241826 
3 300 127 257 0.06815155246558824 
3 224 182 259 0.2806129688327424 
3 327 263 233 0.3001376102702457 
3 14 306 167 0.01484363309591685 
3 118 96 309 0.2166069758936449 
3 108 138 47 0.161047115482248 
3 182 330 259 0.09838771499076404 
3 101 287 79 0.08627312268318887 
3 302 311 313 0.0363732829447535 
3 210 239 135 0.2362232461380962 
3 22 171 179 0.1324673449814989 
3 40 23 247 0.1491659737041463 
3 104 288 72 0.02414551939879994 
3 214 238 319 0.04056912311943905 
3 291 81 86 0.129498169478403 
3 305 176 65 0.1488448370043176 
3 52 132 320 0.1028783652719693 
3 307 28 103 0.1086968066973113 
3 54 62 67 0.008850531341033085 
3 190 8 170 0.3262066461889681 
3 123 248 251 0.01540495344299286 
3 111 321 320 0.016088254852339 
3 111 117 157 0.04690060903389226 
3 228 314 121 0.0005242501782910525 
3 22 283 171 0.04022760776429746 
3 317 154 293 0.01732310914031077 
3 182 224 251 0.1854979949295965 
3 278 184 170 0.02951358115774194 
3 311 249 313 0.02872094367615652 
3 254 149 33 0.1627703494683871 
3 190 184 237 0.483722579733293 
3 236 179 262 0.2639278282722187 
3 155 93 35 0.09401061599881277 
3 134 279 326 0.02255626157613866 
3 130 226 215 0.08883332819695045 
3 115 305 94 0.1035719028507079 
3 263 312 60 0.08389989865960867 
3 100 31 255 0.593208902770771 
3 209 205 81 0.1138066982272458 
3 290 51 85 0.312652806416492 
3 231 105 207 0.02794811034315747 
3 321 193 88 0.07089092050552048 
3 305 87 176 0.1931836931222155 
3 3 286 224 0.1904473639140344 
3 226 183 241 0.02330223607762627 
3 309 127 83 0.08537061748518093 
3 59 97 204 0.04863684519963452 
3 220 103 43 0.5151871572087534 
3 19 324 32 0.3823764702936828 
3 284 268 182 0.009205297679666491 
3 85 76 274 0.07400078621877437 
3 43 30 150 0.1747778606969075 
3 297 238 218 0.08557998243710241 
3 109 319 303 0.1218890839071548 
3 279 275 75 0.1904628327088876 
3 87 219 119 0.03803556174386902 
3 307 10 146 0.05968924624510874 
3 219 175 3 0.2813607314353036 
3 184 278 268 0.0008306126243808887 
3 315 232 30 0.009231010471259515 
3 91 289 236 0.161499832917224 
3 265 38 316 0.0160019475006784 
3 99 119 219 0.2948264047621175 
3 241 183 165 0.01990293028525814 
3 292 236 262 0.2008720765780708 
3 18 138 192 0.1911583697101074 
3 311 147 271 0.04349226872996537 
3 12 233 149 0.04607735584140227 
3 254 106 287 0.05310064774783263 
3 286 175 131 0.03844624384473971 
3 86 242 283 0.1046443262731731 
3 122 162 25 0.1003408848886392 
3 192 138 225 0.05368590453202027 
3 262 179 171 0.4626212090999432 
3 268 278 223 0.0711408343240244 
3 57 148 169 0.1371350528414282 
3 214 109 275 0.01903360079930294 
3 322 72 7 0.588030441522807 
3 135 281 197 0.19063670036314 
3 85 152 294 0.05534759711794568 
3 41 52 123 0.1145475712058539 
3 173 2 53 0.1868889660007241 
3 186 6 334 0.351301397460666 
3 156 330 223 0.003126075545220708 
3 30 201 150 0.1351968754068065 
3 262 92 117 0.02591343749263786 
3 98 48 100 0.001716311598062958 
3 16 55 144 0.3472531672877414 
3 9 133 215 0.5015992084311682 
3 201 331 55 0.10678660001743 
3 71 198 10 0.07480899250677298 
3 62 206 230 0.0799173793006327 
3 228 116 178 0.04356805164642985 
3 294 152 172 0.2565806827567255 
3 166 299 204 0.03271338849380157 
3 320 262 111 0.01587069636880256 
3 146 28 307 0.0188651089700409 
3 270 49 168 0.02928036888742636 
3 159 107 191 0.4672932616975651 
3 23 148 57 0.03099054570340687 
3 283 177 303 0.3069958962660124 
3 64 101 234 0.07005924638731642 
3 310 206 45 0.004869335591228707 
3 155 39 168 0.2008297566531614 
3 191 76 85 0.02542682696633336 
3 81 291 26 0.004496601735654582 
3 78 208 267 0.4760549605712472 
3 200 68 89 0.3685099138026305 
3 203 169 148 0.5895350111009829 
3 72 302 280 0.06835547045749302 
3 16 107 55 0.1971742841198272 
3 248 52 34 0.02495478534763029 
3 95 18 192 0.3588661796610174 
3 220 89 103 0.08000599915421236 
3 240 190 237 0.02241919973307405 
3 312 84 315 0.1089074348655975 
3 308 205 266 0.0101538270438899 
3 45 6 209 0.05945904275242198 
3 231 140 58 0.1026420169964637 
3 296 213 99 0.9051577315925219 
3 251 126 123 0.03345856537927794 
3 84 232 315 0.1288268416758337 
3 118 309 157 0.005066052715479774 
3 224 286 251 0.01550811537463337 
3 210 176 87 0.3066498528540992 
3 235 187 91 0.06782752611591925 
3 275 279 214 0.1119062832264095 
3 38 208 78 0.6054679459508763 
3 254 33 281 0.05517422914198533 
3 42 73 207 0.05695977208794312 
3 145 97 314 0.141093325101363 
3 204 97 90 0.1132121984669036 
3 323 20 21 0.08841928170224378 
3 314 189 145 0.07625137340077215 
3 206 77 230 0.01664663259149701 
3 235 292 120 0.03485863540861822 
3 44 153 300 0.0118763331042816 
3 214 279 134 0.01943303130014984 
3 63 48 318 0.7184075690877376 
3 149 233 33 0.7303448809115183 
3 31 85 51 0.7100979218073263 
3 255 5 258 0.1222416303980316 
3 207 105 19 0.0309434241677401 
3 86 81 75 0.01823369752182546 
3 31 104 5 0.07924135982927794 
3 146 297 218 0.02402991166179036 
3 69 27 284 0.07655172892390727 
3 148 80 24 0.2745872121435328 
3 195 227 229 0.009442643707528009 
3 204 137 59 0.4905310797432056 
3 219 115 175 0.2340622091349756 
3 99 259 296 0.418103744474398 
3 251 284 182 0.1247212613684665 
3 21 48 63 0.1068847624930568 
3 198 74 273 0.04264952039258707 
3 182 268 330 0.08974003664162788 
3 272 116 121 0.07018693977474999 
3 250 71 68 0.6106188023737735 
3 292 320 132 0.06840340833618119 
3 66 154 316 0.09155343471539246 
3 321 111 163 0.01594030404839053 
3 253 141 162 0.07305368364733911 
3 69 284 248 0.03502782627652234 
3 282 207 12 0.05719166470409365 
3 73 42 264 0.2359033378528569 
3 246 89 68 0.1933813227946846 
3 19 42 207 0.04516054119678437 
3 148 23 80 0.7573983988681667 
3 8 190 1 0.07809323569481463 
3 63 323 21 0.137162892263657 
3 259 234 79 0.134828272767553 
3 311 1 249 0.003863957632798787 
3 58 147 231 0.05539277485279082 
3 267 253 78 0.1798359368041835 
3 288 276 72 0.0980281406256811 
3 61 95 176 0.05868827124559517 
3 225 301 270 0.0730996359700995 
3 28 244 43 0.07176150203313347 
3 12 149 282 0.07493500405236186 
3 220 150 325 0.1442282061444897 
3 134 130 215 0.05735017942469878 
3 317 324 112 0.01217463309812761 
3 15 101 188 0.007074424908826704 
3 150 201 129 0.0697148771709265 
3 326 205 308 0.03728697108000045 
3 293 66 162 0.008527385420770695 
3 106 46 79 0.01631402979605101 
3 37 130 134 0.3429350291563216 
3 197 60 312 0.1760598292403444 
3 22 291 86 0.3373166526911217 
3 305 115 87 0.1175195258676013 
3 40 264 80 0.04121782681928798 
3 45 62 328 0.009908733704304118 
3 271 147 216 0.03480300470450992 
3 294 21 20 0.06654675543861743 
3 31 100 152 0.3313570385955502 
3 209 26 113 0.0002619794317514357 
3 296 259 36 0.02492822695029273 
3 217 63 139 0.1473904574915612 
3 68 200 44 0.01082640879168184 
3 12 73 233 0.04058086003171824 
3 144 169 290 0.109758121007514 
3 15 256 58 0.2620355716487662 
3 201 55 174 0.126106355296111 
3 322 7 212 0.171566671734277 
3 89 220 200 0.01982889513085551 
3 70 35 277 0.01389860414347166 
3 161 54 306 0.6376587231966252 
3 255 143 98 0.1670061585320253 
3 10 307 246 0.04316509387859102 
3 110 164 243 0.07877763327980891 
3 223 173 53 0.1902105617558673 
3 302 72 322 0.003410125668268482 
3 169 332 221 0.430358509850062 
3 67 82 333 0.1340847882517185 
3 180 187 277 0.01270967500439213 
3 289 230 77 0.08634380862711066 
3 222 298 91 0.03538333883127087 
3 222 187 180 0.005349701579762112 
3 161 14 165 0.2046611412381375 
3 329 118 261 0.4363874520977663 
3 280 5 104 0.8713392811862668 
3 283 329 261 0.1430782483160357 
3 13 266 189 0.04430749255607014 
3 25 24 122 0.8830386950354389 
3 120 187 235 0.1672133337385033 
3 191 110 159 0.08445549339005165 
3 192 142 65 0.4138440747396634 
3 206 113 291 0.0901510821553736 
3 75 242 86 0.01019079408025625 
3 261 92 171 0.3399927092171111 
3 92 261 118 0.4402142829885649 
3 198 71 74 0.02658640225364295 
3 124 309 96 0.4457965984745939 
3 19 160 42 0.1553937923347853 
3 129 243 325 0.2580542872250398 
3 277 120 114 0.1060545543559995 
3 286 3 175 0.1237984723913225 
3 226 241 125 0.05550470303560395 
3 68 44 250 0.2041209980168753 
3 146 10 260 0.03803461208232872 
3 281 239 106 0.05774749063897289 
3 178 37 13 0.2827913012319692 
3 222 167 298 0.001351120994916188 
3 199 58 256 0.13326300812252 
3 34 194 217 0.2457885229106284 
3 306 54 185 0.6872682169749149 
3 215 133 134 0.6863417550109649 
3 300 195 127 0.06374516654693307 
3 319 297 260 0.2364271273386409 
3 151 264 42 0.1611103708338587 
3 34 158 194 0.2616212301030849 
3 77 22 179 0.1634147307501665 
3 129 325 150 0.02206896413955539 
3 157 163 111 0.008129755715141851 
3 163 157 83 0.01140792007313307 
3 31 5 255 0.2326411366015859 
3 227 158 229 0.185658375148373 
3 190 245 1 0.005123891910031597 
3 185 54 67 0.07622284346204877 
3 322 147 302 0.03485877593372011 
3 140 231 282 0.0736297742194949 
3 212 7 4 0.03929455724557074 
3 96 74 124 0.5752114151107297 
3 308 266 13 0.09373058680023516 
3 120 132 114 0.8648567548631028 
3 200 164 153 0.07007328625663534 
3 319 198 303 0.04112551828545652 
3 40 80 23 0.1183125409422322 
3 283 242 177 0.1952126515343264 
3 107 16 76 0.2261834503572521 
3 273 118 329 0.1900685909947853 
3 55 57 144 0.3536722303549952 
3 276 288 221 0.04372583266830798 
3 302 313 258 0.02195954588467341 
3 181 225 270 0.1907021155744987 
3 229 193 127 0.3934479158728923 
3 189 186 145 0.01210805748808264 
3 303 177 109 0.3006919106486633 
3 315 102 197 0.1214937284107283 
3 175 115 70 0.04983699344777504 
3 125 241 295 0.08765604469564092 
3 167 222 56 0.02594662918026247 
3 240 318 245 0.02833620504415868 
3 93 155 168 0.04462184932855762 
3 136 318 240 0.03991245444279634 
3 52 321 88 0.003187138141161672 
3 313 245 143 0.1417236868544143 
3 299 328 62 0.2636489375715753 
3 249 245 313 0.07918951322319268 
3 308 37 134 0.05943368257332404 
3 268 223 330 0.01786428195728684 
3 186 189 266 0.104467670220585 
3 228 178 13 0.1224730195150665 
3 233 73 264 0.1920548318344664 
3 315 43 244 0.02977889700937864 
3 283 303 329 0.1711393620202624 
3 130 37 183 0.06648874783448921 
3 74 257 124 0.1032646047993536 
3 47 238 17 0.03974006264557139 
3 47 18 238 0.1829833778078608 
3 218 238 18 0.1520779916179956 
3 85 294 191 0.09395146516458297 
3 227 20 323 0.4213859778670306 
3 108 47 17 0.02583194961137447 
3 144 290 274 0.02596115872409022 
3 276 221 208 0.001528789419530607 
3 34 88 158 0.03220043908970971 
3 175 70 131 0.07203345477421419 
3 265 7 276 0.1088958515992138 
3 112 4 317 0.04620760396837686 
3 205 209 266 0.08017226925760679 
3 183 37 178 0.07886514991450544 
3 266 209 6 0.02525766395206874 
3 315 244 102 0.02183980666617247 
3 285 328 211 0.02108921419422982 
3 102 244 61 0.02900503824388256 
3 145 128 97 0.00190604676821704 
3 82 91 333 0.2312977446484978 
3 257 250 300 0.06929139486242675 
3 0 108 9 0.0610987723574633 
3 331 247 55 0.1212756679626215 
3 13 37 308 0.02694059300129548 
3 240 237 136 0.0523663252619111 
3 165 183 178 0.1653675837139156 
3 64 216 256 0.373337164313448 
